<svg width="228" height="128" viewBox="0 0 228 128" fill="none" xmlns="http://www.w3.org/2000/svg">
<g clip-path="url(#clip0_1043_12663)">
<rect width="228" height="128" rx="4" fill="white"/>
<rect x="-93" y="56.6484" width="164.742" height="48.513" rx="8" transform="rotate(-15 -93 56.6484)" fill="#1D4ED8"/>
<path d="M-33.8705 71.0972L-36.7113 60.4952L-30.653 58.8719C-30.0967 58.7228 -29.568 58.6971 -29.067 58.7947C-28.5557 58.8896 -28.1188 59.0983 -27.7563 59.4208C-27.3938 59.7433 -27.1421 60.1673 -27.0013 60.6928C-26.8881 61.1152 -26.8646 61.512 -26.9309 61.8831C-26.9971 62.2542 -27.1351 62.5838 -27.345 62.872C-27.5446 63.1574 -27.7955 63.3958 -28.0976 63.5871L-28.081 63.649C-27.6674 63.6265 -27.2808 63.6885 -26.9213 63.8351C-26.5515 63.979 -26.2307 64.2078 -25.9589 64.5214C-25.6796 64.822 -25.475 65.2145 -25.3453 65.6987C-25.1741 66.3375 -25.1799 66.9133 -25.3628 67.4261C-25.5353 67.9362 -25.8347 68.3642 -26.261 68.7104C-26.6873 69.0565 -27.1992 69.3096 -27.7968 69.4697L-33.8705 71.0972ZM-32.073 68.5947L-28.7502 67.7043C-28.369 67.6022 -28.0889 67.4112 -27.9099 67.1313C-27.7206 66.8487 -27.6867 66.4807 -27.8081 66.0274C-27.8799 65.7595 -27.9935 65.5415 -28.149 65.3733C-28.3045 65.2052 -28.4991 65.0972 -28.7328 65.0494C-28.9692 64.9912 -29.2471 65.005 -29.5665 65.0905L-32.7811 65.9519L-32.073 68.5947ZM-33.2615 64.1591L-30.2014 63.3392C-29.9232 63.2647 -29.7052 63.151 -29.5474 62.9983C-29.382 62.8325 -29.2764 62.6496 -29.2306 62.4496C-29.1773 62.2366 -29.1823 62.0115 -29.2458 61.7746C-29.3535 61.3727 -29.5483 61.0992 -29.8302 60.9538C-30.1017 60.8057 -30.4178 60.78 -30.7785 60.8766L-33.9158 61.7173L-33.2615 64.1591ZM-20.2256 67.6398C-21.0498 67.8607 -21.7648 67.8093 -22.3705 67.4857C-22.9763 67.1621 -23.4144 66.4955 -23.6849 65.4858L-25.1426 60.0457L-22.9944 59.47L-21.632 64.5547C-21.5602 64.8226 -21.4685 65.041 -21.357 65.2098C-21.2483 65.3684 -21.1221 65.4892 -20.9783 65.5722C-20.8243 65.6524 -20.6529 65.6948 -20.4639 65.6994C-20.2749 65.7039 -20.0723 65.6773 -19.8559 65.6193C-19.5365 65.5337 -19.2687 65.3791 -19.0526 65.1556C-18.8364 64.932 -18.6921 64.6669 -18.6196 64.3604C-18.5499 64.0436 -18.5606 63.7151 -18.6517 63.3751L-19.9189 58.646L-17.7707 58.0704L-15.5924 66.1996L-17.3543 66.6717L-17.807 65.6003L-17.9152 65.6293C-18.0419 65.9394 -18.213 66.2281 -18.4284 66.4957C-18.6336 66.7605 -18.8872 66.9885 -19.1893 67.1799C-19.4886 67.3816 -19.834 67.5349 -20.2256 67.6398ZM-11.1445 65.2065C-11.6597 65.3446 -12.1018 65.3637 -12.4709 65.2638C-12.84 65.1639 -13.1381 64.9787 -13.3651 64.7083C-13.595 64.4276 -13.761 64.0966 -13.8631 63.7154L-15.093 59.1253L-16.0976 59.3944L-16.5407 57.7408L-15.4588 57.4509L-15.6782 55.025L-14.0091 54.5778L-13.3879 56.896L-11.9042 56.4984L-11.4611 58.1521L-12.9448 58.5497L-11.8101 62.7843C-11.7439 63.0316 -11.6361 63.207 -11.4869 63.3106C-11.3404 63.4038 -11.1384 63.4159 -10.8808 63.3469L-10.1236 63.144L-9.74258 64.5659C-9.85517 64.6402 -9.98976 64.7149 -10.1463 64.79C-10.3001 64.8754 -10.467 64.9532 -10.6469 65.0235C-10.8241 65.1041 -10.99 65.1651 -11.1445 65.2065ZM-5.86212 63.7911C-6.37728 63.9292 -6.81941 63.9482 -7.1885 63.8484C-7.55759 63.7485 -7.85567 63.5633 -8.08274 63.2929C-8.31257 63.0121 -8.47856 62.6812 -8.5807 62.2999L-9.81061 57.7099L-10.8152 57.979L-11.2583 56.3254L-10.1764 56.0355L-10.3958 53.6096L-8.72666 53.1624L-8.10549 55.4806L-6.62183 55.083L-6.17873 56.7367L-7.66239 57.1342L-6.52773 61.3689C-6.46147 61.6161 -6.35373 61.7916 -6.20451 61.8951C-6.05804 61.9884 -5.85602 62.0005 -5.59844 61.9315L-4.84115 61.7286L-4.46017 63.1504C-4.57277 63.2248 -4.70735 63.2995 -4.86392 63.3746C-5.01773 63.46 -5.1846 63.5378 -5.36454 63.6081C-5.54171 63.6887 -5.70757 63.7497 -5.86212 63.7911ZM0.733944 62.0237C-0.152132 62.2611 -0.944297 62.3133 -1.64255 62.1801C-2.34357 62.0367 -2.93798 61.6935 -3.42578 61.1506C-3.91634 60.5974 -4.29 59.8417 -4.54675 58.8835C-4.80902 57.9047 -4.86328 57.0634 -4.70952 56.3596C-4.55853 55.6455 -4.21396 55.0562 -3.67583 54.5918C-3.14046 54.1171 -2.42974 53.761 -1.54366 53.5236C-0.636982 53.2806 0.161715 53.2323 0.852427 53.3785C1.55068 53.5116 2.14371 53.8496 2.63151 54.3926C3.11656 54.9252 3.49022 55.6809 3.75249 56.6597C4.00923 57.6179 4.06349 58.4592 3.91526 59.1836C3.76426 59.8976 3.42108 60.492 2.88571 60.9668C2.35788 61.4285 1.64063 61.7808 0.733944 62.0237ZM0.286705 60.3546C0.760652 60.2276 1.11325 60.0393 1.34451 59.7896C1.58606 59.5371 1.7255 59.2126 1.76282 58.8161C1.80013 58.4196 1.74839 57.9586 1.60759 57.4332L1.50821 57.0623C1.36741 56.5368 1.18173 56.1117 0.95116 55.787C0.720593 55.4623 0.437598 55.251 0.102175 55.1531C-0.225704 55.0422 -0.626618 55.0502 -1.10057 55.1772C-1.56421 55.3015 -1.91543 55.495 -2.15423 55.7577C-2.38548 56.0074 -2.51977 56.3305 -2.55708 56.727C-2.5944 57.1235 -2.54266 57.5845 -2.40186 58.11L-2.30247 58.4809C-2.16168 59.0063 -1.97599 59.4314 -1.74543 59.7562C-1.51486 60.0809 -1.23701 60.2935 -0.911896 60.3942C-0.576473 60.492 -0.17694 60.4788 0.286705 60.3546ZM6.42233 60.3007L4.24411 52.1715L6.02141 51.6953L6.48958 52.7625L6.59776 52.7335C6.71144 52.4159 6.87084 52.1247 7.07597 51.86C7.2914 51.5924 7.55016 51.363 7.85226 51.1716C8.15435 50.9802 8.50116 50.8321 8.89268 50.7272C9.42845 50.5836 9.92347 50.5559 10.3778 50.644C10.832 50.732 11.2239 50.9583 11.5535 51.3228C11.8934 51.6845 12.1544 52.2053 12.3366 52.8853L13.7943 58.3254L11.6461 58.901L10.2795 53.801C10.2105 53.5434 10.1216 53.3353 10.0128 53.1767C9.90133 53.0078 9.76857 52.8833 9.61456 52.8031C9.4681 52.7098 9.30039 52.6609 9.11143 52.6563C8.92247 52.6517 8.71981 52.6784 8.50344 52.7364C8.18404 52.8219 7.91626 52.9765 7.70009 53.2001C7.48392 53.4237 7.3396 53.6887 7.26713 53.9952C7.19467 54.3018 7.20537 54.6302 7.29923 54.9805L8.57055 59.7251L6.42233 60.3007ZM19.0609 57.113C18.4943 57.2648 17.9677 57.3397 17.4812 57.3375C16.9947 57.3354 16.5628 57.2689 16.1854 57.1381C15.8053 56.997 15.4863 56.7954 15.2283 56.5332C14.9806 56.2683 14.8043 55.9401 14.6994 55.5485C14.6884 55.5073 14.6773 55.4661 14.6663 55.4249C14.6552 55.3837 14.6521 55.3514 14.6569 55.328L16.7278 54.7731C16.7334 54.7937 16.7389 54.8143 16.7444 54.835C16.7499 54.8556 16.7554 54.8762 16.761 54.8968C16.8403 55.1516 16.9793 55.3407 17.178 55.4642C17.374 55.5773 17.6053 55.6368 17.8719 55.6427C18.1488 55.6458 18.4263 55.61 18.7045 55.5355C18.9518 55.4693 19.1832 55.3851 19.3989 55.2832C19.622 55.1682 19.7943 55.0282 19.9157 54.8631C20.0475 54.6953 20.0871 54.5135 20.0346 54.3177C19.9684 54.0705 19.8143 53.9075 19.5723 53.8287C19.3407 53.7473 19.049 53.7095 18.6972 53.7154C18.3557 53.7185 17.9805 53.7197 17.5717 53.7188C17.1993 53.7302 16.8242 53.7314 16.4462 53.7222C16.0656 53.7027 15.7075 53.6441 15.3721 53.5462C15.047 53.4456 14.7596 53.2797 14.5099 53.0484C14.2574 52.8069 14.0732 52.4697 13.9573 52.037C13.8441 51.6145 13.8388 51.2239 13.9414 50.8651C14.0413 50.4961 14.2233 50.1657 14.4875 49.874C14.762 49.5796 15.1032 49.3281 15.5111 49.1194C15.9265 48.8977 16.3867 48.7191 16.8915 48.5839C17.3655 48.4569 17.8223 48.3897 18.262 48.3823C18.699 48.3646 19.0983 48.4122 19.4598 48.5251C19.8186 48.6278 20.1242 48.7999 20.3767 49.0414C20.6264 49.2727 20.7982 49.5635 20.892 49.9138C20.9114 49.9859 20.9293 50.0529 20.9459 50.1147C20.9624 50.1765 20.9683 50.2191 20.9635 50.2425L18.9081 50.7932L18.8749 50.6696C18.8252 50.4841 18.7271 50.3448 18.5807 50.2515C18.4315 50.1479 18.239 50.0891 18.0033 50.0749C17.7779 50.058 17.5158 50.0896 17.217 50.1697C17.011 50.2249 16.8245 50.2914 16.6576 50.3692C16.5011 50.4443 16.3692 50.5293 16.2622 50.6243C16.1551 50.7192 16.0779 50.8227 16.0306 50.9348C15.9909 51.0338 15.9876 51.1451 16.0207 51.2687C16.0677 51.4439 16.1784 51.5688 16.3531 51.6435C16.5352 51.7051 16.7596 51.7389 17.0262 51.7447C17.2928 51.7506 17.5865 51.7547 17.9074 51.7571C18.3059 51.7607 18.7199 51.7602 19.1493 51.7556C19.5863 51.7379 20.002 51.7645 20.3965 51.8355C20.791 51.9065 21.1378 52.0675 21.437 52.3187C21.7335 52.5595 21.9507 52.9375 22.0887 53.4526C22.2212 53.9472 22.2352 54.3907 22.1305 54.7832C22.0362 55.1729 21.8466 55.5163 21.5618 55.8135C21.277 56.1106 20.9204 56.3663 20.4919 56.5805C20.0634 56.7947 19.5864 56.9722 19.0609 57.113Z" fill="white"/>
<rect x="140.586" y="-22.4433" width="163.742" height="47.513" rx="7.5" transform="rotate(-15 140.586 -22.4433)" fill="#E5E7EB"/>
<rect x="140.586" y="-22.4433" width="163.742" height="47.513" rx="7.5" transform="rotate(-15 140.586 -22.4433)" stroke="#D1D5DB"/>
<rect x="-13.9092" y="102.422" width="164.742" height="48.513" rx="8" transform="rotate(-15 -13.9092 102.422)" fill="#1E3A8A"/>
<path d="M45.2203 116.871L42.3795 106.269L48.4378 104.645C48.9941 104.496 49.5228 104.471 50.0239 104.568C50.5352 104.663 50.9721 104.872 51.3346 105.194C51.697 105.517 51.9487 105.941 52.0895 106.466C52.2027 106.889 52.2262 107.285 52.16 107.657C52.0938 108.028 51.9557 108.357 51.7458 108.645C51.5462 108.931 51.2953 109.169 50.9932 109.361L51.0098 109.422C51.4234 109.4 51.81 109.462 52.1695 109.609C52.5393 109.752 52.8602 109.981 53.1319 110.295C53.4113 110.595 53.6158 110.988 53.7456 111.472C53.9167 112.111 53.9109 112.687 53.728 113.2C53.5555 113.71 53.2561 114.138 52.8298 114.484C52.4035 114.83 51.8916 115.083 51.294 115.243L45.2203 116.871ZM47.0178 114.368L50.3406 113.478C50.7218 113.376 51.0019 113.185 51.1809 112.905C51.3702 112.622 51.4042 112.254 51.2827 111.801C51.2109 111.533 51.0973 111.315 50.9418 111.147C50.7863 110.979 50.5917 110.871 50.3581 110.823C50.1216 110.765 49.8437 110.778 49.5243 110.864L46.3097 111.725L47.0178 114.368ZM45.8293 109.933L48.8894 109.113C49.1676 109.038 49.3856 108.924 49.5434 108.772C49.7088 108.606 49.8144 108.423 49.8602 108.223C49.9136 108.01 49.9085 107.785 49.845 107.548C49.7373 107.146 49.5425 106.873 49.2607 106.727C48.9891 106.579 48.673 106.553 48.3124 106.65L45.175 107.491L45.8293 109.933ZM58.8653 113.413C58.041 113.634 57.326 113.583 56.7203 113.259C56.1146 112.936 55.6764 112.269 55.4059 111.259L53.9482 105.819L56.0964 105.243L57.4589 110.328C57.5306 110.596 57.6223 110.814 57.7338 110.983C57.8425 111.142 57.9688 111.263 58.1125 111.346C58.2665 111.426 58.438 111.468 58.6269 111.473C58.8159 111.477 59.0185 111.451 59.2349 111.393C59.5543 111.307 59.8221 111.153 60.0383 110.929C60.2544 110.705 60.3987 110.44 60.4712 110.134C60.5409 109.817 60.5302 109.489 60.4391 109.149L59.1719 104.419L61.3202 103.844L63.4984 111.973L61.7365 112.445L61.2838 111.374L61.1756 111.403C61.0489 111.713 60.8778 112.002 60.6624 112.269C60.4573 112.534 60.2036 112.762 59.9015 112.953C59.6022 113.155 59.2568 113.308 58.8653 113.413ZM67.9463 110.98C67.4311 111.118 66.989 111.137 66.6199 111.037C66.2508 110.937 65.9527 110.752 65.7257 110.482C65.4958 110.201 65.3299 109.87 65.2277 109.489L63.9978 104.899L62.9932 105.168L62.5501 103.514L63.632 103.224L63.4126 100.798L65.0818 100.351L65.7029 102.669L67.1866 102.272L67.6297 103.926L66.146 104.323L67.2807 108.558C67.3469 108.805 67.4547 108.98 67.6039 109.084C67.7504 109.177 67.9524 109.189 68.21 109.12L68.9673 108.917L69.3482 110.339C69.2356 110.414 69.1011 110.488 68.9445 110.563C68.7907 110.649 68.6238 110.727 68.4439 110.797C68.2667 110.878 68.1008 110.939 67.9463 110.98ZM73.2287 109.565C72.7135 109.703 72.2714 109.722 71.9023 109.622C71.5332 109.522 71.2351 109.337 71.0081 109.066C70.7783 108.786 70.6123 108.455 70.5101 108.073L69.2802 103.483L68.2756 103.752L67.8325 102.099L68.9144 101.809L68.695 99.383L70.3642 98.9358L70.9853 101.254L72.469 100.856L72.9121 102.51L71.4284 102.908L72.5631 107.142C72.6293 107.39 72.7371 107.565 72.8863 107.669C73.0328 107.762 73.2348 107.774 73.4924 107.705L74.2497 107.502L74.6306 108.924C74.5181 108.998 74.3835 109.073 74.2269 109.148C74.0731 109.233 73.9062 109.311 73.7263 109.382C73.5491 109.462 73.3832 109.523 73.2287 109.565ZM79.8248 107.797C78.9387 108.035 78.1465 108.087 77.4483 107.954C76.7473 107.81 76.1528 107.467 75.665 106.924C75.1745 106.371 74.8008 105.615 74.5441 104.657C74.2818 103.678 74.2275 102.837 74.3813 102.133C74.5323 101.419 74.8769 100.83 75.415 100.365C75.9504 99.8905 76.6611 99.5344 77.5472 99.297C78.4538 99.0541 79.2525 99.0057 79.9432 99.1519C80.6415 99.2851 81.2345 99.6231 81.7223 100.166C82.2074 100.699 82.581 101.454 82.8433 102.433C83.1001 103.391 83.1543 104.233 83.0061 104.957C82.8551 105.671 82.5119 106.265 81.9765 106.74C81.4487 107.202 80.7314 107.554 79.8248 107.797ZM79.3775 106.128C79.8515 106.001 80.2041 105.813 80.4353 105.563C80.6769 105.311 80.8163 104.986 80.8536 104.59C80.891 104.193 80.8392 103.732 80.6984 103.207L80.599 102.836C80.4582 102.31 80.2725 101.885 80.042 101.56C79.8114 101.236 79.5284 101.024 79.193 100.927C78.8651 100.816 78.4642 100.824 77.9903 100.951C77.5266 101.075 77.1754 101.268 76.9366 101.531C76.7053 101.781 76.5711 102.104 76.5337 102.5C76.4964 102.897 76.5482 103.358 76.689 103.883L76.7883 104.254C76.9291 104.78 77.1148 105.205 77.3454 105.53C77.576 105.854 77.8538 106.067 78.1789 106.168C78.5143 106.265 78.9139 106.252 79.3775 106.128ZM85.5132 106.074L83.3349 97.9449L85.1122 97.4687L85.5804 98.5359L85.6886 98.5069C85.8023 98.1893 85.9617 97.8982 86.1668 97.6334C86.3822 97.3659 86.641 97.1364 86.9431 96.945C87.2452 96.7536 87.592 96.6055 87.9835 96.5006C88.5193 96.357 89.0143 96.3293 89.4686 96.4174C89.9228 96.5055 90.3148 96.7318 90.6443 97.0962C90.9842 97.4579 91.2452 97.9788 91.4274 98.6588L92.8851 104.099L90.7369 104.674L89.3703 99.5744C89.3013 99.3168 89.2124 99.1087 89.1037 98.9501C88.9921 98.7812 88.8594 98.6567 88.7054 98.5765C88.5589 98.4832 88.3912 98.4343 88.2022 98.4297C88.0133 98.4251 87.8106 98.4518 87.5943 98.5098C87.2749 98.5954 87.0071 98.75 86.7909 98.9735C86.5747 99.1971 86.4304 99.4621 86.358 99.7687C86.2855 100.075 86.2962 100.404 86.3901 100.754L87.6614 105.499L85.5132 106.074ZM98.1518 102.886C97.5851 103.038 97.0585 103.113 96.572 103.111C96.0856 103.109 95.6536 103.042 95.2763 102.912C94.8961 102.77 94.5771 102.569 94.3191 102.307C94.0714 102.042 93.8951 101.714 93.7902 101.322C93.7792 101.281 93.7681 101.24 93.7571 101.198C93.7461 101.157 93.7429 101.125 93.7477 101.101L95.8187 100.547C95.8242 100.567 95.8297 100.588 95.8352 100.608C95.8407 100.629 95.8463 100.65 95.8518 100.67C95.9311 100.925 96.0701 101.114 96.2688 101.238C96.4648 101.351 96.6961 101.41 96.9627 101.416C97.2396 101.419 97.5171 101.383 97.7953 101.309C98.0426 101.243 98.2741 101.159 98.4897 101.057C98.7129 100.942 98.8851 100.802 99.0066 100.637C99.1383 100.469 99.1779 100.287 99.1255 100.091C99.0592 99.8439 98.9051 99.6809 98.6632 99.6022C98.4315 99.5207 98.1398 99.4829 97.788 99.4888C97.4465 99.492 97.0714 99.4931 96.6625 99.4922C96.2901 99.5037 95.915 99.5048 95.5371 99.4956C95.1564 99.4762 94.7983 99.4175 94.4629 99.3197C94.1378 99.219 93.8504 99.0531 93.6007 98.8219C93.3482 98.5803 93.164 98.2431 93.0481 97.8104C92.9349 97.388 92.9296 96.9974 93.0322 96.6386C93.1321 96.2695 93.3142 95.9391 93.5783 95.6475C93.8528 95.3531 94.194 95.1015 94.6019 94.8928C95.0173 94.6711 95.4775 94.4926 95.9823 94.3573C96.4563 94.2303 96.9131 94.1631 97.3529 94.1557C97.7898 94.138 98.1891 94.1856 98.5506 94.2986C98.9094 94.4012 99.2151 94.5733 99.4675 94.8149C99.7172 95.0461 99.889 95.3369 99.9829 95.6872C100.002 95.7593 100.02 95.8263 100.037 95.8881C100.053 95.9499 100.059 95.9925 100.054 96.0159L97.9989 96.5667L97.9657 96.443C97.916 96.2576 97.818 96.1182 97.6715 96.0249C97.5223 95.9214 97.3298 95.8625 97.0941 95.8484C96.8687 95.8315 96.6066 95.863 96.3079 95.9431C96.1018 95.9983 95.9153 96.0648 95.7485 96.1427C95.5919 96.2178 95.4601 96.3028 95.353 96.3977C95.2459 96.4927 95.1687 96.5962 95.1215 96.7082C95.0817 96.8072 95.0784 96.9185 95.1116 97.0422C95.1585 97.2173 95.2693 97.3422 95.4439 97.4169C95.626 97.4786 95.8504 97.5123 96.117 97.5182C96.3836 97.524 96.6774 97.5281 96.9982 97.5305C97.3968 97.5341 97.8107 97.5337 98.2402 97.529C98.6771 97.5113 99.0929 97.538 99.4873 97.6089C99.8818 97.6799 100.229 97.841 100.528 98.0921C100.824 98.3329 101.042 98.7109 101.18 99.2261C101.312 99.7206 101.326 100.164 101.221 100.557C101.127 100.946 100.937 101.29 100.653 101.587C100.368 101.884 100.011 102.14 99.5827 102.354C99.1542 102.568 98.6772 102.746 98.1518 102.886Z" fill="white"/>
<g clip-path="url(#clip1_1043_12663)">
<rect x="94.3047" y="56.6875" width="164.742" height="48.513" rx="8" transform="rotate(-105 94.3047 56.6875)" fill="#D1D5DB"/>
<path d="M108.75 -2.44343L98.1475 0.397372L96.5242 -5.66092C96.3751 -6.21729 96.3494 -6.74598 96.4471 -7.24699C96.542 -7.75831 96.7507 -8.19521 97.0732 -8.5577C97.3957 -8.92019 97.8197 -9.17183 98.3451 -9.31263C98.7676 -9.42582 99.1643 -9.44931 99.5354 -9.38311C99.9066 -9.31691 100.236 -9.17885 100.524 -8.96894C100.81 -8.76934 101.048 -8.51849 101.239 -8.21639L101.301 -8.23296C101.279 -8.64656 101.341 -9.03313 101.487 -9.39266C101.631 -9.76249 101.86 -10.0833 102.174 -10.3551C102.474 -10.6344 102.867 -10.8389 103.351 -10.9687C103.99 -11.1399 104.566 -11.134 105.078 -10.9512C105.589 -10.7786 106.017 -10.4792 106.363 -10.053C106.709 -9.62669 106.962 -9.11476 107.122 -8.51717L108.75 -2.44343ZM106.247 -4.24098L105.357 -7.56376C105.255 -7.94498 105.064 -8.22509 104.784 -8.40409C104.501 -8.59339 104.133 -8.62731 103.68 -8.50583C103.412 -8.43405 103.194 -8.32042 103.026 -8.16494C102.858 -8.00945 102.75 -7.81487 102.702 -7.5812C102.644 -7.34477 102.657 -7.06685 102.743 -6.74745L103.604 -3.53285L106.247 -4.24098ZM101.811 -3.05248L100.992 -6.11254C100.917 -6.39072 100.803 -6.60874 100.651 -6.76659C100.485 -6.93198 100.302 -7.03758 100.102 -7.08337C99.8889 -7.13671 99.6639 -7.13163 99.4269 -7.06814C99.0251 -6.96047 98.7515 -6.76569 98.6062 -6.48381C98.4581 -6.21222 98.4324 -5.89613 98.529 -5.53551L99.3696 -2.39819L101.811 -3.05248ZM105.292 -16.0884C105.513 -15.2641 105.462 -14.5492 105.138 -13.9434C104.814 -13.3377 104.148 -12.8996 103.138 -12.629L97.698 -11.1714L97.1224 -13.3196L102.207 -14.682C102.475 -14.7538 102.693 -14.8454 102.862 -14.9569C103.021 -15.0657 103.142 -15.1919 103.225 -15.3356C103.305 -15.4896 103.347 -15.6611 103.352 -15.8501C103.356 -16.039 103.33 -16.2417 103.272 -16.4581C103.186 -16.7775 103.031 -17.0452 102.808 -17.2614C102.584 -17.4776 102.319 -17.6219 102.013 -17.6944C101.696 -17.7641 101.367 -17.7534 101.027 -17.6623L96.2983 -16.3951L95.7227 -18.5433L103.852 -20.7215L104.324 -18.9597L103.253 -18.507L103.282 -18.3988C103.592 -18.272 103.88 -18.101 104.148 -17.8855C104.413 -17.6804 104.641 -17.4268 104.832 -17.1247C105.034 -16.8254 105.187 -16.4799 105.292 -16.0884ZM102.859 -25.1694C102.997 -24.6543 103.016 -24.2121 102.916 -23.8431C102.816 -23.474 102.631 -23.1759 102.361 -22.9488C102.08 -22.719 101.749 -22.553 101.368 -22.4509L96.7776 -21.2209L97.0468 -20.2164L95.3931 -19.7733L95.1032 -20.8551L92.6774 -20.6358L92.2301 -22.3049L94.5483 -22.9261L94.1508 -24.4097L95.8045 -24.8528L96.202 -23.3692L100.437 -24.5038C100.684 -24.5701 100.859 -24.6778 100.963 -24.8271C101.056 -24.9735 101.068 -25.1755 100.999 -25.4331L100.796 -26.1904L102.218 -26.5714C102.293 -26.4588 102.367 -26.3242 102.442 -26.1676C102.528 -26.0138 102.606 -25.847 102.676 -25.667C102.756 -25.4898 102.817 -25.324 102.859 -25.1694ZM101.443 -30.4518C101.582 -29.9367 101.601 -29.4946 101.501 -29.1255C101.401 -28.7564 101.216 -28.4583 100.945 -28.2312C100.664 -28.0014 100.333 -27.8354 99.9523 -27.7333L95.3622 -26.5034L95.6314 -25.4988L93.9777 -25.0557L93.6878 -26.1375L91.2619 -25.9182L90.8147 -27.5873L93.1329 -28.2085L92.7354 -29.6921L94.389 -30.1352L94.7866 -28.6516L99.0212 -29.7862C99.2685 -29.8525 99.4439 -29.9602 99.5475 -30.1095C99.6407 -30.2559 99.6529 -30.4579 99.5839 -30.7155L99.3809 -31.4728L100.803 -31.8538C100.877 -31.7412 100.952 -31.6066 101.027 -31.45C101.112 -31.2962 101.19 -31.1294 101.26 -30.9494C101.341 -30.7723 101.402 -30.6064 101.443 -30.4518ZM99.6761 -37.0479C99.9135 -36.1618 99.9656 -35.3697 99.8325 -34.6714C99.689 -33.9704 99.3458 -33.376 98.8029 -32.8882C98.2497 -32.3976 97.494 -32.024 96.5358 -31.7672C95.557 -31.5049 94.7157 -31.4507 94.0119 -31.6044C93.2978 -31.7554 92.7086 -32.1 92.2442 -32.6381C91.7694 -33.1735 91.4133 -33.8842 91.1759 -34.7703C90.933 -35.677 90.8846 -36.4757 91.0308 -37.1664C91.164 -37.8646 91.502 -38.4577 92.0449 -38.9455C92.5775 -39.4305 93.3332 -39.8042 94.312 -40.0664C95.2702 -40.3232 96.1115 -40.3775 96.8359 -40.2292C97.55 -40.0782 98.1444 -39.735 98.6191 -39.1997C99.0808 -38.6718 99.4331 -37.9546 99.6761 -37.0479ZM98.0069 -36.6007C97.8799 -37.0746 97.6916 -37.4272 97.4419 -37.6585C97.1894 -37.9 96.865 -38.0395 96.4685 -38.0768C96.072 -38.1141 95.611 -38.0624 95.0855 -37.9216L94.7146 -37.8222C94.1891 -37.6814 93.764 -37.4957 93.4393 -37.2651C93.1146 -37.0346 92.9033 -36.7516 92.8055 -36.4161C92.6945 -36.0883 92.7026 -35.6873 92.8296 -35.2134C92.9538 -34.7498 93.1473 -34.3985 93.4101 -34.1597C93.6598 -33.9285 93.9829 -33.7942 94.3794 -33.7569C94.7759 -33.7196 95.2368 -33.7713 95.7623 -33.9121L96.1332 -34.0115C96.6587 -34.1523 97.0838 -34.338 97.4085 -34.5685C97.7332 -34.7991 97.9459 -35.0769 98.0465 -35.4021C98.1444 -35.7375 98.1312 -36.137 98.0069 -36.6007ZM97.9531 -42.7363L89.8238 -40.5581L89.3476 -42.3354L90.4148 -42.8035L90.3858 -42.9117C90.0683 -43.0254 89.7771 -43.1848 89.5123 -43.3899C89.2448 -43.6054 89.0153 -43.8641 88.8239 -44.1662C88.6325 -44.4683 88.4844 -44.8151 88.3795 -45.2066C88.2359 -45.7424 88.2082 -46.2374 88.2963 -46.6917C88.3844 -47.146 88.6107 -47.5379 88.9751 -47.8675C89.3368 -48.2073 89.8577 -48.4684 90.5377 -48.6506L95.9778 -50.1082L96.5534 -47.96L91.4533 -46.5935C91.1957 -46.5244 90.9876 -46.4356 90.829 -46.3268C90.6601 -46.2153 90.5356 -46.0825 90.4554 -45.9285C90.3621 -45.7821 90.3132 -45.6143 90.3086 -45.4254C90.304 -45.2364 90.3307 -45.0338 90.3887 -44.8174C90.4743 -44.498 90.6289 -44.2302 90.8524 -44.014C91.076 -43.7979 91.341 -43.6536 91.6476 -43.5811C91.9541 -43.5086 92.2825 -43.5193 92.6328 -43.6132L97.3775 -44.8845L97.9531 -42.7363ZM94.7653 -55.3749C94.9172 -54.8082 94.992 -54.2817 94.9899 -53.7952C94.9877 -53.3087 94.9212 -52.8768 94.7904 -52.4994C94.6493 -52.1193 94.4477 -51.8002 94.1856 -51.5422C93.9206 -51.2946 93.5924 -51.1183 93.2009 -51.0134C93.1597 -51.0023 93.1185 -50.9913 93.0772 -50.9802C93.036 -50.9692 93.0037 -50.9661 92.9804 -50.9709L92.4255 -53.0418C92.4461 -53.0473 92.4667 -53.0528 92.4873 -53.0584C92.5079 -53.0639 92.5285 -53.0694 92.5491 -53.0749C92.8039 -53.1542 92.9931 -53.2933 93.1165 -53.492C93.2296 -53.6879 93.2891 -53.9192 93.295 -54.1858C93.2981 -54.4627 93.2624 -54.7403 93.1878 -55.0185C93.1216 -55.2657 93.0375 -55.4972 92.9355 -55.7128C92.8205 -55.936 92.6805 -56.1083 92.5154 -56.2297C92.3476 -56.3614 92.1658 -56.4011 91.9701 -56.3486C91.7228 -56.2824 91.5598 -56.1282 91.4811 -55.8863C91.3996 -55.6546 91.3618 -55.3629 91.3677 -55.0111C91.3709 -54.6696 91.372 -54.2945 91.3711 -53.8857C91.3826 -53.5133 91.3837 -53.1381 91.3745 -52.7602C91.3551 -52.3795 91.2964 -52.0215 91.1986 -51.6861C91.0979 -51.3609 90.932 -51.0735 90.7008 -50.8238C90.4592 -50.5714 90.1221 -50.3872 89.6893 -50.2712C89.2669 -50.158 88.8763 -50.1528 88.5175 -50.2554C88.1484 -50.3553 87.818 -50.5373 87.5264 -50.8015C87.232 -51.076 86.9804 -51.4172 86.7717 -51.825C86.55 -52.2405 86.3715 -52.7006 86.2362 -53.2055C86.1092 -53.6794 86.042 -54.1363 86.0346 -54.576C86.0169 -55.013 86.0645 -55.4122 86.1775 -55.7738C86.2801 -56.1326 86.4522 -56.4382 86.6938 -56.6907C86.925 -56.9403 87.2158 -57.1121 87.5661 -57.206C87.6382 -57.2253 87.7052 -57.2433 87.767 -57.2598C87.8288 -57.2764 87.8714 -57.2823 87.8948 -57.2775L88.4456 -55.222L88.3219 -55.1889C88.1365 -55.1392 87.9971 -55.0411 87.9038 -54.8946C87.8003 -54.7454 87.7414 -54.553 87.7273 -54.3173C87.7104 -54.0919 87.7419 -53.8298 87.822 -53.531C87.8772 -53.3249 87.9437 -53.1385 88.0216 -52.9716C88.0967 -52.815 88.1817 -52.6832 88.2766 -52.5761C88.3716 -52.4691 88.4751 -52.3919 88.5871 -52.3446C88.6861 -52.3049 88.7974 -52.3016 88.9211 -52.3347C89.0962 -52.3816 89.2211 -52.4924 89.2958 -52.667C89.3575 -52.8492 89.3912 -53.0735 89.3971 -53.3402C89.4029 -53.6068 89.407 -53.9005 89.4094 -54.2214C89.413 -54.6199 89.4126 -55.0339 89.4079 -55.4633C89.3902 -55.9003 89.4169 -56.316 89.4878 -56.7105C89.5588 -57.105 89.7199 -57.4518 89.971 -57.751C90.2118 -58.0474 90.5898 -58.2647 91.105 -58.4027C91.5995 -58.5352 92.043 -58.5491 92.4355 -58.4445C92.8252 -58.3501 93.1686 -58.1606 93.4658 -57.8758C93.763 -57.591 94.0186 -57.2343 94.2328 -56.8058C94.4471 -56.3773 94.6245 -55.9004 94.7653 -55.3749Z" fill="white"/>
</g>
<g clip-path="url(#clip2_1043_12663)">
<rect x="198.983" y="198.734" width="164.742" height="48.513" rx="8" transform="rotate(-105 198.983 198.734)" fill="white"/>
<path d="M213.428 139.603L202.826 142.444L201.202 136.386C201.053 135.83 201.028 135.301 201.125 134.8C201.22 134.289 201.429 133.852 201.751 133.489C202.074 133.127 202.498 132.875 203.023 132.734C203.446 132.621 203.843 132.598 204.214 132.664C204.585 132.73 204.914 132.868 205.203 133.078C205.488 133.278 205.726 133.528 205.918 133.83L205.98 133.814C205.957 133.4 206.019 133.014 206.166 132.654C206.31 132.284 206.538 131.964 206.852 131.692C207.153 131.412 207.545 131.208 208.029 131.078C208.668 130.907 209.244 130.913 209.757 131.096C210.267 131.268 210.695 131.568 211.041 131.994C211.387 132.42 211.64 132.932 211.8 133.53L213.428 139.603ZM210.925 137.806L210.035 134.483C209.933 134.102 209.742 133.822 209.462 133.643C209.179 133.453 208.811 133.42 208.358 133.541C208.09 133.613 207.872 133.726 207.704 133.882C207.536 134.037 207.428 134.232 207.38 134.466C207.322 134.702 207.336 134.98 207.421 135.299L208.282 138.514L210.925 137.806ZM206.49 138.994L205.67 135.934C205.595 135.656 205.482 135.438 205.329 135.28C205.163 135.115 204.98 135.009 204.78 134.964C204.567 134.91 204.342 134.915 204.105 134.979C203.703 135.086 203.43 135.281 203.284 135.563C203.136 135.835 203.111 136.151 203.207 136.511L204.048 139.649L206.49 138.994ZM209.97 125.958C210.191 126.783 210.14 127.498 209.816 128.103C209.493 128.709 208.826 129.147 207.816 129.418L202.376 130.876L201.801 128.727L206.885 127.365C207.153 127.293 207.372 127.201 207.54 127.09C207.699 126.981 207.82 126.855 207.903 126.711C207.983 126.557 208.025 126.386 208.03 126.197C208.035 126.008 208.008 125.805 207.95 125.589C207.864 125.269 207.71 125.002 207.486 124.785C207.263 124.569 206.998 124.425 206.691 124.353C206.374 124.283 206.046 124.294 205.706 124.385L200.977 125.652L200.401 123.504L208.53 121.325L209.002 123.087L207.931 123.54L207.96 123.648C208.27 123.775 208.559 123.946 208.826 124.161C209.091 124.366 209.319 124.62 209.51 124.922C209.712 125.222 209.865 125.567 209.97 125.958ZM207.537 116.877C207.675 117.393 207.694 117.835 207.594 118.204C207.494 118.573 207.309 118.871 207.039 119.098C206.758 119.328 206.427 119.494 206.046 119.596L201.456 120.826L201.725 121.83L200.071 122.274L199.781 121.192L197.356 121.411L196.908 119.742L199.227 119.121L198.829 117.637L200.483 117.194L200.88 118.678L205.115 117.543C205.362 117.477 205.538 117.369 205.641 117.22C205.734 117.073 205.747 116.871 205.677 116.614L205.475 115.856L206.896 115.475C206.971 115.588 207.045 115.723 207.121 115.879C207.206 116.033 207.284 116.2 207.354 116.38C207.435 116.557 207.496 116.723 207.537 116.877ZM206.122 111.595C206.26 112.11 206.279 112.552 206.179 112.921C206.079 113.291 205.894 113.589 205.623 113.816C205.343 114.045 205.012 114.211 204.63 114.314L200.04 115.544L200.31 116.548L198.656 116.991L198.366 115.909L195.94 116.129L195.493 114.46L197.811 113.838L197.414 112.355L199.067 111.912L199.465 113.395L203.699 112.261C203.947 112.194 204.122 112.087 204.226 111.937C204.319 111.791 204.331 111.589 204.262 111.331L204.059 110.574L205.481 110.193C205.555 110.306 205.63 110.44 205.705 110.597C205.791 110.751 205.868 110.918 205.939 111.097C206.019 111.275 206.08 111.44 206.122 111.595ZM204.354 104.999C204.592 105.885 204.644 106.677 204.511 107.375C204.367 108.076 204.024 108.671 203.481 109.159C202.928 109.649 202.172 110.023 201.214 110.28C200.235 110.542 199.394 110.596 198.69 110.442C197.976 110.291 197.387 109.947 196.922 109.409C196.448 108.873 196.092 108.163 195.854 107.277C195.611 106.37 195.563 105.571 195.709 104.88C195.842 104.182 196.18 103.589 196.723 103.101C197.256 102.616 198.011 102.243 198.99 101.98C199.948 101.724 200.79 101.669 201.514 101.818C202.228 101.969 202.823 102.312 203.297 102.847C203.759 103.375 204.111 104.092 204.354 104.999ZM202.685 105.446C202.558 104.972 202.37 104.62 202.12 104.388C201.868 104.147 201.543 104.007 201.147 103.97C200.75 103.933 200.289 103.985 199.764 104.125L199.393 104.225C198.867 104.366 198.442 104.551 198.118 104.782C197.793 105.012 197.582 105.295 197.484 105.631C197.373 105.959 197.381 106.36 197.508 106.833C197.632 107.297 197.826 107.648 198.088 107.887C198.338 108.118 198.661 108.253 199.058 108.29C199.454 108.327 199.915 108.276 200.441 108.135L200.811 108.035C201.337 107.895 201.762 107.709 202.087 107.478C202.411 107.248 202.624 106.97 202.725 106.645C202.823 106.309 202.809 105.91 202.685 105.446ZM202.631 99.3106L194.502 101.489L194.026 99.7115L195.093 99.2433L195.064 99.1352C194.746 99.0215 194.455 98.8621 194.191 98.6569C193.923 98.4415 193.694 98.1828 193.502 97.8807C193.311 97.5786 193.163 97.2318 193.058 96.8402C192.914 96.3045 192.886 95.8094 192.975 95.3552C193.063 94.9009 193.289 94.509 193.653 94.1794C194.015 93.8395 194.536 93.5785 195.216 93.3963L200.656 91.9386L201.232 94.0869L196.132 95.4534C195.874 95.5224 195.666 95.6113 195.507 95.7201C195.338 95.8316 195.214 95.9643 195.134 96.1184C195.04 96.2648 194.991 96.4325 194.987 96.6215C194.982 96.8104 195.009 97.0131 195.067 97.2295C195.153 97.5489 195.307 97.8167 195.531 98.0328C195.754 98.249 196.019 98.3933 196.326 98.4658C196.632 98.5382 196.961 98.5275 197.311 98.4337L202.056 97.1624L202.631 99.3106ZM199.444 86.672C199.595 87.2387 199.67 87.7652 199.668 88.2517C199.666 88.7382 199.599 89.1701 199.469 89.5475C199.328 89.9276 199.126 90.2467 198.864 90.5046C198.599 90.7523 198.271 90.9286 197.879 91.0335C197.838 91.0445 197.797 91.0556 197.755 91.0666C197.714 91.0777 197.682 91.0808 197.659 91.076L197.104 89.0051C197.124 88.9996 197.145 88.994 197.166 88.9885C197.186 88.983 197.207 88.9775 197.227 88.972C197.482 88.8926 197.671 88.7536 197.795 88.5549C197.908 88.3589 197.967 88.1276 197.973 87.861C197.976 87.5841 197.941 87.3066 197.866 87.0284C197.8 86.7811 197.716 86.5497 197.614 86.3341C197.499 86.1109 197.359 85.9386 197.194 85.8172C197.026 85.6854 196.844 85.6458 196.648 85.6983C196.401 85.7645 196.238 85.9186 196.159 86.1606C196.078 86.3922 196.04 86.684 196.046 87.0357C196.049 87.3772 196.05 87.7524 196.049 88.1612C196.061 88.5336 196.062 88.9088 196.053 89.2867C196.033 89.6674 195.975 90.0254 195.877 90.3608C195.776 90.6859 195.61 90.9733 195.379 91.223C195.137 91.4755 194.8 91.6597 194.368 91.7757C193.945 91.8888 193.554 91.8941 193.196 91.7915C192.827 91.6916 192.496 91.5096 192.205 91.2454C191.91 90.9709 191.659 90.6297 191.45 90.2218C191.228 89.8064 191.05 89.3463 190.914 88.8414C190.787 88.3675 190.72 87.9106 190.713 87.4709C190.695 87.0339 190.743 86.6346 190.856 86.2731C190.958 85.9143 191.13 85.6087 191.372 85.3562C191.603 85.1065 191.894 84.9347 192.244 84.8409C192.316 84.8216 192.383 84.8036 192.445 84.787C192.507 84.7705 192.55 84.7646 192.573 84.7694L193.124 86.8249L193 86.858C192.815 86.9077 192.675 87.0058 192.582 87.1522C192.478 87.3015 192.42 87.4939 192.405 87.7296C192.389 87.955 192.42 88.2171 192.5 88.5159C192.555 88.7219 192.622 88.9084 192.7 89.0753C192.775 89.2319 192.86 89.3637 192.955 89.4707C193.05 89.5778 193.153 89.655 193.265 89.7023C193.364 89.742 193.476 89.7453 193.599 89.7122C193.774 89.6652 193.899 89.5545 193.974 89.3799C194.036 89.1977 194.069 88.9733 194.075 88.7067C194.081 88.4401 194.085 88.1464 194.088 87.8255C194.091 87.427 194.091 87.013 194.086 86.5836C194.068 86.1466 194.095 85.7309 194.166 85.3364C194.237 84.9419 194.398 84.5951 194.649 84.2959C194.89 83.9995 195.268 83.7822 195.783 83.6442C196.278 83.5117 196.721 83.4977 197.114 83.6024C197.503 83.6967 197.847 83.8863 198.144 84.1711C198.441 84.4559 198.697 84.8125 198.911 85.241C199.125 85.6695 199.303 86.1465 199.444 86.672Z" fill="#111827"/>
</g>
<rect x="199.336" y="198.122" width="163.742" height="47.513" rx="7.5" transform="rotate(-105 199.336 198.122)" stroke="#111827"/>
</g>
<defs>
<clipPath id="clip0_1043_12663">
<rect width="228" height="128" rx="4" fill="white"/>
</clipPath>
<clipPath id="clip1_1043_12663">
<rect x="94.3047" y="56.6875" width="164.742" height="48.513" rx="8" transform="rotate(-105 94.3047 56.6875)" fill="white"/>
</clipPath>
<clipPath id="clip2_1043_12663">
<rect x="198.983" y="198.734" width="164.742" height="48.513" rx="8" transform="rotate(-105 198.983 198.734)" fill="white"/>
</clipPath>
</defs>
</svg>
