<svg width="13" height="15" viewBox="0 0 13 15" fill="none" xmlns="http://www.w3.org/2000/svg">
<path d="M6.06667 1.87105C6.02333 2.01105 6 2.15972 6 2.31372C6 2.58972 6.224 2.81372 6.5 2.81372H9.5C9.63261 2.81372 9.75979 2.76104 9.85355 2.66727C9.94732 2.57351 10 2.44633 10 2.31372C10 2.16366 9.97757 2.01444 9.93333 1.87105M6.06667 1.87105C6.16135 1.56485 6.35158 1.29701 6.60951 1.10675C6.86743 0.916484 7.17949 0.813796 7.5 0.813721H8.5C9.17467 0.813721 9.74467 1.25905 9.93333 1.87105M6.06667 1.87105C5.816 1.88639 5.56667 1.90439 5.31733 1.92439C4.56333 1.98705 4 2.62905 4 3.38572V4.81372M9.93333 1.87105C10.184 1.88639 10.4333 1.90439 10.6827 1.92439C11.4367 1.98705 12 2.62905 12 3.38572V10.3137C12 10.7115 11.842 11.0931 11.5607 11.3744C11.2794 11.6557 10.8978 11.8137 10.5 11.8137H9M4 4.81372H1.75C1.336 4.81372 1 5.14972 1 5.56372V13.0637C1 13.4777 1.336 13.8137 1.75 13.8137H8.25C8.664 13.8137 9 13.4777 9 13.0637V11.8137M4 4.81372H8.25C8.664 4.81372 9 5.14972 9 5.56372V11.8137M3.5 9.81372L4.5 10.8137L6.5 8.31372" stroke="#9CA3AF" strokeWidth="1.5" stroke-linecap="round" stroke-linejoin="round"/>
</svg>
