<svg width="1246" height="372" viewBox="0 0 1246 372" fill="none" xmlns="http://www.w3.org/2000/svg">
<g style="mix-blend-mode:screen">
<path opacity="0.010101" d="M925.618 704.747C921.871 712.511 913.551 716.981 905.009 715.817L385.309 645.039C376.766 643.876 369.945 637.344 368.411 628.86L275.129 112.724C273.596 104.24 277.7 95.7342 285.295 91.6544L747.344 -156.557C754.938 -160.637 764.296 -159.362 770.523 -153.4L1149.37 209.333C1155.59 215.295 1157.27 224.589 1153.53 232.354L925.618 704.747Z" stroke="url(#paint0_linear_268_1249)" stroke-width="0.2"/>
<path opacity="0.020202" d="M921.573 712.161C917.692 719.86 909.296 724.183 900.775 722.871L383.387 643.187C374.867 641.875 368.16 635.225 366.775 626.716L282.677 110.027C281.292 101.518 285.544 93.0849 293.209 89.1383L758.621 -150.509C766.286 -154.456 775.62 -153.018 781.742 -146.948L1153.48 221.63C1159.6 227.7 1161.12 237.022 1157.24 244.72L921.573 712.161Z" stroke="url(#paint1_linear_268_1249)" stroke-width="0.2"/>
<path opacity="0.030303" d="M917.491 719.44C913.476 727.069 905.005 731.245 896.508 729.785L381.586 641.255C373.089 639.794 366.5 633.028 365.264 624.496L290.341 107.418C289.105 98.8861 293.503 90.5283 301.235 86.716L769.853 -144.325C777.586 -148.138 786.894 -146.537 792.909 -140.362L1157.45 233.925C1163.47 240.101 1164.82 249.448 1160.81 257.077L917.491 719.44Z" stroke="url(#paint2_linear_268_1249)" stroke-width="0.2"/>
<path opacity="0.040404" d="M913.37 726.58C909.223 734.138 900.68 738.165 892.211 736.557L379.904 639.242C371.434 637.633 364.964 630.753 363.876 622.201L298.117 104.896C297.03 96.344 301.573 88.0642 309.371 84.3874L781.036 -138.01C788.834 -141.686 798.112 -139.924 804.019 -133.644L1161.28 246.212C1167.19 252.492 1168.38 261.861 1164.23 269.419L913.37 726.58Z" stroke="url(#paint3_linear_268_1249)" stroke-width="0.2"/>
<path opacity="0.050505" d="M909.213 733.583C904.935 741.067 896.323 744.946 887.883 743.189L378.341 637.154C369.901 635.397 363.552 628.406 362.614 619.836L306.002 102.467C305.065 93.8965 309.752 85.6974 317.613 82.1572L792.166 -131.559C800.027 -135.1 809.273 -133.175 815.069 -126.793L1164.97 258.492C1170.77 264.874 1171.79 274.262 1167.52 281.747L909.213 733.583Z" stroke="url(#paint4_linear_268_1249)" stroke-width="0.2"/>
<path opacity="0.0606061" d="M905.022 740.448C900.614 747.856 891.936 751.584 883.528 749.68L376.9 634.991C368.491 633.088 362.265 625.987 361.477 617.402L313.995 100.129C313.207 91.5439 318.037 83.4278 325.959 80.0254L803.241 -124.978C811.163 -128.38 820.374 -126.295 826.058 -119.813L1168.52 270.761C1174.2 277.243 1175.06 286.648 1170.65 294.057L905.022 740.448Z" stroke="url(#paint5_linear_268_1249)" stroke-width="0.2"/>
<path opacity="0.0707071" d="M900.8 747.172C896.263 754.503 887.522 758.078 879.148 756.028L375.58 632.755C367.206 630.706 361.104 623.497 360.466 614.899L322.094 97.8841C321.456 89.2865 326.427 81.2559 334.407 77.9923L814.26 -118.268C822.239 -121.531 831.413 -119.286 836.982 -112.705L1171.92 283.015C1177.49 289.595 1178.19 299.014 1173.65 306.344L900.8 747.172Z" stroke="url(#paint6_linear_268_1249)" stroke-width="0.2"/>
<path opacity="0.0808081" d="M896.552 753.76C891.888 761.01 883.085 764.432 874.748 762.237L374.385 630.451C366.048 628.255 360.074 620.941 359.586 612.334L330.3 95.7364C329.812 87.1289 334.922 79.1863 342.958 76.0624L825.221 -111.427C833.257 -114.551 842.39 -112.145 847.844 -105.469L1175.18 295.254C1180.64 301.931 1181.17 311.36 1176.51 318.61L896.552 753.76Z" stroke="url(#paint7_linear_268_1249)" stroke-width="0.2"/>
<path opacity="0.0909091" d="M892.277 760.207C887.487 767.375 878.626 770.643 870.328 768.302L373.314 628.078C365.016 625.737 359.17 618.32 358.832 609.705L338.607 93.685C338.269 85.0703 343.517 77.2181 351.606 74.2349L836.12 -104.46C844.209 -107.443 853.299 -104.878 858.635 -98.1076L1178.31 307.474C1183.64 314.244 1184.01 323.682 1179.22 330.849L892.277 760.207Z" stroke="url(#paint8_linear_268_1249)" stroke-width="0.2"/>
<path opacity="0.10101" d="M887.975 766.516C883.06 773.599 874.144 776.712 865.888 774.226L372.364 625.641C364.109 623.156 358.393 615.637 358.206 607.018L347.011 91.7333C346.824 83.1141 352.208 75.3546 360.347 72.5131L846.953 -97.3655C855.092 -100.207 864.136 -97.4843 869.354 -90.6213L1181.29 319.673C1186.5 326.536 1186.71 335.978 1181.8 343.061L887.975 766.516Z" stroke="url(#paint9_linear_268_1249)" stroke-width="0.2"/>
<path opacity="0.111111" d="M883.659 772.686C878.621 779.682 869.651 782.639 861.441 780.01L371.547 623.142C363.336 620.513 357.752 612.896 357.716 604.275L355.52 89.8831C355.483 81.262 361.002 73.5977 369.189 70.8986L857.727 -90.1454C865.914 -92.8445 874.909 -89.9643 880.006 -83.0113L1184.13 331.85C1189.23 338.803 1189.27 348.247 1184.23 355.243L883.659 772.686Z" stroke="url(#paint10_linear_268_1249)" stroke-width="0.2"/>
<path opacity="0.121212" d="M879.32 778.714C874.161 785.621 865.141 788.421 856.977 785.649L370.852 620.58C362.689 617.808 357.239 610.095 357.352 601.474L364.121 88.1327C364.235 79.5123 369.886 71.9454 378.12 69.3896L868.428 -82.8042C876.662 -85.36 885.605 -82.3233 890.58 -75.2824L1186.84 343.998C1191.81 351.039 1191.69 360.483 1186.53 367.39L879.32 778.714Z" stroke="url(#paint11_linear_268_1249)" stroke-width="0.2"/>
<path opacity="0.131313" d="M874.967 784.605C869.689 791.421 860.621 794.063 852.508 791.149L370.288 617.963C362.174 615.049 356.86 607.242 357.124 598.624L372.819 86.4888C373.083 77.8716 378.866 70.4046 387.143 67.9929L879.063 -75.3382C887.34 -77.7498 896.229 -74.5575 901.08 -67.4309L1189.41 356.121C1194.26 363.248 1193.97 372.688 1188.69 379.504L874.967 784.605Z" stroke="url(#paint12_linear_268_1249)" stroke-width="0.2"/>
<path opacity="0.141414" d="M870.599 790.355C865.202 797.078 856.09 799.562 848.029 796.507L369.85 615.289C361.788 612.234 356.61 604.335 357.025 595.724L381.608 84.949C382.022 76.3377 387.934 68.9727 396.252 66.7058L889.624 -67.7526C897.942 -70.0195 906.773 -66.6725 911.5 -59.4623L1191.84 368.213C1196.56 375.423 1196.11 384.856 1190.71 391.579L870.599 790.355Z" stroke="url(#paint13_linear_268_1249)" stroke-width="0.2"/>
<path opacity="0.151515" d="M866.224 795.965C860.71 802.593 851.556 804.917 843.549 801.722L369.544 612.56C361.537 609.365 356.498 601.377 357.062 592.774L390.49 83.5145C391.054 74.9118 397.094 67.6511 405.45 65.5298L900.115 -60.0491C908.471 -62.1705 917.243 -58.6699 921.842 -51.3783L1194.13 380.27C1198.73 387.561 1198.12 396.985 1192.6 403.613L866.224 795.965Z" stroke="url(#paint14_linear_268_1249)" stroke-width="0.2"/>
<path opacity="0.161616" d="M861.841 801.436C856.213 807.967 847.019 810.131 839.069 806.796L369.369 609.782C361.419 606.447 356.52 598.373 357.235 589.781L399.461 82.1889C400.176 73.5974 406.341 66.4432 414.733 64.468L910.531 -52.2272C918.923 -54.2024 927.632 -50.5492 932.104 -43.1785L1196.3 392.292C1200.77 399.663 1199.99 409.075 1194.36 415.606L861.841 801.436Z" stroke="url(#paint15_linear_268_1249)" stroke-width="0.2"/>
<path opacity="0.171717" d="M857.448 806.767C851.706 813.199 842.477 815.202 834.586 811.729L369.32 606.954C361.429 603.481 356.672 595.322 357.537 586.744L408.514 80.9715C409.379 72.3938 415.668 65.3482 424.093 63.5198L920.865 -44.2905C929.29 -46.1189 937.934 -42.3144 942.276 -34.8667L1198.32 404.276C1202.66 411.724 1201.72 421.12 1195.97 427.552L857.448 806.767Z" stroke="url(#paint16_linear_268_1249)" stroke-width="0.2"/>
<path opacity="0.181818" d="M853.057 811.962C847.204 818.292 837.941 820.134 830.112 816.524L369.408 604.084C361.579 600.473 356.965 592.233 357.979 583.671L417.657 79.8683C418.671 71.3069 425.082 64.3723 433.538 62.6912L931.125 -36.2359C939.58 -37.917 948.157 -33.9621 952.369 -26.4398L1200.22 416.223C1204.43 423.745 1203.32 433.124 1197.46 439.455L853.057 811.962Z" stroke="url(#paint17_linear_268_1249)" stroke-width="0.2"/>
<path opacity="0.191919" d="M848.661 817.014C842.699 823.241 833.405 824.921 825.64 821.175L369.624 601.165C361.859 597.419 357.39 589.099 358.553 580.557L426.878 78.8726C428.041 70.3303 434.573 63.5086 443.057 61.9753L941.3 -28.073C949.784 -29.6062 958.29 -25.5023 962.37 -17.9076L1201.98 428.124C1206.06 435.718 1204.78 445.076 1198.82 451.303L848.661 817.014Z" stroke="url(#paint18_linear_268_1249)" stroke-width="0.2"/>
<path opacity="0.20202" d="M844.267 821.931C838.197 828.053 828.875 829.57 821.177 825.689L369.971 598.209C362.273 594.328 357.95 585.931 359.262 577.411L436.178 77.9939C437.49 69.4731 444.14 62.7665 452.649 61.3815L951.391 -19.7953C959.901 -21.1802 968.334 -16.9285 972.28 -9.26374L1203.6 439.983C1207.55 447.648 1206.11 456.982 1200.04 463.104L844.267 821.931Z" stroke="url(#paint19_linear_268_1249)" stroke-width="0.2"/>
<path opacity="0.212121" d="M839.881 826.707C833.705 832.722 824.358 834.076 816.729 830.061L370.456 595.212C362.827 591.197 358.651 582.726 360.111 574.23L445.561 77.2271C447.022 68.7305 453.787 62.1409 462.319 60.9046L961.402 -11.4106C969.935 -12.6469 978.292 -8.24861 982.105 -0.516154L1205.11 451.793C1208.92 459.526 1207.32 468.834 1201.14 474.849L839.881 826.707Z" stroke="url(#paint20_linear_268_1249)" stroke-width="0.2"/>
<path opacity="0.222222" d="M835.498 831.348C829.218 837.255 819.849 838.446 812.291 834.298L371.071 592.182C363.513 588.035 359.485 579.492 361.094 571.023L455.015 76.5791C456.624 68.1094 463.504 61.6388 472.056 60.5517L971.323 -2.91501C979.876 -4.00218 988.156 0.541298 991.832 8.33911L1206.47 463.558C1210.15 471.356 1208.39 480.634 1202.11 486.541L835.498 831.348Z" stroke="url(#paint21_linear_268_1249)" stroke-width="0.2"/>
<path opacity="0.232323" d="M831.127 835.85C824.745 841.646 815.356 842.674 807.872 838.395L371.821 589.117C364.337 584.838 360.459 576.227 362.215 567.786L464.546 76.0462C466.302 67.6058 473.294 61.2563 481.864 60.3185L981.158 5.68479C989.728 4.74704 997.928 9.43434 1001.47 17.2951L1207.72 475.27C1211.26 483.131 1209.33 492.377 1202.95 498.173L831.127 835.85Z" stroke="url(#paint22_linear_268_1249)" stroke-width="0.2"/>
<path opacity="0.242424" d="M826.765 840.214C820.282 845.897 810.878 846.761 803.469 842.352L372.703 586.018C365.295 581.609 361.567 572.932 363.471 564.523L474.145 75.6291C476.048 67.2206 483.15 60.9942 491.735 60.2061L990.901 14.3869C999.486 13.5989 1007.6 18.4286 1011 26.35L1208.83 486.926C1212.23 494.848 1210.15 504.059 1203.67 509.743L826.765 840.214Z" stroke="url(#paint23_linear_268_1249)" stroke-width="0.2"/>
<path opacity="0.252525" d="M822.418 844.442C815.838 850.012 806.419 850.711 799.089 846.174L373.721 582.893C366.391 578.355 362.815 569.614 364.865 561.24L483.815 75.333C485.865 66.9591 493.074 60.8575 501.671 60.2194L1000.55 23.1936C1009.15 22.5555 1017.18 27.5261 1020.45 35.5057L1209.82 498.529C1213.09 506.509 1210.84 515.682 1204.26 521.252L822.418 844.442Z" stroke="url(#paint24_linear_268_1249)" stroke-width="0.2"/>
<path opacity="0.262626" d="M818.088 848.534C811.411 853.988 801.982 854.523 794.732 849.858L374.874 579.74C367.623 575.076 364.201 566.273 366.397 557.936L493.551 75.1562C495.747 66.8192 503.061 60.8444 511.669 60.3565L1010.11 32.1002C1018.72 31.6123 1026.66 36.7222 1029.79 44.7575L1210.69 510.074C1213.81 518.11 1211.41 527.243 1204.73 532.697L818.088 848.534Z" stroke="url(#paint25_linear_268_1249)" stroke-width="0.2"/>
<path opacity="0.272727" d="M813.776 852.487C807.005 857.824 797.567 858.194 790.4 853.403L376.159 576.56C368.992 571.769 365.724 562.908 368.065 554.611L503.351 75.0961C505.692 66.7987 513.109 60.9525 521.724 60.6148L1019.58 41.1015C1028.19 40.7639 1036.04 46.0117 1039.03 54.1003L1211.43 521.556C1214.41 529.644 1211.85 538.734 1205.08 544.07L813.776 852.487Z" stroke="url(#paint26_linear_268_1249)" stroke-width="0.2"/>
<path opacity="0.282828" d="M809.486 856.309C802.623 861.527 793.181 861.732 786.097 856.817L377.582 573.362C370.499 568.447 367.386 559.531 369.871 551.276L513.214 75.1618C515.7 66.9067 523.218 61.1907 531.837 61.0034L1028.94 50.2037C1037.56 50.0164 1045.32 55.4005 1048.16 63.5399L1212.05 532.979C1214.89 541.119 1212.17 550.162 1205.31 555.38L809.486 856.309Z" stroke="url(#paint27_linear_268_1249)" stroke-width="0.2"/>
<path opacity="0.292929" d="M805.22 859.996C798.267 865.093 788.823 865.134 781.827 860.096L379.14 570.145C372.144 565.108 369.187 556.138 371.816 547.927L523.138 75.3498C525.768 67.1392 533.385 61.5554 542.006 61.5186L1038.21 59.4005C1046.84 59.3637 1054.5 64.8824 1057.2 73.0702L1212.55 544.339C1215.25 552.527 1212.37 561.521 1205.42 566.618L805.22 859.996Z" stroke="url(#paint28_linear_268_1249)" stroke-width="0.2"/>
<path opacity="0.30303" d="M800.977 863.549C793.936 868.524 784.492 868.399 777.585 863.24L380.829 566.91C373.922 561.751 371.122 552.731 373.894 544.568L533.117 75.6598C535.889 67.4965 543.602 62.0464 552.222 62.16L1047.38 68.689C1056 68.8026 1063.57 74.4542 1066.13 82.6878L1212.93 555.631C1215.49 563.865 1212.45 572.808 1205.41 577.783L800.977 863.549Z" stroke="url(#paint29_linear_268_1249)" stroke-width="0.2"/>
<path opacity="0.313131" d="M796.765 866.968C789.638 871.819 780.198 871.53 773.382 866.251L382.657 563.66C375.841 558.382 373.199 549.314 376.113 541.2L543.153 76.0931C546.067 67.9793 553.874 62.6646 562.492 62.9287L1056.45 78.0675C1065.07 78.3316 1072.54 84.1144 1074.95 92.3914L1213.19 566.855C1215.61 575.132 1212.41 584.021 1205.29 588.872L796.765 866.968Z" stroke="url(#paint30_linear_268_1249)" stroke-width="0.2"/>
<path opacity="0.323232" d="M792.581 870.256C785.371 874.982 775.938 874.528 769.215 869.132L384.618 560.4C377.895 555.003 375.412 545.891 378.467 537.829L553.241 76.653C556.296 68.5912 564.195 63.4136 572.806 63.8281L1065.42 87.5368C1074.03 87.9512 1081.4 93.8635 1083.66 102.181L1213.34 578.011C1215.61 586.328 1212.26 595.16 1205.05 599.886L792.581 870.256Z" stroke="url(#paint31_linear_268_1249)" stroke-width="0.2"/>
<path opacity="0.333333" d="M788.431 873.412C781.139 878.011 771.715 877.393 765.087 871.88L386.714 557.129C380.086 551.616 377.762 542.461 380.958 534.454L563.379 77.3365C566.575 69.3294 574.563 64.2904 583.165 64.8551L1074.28 97.0913C1082.88 97.656 1090.15 103.696 1092.27 112.052L1213.37 589.093C1215.49 597.449 1211.99 606.221 1204.7 610.821L788.431 873.412Z" stroke="url(#paint32_linear_268_1249)" stroke-width="0.2"/>
<path opacity="0.343434" d="M784.317 876.441C776.946 880.912 767.534 880.129 761.004 874.501L388.946 553.854C382.415 548.226 380.252 539.033 383.586 531.083L573.567 78.1498C576.902 70.1996 584.977 65.3009 593.568 66.0156L1083.04 106.734C1091.63 107.449 1098.79 113.615 1100.76 122.007L1213.29 600.105C1215.27 608.497 1211.61 617.206 1204.24 621.678L784.317 876.441Z" stroke="url(#paint33_linear_268_1249)" stroke-width="0.2"/>
<path opacity="0.353535" d="M780.241 879.338C772.793 883.68 763.396 882.733 756.965 876.992L391.313 550.573C384.882 544.832 382.879 535.603 386.352 527.712L583.802 79.0879C587.275 71.1971 595.434 66.44 604.012 67.3046L1091.69 116.458C1100.27 117.323 1107.32 123.612 1109.15 132.037L1213.1 611.04C1214.93 619.465 1211.12 628.109 1203.68 632.452L780.241 879.338Z" stroke="url(#paint34_linear_268_1249)" stroke-width="0.2"/>
<path opacity="0.363636" d="M776.203 882.104C768.68 886.316 759.301 885.205 752.971 879.352L393.814 547.288C387.484 541.435 385.642 532.172 389.252 524.343L594.079 80.1508C597.689 72.3219 605.93 67.7079 614.491 68.722L1100.24 126.261C1108.8 127.275 1115.73 133.686 1117.41 142.142L1212.8 621.895C1214.48 630.351 1210.52 638.927 1203 643.139L776.203 882.104Z" stroke="url(#paint35_linear_268_1249)" stroke-width="0.2"/>
<path opacity="0.373737" d="M772.206 884.746C764.612 888.826 755.253 887.552 749.026 881.589L396.449 544.006C390.222 538.043 388.542 528.75 392.288 520.985L604.397 81.3448C608.143 73.58 616.463 69.1106 625.006 70.274L1108.67 136.145C1117.22 137.308 1124.04 143.84 1125.57 152.324L1212.39 632.674C1213.92 641.158 1209.81 649.664 1202.22 653.744L772.206 884.746Z" stroke="url(#paint36_linear_268_1249)" stroke-width="0.2"/>
<path opacity="0.383838" d="M768.255 887.261C760.59 891.207 751.256 889.77 745.134 883.7L399.219 540.725C393.097 534.655 391.58 525.334 395.461 517.635L614.755 82.6661C618.636 74.9679 627.033 70.6443 635.554 71.9566L1117 146.105C1125.52 147.417 1132.23 154.067 1133.61 162.576L1211.87 643.372C1213.25 651.881 1209 660.314 1201.34 664.261L768.255 887.261Z" stroke="url(#paint37_linear_268_1249)" stroke-width="0.2"/>
<path opacity="0.393939" d="M764.35 889.651C756.618 893.463 747.31 891.863 741.295 885.687L402.123 537.452C396.108 531.276 394.754 521.929 398.768 514.3L625.15 84.1179C629.165 76.4886 637.636 72.3123 646.132 73.773L1125.22 156.141C1133.71 157.602 1140.3 164.368 1141.54 172.9L1211.25 653.988C1212.48 662.52 1208.08 670.878 1200.35 674.69L764.35 889.651Z" stroke="url(#paint38_linear_268_1249)" stroke-width="0.2"/>
<path opacity="0.40404" d="M760.489 891.916C752.691 895.593 743.413 893.83 737.506 887.55L405.156 534.185C399.25 527.905 398.059 518.536 402.206 510.977L635.575 85.6976C639.722 78.1395 648.265 74.1116 656.735 75.7205L1133.31 166.249C1141.78 167.858 1148.26 174.737 1149.34 183.29L1210.52 664.519C1211.6 673.072 1207.06 681.352 1199.26 685.028L760.489 891.916Z" stroke="url(#paint39_linear_268_1249)" stroke-width="0.2"/>
<path opacity="0.414141" d="M756.683 894.057C748.822 897.597 739.576 895.673 733.78 889.291L408.326 530.926C402.53 524.544 401.503 515.156 405.782 507.671L646.036 87.4057C650.315 79.9212 658.926 76.043 667.367 77.7994L1141.31 176.426C1149.75 178.182 1156.1 185.174 1157.03 193.744L1209.69 674.963C1210.63 683.534 1205.94 691.733 1198.08 695.273L756.683 894.057Z" stroke="url(#paint40_linear_268_1249)" stroke-width="0.2"/>
<path opacity="0.424242" d="M752.928 896.076C745.007 899.478 735.796 897.393 730.112 890.911L411.628 527.68C405.945 521.198 405.081 511.793 409.49 504.384L656.526 89.2442C660.934 81.8355 669.612 78.1082 678.021 80.0116L1149.18 186.671C1157.59 188.575 1163.82 195.676 1164.6 204.261L1208.76 685.321C1209.55 693.906 1204.72 702.022 1196.8 705.424L752.928 896.076Z" stroke="url(#paint41_linear_268_1249)" stroke-width="0.2"/>
<path opacity="0.434343" d="M749.226 897.971C741.246 901.235 732.073 898.989 726.503 892.408L415.06 524.446C409.49 517.865 408.791 508.447 413.328 501.116L667.04 91.2095C671.577 83.8789 680.319 80.3036 688.693 82.3536L1156.94 196.98C1165.31 199.03 1171.41 206.238 1172.05 214.836L1207.73 695.586C1208.37 704.183 1203.4 712.214 1195.42 715.477L749.226 897.971Z" stroke="url(#paint42_linear_268_1249)" stroke-width="0.2"/>
<path opacity="0.444444" d="M745.583 899.751C737.548 902.875 728.415 900.47 722.961 893.793L418.626 521.234C413.172 514.557 412.637 505.128 417.302 497.877L677.582 93.3105C682.247 86.0602 691.05 82.638 699.386 84.8338L1164.58 207.357C1172.92 209.553 1178.9 216.867 1179.38 225.475L1206.61 705.765C1207.1 714.372 1201.99 722.315 1193.95 725.439L745.583 899.751Z" stroke="url(#paint43_linear_268_1249)" stroke-width="0.2"/>
<path opacity="0.454545" d="M742 901.412C733.911 904.395 724.821 901.83 719.485 895.06L422.324 518.039C416.987 511.268 416.617 501.831 421.407 494.663L688.147 95.5401C692.938 88.3723 701.799 85.1043 710.096 87.4452L1172.11 217.794C1180.41 220.135 1186.26 227.553 1186.59 236.167L1205.39 715.85C1205.73 724.465 1200.48 732.317 1192.4 735.3L742 901.412Z" stroke="url(#paint44_linear_268_1249)" stroke-width="0.2"/>
<path opacity="0.464646" d="M738.473 902.949C730.333 905.79 721.29 903.068 716.072 896.205L426.147 514.859C420.93 507.996 420.725 498.554 425.639 491.471L698.729 97.8941C703.643 90.811 712.56 87.6981 720.815 90.1834L1179.52 228.285C1187.77 230.77 1193.49 238.289 1193.68 246.908L1204.08 725.836C1204.27 734.455 1198.88 742.215 1190.75 745.056L738.473 902.949Z" stroke="url(#paint45_linear_268_1249)" stroke-width="0.2"/>
<path opacity="0.474747" d="M735.011 904.378C726.823 907.077 717.828 904.197 712.731 897.244L430.104 511.712C425.006 504.759 424.966 495.314 430.004 488.318L709.33 100.387C714.367 93.3908 723.337 90.434 731.548 93.063L1186.81 238.841C1195.02 241.47 1200.6 249.087 1200.64 257.708L1202.68 735.735C1202.72 744.356 1197.2 752.02 1189.01 754.719L735.011 904.378Z" stroke="url(#paint46_linear_268_1249)" stroke-width="0.2"/>
<path opacity="0.484848" d="M731.613 905.69C723.379 908.246 714.436 905.209 709.461 898.168L434.188 508.587C429.213 501.546 429.338 492.103 434.496 485.195L719.946 103.007C725.105 96.1002 734.125 93.3004 742.288 96.0723L1193.98 249.449C1202.14 252.221 1207.59 259.934 1207.48 268.554L1201.19 745.534C1201.08 754.154 1195.42 761.721 1187.19 764.277L731.613 905.69Z" stroke="url(#paint47_linear_268_1249)" stroke-width="0.2"/>
<path opacity="0.494949" d="M728.281 906.89C720.004 909.301 711.115 906.109 706.264 898.982L438.4 505.491C433.549 498.365 433.838 488.925 439.117 482.108L730.575 105.759C735.853 98.943 744.921 96.3011 753.034 99.2151L1201.03 260.11C1209.14 263.024 1214.46 270.831 1214.19 279.448L1199.61 755.235C1199.35 763.853 1193.56 771.32 1185.29 773.731L728.281 906.89Z" stroke="url(#paint48_linear_268_1249)" stroke-width="0.2"/>
<path opacity="0.50505" d="M725.017 907.973C716.7 910.24 707.868 906.893 703.142 899.683L442.74 502.422C438.013 495.211 438.468 485.778 443.864 479.055L741.214 108.637C746.61 101.914 755.723 99.4311 763.784 102.486L1207.96 270.817C1216.02 273.872 1221.2 281.771 1220.78 290.382L1197.95 764.834C1197.53 773.445 1191.62 780.81 1183.3 783.077L725.017 907.973Z" stroke="url(#paint49_linear_268_1249)" stroke-width="0.2"/>
<path opacity="0.515152" d="M721.824 908.951C713.468 911.072 704.696 907.572 700.097 900.28L447.206 499.389C442.607 492.097 443.225 482.673 448.739 476.045L751.861 111.65C757.375 105.023 766.529 102.699 774.536 105.894L1214.77 281.576C1222.77 284.772 1227.81 292.76 1227.25 301.362L1196.2 774.335C1195.64 782.938 1189.6 790.199 1181.24 792.32L721.824 908.951Z" stroke="url(#paint50_linear_268_1249)" stroke-width="0.2"/>
<path opacity="0.525253" d="M718.703 909.819C710.311 911.794 701.602 908.141 697.13 900.77L451.799 496.39C447.327 489.02 448.11 479.608 453.738 473.077L762.515 114.793C768.143 108.262 777.336 106.099 785.286 109.433L1221.45 292.381C1229.4 295.716 1234.3 303.791 1233.59 312.382L1194.38 783.735C1193.66 792.326 1187.49 799.48 1179.1 801.455L718.703 909.819Z" stroke="url(#paint51_linear_268_1249)" stroke-width="0.2"/>
<path opacity="0.535354" d="M715.655 910.579C707.23 912.407 698.585 908.603 694.243 901.155L456.515 493.428C452.173 485.98 453.12 476.583 458.861 470.152L773.171 118.065C778.912 111.633 788.142 109.63 796.033 113.103L1228.01 303.229C1235.91 306.702 1240.66 314.861 1239.8 323.438L1192.47 793.029C1191.6 801.607 1185.31 808.653 1176.89 810.481L715.655 910.579Z" stroke="url(#paint52_linear_268_1249)" stroke-width="0.2"/>
<path opacity="0.545455" d="M712.683 911.233C704.228 912.914 695.651 908.959 691.439 901.437L461.357 490.504C457.145 482.982 458.256 473.603 464.109 467.273L783.83 121.466C789.683 115.136 798.946 113.294 806.775 116.904L1234.46 314.117C1242.28 317.727 1246.9 325.968 1245.88 334.529L1190.48 802.22C1189.47 810.781 1183.06 817.716 1174.6 819.397L712.683 911.233Z" stroke="url(#paint53_linear_268_1249)" stroke-width="0.2"/>
<path opacity="0.555556" d="M709.786 911.782C701.302 913.315 692.796 909.211 688.716 901.616L466.319 487.621C462.239 480.026 463.513 470.668 469.476 464.441L794.484 124.997C800.447 118.77 809.74 117.09 817.505 120.836L1240.77 325.044C1248.53 328.79 1253 337.11 1251.84 345.652L1188.42 811.304C1187.26 819.846 1180.73 826.668 1172.24 828.201L709.786 911.782Z" stroke="url(#paint54_linear_268_1249)" stroke-width="0.2"/>
<path opacity="0.565657" d="M706.971 912.229C698.462 913.614 690.029 909.362 686.082 901.698L471.406 484.782C467.459 477.117 468.897 467.782 474.967 461.66L805.139 128.657C811.209 122.535 820.531 121.018 828.229 124.899L1246.96 336.008C1254.66 339.889 1258.98 348.286 1257.67 356.807L1186.29 820.282C1184.98 828.803 1178.33 835.509 1169.82 836.894L706.971 912.229Z" stroke="url(#paint55_linear_268_1249)" stroke-width="0.2"/>
<path opacity="0.575758" d="M704.236 912.576C695.703 913.813 687.346 909.414 683.533 901.682L476.613 481.989C472.801 474.256 474.401 464.949 480.577 458.933L815.787 132.448C821.963 126.433 831.31 125.079 838.939 129.094L1253.03 347.008C1260.66 351.023 1264.84 359.493 1263.38 367.99L1184.09 829.153C1182.63 837.65 1175.86 844.24 1167.33 845.476L704.236 912.576Z" stroke="url(#paint56_linear_268_1249)" stroke-width="0.2"/>
<path opacity="0.585859" d="M701.581 912.824C693.029 913.912 684.749 909.368 681.072 901.57L481.939 479.244C478.262 471.446 480.025 462.167 486.305 456.261L826.426 136.368C832.706 130.461 842.075 129.27 849.633 133.418L1258.97 358.04C1266.53 362.187 1270.56 370.729 1268.95 379.199L1181.81 837.916C1180.21 846.386 1173.33 852.856 1164.77 853.944L701.581 912.824Z" stroke="url(#paint57_linear_268_1249)" stroke-width="0.2"/>
<path opacity="0.59596" d="M699.011 912.976C690.441 913.913 682.242 909.226 678.702 901.365L487.385 476.549C483.844 468.688 485.769 459.442 492.151 453.646L837.055 140.416C843.437 134.62 852.826 133.593 860.31 137.872L1264.79 369.102C1272.27 373.381 1276.15 381.992 1274.4 390.432L1179.47 846.57C1177.72 855.01 1170.73 861.36 1162.16 862.298L699.011 912.976Z" stroke="url(#paint58_linear_268_1249)" stroke-width="0.2"/>
<path opacity="0.606061" d="M696.526 913.025C687.941 913.813 679.825 908.983 676.422 901.062L492.947 473.899C489.544 465.978 491.63 456.766 498.112 451.082L847.671 144.586C854.153 138.902 863.558 138.039 870.967 142.448L1270.48 380.185C1277.89 384.594 1281.62 393.272 1279.71 401.68L1177.07 855.107C1175.17 863.515 1168.06 869.742 1159.48 870.53L696.526 913.025Z" stroke="url(#paint59_linear_268_1249)" stroke-width="0.2"/>
<path opacity="0.616162" d="M694.128 912.989C685.53 913.627 677.5 908.656 674.236 900.677L498.626 471.312C495.362 463.332 497.608 454.159 504.189 448.589L858.272 148.893C864.853 143.323 874.271 142.624 881.602 147.161L1276.05 391.303C1283.38 395.841 1286.95 404.582 1284.9 412.956L1174.6 863.541C1172.55 871.915 1165.34 878.016 1156.74 878.654L694.128 912.989Z" stroke="url(#paint60_linear_268_1249)" stroke-width="0.2"/>
<path opacity="0.626263" d="M691.82 912.853C683.213 913.341 675.27 908.231 672.146 900.196L504.422 468.773C501.298 460.738 503.704 451.605 510.38 446.151L868.858 153.319C875.535 147.865 884.964 147.33 892.215 151.995L1281.49 402.437C1288.74 407.102 1292.16 415.905 1289.97 424.242L1172.07 871.856C1169.88 880.192 1162.56 886.167 1153.96 886.655L691.82 912.853Z" stroke="url(#paint61_linear_268_1249)" stroke-width="0.2"/>
<path opacity="0.636364" d="M689.601 912.629C680.986 912.967 673.134 907.719 670.151 899.63L510.331 466.294C507.348 458.205 509.913 449.115 516.683 443.779L879.424 157.873C886.195 152.536 895.632 152.166 902.8 156.957L1286.81 413.594C1293.97 418.384 1297.24 427.245 1294.9 435.542L1169.49 880.059C1167.15 888.356 1159.73 894.202 1151.12 894.54L689.601 912.629Z" stroke="url(#paint62_linear_268_1249)" stroke-width="0.2"/>
<path opacity="0.646465" d="M687.473 912.318C678.853 912.505 671.094 907.121 668.252 898.981L516.353 463.875C513.511 455.736 516.234 446.692 523.097 441.475L889.968 162.554C896.831 157.337 906.273 157.132 913.356 162.046L1291.99 424.77C1299.08 429.685 1302.19 438.602 1299.71 446.857L1166.85 888.149C1164.36 896.405 1156.84 902.121 1148.22 902.308L687.473 912.318Z" stroke="url(#paint63_linear_268_1249)" stroke-width="0.2"/>
<path opacity="0.656566" d="M685.437 911.917C676.816 911.954 669.151 906.435 666.452 898.247L522.486 461.516C519.787 453.328 522.667 444.334 529.62 439.236L900.488 167.359C907.441 162.262 916.885 162.221 923.881 167.259L1297.06 435.961C1304.05 440.998 1307.01 449.968 1304.38 458.178L1164.15 896.123C1161.52 904.333 1153.9 909.917 1145.28 909.954L685.437 911.917Z" stroke="url(#paint64_linear_268_1249)" stroke-width="0.2"/>
<path opacity="0.666667" d="M683.492 911.433C674.872 911.319 667.305 905.668 664.749 897.434L528.726 459.222C526.17 450.988 529.207 442.045 536.248 437.07L910.979 172.289C918.02 167.314 927.464 167.439 934.371 172.597L1301.99 447.167C1308.9 452.326 1311.7 461.345 1308.93 469.509L1161.4 903.983C1158.62 912.146 1150.91 917.596 1142.29 917.483L683.492 911.433Z" stroke="url(#paint65_linear_268_1249)" stroke-width="0.2"/>
<path opacity="0.676768" d="M681.647 910.862C673.03 910.598 665.563 904.816 663.151 896.539L535.079 456.988C532.667 448.711 535.86 439.823 542.986 434.971L921.447 177.339C928.573 172.488 938.013 172.777 944.83 178.056L1306.8 458.381C1313.62 463.659 1316.26 472.727 1313.35 480.841L1158.6 911.723C1155.68 919.837 1147.88 925.151 1139.26 924.887L681.647 910.862Z" stroke="url(#paint66_linear_268_1249)" stroke-width="0.2"/>
<path opacity="0.686869" d="M679.895 910.213C671.284 909.798 663.919 903.886 661.652 895.568L541.536 454.825C539.27 446.507 542.617 437.675 549.827 432.949L931.881 182.515C939.091 177.789 948.525 178.243 955.248 183.64L1311.49 469.606C1318.21 475.003 1320.69 484.115 1317.64 492.177L1155.75 919.349C1152.7 927.41 1144.8 932.588 1136.19 932.173L679.895 910.213Z" stroke="url(#paint67_linear_268_1249)" stroke-width="0.2"/>
<path opacity="0.69697" d="M678.243 909.486C669.641 908.921 662.38 902.881 660.258 894.525L548.102 452.731C545.98 444.375 549.481 435.603 556.773 431.004L942.285 187.814C949.577 183.215 959.001 183.833 965.629 189.347L1316.05 480.841C1322.67 486.355 1325 495.509 1321.8 503.516L1152.86 926.859C1149.66 934.866 1141.68 939.905 1133.07 939.34L678.243 909.486Z" stroke="url(#paint68_linear_268_1249)" stroke-width="0.2"/>
<path opacity="0.707071" d="M676.69 908.679C668.099 907.964 660.945 901.798 658.969 893.407L554.772 450.706C552.796 442.314 556.45 433.605 563.82 429.133L952.655 193.233C960.026 188.761 969.437 189.544 975.968 195.172L1320.48 492.079C1327.01 497.707 1329.17 506.9 1325.84 514.85L1149.92 934.249C1146.59 942.199 1138.51 947.098 1129.92 946.383L676.69 908.679Z" stroke="url(#paint69_linear_268_1249)" stroke-width="0.2"/>
<path opacity="0.717172" d="M675.236 907.793C666.658 906.928 659.613 900.639 657.784 892.214L561.543 448.749C559.714 440.324 563.519 431.68 570.966 427.337L962.986 198.768C970.434 194.426 979.831 195.373 986.262 201.114L1324.78 503.315C1331.22 509.056 1333.22 518.286 1329.75 526.177L1146.95 941.516C1143.47 949.407 1135.31 954.164 1126.74 953.3L675.236 907.793Z" stroke="url(#paint70_linear_268_1249)" stroke-width="0.2"/>
<path opacity="0.727273" d="M673.884 906.837C665.323 905.823 658.388 899.411 656.707 890.956L568.417 446.87C566.736 438.414 570.691 429.838 578.213 425.626L973.281 204.427C980.803 200.215 990.182 201.326 996.512 207.178L1328.97 514.556C1335.3 520.408 1337.14 529.672 1333.53 537.5L1143.93 948.669C1140.32 956.498 1132.08 961.112 1123.52 960.098L673.884 906.837Z" stroke="url(#paint71_linear_268_1249)" stroke-width="0.2"/>
<path opacity="0.737374" d="M672.635 905.811C664.093 904.648 657.271 898.116 655.738 889.632L575.391 445.067C573.857 436.583 577.961 428.077 585.556 423.997L983.534 210.205C991.129 206.125 1000.49 207.399 1006.71 213.362L1333.02 525.796C1339.25 531.758 1340.93 541.052 1337.19 548.816L1140.88 955.704C1137.13 963.469 1128.81 967.938 1120.27 966.775L672.635 905.811Z" stroke="url(#paint72_linear_268_1249)" stroke-width="0.2"/>
<path opacity="0.747475" d="M671.49 904.712C662.969 903.399 656.263 896.75 654.878 888.24L582.464 443.338C581.079 434.829 585.331 426.395 592.996 422.449L993.746 216.097C1001.41 212.15 1010.75 213.588 1016.87 219.658L1336.96 537.028C1343.08 543.098 1344.6 552.42 1340.72 560.118L1137.79 962.615C1133.91 970.313 1125.52 974.637 1116.99 973.325L671.49 904.712Z" stroke="url(#paint73_linear_268_1249)" stroke-width="0.2"/>
<path opacity="0.757576" d="M670.446 903.542C661.95 902.081 655.36 895.316 654.124 886.784L589.631 441.685C588.395 433.153 592.793 424.795 600.525 420.982L1003.91 222.103C1011.64 218.29 1020.95 219.891 1026.97 226.066L1340.76 548.251C1346.78 554.427 1348.13 563.774 1344.12 571.403L1134.67 969.404C1130.66 977.033 1122.19 981.209 1113.69 979.749L670.446 903.542Z" stroke="url(#paint74_linear_268_1249)" stroke-width="0.2"/>
<path opacity="0.767677" d="M669.509 902.312C661.04 900.703 654.569 893.824 653.482 885.271L596.894 440.117C595.807 431.564 600.35 423.285 608.148 419.608L1014.03 228.229C1021.83 224.552 1031.11 226.315 1037.01 232.595L1344.45 559.471C1350.35 565.751 1351.55 575.12 1347.4 582.678L1131.52 976.077C1127.38 983.635 1118.83 987.663 1110.36 986.054L669.509 902.312Z" stroke="url(#paint75_linear_268_1249)" stroke-width="0.2"/>
<path opacity="0.777778" d="M668.681 901.014C660.24 899.258 653.891 892.266 652.953 883.696L604.253 438.626C603.315 430.056 608.002 421.857 615.863 418.316L1024.1 234.465C1031.96 230.925 1041.21 232.849 1047 239.231L1348.01 570.675C1353.81 577.057 1354.83 586.446 1350.55 593.93L1128.35 982.625C1124.07 990.11 1115.46 993.988 1107.02 992.232L668.681 901.014Z" stroke="url(#paint76_linear_268_1249)" stroke-width="0.2"/>
<path opacity="0.787879" d="M667.96 899.66C659.551 897.756 653.325 890.655 652.537 882.07L611.703 437.223C610.915 428.638 615.745 420.522 623.666 417.12L1034.12 240.82C1042.04 237.418 1051.26 239.503 1056.94 245.985L1351.45 581.872C1357.13 588.355 1357.99 597.76 1353.59 605.168L1125.15 989.058C1120.74 996.466 1112.06 1000.19 1103.65 998.29L667.96 899.66Z" stroke="url(#paint77_linear_268_1249)" stroke-width="0.2"/>
<path opacity="0.79798" d="M667.344 898.242C658.97 896.192 652.868 888.983 652.23 880.386L619.241 435.902C618.603 427.304 623.574 419.274 631.554 416.01L1044.09 247.283C1052.07 244.019 1061.24 246.265 1066.81 252.845L1354.76 593.05C1360.33 599.631 1361.03 609.049 1356.49 616.38L1121.92 995.365C1117.38 1002.7 1108.64 1006.27 1100.27 1004.22L667.344 898.242Z" stroke="url(#paint78_linear_268_1249)" stroke-width="0.2"/>
<path opacity="0.808081" d="M666.838 896.767C658.502 894.571 652.527 887.257 652.039 878.65L626.87 434.666C626.382 426.059 631.492 418.116 639.527 414.992L1054 253.857C1062.04 250.733 1071.17 253.138 1076.63 259.815L1357.95 604.211C1363.41 610.888 1363.94 620.317 1359.28 627.568L1118.67 1001.55C1114.01 1008.8 1105.21 1012.22 1096.87 1010.03L666.838 896.767Z" stroke="url(#paint79_linear_268_1249)" stroke-width="0.2"/>
<path opacity="0.818182" d="M666.443 895.239C658.145 892.898 652.299 885.481 651.961 876.866L634.584 433.521C634.247 424.906 639.495 417.054 647.583 414.071L1063.86 260.543C1071.95 257.559 1081.04 260.124 1086.38 266.895L1361.03 615.355C1366.36 622.126 1366.73 631.563 1361.94 638.731L1115.41 1007.62C1110.62 1014.79 1101.76 1018.06 1093.46 1015.71L666.443 895.239Z" stroke="url(#paint80_linear_268_1249)" stroke-width="0.2"/>
<path opacity="0.828283" d="M666.157 893.656C657.902 891.17 652.186 883.652 651.999 875.033L642.384 432.461C642.197 423.842 647.581 416.082 655.72 413.241L1073.66 267.334C1081.8 264.493 1090.84 267.215 1096.06 274.078L1363.98 626.475C1369.19 633.338 1369.4 642.78 1364.48 649.863L1112.13 1013.56C1107.21 1020.65 1098.29 1023.76 1090.04 1021.27L666.157 893.656Z" stroke="url(#paint81_linear_268_1249)" stroke-width="0.2"/>
<path opacity="0.838384" d="M665.982 892.02C657.772 889.39 652.188 881.774 652.151 873.152L650.266 431.491C650.229 422.869 655.748 415.205 663.935 412.506L1083.4 274.232C1091.59 271.533 1100.58 274.413 1105.68 281.366L1366.81 637.57C1371.9 644.523 1371.94 653.967 1366.91 660.964L1108.83 1019.38C1103.79 1026.38 1094.82 1029.34 1086.61 1026.71L665.982 892.02Z" stroke="url(#paint82_linear_268_1249)" stroke-width="0.2"/>
<path opacity="0.848485" d="M665.921 890.337C657.757 887.565 652.307 879.851 652.421 871.231L658.231 430.614C658.344 421.993 663.996 414.426 672.23 411.87L1093.08 281.238C1101.31 278.682 1110.25 281.718 1115.23 288.759L1369.52 648.641C1374.49 655.682 1374.37 665.126 1369.21 672.033L1105.52 1025.09C1100.36 1031.99 1091.34 1034.79 1083.18 1032.02L665.921 890.337Z" stroke="url(#paint83_linear_268_1249)" stroke-width="0.2"/>
<path opacity="0.858586" d="M665.969 888.605C657.855 885.691 652.541 877.883 652.805 869.266L666.273 429.827C666.537 421.21 672.32 413.743 680.597 411.331L1102.69 288.345C1110.97 285.934 1119.86 289.126 1124.71 296.253L1372.11 659.683C1376.96 666.809 1376.67 676.249 1371.39 683.066L1102.2 1030.66C1096.92 1037.48 1087.85 1040.12 1079.74 1037.21L665.969 888.605Z" stroke="url(#paint84_linear_268_1249)" stroke-width="0.2"/>
<path opacity="0.868687" d="M666.133 886.827C658.071 883.772 652.894 875.873 653.308 867.262L674.395 429.134C674.809 420.522 680.721 413.157 689.039 410.891L1112.24 295.556C1120.56 293.289 1129.39 296.636 1134.12 303.846L1374.58 670.694C1379.31 677.904 1378.85 687.338 1373.46 694.061L1098.87 1036.12C1093.48 1042.84 1084.36 1045.33 1076.3 1042.27L666.133 886.827Z" stroke="url(#paint85_linear_268_1249)" stroke-width="0.2"/>
<path opacity="0.878788" d="M666.41 885.008C658.403 881.812 653.364 873.824 653.929 865.222L682.592 428.536C683.157 419.933 689.197 412.673 697.553 410.551L1121.72 302.869C1130.08 300.747 1138.85 304.248 1143.45 311.539L1376.94 681.674C1381.54 688.965 1380.92 698.389 1375.41 705.017L1095.54 1041.46C1090.03 1048.08 1080.87 1050.41 1072.87 1047.21L666.41 885.008Z" stroke="url(#paint86_linear_268_1249)" stroke-width="0.2"/>
<path opacity="0.888889" d="M666.801 883.149C658.851 879.814 653.952 871.74 654.667 863.148L690.864 428.036C691.578 419.444 697.744 412.29 706.136 410.315L1131.14 310.283C1139.53 308.308 1148.24 311.961 1152.71 319.331L1379.18 692.62C1383.65 699.991 1382.87 709.403 1377.24 715.934L1092.2 1046.67C1086.58 1053.2 1077.38 1055.37 1069.43 1052.03L666.801 883.149Z" stroke="url(#paint87_linear_268_1249)" stroke-width="0.2"/>
<path opacity="0.89899" d="M667.308 881.252C659.417 877.779 654.66 869.62 655.524 861.042L699.208 427.633C700.073 419.055 706.362 412.01 714.787 410.181L1140.48 317.796C1148.91 315.967 1157.55 319.772 1161.89 327.22L1381.31 703.532C1385.65 710.979 1384.7 720.376 1378.96 726.808L1088.87 1051.77C1083.13 1058.2 1073.9 1060.2 1066.01 1056.73L667.308 881.252Z" stroke="url(#paint88_linear_268_1249)" stroke-width="0.2"/>
<path opacity="0.909091" d="M667.93 879.315C660.101 875.704 655.487 867.464 656.501 858.902L707.623 427.325C708.637 418.763 715.049 411.829 723.505 410.148L1149.76 325.403C1158.21 323.722 1166.79 327.677 1171 335.199L1383.32 714.401C1387.53 721.924 1386.42 731.303 1380.57 737.633L1085.53 1056.74C1079.68 1063.07 1070.42 1064.91 1062.59 1061.3L667.93 879.315Z" stroke="url(#paint89_linear_268_1249)" stroke-width="0.2"/>
<path opacity="0.919192" d="M668.666 877.347C660.901 873.601 656.432 865.281 657.595 856.738L716.105 427.119C717.269 418.577 723.8 411.755 732.284 410.222L1158.96 333.109C1167.44 331.576 1175.95 335.68 1180.03 343.274L1385.21 725.235C1389.29 732.829 1388.02 742.187 1382.06 748.414L1082.2 1061.59C1076.24 1067.82 1066.94 1069.5 1059.18 1065.75L668.666 877.347Z" stroke="url(#paint90_linear_268_1249)" stroke-width="0.2"/>
<path opacity="0.929293" d="M669.517 875.344C661.819 871.463 657.495 863.067 658.808 854.546L724.653 427.012C725.965 418.491 732.615 411.785 741.124 410.4L1168.08 340.907C1176.59 339.522 1185.02 343.774 1188.97 351.438L1387 736.024C1390.94 743.688 1389.51 753.023 1383.44 759.145L1078.87 1066.32C1072.8 1072.45 1063.48 1073.96 1055.78 1070.08L669.517 875.344Z" stroke="url(#paint91_linear_268_1249)" stroke-width="0.2"/>
<path opacity="0.939394" d="M670.485 873.312C662.856 869.297 658.68 860.826 660.141 852.33L733.266 427.006C734.727 418.509 741.493 411.919 750.025 410.683L1177.13 348.797C1185.66 347.561 1194.02 351.959 1197.83 359.692L1388.67 746.768C1392.48 754.501 1390.88 763.809 1384.71 769.824L1075.55 1070.94C1069.37 1076.95 1060.02 1078.31 1052.4 1074.29L670.485 873.312Z" stroke="url(#paint92_linear_268_1249)" stroke-width="0.2"/>
<path opacity="0.949495" d="M671.572 871.251C664.014 867.104 659.986 858.561 661.595 850.091L741.943 427.101C743.552 418.631 750.432 412.161 758.984 411.073L1186.1 356.778C1194.65 355.691 1202.93 360.235 1206.61 368.032L1390.23 757.467C1393.91 765.265 1392.15 774.543 1385.87 780.45L1072.24 1075.43C1065.96 1081.34 1056.59 1082.53 1049.03 1078.38L671.572 871.251Z" stroke="url(#paint93_linear_268_1249)" stroke-width="0.2"/>
<path opacity="0.959596" d="M672.773 869.168C665.289 864.889 661.411 856.278 663.167 847.837L750.68 427.303C752.436 418.862 759.428 412.513 767.998 411.575L1194.99 364.852C1203.56 363.915 1211.76 368.602 1215.3 376.463L1391.69 768.121C1395.23 775.982 1393.3 785.229 1386.92 791.025L1068.94 1079.81C1062.56 1085.6 1053.17 1086.63 1045.68 1082.35L672.773 869.168Z" stroke="url(#paint94_linear_268_1249)" stroke-width="0.2"/>
<path opacity="0.969697" d="M674.091 867.058C666.683 862.649 662.955 853.971 664.859 845.563L759.475 427.605C761.378 419.196 768.48 412.97 777.065 412.182L1203.8 373.011C1212.39 372.223 1220.51 377.052 1223.91 384.974L1393.03 778.723C1396.43 786.644 1394.35 795.856 1387.87 801.539L1065.65 1084.06C1059.17 1089.74 1049.76 1090.61 1042.36 1086.2L674.091 867.058Z" stroke="url(#paint95_linear_268_1249)" stroke-width="0.2"/>
<path opacity="0.979798" d="M675.525 864.928C668.194 860.391 664.619 851.649 666.669 843.275L768.324 428.013C770.374 419.639 777.583 413.537 786.181 412.899L1212.53 381.256C1221.13 380.618 1229.16 385.589 1232.42 393.568L1394.27 789.274C1397.53 797.254 1395.29 806.428 1388.71 811.997L1062.38 1088.2C1055.8 1093.77 1046.38 1094.47 1039.05 1089.93L675.525 864.928Z" stroke="url(#paint96_linear_268_1249)" stroke-width="0.2"/>
<path opacity="0.989899" d="M677.078 862.781C669.828 858.117 666.406 849.314 668.601 840.977L777.232 428.529C779.428 420.192 786.742 414.218 795.349 413.73L1221.18 389.59C1229.79 389.102 1237.73 394.212 1240.85 402.247L1395.4 799.776C1398.52 807.811 1396.12 816.944 1389.44 822.398L1059.13 1092.22C1052.45 1097.68 1043.02 1098.21 1035.77 1093.55L677.078 862.781Z" stroke="url(#paint97_linear_268_1249)" stroke-width="0.2"/>
<path d="M678.747 860.611C671.58 855.821 668.312 846.96 670.652 838.662L786.19 429.145C788.531 420.848 795.949 415.002 804.563 414.664L1229.74 397.999C1238.35 397.661 1246.21 402.909 1249.19 410.998L1396.43 810.216C1399.41 818.304 1396.85 827.394 1390.07 832.73L1055.89 1096.13C1049.12 1101.46 1039.69 1101.83 1032.52 1097.04L678.747 860.611Z" stroke="url(#paint98_linear_268_1249)" stroke-width="0.2"/>
</g>
<defs>
<linearGradient id="paint0_linear_268_1249" x1="938.135" y1="172.173" x2="444.709" y2="437.24" gradientUnits="userSpaceOnUse">
<stop stop-color="#FF1CF7"/>
<stop offset="1" stop-color="#00F0FF"/>
</linearGradient>
<linearGradient id="paint1_linear_268_1249" x1="943.332" y1="180.883" x2="446.264" y2="436.83" gradientUnits="userSpaceOnUse">
<stop stop-color="#FF1CF7"/>
<stop offset="1" stop-color="#00F0FF"/>
</linearGradient>
<linearGradient id="paint2_linear_268_1249" x1="948.449" y1="189.616" x2="447.907" y2="436.397" gradientUnits="userSpaceOnUse">
<stop stop-color="#FF1CF7"/>
<stop offset="1" stop-color="#00F0FF"/>
</linearGradient>
<linearGradient id="paint3_linear_268_1249" x1="953.485" y1="198.369" x2="449.636" y2="435.941" gradientUnits="userSpaceOnUse">
<stop stop-color="#FF1CF7"/>
<stop offset="1" stop-color="#00F0FF"/>
</linearGradient>
<linearGradient id="paint4_linear_268_1249" x1="958.437" y1="207.144" x2="451.451" y2="435.467" gradientUnits="userSpaceOnUse">
<stop stop-color="#FF1CF7"/>
<stop offset="1" stop-color="#00F0FF"/>
</linearGradient>
<linearGradient id="paint5_linear_268_1249" x1="963.305" y1="215.937" x2="453.35" y2="434.974" gradientUnits="userSpaceOnUse">
<stop stop-color="#FF1CF7"/>
<stop offset="1" stop-color="#00F0FF"/>
</linearGradient>
<linearGradient id="paint6_linear_268_1249" x1="968.09" y1="224.746" x2="455.336" y2="434.462" gradientUnits="userSpaceOnUse">
<stop stop-color="#FF1CF7"/>
<stop offset="1" stop-color="#00F0FF"/>
</linearGradient>
<linearGradient id="paint7_linear_268_1249" x1="972.794" y1="233.571" x2="457.411" y2="433.937" gradientUnits="userSpaceOnUse">
<stop stop-color="#FF1CF7"/>
<stop offset="1" stop-color="#00F0FF"/>
</linearGradient>
<linearGradient id="paint8_linear_268_1249" x1="977.413" y1="242.41" x2="459.571" y2="433.396" gradientUnits="userSpaceOnUse">
<stop stop-color="#FF1CF7"/>
<stop offset="1" stop-color="#00F0FF"/>
</linearGradient>
<linearGradient id="paint9_linear_268_1249" x1="981.945" y1="251.261" x2="461.814" y2="432.844" gradientUnits="userSpaceOnUse">
<stop stop-color="#FF1CF7"/>
<stop offset="1" stop-color="#00F0FF"/>
</linearGradient>
<linearGradient id="paint10_linear_268_1249" x1="986.4" y1="260.124" x2="464.15" y2="432.282" gradientUnits="userSpaceOnUse">
<stop stop-color="#FF1CF7"/>
<stop offset="1" stop-color="#00F0FF"/>
</linearGradient>
<linearGradient id="paint11_linear_268_1249" x1="990.768" y1="268.995" x2="466.568" y2="431.708" gradientUnits="userSpaceOnUse">
<stop stop-color="#FF1CF7"/>
<stop offset="1" stop-color="#00F0FF"/>
</linearGradient>
<linearGradient id="paint12_linear_268_1249" x1="995.054" y1="277.876" x2="469.076" y2="431.13" gradientUnits="userSpaceOnUse">
<stop stop-color="#FF1CF7"/>
<stop offset="1" stop-color="#00F0FF"/>
</linearGradient>
<linearGradient id="paint13_linear_268_1249" x1="999.254" y1="286.762" x2="471.667" y2="430.545" gradientUnits="userSpaceOnUse">
<stop stop-color="#FF1CF7"/>
<stop offset="1" stop-color="#00F0FF"/>
</linearGradient>
<linearGradient id="paint14_linear_268_1249" x1="1003.37" y1="295.651" x2="474.349" y2="429.953" gradientUnits="userSpaceOnUse">
<stop stop-color="#FF1CF7"/>
<stop offset="1" stop-color="#00F0FF"/>
</linearGradient>
<linearGradient id="paint15_linear_268_1249" x1="1007.41" y1="304.545" x2="477.117" y2="429.36" gradientUnits="userSpaceOnUse">
<stop stop-color="#FF1CF7"/>
<stop offset="1" stop-color="#00F0FF"/>
</linearGradient>
<linearGradient id="paint16_linear_268_1249" x1="1011.36" y1="313.44" x2="479.968" y2="428.764" gradientUnits="userSpaceOnUse">
<stop stop-color="#FF1CF7"/>
<stop offset="1" stop-color="#00F0FF"/>
</linearGradient>
<linearGradient id="paint17_linear_268_1249" x1="1015.23" y1="322.339" x2="482.91" y2="428.172" gradientUnits="userSpaceOnUse">
<stop stop-color="#FF1CF7"/>
<stop offset="1" stop-color="#00F0FF"/>
</linearGradient>
<linearGradient id="paint18_linear_268_1249" x1="1019.02" y1="331.232" x2="485.935" y2="427.577" gradientUnits="userSpaceOnUse">
<stop stop-color="#FF1CF7"/>
<stop offset="1" stop-color="#00F0FF"/>
</linearGradient>
<linearGradient id="paint19_linear_268_1249" x1="1022.72" y1="340.126" x2="489.044" y2="426.989" gradientUnits="userSpaceOnUse">
<stop stop-color="#FF1CF7"/>
<stop offset="1" stop-color="#00F0FF"/>
</linearGradient>
<linearGradient id="paint20_linear_268_1249" x1="1026.34" y1="349.014" x2="492.244" y2="426.403" gradientUnits="userSpaceOnUse">
<stop stop-color="#FF1CF7"/>
<stop offset="1" stop-color="#00F0FF"/>
</linearGradient>
<linearGradient id="paint21_linear_268_1249" x1="1029.88" y1="357.9" x2="495.526" y2="425.827" gradientUnits="userSpaceOnUse">
<stop stop-color="#FF1CF7"/>
<stop offset="1" stop-color="#00F0FF"/>
</linearGradient>
<linearGradient id="paint22_linear_268_1249" x1="1033.33" y1="366.777" x2="498.895" y2="425.256" gradientUnits="userSpaceOnUse">
<stop stop-color="#FF1CF7"/>
<stop offset="1" stop-color="#00F0FF"/>
</linearGradient>
<linearGradient id="paint23_linear_268_1249" x1="1036.71" y1="375.644" x2="502.346" y2="424.694" gradientUnits="userSpaceOnUse">
<stop stop-color="#FF1CF7"/>
<stop offset="1" stop-color="#00F0FF"/>
</linearGradient>
<linearGradient id="paint24_linear_268_1249" x1="1040" y1="384.503" x2="505.884" y2="424.144" gradientUnits="userSpaceOnUse">
<stop stop-color="#FF1CF7"/>
<stop offset="1" stop-color="#00F0FF"/>
</linearGradient>
<linearGradient id="paint25_linear_268_1249" x1="1043.21" y1="393.351" x2="509.506" y2="423.606" gradientUnits="userSpaceOnUse">
<stop stop-color="#FF1CF7"/>
<stop offset="1" stop-color="#00F0FF"/>
</linearGradient>
<linearGradient id="paint26_linear_268_1249" x1="1046.34" y1="402.182" x2="513.211" y2="423.078" gradientUnits="userSpaceOnUse">
<stop stop-color="#FF1CF7"/>
<stop offset="1" stop-color="#00F0FF"/>
</linearGradient>
<linearGradient id="paint27_linear_268_1249" x1="1049.39" y1="411.003" x2="517" y2="422.569" gradientUnits="userSpaceOnUse">
<stop stop-color="#FF1CF7"/>
<stop offset="1" stop-color="#00F0FF"/>
</linearGradient>
<linearGradient id="paint28_linear_268_1249" x1="1052.36" y1="419.808" x2="520.873" y2="422.077" gradientUnits="userSpaceOnUse">
<stop stop-color="#FF1CF7"/>
<stop offset="1" stop-color="#00F0FF"/>
</linearGradient>
<linearGradient id="paint29_linear_268_1249" x1="1055.25" y1="428.595" x2="524.825" y2="421.601" gradientUnits="userSpaceOnUse">
<stop stop-color="#FF1CF7"/>
<stop offset="1" stop-color="#00F0FF"/>
</linearGradient>
<linearGradient id="paint30_linear_268_1249" x1="1058.07" y1="437.364" x2="528.862" y2="421.145" gradientUnits="userSpaceOnUse">
<stop stop-color="#FF1CF7"/>
<stop offset="1" stop-color="#00F0FF"/>
</linearGradient>
<linearGradient id="paint31_linear_268_1249" x1="1060.8" y1="446.114" x2="532.979" y2="420.711" gradientUnits="userSpaceOnUse">
<stop stop-color="#FF1CF7"/>
<stop offset="1" stop-color="#00F0FF"/>
</linearGradient>
<linearGradient id="paint32_linear_268_1249" x1="1063.45" y1="454.841" x2="537.177" y2="420.297" gradientUnits="userSpaceOnUse">
<stop stop-color="#FF1CF7"/>
<stop offset="1" stop-color="#00F0FF"/>
</linearGradient>
<linearGradient id="paint33_linear_268_1249" x1="1066.03" y1="463.55" x2="541.457" y2="419.911" gradientUnits="userSpaceOnUse">
<stop stop-color="#FF1CF7"/>
<stop offset="1" stop-color="#00F0FF"/>
</linearGradient>
<linearGradient id="paint34_linear_268_1249" x1="1068.53" y1="472.234" x2="545.817" y2="419.549" gradientUnits="userSpaceOnUse">
<stop stop-color="#FF1CF7"/>
<stop offset="1" stop-color="#00F0FF"/>
</linearGradient>
<linearGradient id="paint35_linear_268_1249" x1="1070.96" y1="480.889" x2="550.255" y2="419.21" gradientUnits="userSpaceOnUse">
<stop stop-color="#FF1CF7"/>
<stop offset="1" stop-color="#00F0FF"/>
</linearGradient>
<linearGradient id="paint36_linear_268_1249" x1="1073.3" y1="489.522" x2="554.771" y2="418.903" gradientUnits="userSpaceOnUse">
<stop stop-color="#FF1CF7"/>
<stop offset="1" stop-color="#00F0FF"/>
</linearGradient>
<linearGradient id="paint37_linear_268_1249" x1="1075.58" y1="498.126" x2="559.367" y2="418.624" gradientUnits="userSpaceOnUse">
<stop stop-color="#FF1CF7"/>
<stop offset="1" stop-color="#00F0FF"/>
</linearGradient>
<linearGradient id="paint38_linear_268_1249" x1="1077.78" y1="506.703" x2="564.04" y2="418.377" gradientUnits="userSpaceOnUse">
<stop stop-color="#FF1CF7"/>
<stop offset="1" stop-color="#00F0FF"/>
</linearGradient>
<linearGradient id="paint39_linear_268_1249" x1="1079.9" y1="515.249" x2="568.785" y2="418.161" gradientUnits="userSpaceOnUse">
<stop stop-color="#FF1CF7"/>
<stop offset="1" stop-color="#00F0FF"/>
</linearGradient>
<linearGradient id="paint40_linear_268_1249" x1="1081.95" y1="523.762" x2="573.611" y2="417.977" gradientUnits="userSpaceOnUse">
<stop stop-color="#FF1CF7"/>
<stop offset="1" stop-color="#00F0FF"/>
</linearGradient>
<linearGradient id="paint41_linear_268_1249" x1="1083.93" y1="532.244" x2="578.511" y2="417.828" gradientUnits="userSpaceOnUse">
<stop stop-color="#FF1CF7"/>
<stop offset="1" stop-color="#00F0FF"/>
</linearGradient>
<linearGradient id="paint42_linear_268_1249" x1="1085.84" y1="540.688" x2="583.482" y2="417.712" gradientUnits="userSpaceOnUse">
<stop stop-color="#FF1CF7"/>
<stop offset="1" stop-color="#00F0FF"/>
</linearGradient>
<linearGradient id="paint43_linear_268_1249" x1="1087.67" y1="549.103" x2="588.531" y2="417.639" gradientUnits="userSpaceOnUse">
<stop stop-color="#FF1CF7"/>
<stop offset="1" stop-color="#00F0FF"/>
</linearGradient>
<linearGradient id="paint44_linear_268_1249" x1="1089.44" y1="557.479" x2="593.652" y2="417.602" gradientUnits="userSpaceOnUse">
<stop stop-color="#FF1CF7"/>
<stop offset="1" stop-color="#00F0FF"/>
</linearGradient>
<linearGradient id="paint45_linear_268_1249" x1="1091.14" y1="565.812" x2="598.842" y2="417.598" gradientUnits="userSpaceOnUse">
<stop stop-color="#FF1CF7"/>
<stop offset="1" stop-color="#00F0FF"/>
</linearGradient>
<linearGradient id="paint46_linear_268_1249" x1="1092.76" y1="574.115" x2="604.105" y2="417.643" gradientUnits="userSpaceOnUse">
<stop stop-color="#FF1CF7"/>
<stop offset="1" stop-color="#00F0FF"/>
</linearGradient>
<linearGradient id="paint47_linear_268_1249" x1="1094.32" y1="582.375" x2="609.439" y2="417.728" gradientUnits="userSpaceOnUse">
<stop stop-color="#FF1CF7"/>
<stop offset="1" stop-color="#00F0FF"/>
</linearGradient>
<linearGradient id="paint48_linear_268_1249" x1="1095.82" y1="590.595" x2="614.84" y2="417.855" gradientUnits="userSpaceOnUse">
<stop stop-color="#FF1CF7"/>
<stop offset="1" stop-color="#00F0FF"/>
</linearGradient>
<linearGradient id="paint49_linear_268_1249" x1="1097.24" y1="598.769" x2="620.31" y2="418.023" gradientUnits="userSpaceOnUse">
<stop stop-color="#FF1CF7"/>
<stop offset="1" stop-color="#00F0FF"/>
</linearGradient>
<linearGradient id="paint50_linear_268_1249" x1="1098.6" y1="606.903" x2="625.849" y2="418.241" gradientUnits="userSpaceOnUse">
<stop stop-color="#FF1CF7"/>
<stop offset="1" stop-color="#00F0FF"/>
</linearGradient>
<linearGradient id="paint51_linear_268_1249" x1="1099.9" y1="614.993" x2="631.453" y2="418.504" gradientUnits="userSpaceOnUse">
<stop stop-color="#FF1CF7"/>
<stop offset="1" stop-color="#00F0FF"/>
</linearGradient>
<linearGradient id="paint52_linear_268_1249" x1="1101.14" y1="623.037" x2="637.123" y2="418.814" gradientUnits="userSpaceOnUse">
<stop stop-color="#FF1CF7"/>
<stop offset="1" stop-color="#00F0FF"/>
</linearGradient>
<linearGradient id="paint53_linear_268_1249" x1="1102.31" y1="631.034" x2="642.858" y2="419.172" gradientUnits="userSpaceOnUse">
<stop stop-color="#FF1CF7"/>
<stop offset="1" stop-color="#00F0FF"/>
</linearGradient>
<linearGradient id="paint54_linear_268_1249" x1="1103.41" y1="638.983" x2="648.654" y2="419.579" gradientUnits="userSpaceOnUse">
<stop stop-color="#FF1CF7"/>
<stop offset="1" stop-color="#00F0FF"/>
</linearGradient>
<linearGradient id="paint55_linear_268_1249" x1="1104.47" y1="646.885" x2="654.516" y2="420.038" gradientUnits="userSpaceOnUse">
<stop stop-color="#FF1CF7"/>
<stop offset="1" stop-color="#00F0FF"/>
</linearGradient>
<linearGradient id="paint56_linear_268_1249" x1="1105.46" y1="654.739" x2="660.438" y2="420.549" gradientUnits="userSpaceOnUse">
<stop stop-color="#FF1CF7"/>
<stop offset="1" stop-color="#00F0FF"/>
</linearGradient>
<linearGradient id="paint57_linear_268_1249" x1="1106.39" y1="662.542" x2="666.42" y2="421.113" gradientUnits="userSpaceOnUse">
<stop stop-color="#FF1CF7"/>
<stop offset="1" stop-color="#00F0FF"/>
</linearGradient>
<linearGradient id="paint58_linear_268_1249" x1="1107.26" y1="670.295" x2="672.461" y2="421.732" gradientUnits="userSpaceOnUse">
<stop stop-color="#FF1CF7"/>
<stop offset="1" stop-color="#00F0FF"/>
</linearGradient>
<linearGradient id="paint59_linear_268_1249" x1="1108.08" y1="677.989" x2="678.56" y2="422.399" gradientUnits="userSpaceOnUse">
<stop stop-color="#FF1CF7"/>
<stop offset="1" stop-color="#00F0FF"/>
</linearGradient>
<linearGradient id="paint60_linear_268_1249" x1="1108.84" y1="685.64" x2="684.717" y2="423.13" gradientUnits="userSpaceOnUse">
<stop stop-color="#FF1CF7"/>
<stop offset="1" stop-color="#00F0FF"/>
</linearGradient>
<linearGradient id="paint61_linear_268_1249" x1="1109.55" y1="693.23" x2="690.932" y2="423.911" gradientUnits="userSpaceOnUse">
<stop stop-color="#FF1CF7"/>
<stop offset="1" stop-color="#00F0FF"/>
</linearGradient>
<linearGradient id="paint62_linear_268_1249" x1="1110.2" y1="700.766" x2="697.201" y2="424.751" gradientUnits="userSpaceOnUse">
<stop stop-color="#FF1CF7"/>
<stop offset="1" stop-color="#00F0FF"/>
</linearGradient>
<linearGradient id="paint63_linear_268_1249" x1="1110.81" y1="708.25" x2="703.523" y2="425.651" gradientUnits="userSpaceOnUse">
<stop stop-color="#FF1CF7"/>
<stop offset="1" stop-color="#00F0FF"/>
</linearGradient>
<linearGradient id="paint64_linear_268_1249" x1="1111.36" y1="715.674" x2="709.898" y2="426.607" gradientUnits="userSpaceOnUse">
<stop stop-color="#FF1CF7"/>
<stop offset="1" stop-color="#00F0FF"/>
</linearGradient>
<linearGradient id="paint65_linear_268_1249" x1="1111.85" y1="723.043" x2="716.321" y2="427.626" gradientUnits="userSpaceOnUse">
<stop stop-color="#FF1CF7"/>
<stop offset="1" stop-color="#00F0FF"/>
</linearGradient>
<linearGradient id="paint66_linear_268_1249" x1="1112.31" y1="730.351" x2="722.799" y2="428.701" gradientUnits="userSpaceOnUse">
<stop stop-color="#FF1CF7"/>
<stop offset="1" stop-color="#00F0FF"/>
</linearGradient>
<linearGradient id="paint67_linear_268_1249" x1="1112.71" y1="737.603" x2="729.323" y2="429.841" gradientUnits="userSpaceOnUse">
<stop stop-color="#FF1CF7"/>
<stop offset="1" stop-color="#00F0FF"/>
</linearGradient>
<linearGradient id="paint68_linear_268_1249" x1="1113.07" y1="744.797" x2="735.897" y2="431.044" gradientUnits="userSpaceOnUse">
<stop stop-color="#FF1CF7"/>
<stop offset="1" stop-color="#00F0FF"/>
</linearGradient>
<linearGradient id="paint69_linear_268_1249" x1="1113.38" y1="751.929" x2="742.517" y2="432.309" gradientUnits="userSpaceOnUse">
<stop stop-color="#FF1CF7"/>
<stop offset="1" stop-color="#00F0FF"/>
</linearGradient>
<linearGradient id="paint70_linear_268_1249" x1="1113.65" y1="758.996" x2="749.182" y2="433.633" gradientUnits="userSpaceOnUse">
<stop stop-color="#FF1CF7"/>
<stop offset="1" stop-color="#00F0FF"/>
</linearGradient>
<linearGradient id="paint71_linear_268_1249" x1="1113.88" y1="766.007" x2="755.892" y2="435.026" gradientUnits="userSpaceOnUse">
<stop stop-color="#FF1CF7"/>
<stop offset="1" stop-color="#00F0FF"/>
</linearGradient>
<linearGradient id="paint72_linear_268_1249" x1="1114.06" y1="772.956" x2="762.645" y2="436.485" gradientUnits="userSpaceOnUse">
<stop stop-color="#FF1CF7"/>
<stop offset="1" stop-color="#00F0FF"/>
</linearGradient>
<linearGradient id="paint73_linear_268_1249" x1="1114.2" y1="779.839" x2="769.441" y2="438.006" gradientUnits="userSpaceOnUse">
<stop stop-color="#FF1CF7"/>
<stop offset="1" stop-color="#00F0FF"/>
</linearGradient>
<linearGradient id="paint74_linear_268_1249" x1="1114.31" y1="786.657" x2="776.274" y2="439.591" gradientUnits="userSpaceOnUse">
<stop stop-color="#FF1CF7"/>
<stop offset="1" stop-color="#00F0FF"/>
</linearGradient>
<linearGradient id="paint75_linear_268_1249" x1="1114.37" y1="793.416" x2="783.147" y2="441.248" gradientUnits="userSpaceOnUse">
<stop stop-color="#FF1CF7"/>
<stop offset="1" stop-color="#00F0FF"/>
</linearGradient>
<linearGradient id="paint76_linear_268_1249" x1="1114.4" y1="800.106" x2="790.061" y2="442.968" gradientUnits="userSpaceOnUse">
<stop stop-color="#FF1CF7"/>
<stop offset="1" stop-color="#00F0FF"/>
</linearGradient>
<linearGradient id="paint77_linear_268_1249" x1="1114.39" y1="806.736" x2="797.011" y2="444.761" gradientUnits="userSpaceOnUse">
<stop stop-color="#FF1CF7"/>
<stop offset="1" stop-color="#00F0FF"/>
</linearGradient>
<linearGradient id="paint78_linear_268_1249" x1="1114.35" y1="813.298" x2="803.993" y2="446.618" gradientUnits="userSpaceOnUse">
<stop stop-color="#FF1CF7"/>
<stop offset="1" stop-color="#00F0FF"/>
</linearGradient>
<linearGradient id="paint79_linear_268_1249" x1="1114.28" y1="819.794" x2="811.012" y2="448.545" gradientUnits="userSpaceOnUse">
<stop stop-color="#FF1CF7"/>
<stop offset="1" stop-color="#00F0FF"/>
</linearGradient>
<linearGradient id="paint80_linear_268_1249" x1="1114.17" y1="826.226" x2="818.063" y2="450.544" gradientUnits="userSpaceOnUse">
<stop stop-color="#FF1CF7"/>
<stop offset="1" stop-color="#00F0FF"/>
</linearGradient>
<linearGradient id="paint81_linear_268_1249" x1="1114.03" y1="832.588" x2="825.145" y2="452.609" gradientUnits="userSpaceOnUse">
<stop stop-color="#FF1CF7"/>
<stop offset="1" stop-color="#00F0FF"/>
</linearGradient>
<linearGradient id="paint82_linear_268_1249" x1="1113.86" y1="838.883" x2="832.256" y2="454.744" gradientUnits="userSpaceOnUse">
<stop stop-color="#FF1CF7"/>
<stop offset="1" stop-color="#00F0FF"/>
</linearGradient>
<linearGradient id="paint83_linear_268_1249" x1="1113.67" y1="845.112" x2="839.399" y2="456.952" gradientUnits="userSpaceOnUse">
<stop stop-color="#FF1CF7"/>
<stop offset="1" stop-color="#00F0FF"/>
</linearGradient>
<linearGradient id="paint84_linear_268_1249" x1="1113.44" y1="851.271" x2="846.565" y2="459.229" gradientUnits="userSpaceOnUse">
<stop stop-color="#FF1CF7"/>
<stop offset="1" stop-color="#00F0FF"/>
</linearGradient>
<linearGradient id="paint85_linear_268_1249" x1="1113.2" y1="857.362" x2="853.761" y2="461.576" gradientUnits="userSpaceOnUse">
<stop stop-color="#FF1CF7"/>
<stop offset="1" stop-color="#00F0FF"/>
</linearGradient>
<linearGradient id="paint86_linear_268_1249" x1="1112.92" y1="863.384" x2="860.981" y2="463.996" gradientUnits="userSpaceOnUse">
<stop stop-color="#FF1CF7"/>
<stop offset="1" stop-color="#00F0FF"/>
</linearGradient>
<linearGradient id="paint87_linear_268_1249" x1="1112.63" y1="869.339" x2="868.223" y2="466.488" gradientUnits="userSpaceOnUse">
<stop stop-color="#FF1CF7"/>
<stop offset="1" stop-color="#00F0FF"/>
</linearGradient>
<linearGradient id="paint88_linear_268_1249" x1="1112.31" y1="875.226" x2="875.489" y2="469.054" gradientUnits="userSpaceOnUse">
<stop stop-color="#FF1CF7"/>
<stop offset="1" stop-color="#00F0FF"/>
</linearGradient>
<linearGradient id="paint89_linear_268_1249" x1="1111.97" y1="881.039" x2="882.777" y2="471.688" gradientUnits="userSpaceOnUse">
<stop stop-color="#FF1CF7"/>
<stop offset="1" stop-color="#00F0FF"/>
</linearGradient>
<linearGradient id="paint90_linear_268_1249" x1="1111.62" y1="886.786" x2="890.082" y2="474.398" gradientUnits="userSpaceOnUse">
<stop stop-color="#FF1CF7"/>
<stop offset="1" stop-color="#00F0FF"/>
</linearGradient>
<linearGradient id="paint91_linear_268_1249" x1="1111.24" y1="892.462" x2="897.405" y2="477.178" gradientUnits="userSpaceOnUse">
<stop stop-color="#FF1CF7"/>
<stop offset="1" stop-color="#00F0FF"/>
</linearGradient>
<linearGradient id="paint92_linear_268_1249" x1="1110.85" y1="898.067" x2="904.745" y2="480.031" gradientUnits="userSpaceOnUse">
<stop stop-color="#FF1CF7"/>
<stop offset="1" stop-color="#00F0FF"/>
</linearGradient>
<linearGradient id="paint93_linear_268_1249" x1="1110.44" y1="903.601" x2="912.103" y2="482.957" gradientUnits="userSpaceOnUse">
<stop stop-color="#FF1CF7"/>
<stop offset="1" stop-color="#00F0FF"/>
</linearGradient>
<linearGradient id="paint94_linear_268_1249" x1="1110.02" y1="909.069" x2="919.473" y2="485.959" gradientUnits="userSpaceOnUse">
<stop stop-color="#FF1CF7"/>
<stop offset="1" stop-color="#00F0FF"/>
</linearGradient>
<linearGradient id="paint95_linear_268_1249" x1="1109.59" y1="914.463" x2="926.856" y2="489.031" gradientUnits="userSpaceOnUse">
<stop stop-color="#FF1CF7"/>
<stop offset="1" stop-color="#00F0FF"/>
</linearGradient>
<linearGradient id="paint96_linear_268_1249" x1="1109.14" y1="919.788" x2="934.248" y2="492.178" gradientUnits="userSpaceOnUse">
<stop stop-color="#FF1CF7"/>
<stop offset="1" stop-color="#00F0FF"/>
</linearGradient>
<linearGradient id="paint97_linear_268_1249" x1="1108.69" y1="925.046" x2="941.654" y2="495.401" gradientUnits="userSpaceOnUse">
<stop stop-color="#FF1CF7"/>
<stop offset="1" stop-color="#00F0FF"/>
</linearGradient>
<linearGradient id="paint98_linear_268_1249" x1="1108.22" y1="930.226" x2="949.067" y2="498.691" gradientUnits="userSpaceOnUse">
<stop stop-color="#FF1CF7"/>
<stop offset="1" stop-color="#00F0FF"/>
</linearGradient>
</defs>
</svg>
