<svg width="18" height="16" viewBox="0 0 18 16" fill="none" xmlns="http://www.w3.org/2000/svg">
<path d="M17.0226 8.65239L15.1031 1.44536C15.0409 1.21599 14.9078 1.01218 14.7227 0.863166C14.5375 0.714151 14.31 0.627581 14.0727 0.615869C13.8353 0.604158 13.6003 0.667907 13.4015 0.797975C13.2026 0.928043 13.05 1.11775 12.9656 1.33989L11.5804 5.0313H6.41948L5.03433 1.33989C4.94991 1.11775 4.79733 0.928043 4.59844 0.797975C4.39956 0.667907 4.1646 0.604158 3.92725 0.615869C3.6899 0.627581 3.46236 0.714151 3.27724 0.863166C3.09213 1.01218 2.95896 1.21599 2.89683 1.44536L0.977295 8.65239C0.902345 8.93193 0.915471 9.22779 1.01488 9.4996C1.11429 9.7714 1.29515 10.0059 1.53276 10.1711L8.19839 14.7836C8.38188 14.908 8.5909 14.9897 8.81011 15.0227H9.1898C9.409 14.9897 9.61803 14.908 9.80151 14.7836L16.4671 10.1711C16.7048 10.0059 16.8856 9.7714 16.985 9.4996C17.0844 9.22779 17.0976 8.93193 17.0226 8.65239ZM10.9476 6.7188L8.99995 11.9079L7.0523 6.7188H10.9476ZM4.07105 3.57583L5.04839 6.17036L7.26323 12.0836L2.65776 8.89145L4.07105 3.57583ZM10.7367 12.0836L12.9515 6.17036L13.9289 3.57583L15.3421 8.89145L10.7367 12.0836Z" fill="#D1D5DB"/>
</svg>
