<?xml version="1.0" encoding="UTF-8" standalone="no"?>
<svg
   xmlns:dc="http://purl.org/dc/elements/1.1/"
   xmlns:cc="http://creativecommons.org/ns#"
   xmlns:rdf="http://www.w3.org/1999/02/22-rdf-syntax-ns#"
   xmlns:svg="http://www.w3.org/2000/svg"
   xmlns="http://www.w3.org/2000/svg"
   xmlns:sodipodi="http://sodipodi.sourceforge.net/DTD/sodipodi-0.dtd"
   xmlns:inkscape="http://www.inkscape.org/namespaces/inkscape"
   viewBox="0 0 700 700"
   version="1.1"
   id="svg6"
   sodipodi:docname="javascript-logo.svg"
   width="700"
   height="700"
   inkscape:version="0.92.4 (5da689c313, 2019-01-14)"
   inkscape:export-filename="C:\Users\suitedoalex\sites\javascript-logo-0.png"
   inkscape:export-xdpi="561.73712"
   inkscape:export-ydpi="561.73712">
  <metadata
     id="metadata12">
    <rdf:RDF>
      <cc:Work
         rdf:about="">
        <dc:format>image/svg+xml</dc:format>
        <dc:type
           rdf:resource="http://purl.org/dc/dcmitype/StillImage" />
        <dc:title></dc:title>
      </cc:Work>
    </rdf:RDF>
  </metadata>
  <defs
     id="defs10" />
  <sodipodi:namedview
     pagecolor="#ffffff"
     bordercolor="#666666"
     borderopacity="1"
     objecttolerance="10"
     gridtolerance="10"
     guidetolerance="10"
     inkscape:pageopacity="0"
     inkscape:pageshadow="2"
     inkscape:window-width="1600"
     inkscape:window-height="837"
     id="namedview8"
     showgrid="false"
     inkscape:zoom="0.52976889"
     inkscape:cx="263.68"
     inkscape:cy="303.83051"
     inkscape:window-x="-8"
     inkscape:window-y="-8"
     inkscape:window-maximized="1"
     inkscape:current-layer="svg6" />
  <rect
     width="435.12711"
     height="435.12711"
     id="rect2"
     x="132.43645"
     y="132.43645"
     style="fill:#f7df1e;stroke-width:0.69067794"
     rx="14.750072"
     ry="14.750072"
     inkscape:export-filename="C:\Users\suitedoalex\sites\javascript-logo-4.png"
     inkscape:export-xdpi="88.250084"
     inkscape:export-ydpi="88.250084" />
  <path
     d="m 424.73137,472.38124 c 8.7647,14.31085 20.16779,24.82987 40.33559,24.82987 16.94233,0 27.76525,-8.46771 27.76525,-20.1678 0,-14.02076 -11.11991,-18.98673 -29.76822,-27.14364 l -10.22203,-4.3858 c -29.50576,-12.57034 -49.1072,-28.3178 -49.1072,-61.60848 0,-30.6661 23.36563,-54.01102 59.88177,-54.01102 25.99712,0 44.68687,9.04789 58.15509,32.73814 l -31.84025,20.44407 c -7.01039,-12.57034 -14.57331,-17.5225 -26.31484,-17.5225 -11.97635,0 -19.5669,7.59745 -19.5669,17.5225 0,12.26644 7.59746,17.23241 25.14068,24.82987 l 10.22203,4.3789 c 34.7411,14.89792 54.35636,30.08593 54.35636,64.23305 0,36.81313 -28.91869,56.98093 -67.75551,56.98093 -37.97348,0 -62.50636,-18.09576 -74.51034,-41.81364 z m -144.44149,3.54318 c 6.42331,11.39618 12.26644,21.03114 26.31483,21.03114 13.43369,0 21.90831,-5.25606 21.90831,-25.69322 V 332.22887 h 40.88813 v 139.58601 c 0,42.33856 -24.82296,61.60848 -61.05593,61.60848 -32.73813,0 -51.69724,-16.94233 -61.33911,-37.34841 z"
     id="path4"
     inkscape:connector-curvature="0"
     style="stroke-width:0.69067794"
     inkscape:export-filename="C:\Users\suitedoalex\sites\javascript-logo-4.png"
     inkscape:export-xdpi="88.250084"
     inkscape:export-ydpi="88.250084" />
</svg>
