<svg width="918" height="1635" viewBox="0 0 918 1635" fill="none" xmlns="http://www.w3.org/2000/svg">
<path opacity="0.010101" d="M190.67 845.872L277.349 328.586C278.774 320.084 274.562 311.63 266.916 307.648L-198.267 65.3611C-205.913 61.3786 -215.254 62.7726 -221.405 68.8139L-595.583 436.358C-601.733 442.4 -603.294 451.714 -599.449 459.431L-365.521 928.872C-361.676 936.589 -353.299 940.951 -344.772 939.679L173.981 862.266C182.508 860.993 189.246 854.375 190.67 845.872Z" stroke="url(#paint0_linear_1047_13365)" stroke-width="0.2"/>
<path opacity="0.020202" d="M198.663 843.931L276.152 326.21C277.428 317.684 273.069 309.306 265.354 305.457L-203.082 71.777C-210.797 67.9286 -220.112 69.4853 -226.156 75.6331L-593.154 448.931C-599.198 455.079 -600.596 464.42 -596.617 472.068L-354.998 936.459C-351.019 944.107 -342.568 948.323 -334.064 946.902L182.263 860.613C190.766 859.192 197.387 852.458 198.663 843.931Z" stroke="url(#paint1_linear_1047_13365)" stroke-width="0.2"/>
<path opacity="0.030303" d="M206.532 841.907L274.841 323.914C275.968 315.367 271.463 307.066 263.683 303.353L-207.849 78.3183C-215.629 74.605 -224.916 76.3242 -230.852 82.5764L-590.584 461.49C-596.52 467.743 -597.754 477.106 -593.642 484.683L-344.437 943.9C-340.325 951.477 -331.801 955.545 -323.324 953.975L190.425 858.873C198.902 857.304 205.405 850.454 206.532 841.907Z" stroke="url(#paint2_linear_1047_13365)" stroke-width="0.2"/>
<path opacity="0.040404" d="M214.274 839.808L273.418 321.706C274.396 313.14 269.747 304.919 261.903 301.342L-212.565 84.9904C-220.409 81.4135 -229.665 83.2945 -235.49 89.6494L-587.872 474.039C-593.698 480.394 -594.769 489.778 -590.525 497.282L-333.841 951.2C-329.597 958.704 -321.004 962.623 -312.555 960.906L198.466 857.052C206.915 855.336 213.297 848.374 214.274 839.808Z" stroke="url(#paint3_linear_1047_13365)" stroke-width="0.2"/>
<path opacity="0.050505" d="M221.891 837.644L271.887 319.593C272.715 311.012 267.924 302.873 260.018 299.434L-217.227 91.7989C-225.133 88.3595 -234.354 90.4017 -240.068 96.8573L-585.018 486.582C-590.732 493.038 -591.639 502.438 -587.265 509.868L-323.21 958.366C-318.836 965.795 -310.176 969.563 -301.758 967.699L206.386 855.161C214.804 853.297 221.063 846.225 221.891 837.644Z" stroke="url(#paint4_linear_1047_13365)" stroke-width="0.2"/>
<path opacity="0.0606061" d="M229.383 835.415L270.251 317.578C270.929 308.984 265.996 300.93 258.032 297.629L-221.832 98.7413C-229.796 95.4404 -238.98 97.6432 -244.58 104.198L-582.02 499.115C-587.62 505.67 -588.363 515.085 -583.86 522.437L-312.546 965.397C-308.043 972.749 -299.318 976.365 -290.935 974.354L214.186 853.201C222.57 851.19 228.705 844.01 229.383 835.415Z" stroke="url(#paint5_linear_1047_13365)" stroke-width="0.2"/>
<path opacity="0.0707071" d="M236.746 833.115L268.508 315.652C269.036 307.047 263.963 299.081 255.942 295.919L-226.379 105.807C-234.4 102.646 -243.544 105.008 -249.029 111.66L-578.882 511.627C-584.368 518.278 -584.946 527.705 -580.316 534.977L-301.854 972.282C-297.224 979.554 -288.437 983.018 -280.09 980.861L221.862 851.163C230.209 849.007 236.218 841.72 236.746 833.115Z" stroke="url(#paint6_linear_1047_13365)" stroke-width="0.2"/>
<path opacity="0.0808081" d="M243.979 830.761L266.661 313.831C267.039 305.219 261.828 297.342 253.753 294.321L-230.867 113.009C-238.941 109.988 -248.043 112.51 -253.411 119.256L-575.604 524.129C-580.973 530.875 -581.387 540.31 -576.63 547.5L-291.136 979.037C-286.38 986.227 -277.534 989.536 -269.226 987.234L229.412 849.066C237.721 846.764 243.601 839.374 243.979 830.761Z" stroke="url(#paint7_linear_1047_13365)" stroke-width="0.2"/>
<path opacity="0.0909091" d="M251.085 828.337L264.715 312.101C264.942 303.482 259.594 295.698 251.468 292.818L-235.29 120.329C-243.416 117.45 -252.472 120.13 -257.722 126.969L-572.185 536.601C-577.435 543.44 -577.684 552.881 -572.803 559.987L-280.393 985.643C-275.512 992.749 -266.61 995.904 -258.343 993.457L236.839 846.894C245.106 844.447 250.857 836.955 251.085 828.337Z" stroke="url(#paint8_linear_1047_13365)" stroke-width="0.2"/>
<path opacity="0.10101" d="M258.059 825.861L262.669 310.475C262.746 301.854 257.263 294.164 249.088 291.427L-239.649 127.78C-247.824 125.043 -256.832 127.881 -261.962 134.81L-568.627 549.057C-573.756 555.986 -573.841 565.43 -568.836 572.45L-269.629 992.115C-264.624 999.135 -255.668 1002.13 -247.446 999.543L244.14 844.663C252.363 842.073 257.982 834.482 258.059 825.861Z" stroke="url(#paint9_linear_1047_13365)" stroke-width="0.2"/>
<path opacity="0.111111" d="M264.901 823.325L260.523 308.947C260.45 300.326 254.834 292.733 246.612 290.139L-243.943 135.351C-252.165 132.756 -261.122 135.751 -266.13 142.769L-564.932 561.482C-569.94 568.5 -569.859 577.944 -564.733 584.875L-258.847 998.443C-253.721 1005.37 -244.714 1008.22 -236.538 1005.48L251.312 842.367C259.488 839.634 264.974 831.946 264.901 823.325Z" stroke="url(#paint10_linear_1047_13365)" stroke-width="0.2"/>
<path opacity="0.121212" d="M271.613 820.738L258.285 307.525C258.061 298.907 252.313 291.412 244.048 288.962L-248.166 143.046C-256.431 140.596 -265.335 143.746 -270.219 150.85L-561.096 573.882C-565.981 580.986 -565.736 590.427 -560.489 597.268L-248.047 1004.63C-242.801 1011.47 -233.746 1014.16 -225.618 1011.28L258.358 840.015C266.485 837.139 271.836 829.356 271.613 820.738Z" stroke="url(#paint11_linear_1047_13365)" stroke-width="0.2"/>
<path opacity="0.131313" d="M278.19 818.101L255.951 306.207C255.577 297.594 249.699 290.202 241.392 287.896L-252.32 150.863C-260.627 148.557 -269.474 151.862 -274.234 159.05L-557.126 586.252C-561.886 593.441 -561.476 602.876 -556.11 609.624L-237.236 1010.68C-231.87 1017.43 -222.77 1019.96 -214.694 1016.94L265.273 837.606C273.349 834.588 278.564 826.714 278.19 818.101Z" stroke="url(#paint12_linear_1047_13365)" stroke-width="0.2"/>
<path opacity="0.141414" d="M284.635 815.422L253.528 305.003C253.003 296.398 246.997 289.109 238.651 286.948L-256.399 158.805C-264.745 156.645 -273.533 160.104 -278.167 167.374L-553.017 598.597C-557.651 605.867 -557.076 615.294 -551.594 621.947L-226.41 1016.6C-220.928 1023.25 -211.785 1025.62 -203.763 1022.46L272.062 835.149C280.084 831.991 285.16 824.027 284.635 815.422Z" stroke="url(#paint13_linear_1047_13365)" stroke-width="0.2"/>
<path opacity="0.151515" d="M290.946 812.686L251.014 303.895C250.34 295.3 244.208 288.117 235.825 286.103L-260.404 166.855C-268.786 164.841 -277.513 168.453 -282.019 175.803L-548.773 610.895C-553.279 618.245 -552.54 627.66 -546.943 634.217L-215.577 1022.37C-209.979 1028.92 -200.796 1031.13 -192.831 1027.83L278.719 832.63C286.684 829.332 291.621 821.281 290.946 812.686Z" stroke="url(#paint14_linear_1047_13365)" stroke-width="0.2"/>
<path opacity="0.161616" d="M297.122 809.918L248.414 302.906C247.589 294.325 241.333 287.25 232.916 285.382L-264.332 175.032C-272.749 173.164 -281.41 176.928 -285.788 184.355L-544.395 623.167C-548.772 630.594 -547.869 639.995 -542.158 646.453L-204.738 1028C-199.027 1034.46 -189.807 1036.51 -181.9 1033.07L285.245 830.072C293.152 826.636 297.947 818.499 297.122 809.918Z" stroke="url(#paint15_linear_1047_13365)" stroke-width="0.2"/>
<path opacity="0.171717" d="M303.163 807.102L245.727 302.021C244.753 293.455 238.374 286.491 229.926 284.77L-268.182 183.317C-276.63 181.596 -285.225 185.511 -289.472 193.013L-539.884 635.392C-544.131 642.894 -543.064 652.278 -537.241 658.636L-193.895 1033.49C-188.072 1039.85 -178.818 1041.74 -170.972 1038.16L291.639 827.46C299.485 823.887 304.137 815.668 303.163 807.102Z" stroke="url(#paint16_linear_1047_13365)" stroke-width="0.2"/>
<path opacity="0.181818" d="M309.069 804.246L242.959 301.247C241.835 292.699 235.336 285.847 226.859 284.274L-271.951 191.713C-280.428 190.141 -288.953 194.205 -293.068 201.78L-535.239 647.574C-539.355 655.149 -538.124 664.513 -532.191 670.768L-183.051 1038.84C-177.118 1045.1 -167.832 1046.82 -160.05 1043.11L297.902 824.803C305.684 821.093 310.192 812.794 309.069 804.246Z" stroke="url(#paint17_linear_1047_13365)" stroke-width="0.2"/>
<path opacity="0.191919" d="M314.84 801.36L240.11 300.59C238.838 292.063 232.22 285.326 223.717 283.901L-275.637 200.227C-284.139 198.802 -292.592 203.014 -296.575 210.66L-530.462 659.717C-534.445 667.363 -533.051 676.704 -527.009 682.854L-172.207 1044.06C-166.165 1050.21 -156.851 1051.77 -149.134 1047.93L304.033 822.108C311.75 818.263 316.112 809.887 314.84 801.36Z" stroke="url(#paint18_linear_1047_13365)" stroke-width="0.2"/>
<path opacity="0.20202" d="M320.474 798.435L237.183 300.042C235.762 291.539 229.027 284.918 220.501 283.641L-279.238 208.844C-287.764 207.568 -296.142 211.927 -299.991 219.642L-525.555 671.808C-529.403 679.523 -527.846 688.838 -521.699 694.882L-161.366 1049.13C-155.218 1055.18 -145.878 1056.57 -138.23 1052.6L310.032 819.369C317.68 815.39 321.895 806.938 320.474 798.435Z" stroke="url(#paint19_linear_1047_13365)" stroke-width="0.2"/>
<path opacity="0.212121" d="M325.971 795.488L234.178 299.618C232.609 291.14 225.759 284.638 217.212 283.511L-282.754 217.579C-291.301 216.452 -299.602 220.956 -303.315 228.737L-520.519 683.859C-524.232 691.64 -522.513 700.926 -516.26 706.862L-150.533 1054.08C-144.281 1060.01 -134.917 1061.25 -127.34 1057.13L315.895 816.601C323.473 812.489 327.54 803.965 325.971 795.488Z" stroke="url(#paint20_linear_1047_13365)" stroke-width="0.2"/>
<path opacity="0.222222" d="M331.333 792.511L231.101 299.308C229.384 290.86 222.422 284.477 213.856 283.5L-286.181 226.418C-294.746 225.44 -302.968 230.089 -306.544 237.933L-515.352 695.858C-518.929 703.702 -517.048 712.957 -510.693 718.783L-139.706 1058.88C-133.352 1064.7 -123.968 1065.77 -116.464 1061.53L321.627 813.796C329.131 809.553 333.05 800.959 331.333 792.511Z" stroke="url(#paint21_linear_1047_13365)" stroke-width="0.2"/>
<path opacity="0.232323" d="M336.556 789.504L227.95 299.112C226.086 290.695 219.014 284.435 210.432 283.607L-289.519 235.358C-298.101 234.53 -306.239 239.321 -309.679 247.227L-510.06 707.799C-513.5 715.705 -511.457 724.926 -505.002 730.64L-128.892 1063.54C-122.437 1069.25 -113.036 1070.16 -105.607 1065.79L327.223 810.956C334.652 806.582 338.42 797.921 336.556 789.504Z" stroke="url(#paint22_linear_1047_13365)" stroke-width="0.2"/>
<path opacity="0.242424" d="M341.641 786.476L224.729 299.036C222.718 290.653 215.538 284.517 206.944 283.839L-292.767 244.402C-301.362 243.724 -309.416 248.657 -312.716 256.621L-504.642 719.688C-507.943 727.652 -505.74 736.836 -499.186 742.436L-118.092 1068.06C-111.538 1073.66 -102.122 1074.41 -94.7707 1069.9L332.684 808.087C340.036 803.584 343.652 794.859 341.641 786.476Z" stroke="url(#paint23_linear_1047_13365)" stroke-width="0.2"/>
<path opacity="0.252525" d="M346.591 783.426L221.442 299.079C219.285 290.732 211.999 284.723 203.394 284.195L-295.921 253.547C-304.526 253.019 -312.492 258.092 -315.654 266.112L-499.098 731.518C-502.26 739.539 -499.897 748.683 -493.246 754.168L-107.306 1072.45C-100.655 1077.94 -91.2284 1078.52 -83.9563 1073.89L338.012 805.191C345.284 800.56 348.747 791.774 346.591 783.426Z" stroke="url(#paint24_linear_1047_13365)" stroke-width="0.2"/>
<path opacity="0.262626" d="M351.403 780.356L218.09 299.24C215.788 290.932 208.398 285.051 199.785 284.673L-298.979 262.788C-307.592 262.41 -315.469 267.621 -318.49 275.696L-493.43 743.286C-496.451 751.361 -493.929 760.462 -487.183 765.831L-96.5376 1076.7C-89.7918 1082.07 -80.3564 1082.48 -73.1663 1077.73L343.206 802.266C350.396 797.509 353.706 788.664 351.403 780.356Z" stroke="url(#paint25_linear_1047_13365)" stroke-width="0.2"/>
<path opacity="0.272727" d="M356.077 777.279L214.675 299.532C212.228 291.266 204.737 285.514 196.118 285.287L-301.942 272.137C-310.56 271.909 -318.345 277.257 -321.225 285.383L-487.64 755.003C-490.52 763.129 -487.839 772.185 -481.001 777.435L-85.7908 1080.83C-78.9523 1086.08 -69.5112 1086.33 -62.4052 1081.44L348.264 799.33C355.37 794.448 358.524 785.546 356.077 777.279Z" stroke="url(#paint26_linear_1047_13365)" stroke-width="0.2"/>
<path opacity="0.282828" d="M360.613 774.182L211.198 299.939C208.607 291.716 201.016 286.097 192.396 286.02L-304.808 281.573C-313.429 281.496 -321.119 286.979 -323.857 295.154L-481.73 766.649C-484.467 774.824 -481.629 783.832 -474.7 788.962L-75.0675 1084.81C-68.1384 1089.94 -58.6944 1090.02 -51.6746 1085.02L353.186 796.366C360.205 791.361 363.204 782.405 360.613 774.182Z" stroke="url(#paint27_linear_1047_13365)" stroke-width="0.2"/>
<path opacity="0.292929" d="M365.012 771.072L207.663 300.467C204.929 292.29 197.241 286.804 188.62 286.878L-307.576 291.1C-316.196 291.174 -323.79 296.79 -326.384 305.011L-475.701 778.227C-478.295 786.448 -475.3 795.405 -468.282 800.413L-64.3695 1088.65C-57.3519 1093.66 -47.9079 1093.58 -40.9765 1088.45L357.972 793.381C364.904 788.255 367.745 779.248 365.012 771.072Z" stroke="url(#paint28_linear_1047_13365)" stroke-width="0.2"/>
<path opacity="0.30303" d="M369.274 767.956L204.073 301.121C201.197 292.993 193.414 287.642 184.796 287.866L-310.241 300.722C-318.859 300.946 -326.353 306.693 -328.803 314.959L-469.551 789.74C-472.002 798.005 -468.851 806.909 -461.747 811.793L-53.6976 1092.37C-46.5937 1097.25 -37.1525 1097.01 -30.3117 1091.76L362.625 790.385C369.466 785.138 372.15 776.083 369.274 767.956Z" stroke="url(#paint29_linear_1047_13365)" stroke-width="0.2"/>
<path opacity="0.313131" d="M373.398 764.842L200.428 301.908C197.411 293.832 189.536 288.617 180.923 288.992L-312.804 310.441C-321.418 310.815 -328.81 316.693 -331.116 325L-463.286 801.191C-465.592 809.498 -462.287 818.346 -455.098 823.105L-43.0566 1095.96C-35.8685 1100.72 -26.4329 1100.31 -19.6848 1094.94L367.142 787.384C373.89 782.019 376.416 772.918 373.398 764.842Z" stroke="url(#paint30_linear_1047_13365)" stroke-width="0.2"/>
<path opacity="0.323232" d="M377.386 761.715L196.733 302.81C193.575 294.788 185.611 289.712 177.005 290.236L-315.264 320.238C-323.87 320.762 -331.159 326.768 -333.319 335.114L-456.906 812.562C-459.066 820.908 -455.607 829.696 -448.336 834.329L-32.4473 1099.41C-25.1772 1104.04 -15.7502 1103.47 -9.0967 1097.98L371.524 784.363C378.177 778.881 380.544 769.737 377.386 761.715Z" stroke="url(#paint31_linear_1047_13365)" stroke-width="0.2"/>
<path opacity="0.333333" d="M381.236 758.59L192.988 303.841C189.691 295.875 181.639 290.939 173.044 291.613L-317.62 330.123C-326.215 330.797 -333.398 336.929 -335.412 345.312L-450.411 823.861C-452.426 832.244 -448.813 840.97 -441.463 845.476L-21.8725 1102.73C-14.5227 1107.23 -5.10717 1106.49 1.44966 1100.9L375.77 781.337C382.327 775.739 384.534 766.556 381.236 758.59Z" stroke="url(#paint32_linear_1047_13365)" stroke-width="0.2"/>
<path opacity="0.343434" d="M384.95 755.467L189.197 304.999C185.761 297.092 177.625 292.297 169.043 293.121L-319.869 340.091C-328.451 340.916 -335.526 347.172 -337.393 355.589L-443.804 835.086C-445.672 843.503 -441.908 852.165 -434.481 856.542L-11.3342 1105.92C-3.9069 1110.29 5.49424 1109.39 11.9524 1103.68L379.882 778.305C386.34 772.594 388.386 763.374 384.95 755.467Z" stroke="url(#paint33_linear_1047_13365)" stroke-width="0.2"/>
<path opacity="0.353535" d="M388.528 752.353L185.361 306.289C181.788 298.443 173.569 293.791 165.003 294.765L-322.011 350.147C-330.577 351.121 -337.542 357.5 -339.262 365.947L-437.087 846.239C-438.808 854.687 -434.893 863.282 -427.391 867.529L-0.835527 1108.98C6.66706 1113.23 16.051 1112.16 22.4085 1106.34L383.859 775.277C390.216 769.454 392.101 760.199 388.528 752.353Z" stroke="url(#paint34_linear_1047_13365)" stroke-width="0.2"/>
<path opacity="0.363636" d="M391.97 749.241L181.484 307.702C177.774 299.92 169.475 295.412 160.928 296.535L-324.044 360.276C-332.592 361.399 -339.444 367.899 -341.017 376.376L-430.26 857.308C-431.833 865.785 -427.769 874.31 -420.194 878.425L9.62284 1111.92C17.1984 1116.03 26.5623 1114.8 32.8172 1108.87L387.702 772.242C393.957 766.309 395.68 757.023 391.97 749.241Z" stroke="url(#paint35_linear_1047_13365)" stroke-width="0.2"/>
<path opacity="0.373737" d="M395.275 746.137L177.566 309.243C173.721 301.527 165.345 297.164 156.818 298.436L-325.969 370.482C-334.495 371.755 -341.233 378.373 -342.658 386.876L-423.327 868.296C-424.752 876.799 -420.54 885.252 -412.893 889.235L20.0366 1114.72C27.6829 1118.71 37.0239 1117.31 43.1743 1111.27L391.409 769.209C397.56 763.168 399.12 753.853 395.275 746.137Z" stroke="url(#paint36_linear_1047_13365)" stroke-width="0.2"/>
<path opacity="0.383838" d="M398.447 743.041L173.612 310.909C169.633 303.261 161.182 299.045 152.678 300.467L-327.781 380.761C-336.284 382.182 -342.905 388.917 -344.181 397.443L-416.287 879.199C-417.563 887.725 -413.204 896.104 -405.489 899.952L30.406 1117.4C38.1206 1121.25 47.4359 1119.69 53.4799 1113.54L394.984 766.177C401.028 760.029 402.426 750.689 398.447 743.041Z" stroke="url(#paint37_linear_1047_13365)" stroke-width="0.2"/>
<path opacity="0.393939" d="M401.482 739.969L169.622 312.715C165.51 305.137 156.987 301.07 148.509 302.639L-329.482 391.122C-337.959 392.691 -344.462 399.541 -345.589 408.088L-409.144 890.028C-410.271 898.575 -405.766 906.876 -397.986 910.589L40.7268 1119.96C48.5074 1123.67 57.7941 1121.95 63.7299 1115.7L398.424 763.162C404.36 756.909 405.594 747.546 401.482 739.969Z" stroke="url(#paint38_linear_1047_13365)" stroke-width="0.2"/>
<path opacity="0.40404" d="M404.386 736.904L165.602 314.641C161.358 307.136 152.765 303.218 144.316 304.935L-331.068 401.546C-339.517 403.263 -345.899 410.224 -346.876 418.79L-401.896 900.762C-402.874 909.327 -398.225 917.548 -390.381 921.125L50.9999 1122.39C58.8441 1125.97 68.0994 1124.09 73.9251 1117.73L401.733 760.147C407.559 753.792 408.63 744.408 404.386 736.904Z" stroke="url(#paint39_linear_1047_13365)" stroke-width="0.2"/>
<path opacity="0.414141" d="M407.154 733.861L161.549 316.7C157.175 309.271 148.515 305.503 140.098 307.367L-332.542 412.042C-340.959 413.906 -347.219 420.978 -348.047 429.559L-394.549 911.412C-395.378 919.994 -390.586 928.132 -382.68 931.572L61.2192 1124.7C69.1246 1128.14 78.3456 1126.1 84.0596 1119.64L404.907 757.147C410.621 750.691 411.528 741.29 407.154 733.861Z" stroke="url(#paint40_linear_1047_13365)" stroke-width="0.2"/>
<path opacity="0.424242" d="M409.79 730.84L157.469 318.891C152.966 311.539 144.242 307.923 135.858 309.934L-333.901 422.605C-342.284 424.616 -348.419 431.796 -349.098 440.391L-387.104 921.975C-387.782 930.57 -382.849 938.623 -374.885 941.924L71.3844 1126.89C79.3486 1130.19 88.5326 1127.99 94.133 1121.43L407.949 754.162C413.55 747.607 414.293 738.192 409.79 730.84Z" stroke="url(#paint41_linear_1047_13365)" stroke-width="0.2"/>
<path opacity="0.434343" d="M412.292 727.841L153.364 321.21C148.733 313.938 139.946 310.474 131.599 312.631L-335.143 433.231C-343.49 435.388 -349.499 442.674 -350.028 451.279L-379.562 932.445C-380.09 941.05 -375.017 949.017 -366.996 952.178L81.4934 1128.96C89.514 1132.12 98.6582 1129.75 104.143 1123.1L410.859 751.191C416.344 744.54 416.923 735.113 412.292 727.841Z" stroke="url(#paint42_linear_1047_13365)" stroke-width="0.2"/>
<path opacity="0.444444" d="M414.664 724.862L149.235 323.654C144.479 316.464 135.633 313.155 127.325 315.457L-336.269 443.914C-344.577 446.217 -350.458 453.607 -350.836 462.219L-371.923 942.819C-372.301 951.432 -367.09 959.308 -359.016 962.329L91.545 1130.9C99.6195 1133.92 108.721 1131.4 114.089 1124.65L413.639 748.233C419.007 741.488 419.421 732.052 414.664 724.862Z" stroke="url(#paint43_linear_1047_13365)" stroke-width="0.2"/>
<path opacity="0.454545" d="M416.904 721.919L145.086 326.237C140.204 319.131 131.302 315.976 123.036 318.423L-337.277 454.665C-345.543 457.112 -351.294 464.604 -351.522 473.222L-364.192 953.106C-364.42 961.724 -359.072 969.509 -350.946 972.388L101.536 1132.73C109.662 1135.61 118.718 1132.93 123.968 1126.09L416.287 745.304C421.537 738.466 421.786 729.025 416.904 721.919Z" stroke="url(#paint44_linear_1047_13365)" stroke-width="0.2"/>
<path opacity="0.464646" d="M419.015 719.002L140.919 328.947C135.914 321.927 126.959 318.928 118.736 321.519L-338.165 465.471C-346.388 468.061 -352.007 475.652 -352.085 484.273L-356.369 963.295C-356.446 971.916 -350.963 979.606 -342.788 982.343L111.465 1134.44C119.641 1137.18 128.649 1134.34 133.778 1127.41L418.806 742.395C423.936 735.466 424.02 726.022 419.015 719.002Z" stroke="url(#paint45_linear_1047_13365)" stroke-width="0.2"/>
<path opacity="0.474747" d="M420.997 716.119L136.736 331.789C131.609 324.858 122.603 322.016 114.426 324.75L-338.935 476.333C-347.111 479.067 -352.597 486.755 -352.524 495.375L-348.456 973.389C-348.382 982.01 -342.766 989.603 -334.544 992.198L121.331 1136.04C129.552 1138.64 138.51 1135.64 143.517 1128.62L421.196 739.513C426.204 732.495 426.123 723.051 420.997 716.119Z" stroke="url(#paint46_linear_1047_13365)" stroke-width="0.2"/>
<path opacity="0.484848" d="M422.85 713.27L132.54 334.761C127.293 327.92 118.238 325.236 110.111 328.112L-339.584 487.247C-347.711 490.123 -353.062 497.906 -352.838 506.524L-340.455 983.384C-340.231 992.003 -334.483 999.497 -326.217 1001.95L131.13 1137.53C139.396 1139.98 148.299 1136.83 153.184 1129.72L423.457 736.656C428.342 729.552 428.096 720.111 422.85 713.27Z" stroke="url(#paint47_linear_1047_13365)" stroke-width="0.2"/>
<path opacity="0.494949" d="M424.576 710.461L128.332 337.866C122.967 331.118 113.867 328.592 105.791 331.61L-340.111 498.216C-348.187 501.233 -353.402 509.108 -353.028 517.721L-332.367 993.283C-331.993 1001.9 -326.115 1009.29 -317.808 1011.59L140.863 1138.9C149.17 1141.21 158.017 1137.9 162.777 1130.71L425.591 733.832C430.351 726.644 429.941 717.209 424.576 710.461Z" stroke="url(#paint48_linear_1047_13365)" stroke-width="0.2"/>
<path opacity="0.50505" d="M426.174 707.69L124.116 341.103C118.633 334.449 109.49 332.082 101.468 335.24L-340.518 509.233C-348.54 512.391 -353.617 520.355 -353.092 528.961L-324.197 1003.08C-323.672 1011.69 -317.667 1018.98 -309.32 1021.14L150.525 1140.17C158.871 1142.33 167.659 1138.87 172.293 1131.6L427.597 731.041C432.231 723.771 431.656 714.344 426.174 707.69Z" stroke="url(#paint49_linear_1047_13365)" stroke-width="0.2"/>
<path opacity="0.515152" d="M427.646 704.958L119.892 344.466C114.294 337.91 105.111 335.703 97.1455 339L-340.804 520.294C-348.77 523.591 -353.706 531.643 -353.031 540.238L-315.945 1012.78C-315.27 1021.37 -309.138 1028.55 -300.756 1030.57L160.114 1141.32C168.497 1143.33 177.223 1139.72 181.73 1132.37L429.476 728.28C433.983 720.931 433.244 711.515 427.646 704.958Z" stroke="url(#paint50_linear_1047_13365)" stroke-width="0.2"/>
<path opacity="0.525253" d="M428.995 702.271L115.665 347.962C109.954 341.504 100.734 339.458 92.8272 342.894L-340.965 531.4C-348.872 534.836 -353.667 542.973 -352.843 551.554L-307.611 1022.37C-306.787 1030.95 -300.53 1038.02 -292.114 1039.89L169.633 1142.36C178.049 1144.23 186.711 1140.47 191.088 1133.04L431.232 725.558C435.609 718.131 434.706 708.729 428.995 702.271Z" stroke="url(#paint51_linear_1047_13365)" stroke-width="0.2"/>
<path opacity="0.535354" d="M430.219 699.628L111.436 351.586C105.613 345.229 96.3589 343.344 88.5131 346.917L-341.004 542.547C-348.85 546.121 -353.502 554.34 -352.528 562.906L-299.201 1031.85C-298.227 1040.42 -291.848 1047.38 -283.4 1049.1L179.075 1143.3C187.523 1145.02 196.118 1141.11 200.364 1133.6L432.863 722.872C437.11 715.37 436.042 705.986 430.219 699.628Z" stroke="url(#paint52_linear_1047_13365)" stroke-width="0.2"/>
<path opacity="0.545455" d="M431.321 697.036L107.208 355.343C101.275 349.088 91.9888 347.365 84.2067 351.075L-340.919 553.736C-348.701 557.446 -353.209 565.745 -352.086 574.293L-290.715 1041.24C-289.591 1049.78 -283.091 1056.64 -274.615 1058.21L188.44 1144.14C196.917 1145.71 205.442 1141.64 209.558 1134.07L434.37 720.23C438.485 712.655 437.255 703.291 431.321 697.036Z" stroke="url(#paint53_linear_1047_13365)" stroke-width="0.2"/>
<path opacity="0.555556" d="M432.302 694.485L102.983 359.222C96.9412 353.071 87.6266 351.511 79.9103 355.356L-340.709 564.955C-348.426 568.8 -352.788 577.177 -351.516 585.704L-282.154 1050.51C-280.881 1059.03 -274.263 1065.77 -265.76 1067.2L197.728 1144.86C206.23 1146.29 214.684 1142.07 218.666 1134.43L435.755 717.623C439.738 709.977 438.344 700.636 432.302 694.485Z" stroke="url(#paint54_linear_1047_13365)" stroke-width="0.2"/>
<path opacity="0.565657" d="M433.162 691.999L98.7616 363.242C92.6138 357.198 83.2734 355.8 75.6255 359.779L-340.376 576.221C-348.024 580.201 -352.24 588.652 -350.819 597.155L-273.522 1059.68C-272.101 1068.18 -265.366 1074.8 -256.84 1076.08L206.934 1145.5C215.461 1146.77 223.839 1142.41 227.687 1134.7L437.018 715.073C440.867 707.358 439.31 698.043 433.162 691.999Z" stroke="url(#paint55_linear_1047_13365)" stroke-width="0.2"/>
<path opacity="0.575758" d="M433.903 689.56L94.5485 367.385C88.2962 361.449 78.9328 360.214 71.3555 364.326L-339.918 587.514C-347.495 591.626 -351.563 600.149 -349.993 608.626L-264.82 1068.74C-263.25 1077.22 -256.401 1083.72 -247.854 1084.85L216.059 1146.02C224.607 1147.15 232.908 1142.65 236.621 1134.87L438.161 712.563C441.874 704.782 440.155 695.495 433.903 689.56Z" stroke="url(#paint56_linear_1047_13365)" stroke-width="0.2"/>
<path opacity="0.585859" d="M434.525 687.174L90.3443 371.654C83.9894 365.828 74.6059 364.757 67.1014 369L-339.334 598.834C-346.839 603.078 -350.757 611.671 -349.04 620.12L-256.051 1077.69C-254.334 1086.13 -247.372 1092.52 -238.806 1093.49L225.1 1146.45C233.666 1147.43 241.887 1142.78 245.464 1134.94L439.184 710.1C442.761 702.255 440.88 693 434.525 687.174Z" stroke="url(#paint57_linear_1047_13365)" stroke-width="0.2"/>
<path opacity="0.59596" d="M435.032 684.849L86.1534 376.053C79.6977 370.339 70.2969 369.432 62.8677 373.806L-338.625 610.186C-346.054 614.56 -349.822 623.22 -347.958 631.637L-247.215 1086.52C-245.351 1094.94 -238.279 1101.2 -229.697 1102.03L234.058 1146.79C242.639 1147.61 250.778 1142.82 254.217 1134.92L440.09 707.69C443.53 699.785 441.488 690.563 435.032 684.849Z" stroke="url(#paint58_linear_1047_13365)" stroke-width="0.2"/>
<path opacity="0.606061" d="M435.422 682.584L81.9756 380.579C75.4211 374.979 66.006 374.236 58.6542 378.739L-337.79 621.562C-345.142 626.065 -348.758 634.79 -346.747 643.173L-238.317 1095.25C-236.306 1103.63 -229.126 1109.77 -220.531 1110.45L242.927 1147.02C251.522 1147.7 259.575 1142.77 262.876 1134.8L440.879 705.332C444.179 697.368 441.977 688.184 435.422 682.584Z" stroke="url(#paint59_linear_1047_13365)" stroke-width="0.2"/>
<path opacity="0.616162" d="M435.7 680.384L77.8159 385.236C71.1648 379.751 61.7381 379.173 54.466 383.803L-336.828 632.966C-344.1 637.596 -347.563 646.383 -345.407 654.73L-229.355 1103.87C-227.199 1112.22 -219.912 1118.22 -211.307 1118.75L251.71 1147.17C260.315 1147.7 268.282 1142.63 271.443 1134.61L441.553 703.034C444.714 695.013 442.351 685.869 435.7 680.384Z" stroke="url(#paint60_linear_1047_13365)" stroke-width="0.2"/>
<path opacity="0.626263" d="M435.863 678.24L73.6726 390.013C66.9267 384.644 57.4913 384.23 50.3012 388.987L-335.742 644.384C-342.933 649.14 -346.242 657.986 -343.94 666.294L-220.337 1112.37C-218.035 1120.67 -210.645 1126.55 -202.032 1126.93L260.402 1147.22C269.015 1147.6 276.891 1142.39 279.912 1134.32L442.11 700.784C445.131 692.71 442.609 683.608 435.863 678.24Z" stroke="url(#paint61_linear_1047_13365)" stroke-width="0.2"/>
<path opacity="0.636364" d="M435.916 676.167L69.552 394.92C62.7135 389.67 53.2723 389.421 46.1663 394.302L-334.528 655.825C-341.634 660.707 -344.789 669.609 -342.342 677.876L-211.26 1120.75C-208.814 1129.02 -201.322 1134.77 -192.704 1135L269.004 1147.19C277.622 1147.42 285.407 1142.07 288.286 1133.94L442.556 698.599C445.435 690.473 442.755 681.417 435.916 676.167Z" stroke="url(#paint62_linear_1047_13365)" stroke-width="0.2"/>
<path opacity="0.646465" d="M435.859 674.164L65.4543 399.954C58.5252 394.824 49.0811 394.74 42.0613 399.745L-333.189 667.286C-340.209 672.29 -343.207 681.246 -340.617 689.469L-202.129 1129.03C-199.538 1137.25 -191.947 1142.87 -183.327 1142.95L277.514 1147.07C286.135 1147.15 293.825 1141.66 296.562 1133.49L442.889 696.476C445.626 688.301 442.788 679.293 435.859 674.164Z" stroke="url(#paint63_linear_1047_13365)" stroke-width="0.2"/>
<path opacity="0.656566" d="M435.693 672.228L61.381 405.111C54.3634 400.103 44.9193 400.184 37.988 405.31L-331.724 678.759C-338.655 683.885 -341.497 692.892 -338.763 701.068L-192.946 1137.19C-190.212 1145.36 -182.524 1150.85 -173.903 1150.77L285.929 1146.86C294.55 1146.79 302.143 1141.17 304.737 1132.95L443.111 694.414C445.705 686.193 442.711 677.236 435.693 672.228Z" stroke="url(#paint64_linear_1047_13365)" stroke-width="0.2"/>
<path opacity="0.666667" d="M435.421 670.358L57.3367 410.387C50.2328 405.503 40.7915 405.748 33.9507 410.995L-330.131 690.239C-336.972 695.486 -339.656 704.541 -336.78 712.668L-183.71 1145.22C-180.834 1153.35 -173.052 1158.7 -164.433 1158.48L294.25 1146.56C302.869 1146.34 310.363 1140.59 312.813 1132.33L443.225 692.412C445.676 684.146 442.525 675.243 435.421 670.358Z" stroke="url(#paint65_linear_1047_13365)" stroke-width="0.2"/>
<path opacity="0.676768" d="M435.043 668.569L53.321 415.794C46.1329 411.034 36.6974 411.444 29.9492 416.809L-328.413 701.737C-335.161 707.102 -337.687 716.202 -334.669 724.278L-174.427 1153.15C-171.41 1161.22 -163.535 1166.44 -154.922 1166.06L302.474 1146.19C311.088 1145.82 318.48 1139.94 320.786 1131.63L443.231 690.483C445.536 682.176 442.231 673.329 435.043 668.569Z" stroke="url(#paint66_linear_1047_13365)" stroke-width="0.2"/>
<path opacity="0.686869" d="M434.561 666.851L49.3373 421.319C42.0673 416.686 32.6403 417.26 25.9868 422.742L-326.568 713.238C-333.222 718.72 -335.588 727.864 -332.431 735.886L-165.098 1160.95C-161.94 1168.98 -153.976 1174.05 -145.371 1173.53L310.601 1145.74C319.207 1145.21 326.495 1139.21 328.656 1130.86L443.13 688.619C445.29 680.273 441.831 671.485 434.561 666.851Z" stroke="url(#paint67_linear_1047_13365)" stroke-width="0.2"/>
<path opacity="0.69697" d="M433.977 665.21L45.388 426.967C38.0382 422.461 28.6227 423.2 22.0658 428.797L-324.597 724.746C-331.154 730.343 -333.361 739.526 -330.063 747.492L-155.725 1168.64C-152.427 1176.61 -144.375 1181.54 -135.781 1180.87L318.63 1145.21C327.225 1144.53 334.408 1138.4 336.422 1130.02L442.924 686.825C444.939 678.443 441.326 669.716 433.977 665.21Z" stroke="url(#paint68_linear_1047_13365)" stroke-width="0.2"/>
<path opacity="0.707071" d="M433.29 663.645L41.4734 432.733C34.046 428.356 24.6448 429.259 18.1867 434.97L-322.502 736.254C-328.96 741.965 -331.006 751.186 -327.57 759.092L-146.31 1176.21C-142.874 1184.12 -134.738 1188.91 -126.156 1188.09L326.557 1144.59C335.139 1143.77 342.214 1137.51 344.082 1129.1L442.614 685.1C444.482 676.684 440.718 668.022 433.29 663.645Z" stroke="url(#paint69_linear_1047_13365)" stroke-width="0.2"/>
<path opacity="0.717172" d="M432.506 662.161L37.5977 438.62C30.0951 434.373 20.7111 435.44 14.3536 441.263L-320.28 747.765C-326.638 753.588 -328.522 762.843 -324.949 770.689L-136.856 1183.66C-133.282 1191.5 -125.063 1196.16 -116.497 1195.18L334.384 1143.91C342.95 1142.94 349.915 1136.56 351.636 1128.11L442.203 683.451C443.923 675.003 440.009 666.408 432.506 662.161Z" stroke="url(#paint70_linear_1047_13365)" stroke-width="0.2"/>
<path opacity="0.727273" d="M431.624 660.758L33.7619 444.625C26.1864 440.51 16.8224 441.741 10.5676 447.674L-317.933 759.274C-324.188 765.207 -325.911 774.493 -322.201 782.275L-127.364 1190.99C-123.654 1198.77 -115.355 1203.28 -106.808 1202.15L342.109 1143.15C350.657 1142.03 357.509 1135.53 359.082 1127.05L441.691 681.875C443.263 673.399 439.199 664.874 431.624 660.758Z" stroke="url(#paint71_linear_1047_13365)" stroke-width="0.2"/>
<path opacity="0.737374" d="M430.646 659.433L29.9683 450.744C22.322 446.761 12.981 448.155 6.83065 454.197L-315.461 770.775C-321.612 776.816 -323.172 786.131 -319.327 793.847L-117.837 1198.19C-113.992 1205.91 -105.616 1210.27 -97.089 1209L349.731 1142.32C358.257 1141.05 364.995 1134.43 366.42 1125.93L441.079 680.372C442.504 671.869 438.292 663.416 430.646 659.433Z" stroke="url(#paint72_linear_1047_13365)" stroke-width="0.2"/>
<path opacity="0.747475" d="M429.573 658.201L26.2187 456.987C18.5041 453.138 9.18881 454.695 3.14481 460.843L-312.865 782.277C-318.909 788.425 -320.307 797.765 -316.328 805.413L-108.278 1205.29C-104.298 1212.93 -95.8472 1217.15 -87.3439 1215.73L357.248 1141.43C365.751 1140.01 372.372 1133.27 373.648 1124.75L440.371 678.954C441.647 670.428 437.288 662.049 429.573 658.201Z" stroke="url(#paint73_linear_1047_13365)" stroke-width="0.2"/>
<path opacity="0.757576" d="M428.409 657.051L22.516 463.342C14.7354 459.629 5.44874 461.348 -0.487047 467.601L-310.143 793.768C-316.079 800.021 -317.314 809.384 -313.202 816.962L-98.6865 1212.25C-94.5745 1219.83 -86.0509 1223.9 -77.5737 1222.33L364.66 1140.47C373.137 1138.9 379.64 1132.05 380.767 1123.5L439.567 677.613C440.694 669.066 436.19 660.765 428.409 657.051Z" stroke="url(#paint74_linear_1047_13365)" stroke-width="0.2"/>
<path opacity="0.767677" d="M427.154 655.991L18.8609 469.814C11.0168 466.237 1.76149 468.118 -4.06427 474.473L-307.298 805.251C-313.124 811.606 -314.195 820.989 -309.952 828.494L-89.0674 1219.1C-84.8238 1226.61 -76.2305 1230.53 -67.782 1228.81L371.966 1139.44C380.414 1137.72 386.796 1130.76 387.774 1122.2L438.669 676.354C439.647 667.788 434.998 659.567 427.154 655.991Z" stroke="url(#paint75_linear_1047_13365)" stroke-width="0.2"/>
<path opacity="0.777778" d="M425.808 655.017L15.2544 476.397C7.34893 472.958 -1.87213 475 -7.5861 481.455L-304.331 816.719C-310.045 823.174 -310.953 832.575 -306.579 840.004L-79.4238 1225.83C-75.0498 1233.26 -66.3894 1237.03 -57.9722 1235.16L379.163 1138.35C387.58 1136.49 393.84 1129.41 394.668 1120.83L437.677 675.176C438.505 666.595 433.713 658.456 425.808 655.017Z" stroke="url(#paint76_linear_1047_13365)" stroke-width="0.2"/>
<path opacity="0.787879" d="M424.376 654.136L11.7008 483.095C3.73657 479.794 -5.44742 481.997 -11.0478 488.552L-301.241 828.175C-306.841 834.729 -307.584 844.144 -303.081 851.496L-69.7549 1232.44C-65.2519 1239.79 -56.5272 1243.4 -48.1437 1241.39L386.253 1137.2C394.636 1135.19 400.771 1128.01 401.45 1119.42L436.595 674.085C437.273 665.49 432.34 657.437 424.376 654.136Z" stroke="url(#paint77_linear_1047_13365)" stroke-width="0.2"/>
<path opacity="0.79798" d="M422.86 653.346L8.20184 489.904C0.18119 486.743 -8.96296 489.106 -14.4481 495.757L-298.027 839.613C-303.512 846.265 -304.091 855.691 -299.46 862.963L-60.0636 1238.92C-55.433 1246.19 -46.6464 1249.66 -38.2993 1247.5L393.235 1136C401.582 1133.84 407.591 1126.55 408.119 1117.95L435.425 673.079C435.953 664.474 430.88 656.507 422.86 653.346Z" stroke="url(#paint78_linear_1047_13365)" stroke-width="0.2"/>
<path opacity="0.808081" d="M421.259 652.646L4.75784 496.819C-3.31676 493.798 -12.4183 496.32 -17.7865 503.066L-294.692 851.029C-300.06 857.775 -300.474 867.211 -295.717 874.401L-50.3533 1245.28C-45.5965 1252.47 -36.7509 1255.78 -28.4427 1253.48L400.106 1134.73C408.414 1132.43 414.295 1125.04 414.673 1116.43L434.167 672.156C434.544 663.543 429.333 655.666 421.259 652.646Z" stroke="url(#paint79_linear_1047_13365)" stroke-width="0.2"/>
<path opacity="0.818182" d="M419.577 652.04L1.37226 503.844C-6.7538 500.965 -15.8099 503.645 -21.0596 510.483L-291.235 862.425C-296.485 869.263 -296.734 878.705 -291.852 885.811L-40.625 1251.52C-35.7434 1258.62 -26.8413 1261.78 -18.5746 1259.33L406.868 1133.41C415.134 1130.96 420.886 1123.47 421.113 1114.85L432.823 671.323C433.051 662.704 427.703 654.92 419.577 652.04Z" stroke="url(#paint80_linear_1047_13365)" stroke-width="0.2"/>
<path opacity="0.828283" d="M417.815 651.536L-1.95456 510.982C-10.1297 508.245 -19.1376 511.083 -24.2672 518.012L-287.658 873.803C-292.788 880.732 -292.872 890.176 -287.867 897.196L-30.8821 1257.64C-25.8773 1264.66 -16.9215 1267.66 -8.69871 1265.07L413.518 1132.04C421.741 1129.45 427.36 1121.86 427.437 1113.24L431.396 670.584C431.473 661.963 425.99 654.273 417.815 651.536Z" stroke="url(#paint81_linear_1047_13365)" stroke-width="0.2"/>
<path opacity="0.838384" d="M415.976 651.123L-5.21945 518.22C-13.4411 515.626 -22.3981 518.621 -27.406 525.638L-283.961 885.15C-288.968 892.168 -288.888 901.612 -283.762 908.543L-21.1255 1263.64C-15.9989 1270.57 -6.99218 1273.41 1.18412 1270.68L420.057 1130.62C428.233 1127.89 433.719 1120.2 433.646 1111.58L429.887 669.931C429.814 661.31 424.198 653.717 415.976 651.123Z" stroke="url(#paint82_linear_1047_13365)" stroke-width="0.2"/>
<path opacity="0.848485" d="M414.059 650.807L-8.42337 525.563C-16.689 523.112 -25.5924 526.263 -30.4771 533.367L-280.146 896.469C-285.031 903.573 -284.785 913.014 -279.539 919.855L-11.3601 1269.51C-6.11331 1276.35 2.94165 1279.03 11.069 1276.16L426.481 1129.15C434.609 1126.28 439.96 1118.5 439.736 1109.88L428.296 669.37C428.072 660.752 422.325 653.257 414.059 650.807Z" stroke="url(#paint83_linear_1047_13365)" stroke-width="0.2"/>
<path opacity="0.858586" d="M412.07 650.594L-11.5602 533.013C-19.8673 530.707 -28.7144 534.012 -33.4743 541.2L-276.21 907.762C-280.97 914.95 -280.56 924.386 -275.195 931.134L-1.58373 1275.26C3.78163 1282.01 12.8821 1284.54 20.958 1281.52L432.795 1127.64C440.871 1124.62 446.085 1116.75 445.711 1108.14L426.629 668.906C426.255 660.293 420.377 652.9 412.07 650.594Z" stroke="url(#paint84_linear_1047_13365)" stroke-width="0.2"/>
<path opacity="0.868687" d="M410.008 650.483L-14.632 540.565C-22.9781 538.405 -31.7662 541.864 -36.3999 549.134L-272.159 919.024C-276.792 926.295 -276.218 935.722 -270.736 942.375L8.1976 1280.9C13.6799 1287.55 22.823 1289.92 30.8451 1286.76L438.994 1126.09C447.016 1122.93 452.092 1114.97 451.568 1106.36L424.885 668.537C424.36 659.932 418.354 652.643 410.008 650.483Z" stroke="url(#paint85_linear_1047_13365)" stroke-width="0.2"/>
<path opacity="0.878788" d="M407.875 650.47L-17.637 548.216C-26.0195 546.201 -34.7458 549.814 -39.252 557.164L-267.991 930.251C-272.498 937.601 -271.759 947.016 -266.161 953.573L17.9818 1286.41C23.5794 1292.96 32.7625 1295.17 40.7282 1291.87L445.078 1124.49C453.043 1121.19 457.98 1113.14 457.305 1104.55L423.064 668.262C422.389 659.667 416.257 652.484 407.875 650.47Z" stroke="url(#paint86_linear_1047_13365)" stroke-width="0.2"/>
<path opacity="0.888889" d="M405.675 650.554L-20.5702 555.961C-28.9866 554.093 -37.6486 557.857 -42.0258 565.284L-263.706 941.437C-268.083 948.864 -267.18 958.265 -261.469 964.723L27.7701 1291.79C33.4813 1298.25 42.7015 1300.3 50.6084 1296.86L451.048 1122.85C458.955 1119.41 463.75 1111.27 462.926 1102.69L421.172 668.078C420.348 659.496 414.091 652.422 405.675 650.554Z" stroke="url(#paint87_linear_1047_13365)" stroke-width="0.2"/>
<path opacity="0.89899" d="M403.408 650.748L-23.4331 563.81C-31.8808 562.09 -40.4758 566.004 -44.7227 573.507L-259.307 952.592C-263.554 960.094 -262.487 969.478 -256.664 975.836L37.5572 1297.06C43.3802 1303.42 52.6347 1305.3 60.4804 1301.73L456.903 1121.17C464.749 1117.6 469.401 1109.38 468.427 1100.82L419.209 668C418.235 659.434 411.856 652.469 403.408 650.748Z" stroke="url(#paint88_linear_1047_13365)" stroke-width="0.2"/>
<path opacity="0.909091" d="M401.076 651.044L-26.224 571.752C-34.7006 570.179 -43.2259 574.244 -47.3412 581.819L-254.795 963.704C-258.91 971.279 -257.679 980.643 -251.746 986.898L47.341 1302.21C53.2741 1308.46 62.56 1310.18 70.3422 1306.48L462.642 1119.46C470.424 1115.75 474.932 1107.45 473.809 1098.91L417.176 668.016C416.053 659.469 409.553 652.617 401.076 651.044Z" stroke="url(#paint89_linear_1047_13365)" stroke-width="0.2"/>
<path opacity="0.919192" d="M398.684 651.445L-28.9385 579.79C-37.4412 578.366 -45.8943 582.578 -49.8768 590.224L-250.167 974.775C-254.15 982.421 -252.756 991.763 -246.714 997.913L57.1222 1307.23C63.1636 1313.38 72.4782 1314.94 80.1945 1311.1L468.266 1117.72C475.982 1113.87 480.345 1105.5 479.073 1096.97L415.078 668.134C413.805 659.608 407.187 652.87 398.684 651.445Z" stroke="url(#paint90_linear_1047_13365)" stroke-width="0.2"/>
<path opacity="0.929293" d="M396.231 651.951L-31.578 587.92C-40.1042 586.644 -48.4825 591.003 -52.3309 598.717L-245.429 985.802C-249.277 993.516 -247.72 1002.83 -241.573 1008.88L66.8959 1312.14C73.0436 1318.18 82.3841 1319.58 90.032 1315.6L473.774 1115.94C481.422 1111.96 485.638 1103.51 484.216 1095.01L412.913 668.352C411.492 659.848 404.758 653.227 396.231 651.951Z" stroke="url(#paint91_linear_1047_13365)" stroke-width="0.2"/>
<path opacity="0.939394" d="M393.72 652.567L-34.1401 596.144C-42.6874 595.017 -50.9883 599.521 -54.7015 607.302L-240.579 996.785C-244.292 1004.57 -242.573 1013.85 -236.321 1019.79L76.6605 1316.93C82.9128 1322.86 92.2762 1324.1 99.8536 1319.98L479.164 1114.14C486.742 1110.03 490.81 1101.51 489.24 1093.03L410.686 668.674C409.117 660.197 402.267 653.694 393.72 652.567Z" stroke="url(#paint92_linear_1047_13365)" stroke-width="0.2"/>
<path opacity="0.949495" d="M391.151 653.298L-36.6248 604.466C-45.1904 603.488 -53.4114 608.137 -56.9883 615.981L-235.621 1007.73C-239.198 1015.57 -237.317 1024.83 -230.962 1030.66L86.4129 1321.6C92.7678 1327.43 102.151 1328.5 109.656 1324.26L484.437 1112.32C491.942 1108.08 495.86 1099.48 494.143 1091.04L408.396 669.107C406.679 660.658 399.717 654.276 391.151 653.298Z" stroke="url(#paint93_linear_1047_13365)" stroke-width="0.2"/>
<path opacity="0.959596" d="M388.531 654.128L-39.0267 612.865C-47.6081 612.037 -55.7467 616.829 -59.1861 624.734L-230.552 1018.61C-233.991 1026.52 -231.949 1035.74 -225.493 1041.46L96.1545 1326.15C102.61 1331.86 112.011 1332.77 119.44 1328.4L489.595 1110.47C497.024 1106.09 500.792 1097.43 498.928 1089.02L406.049 669.633C404.184 661.216 397.112 654.956 388.531 654.128Z" stroke="url(#paint94_linear_1047_13365)" stroke-width="0.2"/>
<path opacity="0.969697" d="M385.858 655.069L-41.3477 621.354C-49.9422 620.675 -57.996 625.608 -61.2969 633.573L-225.376 1029.45C-228.676 1037.42 -226.474 1046.6 -219.919 1052.2L105.88 1330.58C112.435 1336.18 121.85 1336.92 129.202 1332.42L494.635 1108.59C501.987 1104.09 505.603 1095.36 503.593 1086.98L403.644 670.266C401.633 661.882 394.452 655.747 385.858 655.069Z" stroke="url(#paint95_linear_1047_13365)" stroke-width="0.2"/>
<path opacity="0.979798" d="M383.136 656.119L-43.5849 629.926C-52.1899 629.398 -60.1564 634.471 -63.3178 642.492L-220.092 1040.23C-223.253 1048.25 -220.891 1057.4 -214.24 1062.88L115.589 1334.89C122.241 1340.38 131.667 1340.96 138.939 1336.33L499.559 1106.7C506.831 1102.07 510.294 1093.28 508.138 1084.93L401.184 671.003C399.027 662.656 391.741 656.647 383.136 656.119Z" stroke="url(#paint96_linear_1047_13365)" stroke-width="0.2"/>
<path opacity="0.989899" d="M380.365 657.276L-45.7392 638.579C-54.3521 638.201 -62.2289 643.412 -65.2498 651.487L-214.705 1050.96C-217.726 1059.03 -215.204 1068.13 -208.458 1073.5L125.278 1339.09C132.024 1344.45 141.459 1344.87 148.649 1340.11L504.364 1104.78C511.554 1100.02 514.864 1091.18 512.561 1082.87L398.67 671.843C396.367 663.534 388.977 657.654 380.365 657.276Z" stroke="url(#paint97_linear_1047_13365)" stroke-width="0.2"/>
<path d="M377.548 658.553L-47.8069 647.323C-56.4251 647.095 -64.2097 652.443 -67.0892 660.569L-209.212 1061.64C-212.092 1069.76 -209.411 1078.82 -202.573 1084.07L134.946 1343.17C141.784 1348.42 151.226 1348.67 158.332 1343.79L509.052 1102.86C516.158 1097.97 519.313 1089.07 516.866 1080.81L396.105 672.799C393.658 664.532 386.167 658.781 377.548 658.553Z" stroke="url(#paint98_linear_1047_13365)" stroke-width="0.2"/>
<defs>
<linearGradient id="paint0_linear_1047_13365" x1="-338.303" y1="716.131" x2="61.2843" y2="323.627" gradientUnits="userSpaceOnUse">
<stop stop-color="#FF1CF7"/>
<stop offset="1" stop-color="#00F0FF"/>
</linearGradient>
<linearGradient id="paint1_linear_1047_13365" x1="-331.529" y1="723.687" x2="60.4316" y2="324.999" gradientUnits="userSpaceOnUse">
<stop stop-color="#FF1CF7"/>
<stop offset="1" stop-color="#00F0FF"/>
</linearGradient>
<linearGradient id="paint2_linear_1047_13365" x1="-324.708" y1="731.164" x2="59.5305" y2="326.436" gradientUnits="userSpaceOnUse">
<stop stop-color="#FF1CF7"/>
<stop offset="1" stop-color="#00F0FF"/>
</linearGradient>
<linearGradient id="paint3_linear_1047_13365" x1="-317.844" y1="738.566" x2="58.582" y2="327.947" gradientUnits="userSpaceOnUse">
<stop stop-color="#FF1CF7"/>
<stop offset="1" stop-color="#00F0FF"/>
</linearGradient>
<linearGradient id="paint4_linear_1047_13365" x1="-310.936" y1="745.899" x2="57.5891" y2="329.539" gradientUnits="userSpaceOnUse">
<stop stop-color="#FF1CF7"/>
<stop offset="1" stop-color="#00F0FF"/>
</linearGradient>
<linearGradient id="paint5_linear_1047_13365" x1="-303.984" y1="753.161" x2="56.5547" y2="331.21" gradientUnits="userSpaceOnUse">
<stop stop-color="#FF1CF7"/>
<stop offset="1" stop-color="#00F0FF"/>
</linearGradient>
<linearGradient id="paint6_linear_1047_13365" x1="-296.992" y1="760.343" x2="55.477" y2="332.953" gradientUnits="userSpaceOnUse">
<stop stop-color="#FF1CF7"/>
<stop offset="1" stop-color="#00F0FF"/>
</linearGradient>
<linearGradient id="paint7_linear_1047_13365" x1="-289.961" y1="767.459" x2="54.3587" y2="334.782" gradientUnits="userSpaceOnUse">
<stop stop-color="#FF1CF7"/>
<stop offset="1" stop-color="#00F0FF"/>
</linearGradient>
<linearGradient id="paint8_linear_1047_13365" x1="-282.891" y1="774.49" x2="53.2027" y2="336.681" gradientUnits="userSpaceOnUse">
<stop stop-color="#FF1CF7"/>
<stop offset="1" stop-color="#00F0FF"/>
</linearGradient>
<linearGradient id="paint9_linear_1047_13365" x1="-275.785" y1="781.451" x2="52.0091" y2="338.663" gradientUnits="userSpaceOnUse">
<stop stop-color="#FF1CF7"/>
<stop offset="1" stop-color="#00F0FF"/>
</linearGradient>
<linearGradient id="paint10_linear_1047_13365" x1="-268.645" y1="788.33" x2="50.7776" y2="340.722" gradientUnits="userSpaceOnUse">
<stop stop-color="#FF1CF7"/>
<stop offset="1" stop-color="#00F0FF"/>
</linearGradient>
<linearGradient id="paint11_linear_1047_13365" x1="-261.469" y1="795.135" x2="49.5139" y2="342.862" gradientUnits="userSpaceOnUse">
<stop stop-color="#FF1CF7"/>
<stop offset="1" stop-color="#00F0FF"/>
</linearGradient>
<linearGradient id="paint12_linear_1047_13365" x1="-254.263" y1="801.863" x2="48.2151" y2="345.083" gradientUnits="userSpaceOnUse">
<stop stop-color="#FF1CF7"/>
<stop offset="1" stop-color="#00F0FF"/>
</linearGradient>
<linearGradient id="paint13_linear_1047_13365" x1="-247.024" y1="808.519" x2="46.8868" y2="347.392" gradientUnits="userSpaceOnUse">
<stop stop-color="#FF1CF7"/>
<stop offset="1" stop-color="#00F0FF"/>
</linearGradient>
<linearGradient id="paint14_linear_1047_13365" x1="-239.756" y1="815.085" x2="45.5277" y2="349.771" gradientUnits="userSpaceOnUse">
<stop stop-color="#FF1CF7"/>
<stop offset="1" stop-color="#00F0FF"/>
</linearGradient>
<linearGradient id="paint15_linear_1047_13365" x1="-232.461" y1="821.584" x2="44.1396" y2="352.242" gradientUnits="userSpaceOnUse">
<stop stop-color="#FF1CF7"/>
<stop offset="1" stop-color="#00F0FF"/>
</linearGradient>
<linearGradient id="paint16_linear_1047_13365" x1="-225.14" y1="827.996" x2="42.7241" y2="354.788" gradientUnits="userSpaceOnUse">
<stop stop-color="#FF1CF7"/>
<stop offset="1" stop-color="#00F0FF"/>
</linearGradient>
<linearGradient id="paint17_linear_1047_13365" x1="-217.793" y1="834.329" x2="41.2838" y2="357.416" gradientUnits="userSpaceOnUse">
<stop stop-color="#FF1CF7"/>
<stop offset="1" stop-color="#00F0FF"/>
</linearGradient>
<linearGradient id="paint18_linear_1047_13365" x1="-210.421" y1="840.586" x2="39.8203" y2="360.13" gradientUnits="userSpaceOnUse">
<stop stop-color="#FF1CF7"/>
<stop offset="1" stop-color="#00F0FF"/>
</linearGradient>
<linearGradient id="paint19_linear_1047_13365" x1="-203.028" y1="846.758" x2="38.3342" y2="362.923" gradientUnits="userSpaceOnUse">
<stop stop-color="#FF1CF7"/>
<stop offset="1" stop-color="#00F0FF"/>
</linearGradient>
<linearGradient id="paint20_linear_1047_13365" x1="-195.615" y1="852.858" x2="36.826" y2="365.807" gradientUnits="userSpaceOnUse">
<stop stop-color="#FF1CF7"/>
<stop offset="1" stop-color="#00F0FF"/>
</linearGradient>
<linearGradient id="paint21_linear_1047_13365" x1="-188.181" y1="858.876" x2="35.3001" y2="368.773" gradientUnits="userSpaceOnUse">
<stop stop-color="#FF1CF7"/>
<stop offset="1" stop-color="#00F0FF"/>
</linearGradient>
<linearGradient id="paint22_linear_1047_13365" x1="-180.731" y1="864.81" x2="33.755" y2="371.818" gradientUnits="userSpaceOnUse">
<stop stop-color="#FF1CF7"/>
<stop offset="1" stop-color="#00F0FF"/>
</linearGradient>
<linearGradient id="paint23_linear_1047_13365" x1="-173.265" y1="870.664" x2="32.1929" y2="374.949" gradientUnits="userSpaceOnUse">
<stop stop-color="#FF1CF7"/>
<stop offset="1" stop-color="#00F0FF"/>
</linearGradient>
<linearGradient id="paint24_linear_1047_13365" x1="-165.783" y1="876.438" x2="30.6174" y2="378.163" gradientUnits="userSpaceOnUse">
<stop stop-color="#FF1CF7"/>
<stop offset="1" stop-color="#00F0FF"/>
</linearGradient>
<linearGradient id="paint25_linear_1047_13365" x1="-158.287" y1="882.127" x2="29.0294" y2="381.457" gradientUnits="userSpaceOnUse">
<stop stop-color="#FF1CF7"/>
<stop offset="1" stop-color="#00F0FF"/>
</linearGradient>
<linearGradient id="paint26_linear_1047_13365" x1="-150.78" y1="887.746" x2="27.4285" y2="384.847" gradientUnits="userSpaceOnUse">
<stop stop-color="#FF1CF7"/>
<stop offset="1" stop-color="#00F0FF"/>
</linearGradient>
<linearGradient id="paint27_linear_1047_13365" x1="-143.263" y1="893.276" x2="25.8167" y2="388.312" gradientUnits="userSpaceOnUse">
<stop stop-color="#FF1CF7"/>
<stop offset="1" stop-color="#00F0FF"/>
</linearGradient>
<linearGradient id="paint28_linear_1047_13365" x1="-135.738" y1="898.722" x2="24.1961" y2="391.859" gradientUnits="userSpaceOnUse">
<stop stop-color="#FF1CF7"/>
<stop offset="1" stop-color="#00F0FF"/>
</linearGradient>
<linearGradient id="paint29_linear_1047_13365" x1="-128.203" y1="904.09" x2="22.5698" y2="395.493" gradientUnits="userSpaceOnUse">
<stop stop-color="#FF1CF7"/>
<stop offset="1" stop-color="#00F0FF"/>
</linearGradient>
<linearGradient id="paint30_linear_1047_13365" x1="-120.664" y1="909.385" x2="20.9369" y2="399.219" gradientUnits="userSpaceOnUse">
<stop stop-color="#FF1CF7"/>
<stop offset="1" stop-color="#00F0FF"/>
</linearGradient>
<linearGradient id="paint31_linear_1047_13365" x1="-113.119" y1="914.589" x2="19.3002" y2="403.019" gradientUnits="userSpaceOnUse">
<stop stop-color="#FF1CF7"/>
<stop offset="1" stop-color="#00F0FF"/>
</linearGradient>
<linearGradient id="paint32_linear_1047_13365" x1="-105.571" y1="919.715" x2="17.6607" y2="406.906" gradientUnits="userSpaceOnUse">
<stop stop-color="#FF1CF7"/>
<stop offset="1" stop-color="#00F0FF"/>
</linearGradient>
<linearGradient id="paint33_linear_1047_13365" x1="-98.0218" y1="924.76" x2="16.0202" y2="410.876" gradientUnits="userSpaceOnUse">
<stop stop-color="#FF1CF7"/>
<stop offset="1" stop-color="#00F0FF"/>
</linearGradient>
<linearGradient id="paint34_linear_1047_13365" x1="-90.4726" y1="929.73" x2="14.3796" y2="414.936" gradientUnits="userSpaceOnUse">
<stop stop-color="#FF1CF7"/>
<stop offset="1" stop-color="#00F0FF"/>
</linearGradient>
<linearGradient id="paint35_linear_1047_13365" x1="-82.9238" y1="934.614" x2="12.7415" y2="419.073" gradientUnits="userSpaceOnUse">
<stop stop-color="#FF1CF7"/>
<stop offset="1" stop-color="#00F0FF"/>
</linearGradient>
<linearGradient id="paint36_linear_1047_13365" x1="-75.3788" y1="939.418" x2="11.1056" y2="423.294" gradientUnits="userSpaceOnUse">
<stop stop-color="#FF1CF7"/>
<stop offset="1" stop-color="#00F0FF"/>
</linearGradient>
<linearGradient id="paint37_linear_1047_13365" x1="-67.8368" y1="944.138" x2="9.47559" y2="427.594" gradientUnits="userSpaceOnUse">
<stop stop-color="#FF1CF7"/>
<stop offset="1" stop-color="#00F0FF"/>
</linearGradient>
<linearGradient id="paint38_linear_1047_13365" x1="-60.3011" y1="948.789" x2="7.8509" y2="431.987" gradientUnits="userSpaceOnUse">
<stop stop-color="#FF1CF7"/>
<stop offset="1" stop-color="#00F0FF"/>
</linearGradient>
<linearGradient id="paint39_linear_1047_13365" x1="-52.7703" y1="953.35" x2="6.23599" y2="436.454" gradientUnits="userSpaceOnUse">
<stop stop-color="#FF1CF7"/>
<stop offset="1" stop-color="#00F0FF"/>
</linearGradient>
<linearGradient id="paint40_linear_1047_13365" x1="-45.2496" y1="957.837" x2="4.62841" y2="441.007" gradientUnits="userSpaceOnUse">
<stop stop-color="#FF1CF7"/>
<stop offset="1" stop-color="#00F0FF"/>
</linearGradient>
<linearGradient id="paint41_linear_1047_13365" x1="-37.7387" y1="962.246" x2="3.03137" y2="445.643" gradientUnits="userSpaceOnUse">
<stop stop-color="#FF1CF7"/>
<stop offset="1" stop-color="#00F0FF"/>
</linearGradient>
<linearGradient id="paint42_linear_1047_13365" x1="-30.239" y1="966.574" x2="1.44626" y2="450.358" gradientUnits="userSpaceOnUse">
<stop stop-color="#FF1CF7"/>
<stop offset="1" stop-color="#00F0FF"/>
</linearGradient>
<linearGradient id="paint43_linear_1047_13365" x1="-22.7512" y1="970.819" x2="-0.124721" y2="455.15" gradientUnits="userSpaceOnUse">
<stop stop-color="#FF1CF7"/>
<stop offset="1" stop-color="#00F0FF"/>
</linearGradient>
<linearGradient id="paint44_linear_1047_13365" x1="-15.2779" y1="974.993" x2="-1.68146" y2="460.03" gradientUnits="userSpaceOnUse">
<stop stop-color="#FF1CF7"/>
<stop offset="1" stop-color="#00F0FF"/>
</linearGradient>
<linearGradient id="paint45_linear_1047_13365" x1="-7.8188" y1="979.087" x2="-3.22099" y2="464.987" gradientUnits="userSpaceOnUse">
<stop stop-color="#FF1CF7"/>
<stop offset="1" stop-color="#00F0FF"/>
</linearGradient>
<linearGradient id="paint46_linear_1047_13365" x1="-0.376624" y1="983.105" x2="-4.74309" y2="470.025" gradientUnits="userSpaceOnUse">
<stop stop-color="#FF1CF7"/>
<stop offset="1" stop-color="#00F0FF"/>
</linearGradient>
<linearGradient id="paint47_linear_1047_13365" x1="7.04779" y1="987.046" x2="-6.24594" y2="475.142" gradientUnits="userSpaceOnUse">
<stop stop-color="#FF1CF7"/>
<stop offset="1" stop-color="#00F0FF"/>
</linearGradient>
<linearGradient id="paint48_linear_1047_13365" x1="14.4536" y1="990.913" x2="-7.72774" y2="480.34" gradientUnits="userSpaceOnUse">
<stop stop-color="#FF1CF7"/>
<stop offset="1" stop-color="#00F0FF"/>
</linearGradient>
<linearGradient id="paint49_linear_1047_13365" x1="21.838" y1="994.705" x2="-9.1885" y2="485.617" gradientUnits="userSpaceOnUse">
<stop stop-color="#FF1CF7"/>
<stop offset="1" stop-color="#00F0FF"/>
</linearGradient>
<linearGradient id="paint50_linear_1047_13365" x1="29.1999" y1="998.419" x2="-10.6267" y2="490.969" gradientUnits="userSpaceOnUse">
<stop stop-color="#FF1CF7"/>
<stop offset="1" stop-color="#00F0FF"/>
</linearGradient>
<linearGradient id="paint51_linear_1047_13365" x1="36.5404" y1="1002.06" x2="-12.0386" y2="496.399" gradientUnits="userSpaceOnUse">
<stop stop-color="#FF1CF7"/>
<stop offset="1" stop-color="#00F0FF"/>
</linearGradient>
<linearGradient id="paint52_linear_1047_13365" x1="43.8555" y1="1005.62" x2="-13.4256" y2="501.905" gradientUnits="userSpaceOnUse">
<stop stop-color="#FF1CF7"/>
<stop offset="1" stop-color="#00F0FF"/>
</linearGradient>
<linearGradient id="paint53_linear_1047_13365" x1="51.145" y1="1009.12" x2="-14.7853" y2="507.489" gradientUnits="userSpaceOnUse">
<stop stop-color="#FF1CF7"/>
<stop offset="1" stop-color="#00F0FF"/>
</linearGradient>
<linearGradient id="paint54_linear_1047_13365" x1="58.408" y1="1012.53" x2="-16.1161" y2="513.141" gradientUnits="userSpaceOnUse">
<stop stop-color="#FF1CF7"/>
<stop offset="1" stop-color="#00F0FF"/>
</linearGradient>
<linearGradient id="paint55_linear_1047_13365" x1="65.642" y1="1015.89" x2="-17.4178" y2="518.88" gradientUnits="userSpaceOnUse">
<stop stop-color="#FF1CF7"/>
<stop offset="1" stop-color="#00F0FF"/>
</linearGradient>
<linearGradient id="paint56_linear_1047_13365" x1="72.847" y1="1019.16" x2="-18.6881" y2="524.686" gradientUnits="userSpaceOnUse">
<stop stop-color="#FF1CF7"/>
<stop offset="1" stop-color="#00F0FF"/>
</linearGradient>
<linearGradient id="paint57_linear_1047_13365" x1="80.0206" y1="1022.37" x2="-19.9268" y2="530.564" gradientUnits="userSpaceOnUse">
<stop stop-color="#FF1CF7"/>
<stop offset="1" stop-color="#00F0FF"/>
</linearGradient>
<linearGradient id="paint58_linear_1047_13365" x1="87.1635" y1="1025.5" x2="-21.1307" y2="536.516" gradientUnits="userSpaceOnUse">
<stop stop-color="#FF1CF7"/>
<stop offset="1" stop-color="#00F0FF"/>
</linearGradient>
<linearGradient id="paint59_linear_1047_13365" x1="94.2724" y1="1028.57" x2="-22.301" y2="542.54" gradientUnits="userSpaceOnUse">
<stop stop-color="#FF1CF7"/>
<stop offset="1" stop-color="#00F0FF"/>
</linearGradient>
<linearGradient id="paint60_linear_1047_13365" x1="101.349" y1="1031.57" x2="-23.4334" y2="548.638" gradientUnits="userSpaceOnUse">
<stop stop-color="#FF1CF7"/>
<stop offset="1" stop-color="#00F0FF"/>
</linearGradient>
<linearGradient id="paint61_linear_1047_13365" x1="108.387" y1="1034.49" x2="-24.5312" y2="554.799" gradientUnits="userSpaceOnUse">
<stop stop-color="#FF1CF7"/>
<stop offset="1" stop-color="#00F0FF"/>
</linearGradient>
<linearGradient id="paint62_linear_1047_13365" x1="115.391" y1="1037.35" x2="-25.5887" y2="561.035" gradientUnits="userSpaceOnUse">
<stop stop-color="#FF1CF7"/>
<stop offset="1" stop-color="#00F0FF"/>
</linearGradient>
<linearGradient id="paint63_linear_1047_13365" x1="122.357" y1="1040.15" x2="-26.607" y2="567.341" gradientUnits="userSpaceOnUse">
<stop stop-color="#FF1CF7"/>
<stop offset="1" stop-color="#00F0FF"/>
</linearGradient>
<linearGradient id="paint64_linear_1047_13365" x1="129.284" y1="1042.88" x2="-27.5855" y2="573.714" gradientUnits="userSpaceOnUse">
<stop stop-color="#FF1CF7"/>
<stop offset="1" stop-color="#00F0FF"/>
</linearGradient>
<linearGradient id="paint65_linear_1047_13365" x1="136.172" y1="1045.55" x2="-28.5206" y2="580.148" gradientUnits="userSpaceOnUse">
<stop stop-color="#FF1CF7"/>
<stop offset="1" stop-color="#00F0FF"/>
</linearGradient>
<linearGradient id="paint66_linear_1047_13365" x1="143.018" y1="1048.15" x2="-29.4138" y2="586.656" gradientUnits="userSpaceOnUse">
<stop stop-color="#FF1CF7"/>
<stop offset="1" stop-color="#00F0FF"/>
</linearGradient>
<linearGradient id="paint67_linear_1047_13365" x1="149.823" y1="1050.69" x2="-30.2628" y2="593.225" gradientUnits="userSpaceOnUse">
<stop stop-color="#FF1CF7"/>
<stop offset="1" stop-color="#00F0FF"/>
</linearGradient>
<linearGradient id="paint68_linear_1047_13365" x1="156.585" y1="1053.17" x2="-31.0663" y2="599.86" gradientUnits="userSpaceOnUse">
<stop stop-color="#FF1CF7"/>
<stop offset="1" stop-color="#00F0FF"/>
</linearGradient>
<linearGradient id="paint69_linear_1047_13365" x1="163.301" y1="1055.58" x2="-31.8249" y2="606.555" gradientUnits="userSpaceOnUse">
<stop stop-color="#FF1CF7"/>
<stop offset="1" stop-color="#00F0FF"/>
</linearGradient>
<linearGradient id="paint70_linear_1047_13365" x1="169.974" y1="1057.94" x2="-32.5354" y2="613.315" gradientUnits="userSpaceOnUse">
<stop stop-color="#FF1CF7"/>
<stop offset="1" stop-color="#00F0FF"/>
</linearGradient>
<linearGradient id="paint71_linear_1047_13365" x1="176.601" y1="1060.23" x2="-33.1979" y2="620.135" gradientUnits="userSpaceOnUse">
<stop stop-color="#FF1CF7"/>
<stop offset="1" stop-color="#00F0FF"/>
</linearGradient>
<linearGradient id="paint72_linear_1047_13365" x1="183.18" y1="1062.46" x2="-33.8113" y2="627.01" gradientUnits="userSpaceOnUse">
<stop stop-color="#FF1CF7"/>
<stop offset="1" stop-color="#00F0FF"/>
</linearGradient>
<linearGradient id="paint73_linear_1047_13365" x1="189.712" y1="1064.65" x2="-34.3746" y2="633.953" gradientUnits="userSpaceOnUse">
<stop stop-color="#FF1CF7"/>
<stop offset="1" stop-color="#00F0FF"/>
</linearGradient>
<linearGradient id="paint74_linear_1047_13365" x1="196.195" y1="1066.77" x2="-34.8861" y2="640.951" gradientUnits="userSpaceOnUse">
<stop stop-color="#FF1CF7"/>
<stop offset="1" stop-color="#00F0FF"/>
</linearGradient>
<linearGradient id="paint75_linear_1047_13365" x1="202.629" y1="1068.84" x2="-35.3459" y2="648.008" gradientUnits="userSpaceOnUse">
<stop stop-color="#FF1CF7"/>
<stop offset="1" stop-color="#00F0FF"/>
</linearGradient>
<linearGradient id="paint76_linear_1047_13365" x1="209.01" y1="1070.85" x2="-35.7544" y2="655.119" gradientUnits="userSpaceOnUse">
<stop stop-color="#FF1CF7"/>
<stop offset="1" stop-color="#00F0FF"/>
</linearGradient>
<linearGradient id="paint77_linear_1047_13365" x1="215.341" y1="1072.81" x2="-36.108" y2="662.288" gradientUnits="userSpaceOnUse">
<stop stop-color="#FF1CF7"/>
<stop offset="1" stop-color="#00F0FF"/>
</linearGradient>
<linearGradient id="paint78_linear_1047_13365" x1="221.62" y1="1074.72" x2="-36.4061" y2="669.51" gradientUnits="userSpaceOnUse">
<stop stop-color="#FF1CF7"/>
<stop offset="1" stop-color="#00F0FF"/>
</linearGradient>
<linearGradient id="paint79_linear_1047_13365" x1="227.846" y1="1076.58" x2="-36.6494" y2="676.782" gradientUnits="userSpaceOnUse">
<stop stop-color="#FF1CF7"/>
<stop offset="1" stop-color="#00F0FF"/>
</linearGradient>
<linearGradient id="paint80_linear_1047_13365" x1="234.018" y1="1078.38" x2="-36.8354" y2="684.106" gradientUnits="userSpaceOnUse">
<stop stop-color="#FF1CF7"/>
<stop offset="1" stop-color="#00F0FF"/>
</linearGradient>
<linearGradient id="paint81_linear_1047_13365" x1="240.135" y1="1080.14" x2="-36.965" y2="691.486" gradientUnits="userSpaceOnUse">
<stop stop-color="#FF1CF7"/>
<stop offset="1" stop-color="#00F0FF"/>
</linearGradient>
<linearGradient id="paint82_linear_1047_13365" x1="246.197" y1="1081.85" x2="-37.0357" y2="698.911" gradientUnits="userSpaceOnUse">
<stop stop-color="#FF1CF7"/>
<stop offset="1" stop-color="#00F0FF"/>
</linearGradient>
<linearGradient id="paint83_linear_1047_13365" x1="252.201" y1="1083.51" x2="-37.0496" y2="706.383" gradientUnits="userSpaceOnUse">
<stop stop-color="#FF1CF7"/>
<stop offset="1" stop-color="#00F0FF"/>
</linearGradient>
<linearGradient id="paint84_linear_1047_13365" x1="258.151" y1="1085.13" x2="-37.0016" y2="713.906" gradientUnits="userSpaceOnUse">
<stop stop-color="#FF1CF7"/>
<stop offset="1" stop-color="#00F0FF"/>
</linearGradient>
<linearGradient id="paint85_linear_1047_13365" x1="264.042" y1="1086.7" x2="-36.8947" y2="721.477" gradientUnits="userSpaceOnUse">
<stop stop-color="#FF1CF7"/>
<stop offset="1" stop-color="#00F0FF"/>
</linearGradient>
<linearGradient id="paint86_linear_1047_13365" x1="269.873" y1="1088.23" x2="-36.7281" y2="729.09" gradientUnits="userSpaceOnUse">
<stop stop-color="#FF1CF7"/>
<stop offset="1" stop-color="#00F0FF"/>
</linearGradient>
<linearGradient id="paint87_linear_1047_13365" x1="275.647" y1="1089.71" x2="-36.498" y2="736.741" gradientUnits="userSpaceOnUse">
<stop stop-color="#FF1CF7"/>
<stop offset="1" stop-color="#00F0FF"/>
</linearGradient>
<linearGradient id="paint88_linear_1047_13365" x1="281.361" y1="1091.16" x2="-36.2065" y2="744.442" gradientUnits="userSpaceOnUse">
<stop stop-color="#FF1CF7"/>
<stop offset="1" stop-color="#00F0FF"/>
</linearGradient>
<linearGradient id="paint89_linear_1047_13365" x1="287.013" y1="1092.56" x2="-35.8532" y2="752.18" gradientUnits="userSpaceOnUse">
<stop stop-color="#FF1CF7"/>
<stop offset="1" stop-color="#00F0FF"/>
</linearGradient>
<linearGradient id="paint90_linear_1047_13365" x1="292.607" y1="1093.92" x2="-35.4344" y2="759.96" gradientUnits="userSpaceOnUse">
<stop stop-color="#FF1CF7"/>
<stop offset="1" stop-color="#00F0FF"/>
</linearGradient>
<linearGradient id="paint91_linear_1047_13365" x1="298.139" y1="1095.25" x2="-34.9525" y2="767.777" gradientUnits="userSpaceOnUse">
<stop stop-color="#FF1CF7"/>
<stop offset="1" stop-color="#00F0FF"/>
</linearGradient>
<linearGradient id="paint92_linear_1047_13365" x1="303.608" y1="1096.54" x2="-34.4062" y2="775.634" gradientUnits="userSpaceOnUse">
<stop stop-color="#FF1CF7"/>
<stop offset="1" stop-color="#00F0FF"/>
</linearGradient>
<linearGradient id="paint93_linear_1047_13365" x1="309.014" y1="1097.8" x2="-33.7962" y2="783.536" gradientUnits="userSpaceOnUse">
<stop stop-color="#FF1CF7"/>
<stop offset="1" stop-color="#00F0FF"/>
</linearGradient>
<linearGradient id="paint94_linear_1047_13365" x1="314.359" y1="1099.02" x2="-33.1182" y2="791.462" gradientUnits="userSpaceOnUse">
<stop stop-color="#FF1CF7"/>
<stop offset="1" stop-color="#00F0FF"/>
</linearGradient>
<linearGradient id="paint95_linear_1047_13365" x1="319.64" y1="1100.21" x2="-32.3749" y2="799.424" gradientUnits="userSpaceOnUse">
<stop stop-color="#FF1CF7"/>
<stop offset="1" stop-color="#00F0FF"/>
</linearGradient>
<linearGradient id="paint96_linear_1047_13365" x1="324.857" y1="1101.36" x2="-31.5644" y2="807.419" gradientUnits="userSpaceOnUse">
<stop stop-color="#FF1CF7"/>
<stop offset="1" stop-color="#00F0FF"/>
</linearGradient>
<linearGradient id="paint97_linear_1047_13365" x1="330.009" y1="1102.48" x2="-30.6884" y2="815.441" gradientUnits="userSpaceOnUse">
<stop stop-color="#FF1CF7"/>
<stop offset="1" stop-color="#00F0FF"/>
</linearGradient>
<linearGradient id="paint98_linear_1047_13365" x1="335.097" y1="1103.58" x2="-29.7441" y2="823.502" gradientUnits="userSpaceOnUse">
<stop stop-color="#FF1CF7"/>
<stop offset="1" stop-color="#00F0FF"/>
</linearGradient>
</defs>
</svg>
