<svg width="590" height="616" viewBox="0 0 590 616" fill="none" xmlns="http://www.w3.org/2000/svg">
<g clipPath="url(#clip0_1047_13575)">
<path d="M384.121 529.321C1.97048 153.168 -25.8521 41.0387 609.605 161.588" stroke="url(#paint0_linear_1047_13575)" stroke-linecap="round"/>
<path d="M361.033 539.525C21.4037 187.058 -6.20725 71.4043 578.757 163.827" stroke="url(#paint1_linear_1047_13575)" stroke-linecap="round"/>
<path d="M331.701 544.231C34.5929 215.451 13.4373 101.774 547.909 166.07" stroke="url(#paint2_linear_1047_13575)" stroke-linecap="round"/>
<path d="M303.124 549.759C48.5369 244.665 33.0822 132.141 517.061 168.31" stroke="url(#paint3_linear_1047_13575)" stroke-linecap="round"/>
<path d="M273.556 552.317C61.4904 270.91 52.7267 162.517 486.213 170.559" stroke="url(#paint4_linear_1047_13575)" stroke-linecap="round"/>
<path d="M242.708 554.555C73.1643 296.834 72.3721 192.881 455.365 172.797" stroke="url(#paint5_linear_1047_13575)" stroke-linecap="round"/>
<path d="M211.86 556.8C84.8371 322.765 92.0165 223.254 424.517 175.042" stroke="url(#paint6_linear_1047_13575)" stroke-linecap="round"/>
<path d="M181.012 559.038C96.511 348.689 111.662 253.618 393.669 177.28" stroke="url(#paint7_linear_1047_13575)" stroke-linecap="round"/>
<path d="M150.164 561.283C108.184 374.621 131.306 283.99 362.821 179.525" stroke="url(#paint8_linear_1047_13575)" stroke-linecap="round"/>
<path d="M119.316 563.521C119.857 400.545 150.951 314.355 331.972 181.763" stroke="url(#paint9_linear_1047_13575)" stroke-linecap="round"/>
</g>
<defs>
<linearGradient id="paint0_linear_1047_13575" x1="256.071" y1="360.698" x2="382.548" y2="133.649" gradientUnits="userSpaceOnUse">
<stop stop-color="#FF1CF7"/>
<stop offset="1" stop-color="#00F0FF"/>
</linearGradient>
<linearGradient id="paint1_linear_1047_13575" x1="242.659" y1="372.649" x2="369.136" y2="145.6" gradientUnits="userSpaceOnUse">
<stop stop-color="#FF1CF7"/>
<stop offset="1" stop-color="#00F0FF"/>
</linearGradient>
<linearGradient id="paint2_linear_1047_13575" x1="229.246" y1="384.605" x2="355.723" y2="157.555" gradientUnits="userSpaceOnUse">
<stop stop-color="#FF1CF7"/>
<stop offset="1" stop-color="#00F0FF"/>
</linearGradient>
<linearGradient id="paint3_linear_1047_13575" x1="215.834" y1="396.557" x2="342.311" y2="169.508" gradientUnits="userSpaceOnUse">
<stop stop-color="#FF1CF7"/>
<stop offset="1" stop-color="#00F0FF"/>
</linearGradient>
<linearGradient id="paint4_linear_1047_13575" x1="202.422" y1="408.519" x2="328.899" y2="181.47" gradientUnits="userSpaceOnUse">
<stop stop-color="#FF1CF7"/>
<stop offset="1" stop-color="#00F0FF"/>
</linearGradient>
<linearGradient id="paint5_linear_1047_13575" x1="189.01" y1="420.47" x2="315.487" y2="193.42" gradientUnits="userSpaceOnUse">
<stop stop-color="#FF1CF7"/>
<stop offset="1" stop-color="#00F0FF"/>
</linearGradient>
<linearGradient id="paint6_linear_1047_13575" x1="175.598" y1="432.428" x2="302.075" y2="205.378" gradientUnits="userSpaceOnUse">
<stop stop-color="#FF1CF7"/>
<stop offset="1" stop-color="#00F0FF"/>
</linearGradient>
<linearGradient id="paint7_linear_1047_13575" x1="162.186" y1="444.378" x2="288.663" y2="217.328" gradientUnits="userSpaceOnUse">
<stop stop-color="#FF1CF7"/>
<stop offset="1" stop-color="#00F0FF"/>
</linearGradient>
<linearGradient id="paint8_linear_1047_13575" x1="148.774" y1="456.336" x2="275.251" y2="229.287" gradientUnits="userSpaceOnUse">
<stop stop-color="#FF1CF7"/>
<stop offset="1" stop-color="#00F0FF"/>
</linearGradient>
<linearGradient id="paint9_linear_1047_13575" x1="135.361" y1="468.286" x2="261.838" y2="241.237" gradientUnits="userSpaceOnUse">
<stop stop-color="#FF1CF7"/>
<stop offset="1" stop-color="#00F0FF"/>
</linearGradient>
<clipPath id="clip0_1047_13575">
<rect width="586" height="473" fill="white" transform="translate(0 160.344) rotate(-15.8802)"/>
</clipPath>
</defs>
</svg>
