<svg width="897" height="442" viewBox="0 0 897 442" fill="none" xmlns="http://www.w3.org/2000/svg">
<path opacity="0.010101" d="M539.389 468.461L718.996 -24.3262C721.949 -32.4262 729.781 -37.704 738.397 -37.3992L1262.57 -18.8626C1271.18 -18.5579 1278.62 -12.74 1280.99 -4.45179L1425.34 499.792C1427.72 508.08 1424.48 516.954 1417.33 521.771L982.374 814.874C975.225 819.692 965.786 819.358 958.995 814.048L545.828 490.952C539.036 485.641 536.437 476.561 539.389 468.461Z" stroke="url(#paint0_linear_1047_14622)" strokeWidth="0.2"/>
<path opacity="0.020202" d="M533.396 462.822L721.213 -25.8129C724.306 -33.8601 732.229 -39.0004 740.839 -38.5454L1263.6 -10.9168C1272.21 -10.4618 1279.54 -4.51495 1281.77 3.81344L1417.04 509.524C1419.26 517.852 1415.87 526.668 1408.64 531.36L969.482 816.277C962.25 820.97 952.819 820.471 946.121 815.043L539.441 485.421C532.743 479.993 530.303 470.869 533.396 462.822Z" stroke="url(#paint1_linear_1047_14622)" strokeWidth="0.2"/>
<path opacity="0.030303" d="M527.547 457.184L723.485 -27.1616C726.718 -35.1536 734.73 -40.1549 743.33 -39.5497L1264.52 -2.87293C1273.12 -2.26776 1280.35 3.80623 1282.43 12.1722L1408.61 519.186C1410.69 527.552 1407.15 536.307 1399.83 540.872L956.625 817.547C949.312 822.113 939.891 821.45 933.289 815.905L533.197 479.886C526.595 474.341 524.314 465.176 527.547 457.184Z" stroke="url(#paint2_linear_1047_14622)" strokeWidth="0.2"/>
<path opacity="0.040404" d="M521.843 451.541L725.809 -28.3825C729.181 -36.3169 737.279 -41.1775 745.867 -40.4223L1265.33 5.25644C1273.92 6.01159 1281.04 12.2109 1282.98 20.6119L1400.06 528.766C1401.99 537.167 1398.3 545.859 1390.91 550.296L943.804 818.674C936.413 823.111 927.004 822.284 920.5 816.625L527.095 474.337C520.591 468.678 518.471 459.475 521.843 451.541Z" stroke="url(#paint3_linear_1047_14622)" strokeWidth="0.2"/>
<path opacity="0.050505" d="M516.282 445.906L728.182 -29.4617C731.692 -37.336 739.873 -42.0546 748.447 -41.1496L1266.03 13.4821C1274.6 14.387 1281.62 20.7097 1283.41 29.1432L1391.39 538.275C1393.18 546.709 1389.33 555.335 1381.87 559.642L931.022 819.671C923.554 823.979 914.161 822.987 907.757 817.216L521.136 468.791C514.732 463.019 512.772 453.78 516.282 445.906Z" stroke="url(#paint4_linear_1047_14622)" strokeWidth="0.2"/>
<path opacity="0.0606061" d="M510.866 440.273L730.602 -30.4093C734.249 -38.2212 742.511 -42.7962 751.068 -41.7418L1266.61 21.7911C1275.17 22.8455 1282.08 29.2896 1283.72 37.7531L1382.61 547.7C1384.25 556.164 1380.25 564.722 1372.71 568.898L918.28 820.53C910.738 824.706 901.365 823.551 895.062 817.669L515.319 463.239C509.017 457.356 507.219 448.084 510.866 440.273Z" stroke="url(#paint5_linear_1047_14622)" strokeWidth="0.2"/>
<path opacity="0.0707071" d="M505.592 434.64L733.066 -31.2277C736.849 -38.9746 745.19 -43.4049 753.727 -42.2012L1267.09 30.1784C1275.62 31.382 1282.41 37.9457 1283.91 46.4365L1373.71 557.037C1375.2 565.528 1371.06 574.015 1363.44 578.059L905.582 821.248C897.968 825.292 888.616 823.973 882.417 817.982L509.644 457.68C503.445 451.688 501.809 442.387 505.592 434.64Z" stroke="url(#paint6_linear_1047_14622)" strokeWidth="0.2"/>
<path opacity="0.0808081" d="M500.461 429.023L735.572 -31.9035C739.489 -39.5833 747.906 -43.8673 756.421 -42.5149L1267.44 38.6547C1275.96 40.0071 1282.63 46.6883 1283.98 55.2039L1364.69 566.296C1366.04 574.812 1361.75 583.225 1354.06 587.135L892.929 821.838C885.245 825.749 875.918 824.267 869.825 818.168L504.11 452.131C498.017 446.032 496.544 436.703 500.461 429.023Z" stroke="url(#paint7_linear_1047_14622)" strokeWidth="0.2"/>
<path opacity="0.0909091" d="M495.474 423.414L738.118 -32.4471C742.169 -40.0574 750.66 -44.1938 759.149 -42.693L1267.68 47.2069C1276.17 48.7077 1282.73 55.5044 1283.92 64.0421L1355.57 575.465C1356.77 584.003 1352.33 592.34 1344.58 596.115L880.325 822.292C872.574 826.068 863.274 824.424 857.288 818.22L498.719 446.582C492.733 440.378 491.423 431.025 495.474 423.414Z" stroke="url(#paint8_linear_1047_14622)" strokeWidth="0.2"/>
<path opacity="0.10101" d="M490.628 417.821L740.701 -32.8533C744.884 -40.3917 753.445 -44.3793 761.907 -42.7306L1267.8 55.8375C1276.26 57.4862 1282.7 64.3963 1283.75 72.9537L1346.33 584.546C1347.38 593.104 1342.8 601.362 1334.98 605.002L867.77 822.615C859.955 826.255 850.685 824.449 844.808 818.142L493.468 441.042C487.591 434.734 486.445 425.359 490.628 417.821Z" stroke="url(#paint9_linear_1047_14622)" strokeWidth="0.2"/>
<path opacity="0.111111" d="M485.923 412.242L743.318 -33.1245C747.632 -40.5887 756.262 -44.4263 764.694 -42.6301L1267.8 64.5415C1276.23 66.3376 1282.55 73.3591 1283.45 81.9334L1336.99 593.536C1337.89 602.11 1333.16 610.287 1325.28 613.79L855.267 822.806C847.39 826.309 838.153 824.341 832.387 817.932L488.358 435.509C482.592 429.099 481.609 419.706 485.923 412.242Z" stroke="url(#paint10_linear_1047_14622)" strokeWidth="0.2"/>
<path opacity="0.121212" d="M481.36 406.685L745.968 -33.2557C750.411 -40.6436 759.107 -44.33 767.506 -42.3869L1267.68 73.3213C1276.08 75.2643 1282.28 82.3949 1283.02 90.9836L1327.54 602.436C1328.29 611.025 1323.42 619.118 1315.48 622.483L842.821 822.87C834.883 826.235 825.682 824.106 820.029 817.597L483.388 429.991C477.735 423.482 476.916 414.073 481.36 406.685Z" stroke="url(#paint11_linear_1047_14622)" strokeWidth="0.2"/>
<path opacity="0.131313" d="M476.937 401.15L748.647 -33.2497C753.219 -40.5589 761.977 -44.093 770.341 -42.0036L1267.44 82.1714C1275.81 84.2607 1281.87 91.4983 1282.47 100.099L1317.99 611.242C1318.59 619.843 1313.58 627.85 1305.58 631.076L830.43 822.805C822.435 826.031 813.272 823.742 807.734 817.136L478.558 424.487C473.02 417.881 472.365 408.459 476.937 401.15Z" stroke="url(#paint12_linear_1047_14622)" strokeWidth="0.2"/>
<path opacity="0.141414" d="M472.653 395.635L751.352 -33.1093C756.051 -40.3376 764.87 -43.7183 773.196 -41.4832L1267.08 91.0866C1275.41 93.3216 1281.35 100.664 1281.79 109.273L1308.33 619.95C1308.78 628.56 1303.63 636.478 1295.58 639.564L818.098 822.61C810.048 825.696 800.926 823.248 795.504 816.546L473.867 418.997C468.444 412.295 467.954 402.863 472.653 395.635Z" stroke="url(#paint13_linear_1047_14622)" strokeWidth="0.2"/>
<path opacity="0.151515" d="M468.508 390.148L754.083 -32.8295C758.907 -39.9747 767.783 -43.201 776.069 -40.8209L1266.59 100.069C1274.88 102.449 1280.69 109.894 1280.99 118.51L1298.57 628.563C1298.87 637.179 1293.58 645.006 1285.48 647.951L805.828 822.291C797.725 825.236 788.648 822.629 783.343 815.833L469.314 413.528C464.01 406.732 463.684 397.293 468.508 390.148Z" stroke="url(#paint14_linear_1047_14622)" strokeWidth="0.2"/>
<path opacity="0.161616" d="M464.501 384.689L756.835 -32.4136C761.783 -39.4735 770.714 -42.5443 778.957 -40.02L1265.98 109.114C1274.22 111.638 1279.9 119.183 1280.05 127.803L1288.72 637.075C1288.86 645.695 1283.44 653.429 1275.29 656.232L793.62 821.846C785.467 824.649 776.436 821.884 771.251 814.996L464.899 408.079C459.714 401.192 459.553 391.749 464.501 384.689Z" stroke="url(#paint15_linear_1047_14622)" strokeWidth="0.2"/>
<path opacity="0.171717" d="M460.633 379.263L759.607 -31.8565C764.678 -38.8289 773.661 -41.7435 781.859 -39.0757L1265.25 118.223C1273.44 120.89 1278.99 128.533 1278.99 137.155L1278.76 645.49C1278.76 654.111 1273.2 661.75 1265 664.41L781.479 821.28C773.278 823.941 764.297 821.018 759.233 814.041L460.623 402.657C455.558 395.68 455.563 386.236 460.633 379.263Z" stroke="url(#paint16_linear_1047_14622)" strokeWidth="0.2"/>
<path opacity="0.181818" d="M456.901 373.871L762.396 -31.1615C767.588 -38.0444 776.621 -40.8017 784.771 -37.9913L1264.38 127.39C1272.53 130.2 1277.95 137.939 1277.79 146.559L1268.71 653.803C1268.56 662.423 1262.87 669.963 1254.63 672.48L769.404 820.593C761.159 823.11 752.23 820.031 747.288 812.967L456.482 397.262C451.541 390.197 451.71 380.754 456.901 373.871Z" stroke="url(#paint17_linear_1047_14622)" strokeWidth="0.2"/>
<path opacity="0.191919" d="M453.304 368.512L765.199 -30.3318C770.51 -37.1231 779.59 -39.7223 787.69 -36.7701L1263.39 136.61C1271.49 139.563 1276.77 147.395 1276.47 156.011L1258.57 662.01C1258.27 670.625 1252.45 678.065 1244.16 680.438L757.399 819.782C749.11 822.154 740.237 818.92 735.419 811.771L452.477 391.891C447.659 384.742 447.993 375.303 453.304 368.512Z" stroke="url(#paint18_linear_1047_14622)" strokeWidth="0.2"/>
<path opacity="0.20202" d="M449.842 363.192L768.014 -29.3629C773.443 -36.0604 782.567 -38.5008 790.614 -35.4077L1262.28 145.886C1270.32 148.979 1275.46 156.902 1275.01 165.512L1248.34 670.112C1247.89 678.722 1241.94 686.059 1233.61 688.286L745.465 818.853C737.136 821.081 728.321 817.692 723.629 810.46L448.607 386.553C443.915 379.321 444.413 369.89 449.842 363.192Z" stroke="url(#paint19_linear_1047_14622)" strokeWidth="0.2"/>
<path opacity="0.212121" d="M446.515 357.919L770.84 -28.2502C776.385 -34.852 785.55 -37.1328 793.542 -33.8996L1261.03 155.219C1269.02 158.453 1274.03 166.464 1273.42 175.064L1238.02 678.115C1237.41 686.715 1231.34 693.947 1222.97 696.029L733.605 817.812C725.239 819.894 716.484 816.353 711.919 809.039L444.872 381.255C440.307 373.942 440.97 364.52 446.515 357.919Z" stroke="url(#paint20_linear_1047_14622)" strokeWidth="0.2"/>
<path opacity="0.222222" d="M443.319 352.683L773.671 -27.005C779.33 -33.509 788.533 -35.6294 796.468 -32.2573L1259.66 164.597C1267.59 167.969 1272.45 176.066 1271.7 184.654L1227.61 686.005C1226.86 694.593 1220.66 701.718 1212.26 703.653L721.82 816.651C713.418 818.586 704.726 814.892 700.289 807.501L441.27 375.987C436.833 368.595 437.66 359.187 443.319 352.683Z" stroke="url(#paint21_linear_1047_14622)" strokeWidth="0.2"/>
<path opacity="0.232323" d="M440.256 347.491L776.508 -25.6229C782.28 -32.0271 791.519 -33.9867 799.393 -30.4766L1258.15 174.02C1266.03 177.53 1270.75 185.711 1269.84 194.285L1217.12 693.785C1216.21 702.358 1209.89 709.374 1201.46 711.163L710.112 815.374C701.678 817.163 693.052 813.317 688.745 805.849L437.8 370.756C433.493 363.288 434.484 353.895 440.256 347.491Z" stroke="url(#paint22_linear_1047_14622)" strokeWidth="0.2"/>
<path opacity="0.242424" d="M437.323 342.351L779.347 -24.0997C785.229 -30.4023 794.501 -32.2003 802.313 -28.5533L1256.52 183.491C1264.33 187.138 1268.91 195.4 1267.85 203.957L1206.54 701.458C1205.49 710.014 1199.04 716.919 1190.58 718.56L698.483 813.988C690.02 815.629 681.462 811.634 677.286 804.092L434.462 365.569C430.286 358.027 431.441 348.653 437.323 342.351Z" stroke="url(#paint23_linear_1047_14622)" strokeWidth="0.2"/>
<path opacity="0.252525" d="M434.522 337.252L782.187 -22.4467C788.178 -28.6457 797.48 -30.2816 805.227 -26.4988L1254.76 192.997C1262.5 196.78 1266.93 205.121 1265.73 213.658L1195.89 709.013C1194.68 717.549 1188.12 724.34 1179.63 725.833L686.937 812.484C678.446 813.977 669.959 809.833 665.915 802.219L431.255 360.417C427.211 352.803 428.53 343.451 434.522 337.252Z" stroke="url(#paint24_linear_1047_14622)" strokeWidth="0.2"/>
<path opacity="0.262626" d="M431.847 332.211L785.022 -20.6521C791.121 -26.7455 800.45 -28.2188 808.129 -24.3014L1252.86 202.548C1260.54 206.465 1264.82 214.882 1263.47 223.396L1185.15 716.459C1183.8 724.974 1177.12 731.649 1168.6 732.994L675.472 810.875C666.956 812.22 658.543 807.928 654.632 800.245L428.177 355.315C424.266 347.632 425.748 338.304 431.847 332.211Z" stroke="url(#paint25_linear_1047_14622)" strokeWidth="0.2"/>
<path opacity="0.272727" d="M429.299 327.232L787.852 -18.7115C794.056 -24.6975 803.409 -26.0078 811.02 -21.957L1250.83 212.144C1258.44 216.195 1262.58 224.685 1261.08 233.175L1174.34 723.801C1172.84 732.291 1166.04 738.849 1157.51 740.045L664.091 809.167C655.553 810.363 647.216 805.926 643.44 798.175L425.227 350.269C421.451 342.519 423.095 333.218 429.299 327.232Z" stroke="url(#paint26_linear_1047_14622)" strokeWidth="0.2"/>
<path opacity="0.282828" d="M426.879 322.3L790.676 -16.6445C796.983 -22.5214 806.358 -23.6682 813.896 -19.4852L1248.67 221.766C1256.21 225.949 1260.2 234.51 1258.55 242.972L1163.46 731.019C1161.81 739.481 1154.9 745.919 1146.34 746.966L652.797 807.344C644.24 808.391 635.982 803.808 632.342 795.993L422.405 345.262C418.765 337.447 420.571 328.177 426.879 322.3Z" stroke="url(#paint27_linear_1047_14622)" strokeWidth="0.2"/>
<path opacity="0.292929" d="M424.584 317.429L793.489 -14.4394C799.898 -20.2052 809.292 -21.1883 816.756 -16.8744L1246.38 231.423C1253.84 235.736 1257.68 244.366 1255.89 252.798L1152.5 738.123C1150.71 746.555 1143.68 752.871 1135.11 753.769L641.592 805.419C633.017 806.316 624.84 801.59 621.337 793.713L419.71 340.31C416.206 332.432 418.174 323.195 424.584 317.429Z" stroke="url(#paint28_linear_1047_14622)" strokeWidth="0.2"/>
<path opacity="0.30303" d="M422.411 312.618L796.289 -12.0997C802.798 -17.7529 812.207 -18.5719 819.595 -14.1283L1243.95 241.108C1251.34 245.552 1255.03 254.247 1253.09 262.646L1141.48 745.109C1139.53 753.508 1132.4 759.701 1123.81 760.448L630.475 803.39C621.886 804.138 613.793 799.27 610.428 791.332L417.138 335.41C413.773 327.472 415.902 318.271 422.411 312.618Z" stroke="url(#paint29_linear_1047_14622)" strokeWidth="0.2"/>
<path opacity="0.313131" d="M420.361 307.872L799.076 -9.62201C805.682 -15.1607 815.104 -15.8153 822.413 -11.2435L1241.4 250.825C1248.71 255.396 1252.24 264.155 1250.15 272.519L1130.38 751.98C1128.29 760.344 1121.06 766.411 1112.46 767.009L619.45 801.264C610.85 801.862 602.843 796.853 599.617 788.858L414.691 330.568C411.465 322.574 413.754 313.411 420.361 307.872Z" stroke="url(#paint30_linear_1047_14622)" strokeWidth="0.2"/>
<path opacity="0.323232" d="M418.432 303.183L801.844 -7.01764C808.547 -12.4402 817.978 -12.9303 825.207 -8.23167L1238.71 260.558C1245.93 265.257 1249.32 274.076 1247.08 282.402L1119.22 758.724C1116.99 767.05 1109.65 772.991 1101.04 773.438L608.518 799.031C599.909 799.479 591.99 794.331 588.904 786.282L412.367 325.777C409.281 317.727 411.729 308.606 418.432 303.183Z" stroke="url(#paint31_linear_1047_14622)" strokeWidth="0.2"/>
<path opacity="0.333333" d="M416.622 298.565L804.594 -4.27518C811.39 -9.57995 820.829 -9.9054 827.974 -5.0813L1235.88 270.319C1243.03 275.143 1246.25 284.019 1243.87 292.305L1108 765.353C1105.62 773.639 1098.18 779.45 1089.56 779.747L597.681 796.706C589.065 797.003 581.237 791.718 578.292 783.616L410.164 321.05C407.219 312.947 409.826 303.87 416.622 298.565Z" stroke="url(#paint32_linear_1047_14622)" strokeWidth="0.2"/>
<path opacity="0.343434" d="M414.93 294.017L807.321 -1.3989C814.208 -6.58419 823.651 -6.74487 830.711 -1.79681L1232.92 280.101C1239.98 285.049 1243.05 293.98 1240.53 302.223L1096.72 771.861C1094.2 780.105 1086.65 785.785 1078.03 785.932L586.939 794.287C578.319 794.433 570.585 789.013 567.782 780.86L408.08 316.385C405.277 308.233 408.042 299.202 414.93 294.017Z" stroke="url(#paint33_linear_1047_14622)" strokeWidth="0.2"/>
<path opacity="0.353535" d="M413.355 289.544L810.024 1.61516C817.001 -3.4492 826.446 -3.44504 833.418 1.62548L1229.83 289.906C1236.81 294.976 1239.72 303.96 1237.05 312.158L1085.38 778.254C1082.71 786.452 1075.07 792 1066.45 791.996L576.295 791.779C567.674 791.775 560.036 786.22 557.375 778.02L406.116 311.79C403.455 303.59 406.378 294.609 413.355 289.544Z" stroke="url(#paint34_linear_1047_14622)" strokeWidth="0.2"/>
<path opacity="0.363636" d="M411.895 285.138L812.701 4.75498C819.765 -0.186786 829.208 -0.0177999 836.091 5.17364L1226.61 299.72C1233.49 304.911 1236.25 313.944 1233.44 322.095L1073.98 784.518C1071.17 792.668 1063.43 798.081 1054.81 797.927L565.75 789.174C557.13 789.02 549.59 783.333 547.073 775.087L404.269 307.254C401.752 299.009 404.831 290.08 411.895 285.138Z" stroke="url(#paint35_linear_1047_14622)" strokeWidth="0.2"/>
<path opacity="0.373737" d="M410.548 280.813L815.35 8.03186C822.499 3.21408 831.938 3.54784 838.729 8.85861L1223.25 309.553C1230.04 314.864 1232.64 323.944 1229.69 332.044L1062.53 790.664C1059.58 798.764 1051.75 804.042 1043.13 803.737L555.306 786.486C546.69 786.181 539.25 780.363 536.878 772.075L402.538 302.793C400.165 294.504 403.399 285.631 410.548 280.813Z" stroke="url(#paint36_linear_1047_14622)" strokeWidth="0.2"/>
<path opacity="0.383838" d="M409.314 276.559L817.966 11.4339C825.199 6.7416 834.63 7.24004 841.328 12.6685L1219.76 319.392C1226.45 324.82 1228.9 333.944 1225.8 341.991L1051.03 796.682C1047.94 804.729 1040.02 809.87 1031.41 809.415L544.963 783.705C536.354 783.25 529.017 777.304 526.789 768.975L400.921 298.395C398.693 290.067 402.081 281.251 409.314 276.559Z" stroke="url(#paint37_linear_1047_14622)" strokeWidth="0.2"/>
<path opacity="0.393939" d="M408.189 272.382L820.549 14.9644C827.863 10.3991 837.284 11.0621 843.886 16.6066L1216.13 329.238C1222.73 334.783 1225.01 343.948 1221.78 351.94L1039.48 802.575C1036.25 810.567 1028.24 815.568 1019.64 814.963L534.722 780.839C526.122 780.233 518.89 774.159 516.808 765.793L399.416 294.069C397.334 285.703 400.876 276.948 408.189 272.382Z" stroke="url(#paint38_linear_1047_14622)" strokeWidth="0.2"/>
<path opacity="0.40404" d="M407.174 268.289L823.098 18.627C830.49 14.1901 839.898 15.0174 846.402 20.6763L1212.37 339.094C1218.88 344.753 1221 353.956 1217.62 361.89L1027.88 808.345C1024.51 816.28 1016.41 821.14 1007.82 820.385L524.587 777.892C515.999 777.137 508.874 770.938 506.939 762.536L398.023 289.819C396.088 281.418 399.782 272.726 407.174 268.289Z" stroke="url(#paint39_linear_1047_14622)" strokeWidth="0.2"/>
<path opacity="0.414141" d="M406.264 264.278L825.607 22.4174C833.076 18.1101 842.468 19.1015 848.872 24.873L1208.48 348.953C1214.88 354.725 1216.84 363.963 1213.33 371.838L1016.24 813.991C1012.73 821.865 1004.55 826.583 995.974 825.679L514.557 774.864C505.983 773.959 498.967 767.637 497.179 759.203L396.74 285.645C394.951 277.211 398.796 268.585 406.264 264.278Z" stroke="url(#paint40_linear_1047_14622)" strokeWidth="0.2"/>
<path opacity="0.424242" d="M405.462 260.347L828.079 26.3309C835.621 22.1547 844.994 23.3098 851.297 29.1922L1204.45 358.81C1210.76 364.692 1212.56 373.964 1208.91 381.776L1004.56 819.506C1000.91 827.318 992.646 831.893 984.09 830.839L504.635 771.754C496.078 770.699 489.174 764.255 487.533 755.791L395.566 281.544C393.925 273.081 397.92 264.523 405.462 260.347Z" stroke="url(#paint41_linear_1047_14622)" strokeWidth="0.2"/>
<path opacity="0.434343" d="M404.762 256.502L830.506 30.3713C838.12 26.3273 847.472 27.6459 853.671 33.6374L1200.3 368.666C1206.5 374.657 1208.13 383.959 1204.35 391.706L992.83 824.896C989.048 832.643 980.707 837.073 972.17 835.869L494.82 768.567C486.283 767.363 479.492 760.8 477.999 752.309L394.498 277.524C393.004 269.033 397.148 260.546 404.762 256.502Z" stroke="url(#paint42_linear_1047_14622)" strokeWidth="0.2"/>
<path opacity="0.444444" d="M404.165 252.749L832.89 34.5417C840.574 30.6312 849.901 32.1127 855.994 38.2115L1196.01 378.524C1202.1 384.623 1203.57 393.952 1199.66 401.631L981.068 830.164C977.151 837.843 968.734 842.127 960.219 840.775L485.114 765.31C476.599 763.958 469.924 757.277 468.579 748.761L393.535 273.589C392.19 265.073 396.481 256.66 404.165 252.749Z" stroke="url(#paint43_linear_1047_14622)" strokeWidth="0.2"/>
<path opacity="0.454545" d="M403.668 249.079L835.228 38.8298C842.979 35.0539 852.279 36.698 858.265 42.9022L1191.58 388.37C1197.57 394.574 1198.88 403.927 1194.83 411.537L969.271 835.298C965.221 842.908 956.73 847.045 948.24 845.544L475.519 761.975C467.03 760.474 460.472 753.677 459.276 745.139L392.676 269.73C391.48 261.192 395.917 252.855 403.668 249.079Z" stroke="url(#paint44_linear_1047_14622)" strokeWidth="0.2"/>
<path opacity="0.464646" d="M403.269 245.506L837.517 43.2466C845.332 39.6066 854.603 41.4127 860.479 47.7205L1187.03 398.214C1192.91 404.521 1194.05 413.896 1189.87 421.434L957.441 840.311C953.258 847.849 944.697 851.837 936.235 850.188L466.035 758.574C457.573 756.926 451.135 750.016 450.088 741.458L391.918 265.962C390.871 257.404 395.454 249.146 403.269 245.506Z" stroke="url(#paint45_linear_1047_14622)" strokeWidth="0.2"/>
<path opacity="0.474747" d="M402.966 242.019L839.755 47.7799C847.633 44.2768 856.87 46.2445 862.636 52.6539L1182.34 408.042C1188.11 414.451 1189.09 423.844 1184.78 431.308L945.58 845.19C941.266 852.654 932.637 856.492 924.205 854.695L456.664 755.1C448.232 753.304 441.915 746.283 441.018 737.708L391.26 262.274C390.363 253.7 395.089 245.522 402.966 242.019Z" stroke="url(#paint46_linear_1047_14622)" strokeWidth="0.2"/>
<path opacity="0.484848" d="M402.758 238.625L841.941 52.4327C849.878 49.0677 859.08 51.1963 864.733 57.7053L1177.53 417.856C1183.18 424.365 1184 433.774 1179.56 441.162L933.691 849.94C929.248 857.328 920.552 861.014 912.153 859.071L447.406 751.559C439.006 749.616 432.813 742.485 432.066 733.897L390.701 258.673C389.953 250.084 394.821 241.99 402.758 238.625Z" stroke="url(#paint47_linear_1047_14622)" strokeWidth="0.2"/>
<path opacity="0.494949" d="M402.643 235.33L844.072 57.2086C852.067 53.9826 861.23 56.2714 866.768 62.8781L1172.58 427.659C1178.12 434.266 1178.77 443.687 1174.2 450.997L921.776 854.565C917.205 861.874 908.446 865.408 900.082 863.319L438.262 747.957C429.898 745.868 423.83 738.63 423.233 730.03L390.238 255.164C389.64 246.563 394.649 238.556 402.643 235.33Z" stroke="url(#paint48_linear_1047_14622)" strokeWidth="0.2"/>
<path opacity="0.50505" d="M402.62 232.131L846.147 62.1026C854.197 59.0166 863.318 61.465 868.741 68.1674L1167.5 437.444C1172.93 444.147 1173.42 453.579 1168.72 460.807L909.839 859.061C905.14 866.29 896.322 869.67 887.995 867.435L429.234 744.293C420.908 742.058 414.967 734.716 414.52 726.106L389.87 251.746C389.423 243.136 394.57 235.217 402.62 232.131Z" stroke="url(#paint49_linear_1047_14622)" strokeWidth="0.2"/>
<path opacity="0.515152" d="M402.685 229.028L848.162 67.1103C856.264 64.1653 865.342 66.7725 870.646 73.5685L1162.3 447.207C1167.6 454.003 1167.93 463.442 1163.1 470.587L897.879 863.426C893.055 870.571 884.179 873.797 875.892 871.417L420.321 740.566C412.035 738.186 406.224 730.741 405.927 722.125L389.594 248.416C389.297 239.8 394.582 231.973 402.685 229.028Z" stroke="url(#paint50_linear_1047_14622)" strokeWidth="0.2"/>
<path opacity="0.525253" d="M402.837 226.024L850.116 72.2347C858.269 69.4315 867.3 72.1968 872.485 79.0843L1156.96 456.949C1162.15 463.837 1162.31 473.28 1157.36 480.34L885.901 867.662C880.953 874.722 872.021 877.793 863.778 875.269L411.526 736.783C403.283 734.258 397.602 726.713 397.455 718.093L389.41 245.181C389.263 236.561 394.684 228.827 402.837 226.024Z" stroke="url(#paint51_linear_1047_14622)" strokeWidth="0.2"/>
<path opacity="0.535354" d="M403.074 223.119L852.009 77.4711C860.209 74.8106 869.19 77.7331 874.254 84.71L1151.5 466.665C1156.57 473.642 1156.56 483.086 1151.49 490.059L873.906 871.768C868.836 878.74 859.852 881.655 851.654 878.987L402.848 732.942C394.65 730.274 389.102 722.631 389.106 714.009L389.315 242.039C389.319 233.418 394.873 225.78 403.074 223.119Z" stroke="url(#paint52_linear_1047_14622)" strokeWidth="0.2"/>
<path opacity="0.545455" d="M403.395 220.319L853.837 82.8226C862.082 80.3056 871.011 83.3844 875.953 90.4487L1145.91 476.356C1150.86 483.42 1150.69 492.863 1145.5 499.746L861.898 875.746C856.706 882.629 847.673 885.387 839.523 882.576L394.289 729.049C386.139 726.239 380.725 718.5 380.88 709.88L389.307 238.996C389.462 230.376 395.149 222.836 403.395 220.319Z" stroke="url(#paint53_linear_1047_14622)" strokeWidth="0.2"/>
<path opacity="0.555556" d="M403.796 217.62L855.598 88.2845C863.886 85.9119 872.76 89.146 877.577 96.2955L1140.2 486.018C1145.02 493.167 1144.68 502.606 1139.37 509.397L849.877 879.595C844.566 886.386 835.486 888.985 827.386 886.033L385.849 725.105C377.749 722.153 372.471 714.321 372.776 705.705L389.385 236.049C389.689 227.433 395.507 219.993 403.796 217.62Z" stroke="url(#paint54_linear_1047_14622)" strokeWidth="0.2"/>
<path opacity="0.565657" d="M404.277 215.03L857.291 93.8601C865.62 91.6325 874.435 95.021 879.128 102.253L1134.36 495.652C1139.05 502.885 1138.55 512.316 1133.12 519.014L837.847 883.318C832.419 890.015 823.295 892.456 815.248 889.362L377.529 721.116C369.482 718.023 364.342 710.1 364.797 701.49L389.546 233.204C390.001 224.595 395.948 217.258 404.277 215.03Z" stroke="url(#paint55_linear_1047_14622)" strokeWidth="0.2"/>
<path opacity="0.575758" d="M404.834 212.538L858.915 99.5365C867.281 97.4546 876.036 100.996 880.601 108.31L1128.39 505.246C1132.96 512.559 1132.29 521.981 1126.75 528.582L825.81 886.904C820.266 893.506 811.101 895.787 803.109 892.554L369.33 717.072C361.338 713.839 356.336 705.827 356.942 697.227L389.789 230.452C390.394 221.852 396.468 214.62 404.834 212.538Z" stroke="url(#paint56_linear_1047_14622)" strokeWidth="0.2"/>
<path opacity="0.585859" d="M405.468 210.165L860.466 105.333C868.868 103.397 877.56 107.091 881.997 114.483L1122.3 514.817C1126.74 522.209 1125.91 531.617 1120.25 538.121L813.769 890.374C808.11 896.878 798.907 898.999 790.972 895.627L361.251 712.997C353.317 709.625 348.456 701.527 349.212 692.939L390.112 227.814C390.867 219.226 397.067 212.101 405.468 210.165Z" stroke="url(#paint57_linear_1047_14622)" strokeWidth="0.2"/>
<path opacity="0.59596" d="M406.172 207.886L861.943 111.22C870.377 109.431 879.003 113.277 883.31 120.745L1116.09 524.337C1120.39 531.805 1119.4 541.197 1113.63 547.602L801.723 893.702C795.952 900.106 786.713 902.066 778.839 898.556L353.293 708.865C345.419 705.355 340.7 697.174 341.605 688.6L390.511 225.265C391.416 216.691 397.739 209.675 406.172 207.886Z" stroke="url(#paint58_linear_1047_14622)" strokeWidth="0.2"/>
<path opacity="0.606061" d="M406.95 205.723L863.347 117.218C871.81 115.576 880.368 119.572 884.544 127.114L1109.75 533.823C1113.93 541.366 1112.77 550.739 1106.89 557.042L789.68 896.907C783.797 903.21 774.526 905.008 766.714 901.361L345.459 704.699C337.647 701.053 333.072 692.79 334.126 684.234L390.988 222.825C392.042 214.268 398.486 207.364 406.95 205.723Z" stroke="url(#paint59_linear_1047_14622)" strokeWidth="0.2"/>
<path opacity="0.616162" d="M407.794 203.672L864.672 123.321C873.162 121.827 881.649 125.971 885.693 133.585L1103.29 543.271C1107.34 550.885 1106.02 560.237 1100.03 566.436L777.637 899.987C771.645 906.186 762.343 907.822 754.596 904.039L337.746 700.499C329.999 696.717 325.568 688.376 326.772 679.839L391.536 220.493C392.74 211.956 399.303 205.165 407.794 203.672Z" stroke="url(#paint60_linear_1047_14622)" strokeWidth="0.2"/>
<path opacity="0.626263" d="M408.707 201.732L865.919 129.524C874.435 128.179 882.848 132.471 886.758 140.154L1096.72 552.675C1100.63 560.358 1099.15 569.686 1093.05 575.779L765.599 902.939C759.5 909.033 750.171 910.506 742.492 906.589L330.157 696.264C322.477 692.346 318.193 683.929 319.545 675.415L392.158 218.267C393.51 209.752 400.191 203.077 408.707 201.732Z" stroke="url(#paint61_linear_1047_14622)" strokeWidth="0.2"/>
<path opacity="0.636364" d="M409.683 199.901L867.086 135.823C875.624 134.627 883.961 139.065 887.736 146.815L1090.02 562.03C1093.8 569.78 1092.15 579.08 1085.95 585.066L753.568 905.76C747.363 911.746 738.01 913.057 730.4 909.006L322.69 691.991C315.08 687.94 310.943 679.45 312.444 670.96L392.848 216.144C394.349 207.654 401.146 201.097 409.683 199.901Z" stroke="url(#paint62_linear_1047_14622)" strokeWidth="0.2"/>
<path opacity="0.646465" d="M410.722 198.184L868.17 142.221C876.728 141.174 884.986 145.757 888.626 153.572L1083.21 571.338C1086.85 579.153 1085.04 588.423 1078.73 594.3L741.545 908.456C735.237 914.333 725.862 915.479 718.324 911.296L315.347 687.689C307.808 683.506 303.821 674.945 305.469 666.483L393.606 214.131C395.254 205.668 402.164 199.23 410.722 198.184Z" stroke="url(#paint63_linear_1047_14622)" strokeWidth="0.2"/>
<path opacity="0.656566" d="M411.821 196.578L869.172 148.713C877.746 147.816 885.923 152.542 889.426 160.419L1076.28 580.595C1079.78 588.472 1077.81 597.709 1071.4 603.475L729.534 911.023C723.124 916.788 713.731 917.772 706.267 913.458L308.128 683.357C300.664 679.043 296.826 670.414 298.622 661.982L394.429 212.224C396.226 203.792 403.247 197.476 411.821 196.578Z" stroke="url(#paint64_linear_1047_14622)" strokeWidth="0.2"/>
<path opacity="0.666667" d="M412.978 195.091L870.088 155.303C878.677 154.555 886.77 159.423 890.135 167.36L1069.23 589.803C1072.6 597.74 1070.47 606.941 1063.96 612.594L717.535 913.466C711.026 919.119 701.617 919.938 694.229 915.495L301.033 679.002C293.645 674.558 289.958 665.863 291.901 657.463L395.315 210.431C397.259 202.031 404.389 195.838 412.978 195.091Z" stroke="url(#paint65_linear_1047_14622)" strokeWidth="0.2"/>
<path opacity="0.676768" d="M414.191 193.718L870.918 161.984C879.518 161.386 887.525 166.395 890.751 174.39L1062.07 598.956C1065.3 606.951 1063.01 616.114 1056.4 621.653L705.553 915.784C698.946 921.323 689.524 921.977 682.215 917.406L294.062 674.622C286.753 670.05 283.219 661.292 285.308 652.927L396.263 208.748C398.353 200.384 405.59 194.316 414.191 193.718Z" stroke="url(#paint66_linear_1047_14622)" strokeWidth="0.2"/>
<path opacity="0.686869" d="M415.457 192.459L871.659 168.753C880.269 168.306 888.188 173.453 891.274 181.503L1054.79 608.052C1057.88 616.102 1055.43 625.223 1048.73 630.646L693.588 917.974C686.885 923.396 677.454 923.886 670.225 919.188L287.216 670.217C279.987 665.518 276.607 656.7 278.842 648.373L397.27 207.173C399.505 198.847 406.847 192.907 415.457 192.459Z" stroke="url(#paint67_linear_1047_14622)" strokeWidth="0.2"/>
<path opacity="0.69697" d="M416.775 191.318L872.312 175.612C880.928 175.315 888.756 180.6 891.701 188.703L1047.41 617.091C1050.35 625.194 1047.74 634.271 1040.95 639.576L681.643 920.04C674.847 925.345 665.408 925.67 658.263 920.846L280.494 665.795C273.349 660.97 270.122 652.094 272.502 643.808L398.334 205.713C400.714 197.427 408.159 191.615 416.775 191.318Z" stroke="url(#paint68_linear_1047_14622)" strokeWidth="0.2"/>
<path opacity="0.707071" d="M418.142 190.302L872.874 182.566C881.494 182.419 889.228 187.84 892.031 195.992L1039.91 626.077C1042.71 634.23 1039.95 643.261 1033.06 648.446L669.72 921.99C662.833 927.175 653.39 927.336 646.33 922.387L273.897 661.361C266.837 656.413 263.766 647.482 266.29 639.239L399.452 204.372C401.977 196.129 409.522 190.448 418.142 190.302Z" stroke="url(#paint69_linear_1047_14622)" strokeWidth="0.2"/>
<path opacity="0.717172" d="M419.556 189.391L873.344 189.592C881.965 189.596 889.603 195.151 892.264 203.351L1032.3 634.991C1034.96 643.191 1032.04 652.172 1025.06 657.236L657.822 923.804C650.845 928.868 641.401 928.864 634.428 923.793L267.424 656.901C260.452 651.831 257.537 642.847 260.205 634.649L400.624 203.133C403.292 194.935 410.935 189.387 419.556 189.391Z" stroke="url(#paint70_linear_1047_14622)" strokeWidth="0.2"/>
<path opacity="0.727273" d="M421.015 188.608L873.72 196.711C882.34 196.865 889.88 202.552 892.397 210.798L1024.58 643.849C1027.1 652.095 1024.02 661.024 1016.96 665.965L645.95 925.504C638.886 930.446 629.443 930.276 622.56 925.085L261.076 652.437C254.194 647.245 251.436 638.212 254.247 630.062L401.846 202.018C404.656 193.868 412.395 188.454 421.015 188.608Z" stroke="url(#paint71_linear_1047_14622)" strokeWidth="0.2"/>
<path opacity="0.737374" d="M422.517 187.942L874.002 203.908C882.618 204.213 890.058 210.031 892.43 218.319L1016.76 652.641C1019.13 660.929 1015.9 669.803 1008.75 674.62L634.107 927.08C626.958 931.898 617.519 931.564 610.728 926.253L254.854 647.96C248.063 642.649 245.463 633.569 248.415 625.469L403.117 201.015C406.069 192.915 413.901 187.638 422.517 187.942Z" stroke="url(#paint72_linear_1047_14622)" strokeWidth="0.2"/>
<path opacity="0.747475" d="M424.059 187.399L874.188 211.189C882.797 211.644 890.134 217.591 892.361 225.919L1008.83 661.369C1011.06 669.697 1007.67 678.513 1000.44 683.205L622.295 928.538C615.062 933.23 605.631 932.732 598.933 927.303L248.755 643.477C242.057 638.049 239.617 628.925 242.71 620.878L404.433 200.131C407.526 192.084 415.449 186.944 424.059 187.399Z" stroke="url(#paint73_linear_1047_14622)" strokeWidth="0.2"/>
<path opacity="0.757576" d="M425.639 186.968L874.277 218.54C882.877 219.145 890.109 225.219 892.191 233.585L1000.8 670.02C1002.88 678.386 999.341 687.142 992.028 691.707L610.516 929.868C603.202 934.433 593.781 933.77 587.179 928.226L242.781 638.981C236.179 633.437 233.899 624.272 237.132 616.28L405.795 199.356C409.028 191.364 417.039 186.363 425.639 186.968Z" stroke="url(#paint74_linear_1047_14622)" strokeWidth="0.2"/>
<path opacity="0.767677" d="M427.254 186.663L874.266 225.971C882.854 226.726 889.979 232.926 891.915 241.327L992.665 678.607C994.601 687.008 990.907 695.7 983.515 700.137L598.77 931.084C591.379 935.521 581.97 934.693 575.466 929.034L236.931 634.487C230.427 628.828 228.306 619.625 231.678 611.69L407.197 198.703C410.569 190.769 418.666 185.908 427.254 186.663Z" stroke="url(#paint75_linear_1047_14622)" strokeWidth="0.2"/>
<path opacity="0.777778" d="M428.904 186.482L874.157 233.479C882.731 234.384 889.746 240.707 891.535 249.141L984.429 687.125C986.218 695.558 982.372 704.184 974.904 708.492L587.063 932.184C579.595 936.491 570.202 935.499 563.798 929.728L231.205 629.993C224.8 624.221 222.841 614.983 226.351 607.108L408.639 198.17C412.149 190.296 420.33 185.577 428.904 186.482Z" stroke="url(#paint76_linear_1047_14622)" strokeWidth="0.2"/>
<path opacity="0.787879" d="M430.585 186.422L873.948 241.059C882.504 242.114 889.408 248.558 891.05 257.021L976.093 695.568C977.734 704.032 973.739 712.59 966.197 716.766L575.394 933.165C567.852 937.342 558.479 936.187 552.176 930.304L225.603 625.5C219.3 619.617 217.502 610.346 221.149 602.534L410.119 197.754C413.766 189.943 422.028 185.367 430.585 186.422Z" stroke="url(#paint77_linear_1047_14622)" strokeWidth="0.2"/>
<path opacity="0.79798" d="M432.294 186.481L873.636 248.706C882.173 249.91 888.963 256.474 890.457 264.964L967.659 703.934C969.152 712.425 965.008 720.912 957.394 724.956L563.766 934.028C556.152 938.072 546.8 936.753 540.601 930.762L220.124 621.006C213.925 615.015 212.289 605.713 216.072 597.966L411.634 197.454C415.417 189.707 423.758 185.277 432.294 186.481Z" stroke="url(#paint78_linear_1047_14622)" strokeWidth="0.2"/>
<path opacity="0.808081" d="M434.031 186.664L873.222 256.424C881.736 257.776 888.412 264.457 889.756 272.973L959.128 712.225C960.473 720.741 956.181 729.154 948.498 733.065L552.182 934.777C544.498 938.688 535.171 937.206 529.077 931.107L214.769 616.52C208.675 610.422 207.202 601.093 211.119 593.413L413.182 197.275C417.1 189.595 425.517 185.311 434.031 186.664Z" stroke="url(#paint79_linear_1047_14622)" strokeWidth="0.2"/>
<path opacity="0.818182" d="M435.792 186.969L872.704 264.207C881.193 265.708 887.751 272.505 888.947 281.043L950.502 720.438C951.698 728.976 947.26 737.313 939.51 741.089L540.641 935.412C532.891 939.188 523.591 937.543 517.605 931.339L209.536 612.042C203.549 605.837 202.239 596.484 206.29 588.874L414.761 197.215C418.812 189.604 427.303 185.468 435.792 186.969Z" stroke="url(#paint80_linear_1047_14622)" strokeWidth="0.2"/>
<path opacity="0.828283" d="M437.577 187.393L872.082 272.052C880.544 273.701 886.982 280.611 888.029 289.168L941.783 728.569C942.83 737.126 938.248 745.384 930.433 749.024L529.149 935.93C521.334 939.57 512.064 937.764 506.187 931.456L204.426 607.57C198.549 601.262 197.402 591.887 201.585 584.349L416.37 197.271C420.553 189.732 429.115 185.745 437.577 187.393Z" stroke="url(#paint81_linear_1047_14622)" strokeWidth="0.2"/>
<path opacity="0.838384" d="M439.38 187.943L871.354 279.962C879.786 281.758 886.102 288.779 887 297.354L932.972 736.62C933.869 745.195 929.143 753.372 921.266 756.875L517.705 936.338C509.827 939.841 500.59 937.874 494.824 931.464L199.437 603.112C193.671 596.702 192.688 587.309 197.002 579.845L418.004 197.449C422.318 189.985 430.948 186.147 439.38 187.943Z" stroke="url(#paint82_linear_1047_14622)" strokeWidth="0.2"/>
<path opacity="0.848485" d="M441.202 188.616L870.52 287.932C878.919 289.875 885.112 297.005 885.86 305.594L924.071 744.59C924.819 753.179 919.951 761.272 912.014 764.637L506.312 936.635C498.374 940 489.173 937.872 483.52 931.363L194.571 598.668C188.917 592.159 188.098 582.75 192.542 575.362L419.664 197.747C424.107 190.359 432.802 186.673 441.202 188.616Z" stroke="url(#paint83_linear_1047_14622)" strokeWidth="0.2"/>
<path opacity="0.858586" d="M443.038 189.409L869.577 295.957C877.941 298.047 884.009 305.284 884.607 313.885L915.081 752.473C915.678 761.073 910.67 769.08 902.675 772.306L494.97 936.82C486.975 940.046 477.812 937.757 472.273 931.151L189.824 594.238C184.285 587.631 183.63 578.209 188.202 570.9L421.344 198.162C425.916 190.853 434.674 187.319 443.038 189.409Z" stroke="url(#paint84_linear_1047_14622)" strokeWidth="0.2"/>
<path opacity="0.868687" d="M444.889 190.327L868.528 304.042C876.854 306.277 882.795 313.619 883.242 322.229L906.005 760.273C906.452 768.883 901.305 776.802 893.255 779.887L483.684 936.899C475.634 939.985 466.512 937.537 461.09 930.834L185.198 589.829C179.776 583.126 179.286 573.695 183.984 566.466L423.045 198.701C427.744 191.473 436.562 188.092 444.889 190.327Z" stroke="url(#paint85_linear_1047_14622)" strokeWidth="0.2"/>
<path opacity="0.878788" d="M446.751 191.362L867.37 312.174C875.656 314.554 881.468 321.999 881.765 330.615L896.844 767.981C897.141 776.597 891.856 784.424 883.754 787.369L472.454 936.864C464.352 939.809 455.274 937.202 449.97 930.406L180.693 585.433C175.388 578.637 175.063 569.198 179.887 562.053L424.765 199.353C429.589 192.208 438.465 188.982 446.751 191.362Z" stroke="url(#paint86_linear_1047_14622)" strokeWidth="0.2"/>
<path opacity="0.888889" d="M448.621 192.526L866.102 320.364C874.345 322.889 880.025 330.434 880.172 339.054L887.599 775.606C887.746 784.226 882.325 791.96 874.172 794.763L461.282 936.728C453.129 939.531 444.098 936.766 438.913 929.879L176.306 581.066C171.12 574.179 170.96 564.735 175.908 557.676L426.498 200.132C431.446 193.072 440.378 190.001 448.621 192.526Z" stroke="url(#paint87_linear_1047_14622)" strokeWidth="0.2"/>
<path opacity="0.89899" d="M450.497 193.808L864.723 328.601C872.921 331.269 878.469 338.912 878.465 347.533L878.272 783.138C878.269 791.759 872.714 799.397 864.513 802.058L450.169 936.484C441.968 939.144 432.987 936.222 427.923 929.245L172.037 576.72C166.973 569.743 166.977 560.299 172.047 553.326L428.245 201.027C433.316 194.055 442.299 191.141 450.497 193.808Z" stroke="url(#paint88_linear_1047_14622)" strokeWidth="0.2"/>
<path opacity="0.909091" d="M452.38 195.215L863.235 336.887C871.385 339.698 876.799 347.437 876.644 356.056L868.867 790.582C868.713 799.201 863.026 806.742 854.78 809.259L439.119 936.138C430.873 938.655 421.945 935.576 417.003 928.512L167.887 572.402C162.945 565.338 163.114 555.895 168.306 549.012L430.005 202.045C435.197 195.162 444.23 192.405 452.38 195.215Z" stroke="url(#paint89_linear_1047_14622)" strokeWidth="0.2"/>
<path opacity="0.919192" d="M454.263 196.744L861.634 345.219C869.734 348.172 875.012 356.004 874.707 364.62L859.383 797.933C859.079 806.549 853.261 813.989 844.973 816.362L428.131 935.689C419.843 938.062 410.97 934.828 406.152 927.678L163.853 568.113C159.036 560.964 159.369 551.525 164.68 544.734L431.773 203.183C437.083 196.391 446.163 193.792 454.263 196.744Z" stroke="url(#paint90_linear_1047_14622)" strokeWidth="0.2"/>
<path opacity="0.929293" d="M456.147 198.401L859.921 353.601C867.969 356.694 873.109 364.617 872.654 373.226L849.823 805.198C849.369 813.807 843.422 821.144 835.093 823.372L417.209 935.145C408.88 937.373 400.065 933.984 395.372 926.752L159.936 563.86C155.244 556.628 155.742 547.197 161.171 540.499L433.547 204.446C438.976 197.748 448.1 195.308 456.147 198.401Z" stroke="url(#paint91_linear_1047_14622)" strokeWidth="0.2"/>
<path opacity="0.939394" d="M458.029 200.175L858.097 362.019C866.089 365.252 871.09 373.264 870.485 381.864L840.19 812.364C839.585 820.964 833.511 828.196 825.145 830.278L406.354 934.497C397.988 936.579 389.232 933.037 384.667 925.724L156.135 559.636C151.57 552.322 152.232 542.901 157.777 536.3L435.328 205.825C440.872 199.223 450.037 196.942 458.029 200.175Z" stroke="url(#paint92_linear_1047_14622)" strokeWidth="0.2"/>
<path opacity="0.949495" d="M459.906 202.073L856.159 370.479C864.093 373.851 868.954 381.949 868.199 390.537L830.484 819.436C829.729 828.024 823.529 835.149 815.128 837.085L395.566 933.753C387.165 935.688 378.473 931.994 374.036 924.602L152.448 555.447C148.011 548.056 148.838 538.647 154.497 532.143L437.11 207.325C442.768 200.821 451.972 198.7 459.906 202.073Z" stroke="url(#paint93_linear_1047_14622)" strokeWidth="0.2"/>
<path opacity="0.959596" d="M461.777 204.083L854.107 378.968C861.982 382.478 866.7 390.659 865.795 399.233L820.707 826.404C819.802 834.977 813.479 841.993 805.045 843.782L384.848 932.903C376.415 934.692 367.789 930.847 363.481 923.379L148.874 551.287C144.566 543.819 145.558 534.427 151.329 528.023L438.892 208.937C444.663 202.532 453.902 200.573 461.777 204.083Z" stroke="url(#paint94_linear_1047_14622)" strokeWidth="0.2"/>
<path opacity="0.969697" d="M463.639 206.219L851.942 387.497C859.754 391.144 864.329 399.407 863.275 407.963L810.861 833.28C809.807 841.836 803.363 848.741 794.899 850.382L374.202 931.964C365.739 933.605 357.181 929.61 353.005 922.068L145.413 547.172C141.237 539.63 142.392 530.256 148.274 523.953L440.673 210.673C446.555 204.37 455.827 202.572 463.639 206.219Z" stroke="url(#paint95_linear_1047_14622)" strokeWidth="0.2"/>
<path opacity="0.979798" d="M465.489 208.472L849.662 396.056C857.409 399.839 861.839 408.18 860.635 416.716L800.948 840.053C799.745 848.59 793.181 855.381 784.69 856.874L363.628 930.927C355.138 932.42 346.651 928.276 342.607 920.662L142.063 543.092C138.019 535.478 139.338 526.126 145.329 519.928L442.449 212.524C448.44 206.325 457.742 204.689 465.489 208.472Z" stroke="url(#paint96_linear_1047_14622)" strokeWidth="0.2"/>
<path opacity="0.989899" d="M467.328 210.854L847.268 404.656C854.948 408.573 859.232 416.99 857.88 425.504L790.972 846.737C789.62 855.252 782.938 861.927 774.423 863.272L353.131 929.807C344.615 931.152 336.202 926.861 332.291 919.177L138.826 539.065C134.916 531.382 136.397 522.054 142.496 515.961L444.22 214.504C450.319 208.41 459.648 206.937 467.328 210.854Z" stroke="url(#paint97_linear_1047_14622)" strokeWidth="0.2"/>
<path d="M469.151 213.348L844.759 413.276C852.37 417.327 856.506 425.818 855.005 434.307L780.932 853.314C779.431 861.803 772.635 868.361 764.097 869.557L342.708 928.589C334.17 929.785 325.833 925.348 322.057 917.597L135.698 535.075C131.922 527.324 133.566 518.024 139.771 512.038L445.983 216.594C452.187 210.608 461.54 209.298 469.151 213.348Z" stroke="url(#paint98_linear_1047_14622)" strokeWidth="0.2"/>
<defs>
<linearGradient id="paint0_linear_1047_14622" x1="1063.58" y1="616.364" x2="909.425" y2="77.8785" gradientUnits="userSpaceOnUse">
<stop stop-color="#FF1CF7"/>
<stop offset="1" stop-color="#00F0FF"/>
</linearGradient>
<linearGradient id="paint1_linear_1047_14622" x1="1053.96" y1="619.589" x2="909.494" y2="79.4823" gradientUnits="userSpaceOnUse">
<stop stop-color="#FF1CF7"/>
<stop offset="1" stop-color="#00F0FF"/>
</linearGradient>
<linearGradient id="paint2_linear_1047_14622" x1="1044.34" y1="622.734" x2="909.569" y2="81.1802" gradientUnits="userSpaceOnUse">
<stop stop-color="#FF1CF7"/>
<stop offset="1" stop-color="#00F0FF"/>
</linearGradient>
<linearGradient id="paint3_linear_1047_14622" x1="1034.71" y1="625.789" x2="909.646" y2="82.9616" gradientUnits="userSpaceOnUse">
<stop stop-color="#FF1CF7"/>
<stop offset="1" stop-color="#00F0FF"/>
</linearGradient>
<linearGradient id="paint4_linear_1047_14622" x1="1025.09" y1="628.767" x2="909.725" y2="84.8393" gradientUnits="userSpaceOnUse">
<stop stop-color="#FF1CF7"/>
<stop offset="1" stop-color="#00F0FF"/>
</linearGradient>
<linearGradient id="paint5_linear_1047_14622" x1="1015.46" y1="631.657" x2="909.803" y2="86.8024" gradientUnits="userSpaceOnUse">
<stop stop-color="#FF1CF7"/>
<stop offset="1" stop-color="#00F0FF"/>
</linearGradient>
<linearGradient id="paint6_linear_1047_14622" x1="1005.84" y1="634.457" x2="909.88" y2="88.848" gradientUnits="userSpaceOnUse">
<stop stop-color="#FF1CF7"/>
<stop offset="1" stop-color="#00F0FF"/>
</linearGradient>
<linearGradient id="paint7_linear_1047_14622" x1="996.214" y1="637.18" x2="909.953" y2="90.9885" gradientUnits="userSpaceOnUse">
<stop stop-color="#FF1CF7"/>
<stop offset="1" stop-color="#00F0FF"/>
</linearGradient>
<linearGradient id="paint8_linear_1047_14622" x1="986.596" y1="639.814" x2="910.022" y2="93.213" gradientUnits="userSpaceOnUse">
<stop stop-color="#FF1CF7"/>
<stop offset="1" stop-color="#00F0FF"/>
</linearGradient>
<linearGradient id="paint9_linear_1047_14622" x1="976.982" y1="642.366" x2="910.085" y2="95.526" gradientUnits="userSpaceOnUse">
<stop stop-color="#FF1CF7"/>
<stop offset="1" stop-color="#00F0FF"/>
</linearGradient>
<linearGradient id="paint10_linear_1047_14622" x1="967.376" y1="644.832" x2="910.138" y2="97.9243" gradientUnits="userSpaceOnUse">
<stop stop-color="#FF1CF7"/>
<stop offset="1" stop-color="#00F0FF"/>
</linearGradient>
<linearGradient id="paint11_linear_1047_14622" x1="957.779" y1="647.217" x2="910.184" y2="100.412" gradientUnits="userSpaceOnUse">
<stop stop-color="#FF1CF7"/>
<stop offset="1" stop-color="#00F0FF"/>
</linearGradient>
<linearGradient id="paint12_linear_1047_14622" x1="948.192" y1="649.519" x2="910.218" y2="102.987" gradientUnits="userSpaceOnUse">
<stop stop-color="#FF1CF7"/>
<stop offset="1" stop-color="#00F0FF"/>
</linearGradient>
<linearGradient id="paint13_linear_1047_14622" x1="938.616" y1="651.735" x2="910.238" y2="105.644" gradientUnits="userSpaceOnUse">
<stop stop-color="#FF1CF7"/>
<stop offset="1" stop-color="#00F0FF"/>
</linearGradient>
<linearGradient id="paint14_linear_1047_14622" x1="929.053" y1="653.87" x2="910.246" y2="108.388" gradientUnits="userSpaceOnUse">
<stop stop-color="#FF1CF7"/>
<stop offset="1" stop-color="#00F0FF"/>
</linearGradient>
<linearGradient id="paint15_linear_1047_14622" x1="919.504" y1="655.922" x2="910.237" y2="111.216" gradientUnits="userSpaceOnUse">
<stop stop-color="#FF1CF7"/>
<stop offset="1" stop-color="#00F0FF"/>
</linearGradient>
<linearGradient id="paint16_linear_1047_14622" x1="909.972" y1="657.894" x2="910.212" y2="114.132" gradientUnits="userSpaceOnUse">
<stop stop-color="#FF1CF7"/>
<stop offset="1" stop-color="#00F0FF"/>
</linearGradient>
<linearGradient id="paint17_linear_1047_14622" x1="900.457" y1="659.785" x2="910.169" y2="117.132" gradientUnits="userSpaceOnUse">
<stop stop-color="#FF1CF7"/>
<stop offset="1" stop-color="#00F0FF"/>
</linearGradient>
<linearGradient id="paint18_linear_1047_14622" x1="890.959" y1="661.592" x2="910.104" y2="120.212" gradientUnits="userSpaceOnUse">
<stop stop-color="#FF1CF7"/>
<stop offset="1" stop-color="#00F0FF"/>
</linearGradient>
<linearGradient id="paint19_linear_1047_14622" x1="881.482" y1="663.319" x2="910.019" y2="123.377" gradientUnits="userSpaceOnUse">
<stop stop-color="#FF1CF7"/>
<stop offset="1" stop-color="#00F0FF"/>
</linearGradient>
<linearGradient id="paint20_linear_1047_14622" x1="872.027" y1="664.973" x2="909.911" y2="126.63" gradientUnits="userSpaceOnUse">
<stop stop-color="#FF1CF7"/>
<stop offset="1" stop-color="#00F0FF"/>
</linearGradient>
<linearGradient id="paint21_linear_1047_14622" x1="862.594" y1="666.541" x2="909.778" y2="129.96" gradientUnits="userSpaceOnUse">
<stop stop-color="#FF1CF7"/>
<stop offset="1" stop-color="#00F0FF"/>
</linearGradient>
<linearGradient id="paint22_linear_1047_14622" x1="853.186" y1="668.03" x2="909.62" y2="133.371" gradientUnits="userSpaceOnUse">
<stop stop-color="#FF1CF7"/>
<stop offset="1" stop-color="#00F0FF"/>
</linearGradient>
<linearGradient id="paint23_linear_1047_14622" x1="843.803" y1="669.445" x2="909.435" y2="136.866" gradientUnits="userSpaceOnUse">
<stop stop-color="#FF1CF7"/>
<stop offset="1" stop-color="#00F0FF"/>
</linearGradient>
<linearGradient id="paint24_linear_1047_14622" x1="834.448" y1="670.774" x2="909.222" y2="140.434" gradientUnits="userSpaceOnUse">
<stop stop-color="#FF1CF7"/>
<stop offset="1" stop-color="#00F0FF"/>
</linearGradient>
<linearGradient id="paint25_linear_1047_14622" x1="825.12" y1="672.031" x2="908.978" y2="144.086" gradientUnits="userSpaceOnUse">
<stop stop-color="#FF1CF7"/>
<stop offset="1" stop-color="#00F0FF"/>
</linearGradient>
<linearGradient id="paint26_linear_1047_14622" x1="815.822" y1="673.221" x2="908.702" y2="147.827" gradientUnits="userSpaceOnUse">
<stop stop-color="#FF1CF7"/>
<stop offset="1" stop-color="#00F0FF"/>
</linearGradient>
<linearGradient id="paint27_linear_1047_14622" x1="806.555" y1="674.325" x2="908.395" y2="151.635" gradientUnits="userSpaceOnUse">
<stop stop-color="#FF1CF7"/>
<stop offset="1" stop-color="#00F0FF"/>
</linearGradient>
<linearGradient id="paint28_linear_1047_14622" x1="797.32" y1="675.357" x2="908.054" y2="155.523" gradientUnits="userSpaceOnUse">
<stop stop-color="#FF1CF7"/>
<stop offset="1" stop-color="#00F0FF"/>
</linearGradient>
<linearGradient id="paint29_linear_1047_14622" x1="788.118" y1="676.313" x2="907.677" y2="159.487" gradientUnits="userSpaceOnUse">
<stop stop-color="#FF1CF7"/>
<stop offset="1" stop-color="#00F0FF"/>
</linearGradient>
<linearGradient id="paint30_linear_1047_14622" x1="778.951" y1="677.199" x2="907.265" y2="163.531" gradientUnits="userSpaceOnUse">
<stop stop-color="#FF1CF7"/>
<stop offset="1" stop-color="#00F0FF"/>
</linearGradient>
<linearGradient id="paint31_linear_1047_14622" x1="769.82" y1="678.005" x2="906.813" y2="167.641" gradientUnits="userSpaceOnUse">
<stop stop-color="#FF1CF7"/>
<stop offset="1" stop-color="#00F0FF"/>
</linearGradient>
<linearGradient id="paint32_linear_1047_14622" x1="760.726" y1="678.743" x2="906.324" y2="171.83" gradientUnits="userSpaceOnUse">
<stop stop-color="#FF1CF7"/>
<stop offset="1" stop-color="#00F0FF"/>
</linearGradient>
<linearGradient id="paint33_linear_1047_14622" x1="751.67" y1="679.411" x2="905.793" y2="176.093" gradientUnits="userSpaceOnUse">
<stop stop-color="#FF1CF7"/>
<stop offset="1" stop-color="#00F0FF"/>
</linearGradient>
<linearGradient id="paint34_linear_1047_14622" x1="742.654" y1="680.013" x2="905.221" y2="180.434" gradientUnits="userSpaceOnUse">
<stop stop-color="#FF1CF7"/>
<stop offset="1" stop-color="#00F0FF"/>
</linearGradient>
<linearGradient id="paint35_linear_1047_14622" x1="733.679" y1="680.54" x2="904.607" y2="184.841" gradientUnits="userSpaceOnUse">
<stop stop-color="#FF1CF7"/>
<stop offset="1" stop-color="#00F0FF"/>
</linearGradient>
<linearGradient id="paint36_linear_1047_14622" x1="724.745" y1="681.005" x2="903.949" y2="189.324" gradientUnits="userSpaceOnUse">
<stop stop-color="#FF1CF7"/>
<stop offset="1" stop-color="#00F0FF"/>
</linearGradient>
<linearGradient id="paint37_linear_1047_14622" x1="715.854" y1="681.396" x2="903.245" y2="193.872" gradientUnits="userSpaceOnUse">
<stop stop-color="#FF1CF7"/>
<stop offset="1" stop-color="#00F0FF"/>
</linearGradient>
<linearGradient id="paint38_linear_1047_14622" x1="707.007" y1="681.72" x2="902.494" y2="198.488" gradientUnits="userSpaceOnUse">
<stop stop-color="#FF1CF7"/>
<stop offset="1" stop-color="#00F0FF"/>
</linearGradient>
<linearGradient id="paint39_linear_1047_14622" x1="698.206" y1="681.981" x2="901.697" y2="203.176" gradientUnits="userSpaceOnUse">
<stop stop-color="#FF1CF7"/>
<stop offset="1" stop-color="#00F0FF"/>
</linearGradient>
<linearGradient id="paint40_linear_1047_14622" x1="689.451" y1="682.178" x2="900.851" y2="207.93" gradientUnits="userSpaceOnUse">
<stop stop-color="#FF1CF7"/>
<stop offset="1" stop-color="#00F0FF"/>
</linearGradient>
<linearGradient id="paint41_linear_1047_14622" x1="680.744" y1="682.307" x2="899.956" y2="212.747" gradientUnits="userSpaceOnUse">
<stop stop-color="#FF1CF7"/>
<stop offset="1" stop-color="#00F0FF"/>
</linearGradient>
<linearGradient id="paint42_linear_1047_14622" x1="672.084" y1="682.374" x2="899.009" y2="217.629" gradientUnits="userSpaceOnUse">
<stop stop-color="#FF1CF7"/>
<stop offset="1" stop-color="#00F0FF"/>
</linearGradient>
<linearGradient id="paint43_linear_1047_14622" x1="663.474" y1="682.384" x2="898.011" y2="222.581" gradientUnits="userSpaceOnUse">
<stop stop-color="#FF1CF7"/>
<stop offset="1" stop-color="#00F0FF"/>
</linearGradient>
<linearGradient id="paint44_linear_1047_14622" x1="654.915" y1="682.327" x2="896.961" y2="227.59" gradientUnits="userSpaceOnUse">
<stop stop-color="#FF1CF7"/>
<stop offset="1" stop-color="#00F0FF"/>
</linearGradient>
<linearGradient id="paint45_linear_1047_14622" x1="646.407" y1="682.216" x2="895.856" y2="232.666" gradientUnits="userSpaceOnUse">
<stop stop-color="#FF1CF7"/>
<stop offset="1" stop-color="#00F0FF"/>
</linearGradient>
<linearGradient id="paint46_linear_1047_14622" x1="637.951" y1="682.041" x2="894.697" y2="237.798" gradientUnits="userSpaceOnUse">
<stop stop-color="#FF1CF7"/>
<stop offset="1" stop-color="#00F0FF"/>
</linearGradient>
<linearGradient id="paint47_linear_1047_14622" x1="629.548" y1="681.808" x2="893.481" y2="242.989" gradientUnits="userSpaceOnUse">
<stop stop-color="#FF1CF7"/>
<stop offset="1" stop-color="#00F0FF"/>
</linearGradient>
<linearGradient id="paint48_linear_1047_14622" x1="621.2" y1="681.521" x2="892.209" y2="248.243" gradientUnits="userSpaceOnUse">
<stop stop-color="#FF1CF7"/>
<stop offset="1" stop-color="#00F0FF"/>
</linearGradient>
<linearGradient id="paint49_linear_1047_14622" x1="612.907" y1="681.179" x2="890.88" y2="253.553" gradientUnits="userSpaceOnUse">
<stop stop-color="#FF1CF7"/>
<stop offset="1" stop-color="#00F0FF"/>
</linearGradient>
<linearGradient id="paint50_linear_1047_14622" x1="604.67" y1="680.78" x2="889.492" y2="258.917" gradientUnits="userSpaceOnUse">
<stop stop-color="#FF1CF7"/>
<stop offset="1" stop-color="#00F0FF"/>
</linearGradient>
<linearGradient id="paint51_linear_1047_14622" x1="596.49" y1="680.328" x2="888.044" y2="264.337" gradientUnits="userSpaceOnUse">
<stop stop-color="#FF1CF7"/>
<stop offset="1" stop-color="#00F0FF"/>
</linearGradient>
<linearGradient id="paint52_linear_1047_14622" x1="588.367" y1="679.822" x2="886.536" y2="269.81" gradientUnits="userSpaceOnUse">
<stop stop-color="#FF1CF7"/>
<stop offset="1" stop-color="#00F0FF"/>
</linearGradient>
<linearGradient id="paint53_linear_1047_14622" x1="580.304" y1="679.267" x2="884.967" y2="275.337" gradientUnits="userSpaceOnUse">
<stop stop-color="#FF1CF7"/>
<stop offset="1" stop-color="#00F0FF"/>
</linearGradient>
<linearGradient id="paint54_linear_1047_14622" x1="572.299" y1="678.661" x2="883.335" y2="280.914" gradientUnits="userSpaceOnUse">
<stop stop-color="#FF1CF7"/>
<stop offset="1" stop-color="#00F0FF"/>
</linearGradient>
<linearGradient id="paint55_linear_1047_14622" x1="564.354" y1="678.009" x2="881.642" y2="286.546" gradientUnits="userSpaceOnUse">
<stop stop-color="#FF1CF7"/>
<stop offset="1" stop-color="#00F0FF"/>
</linearGradient>
<linearGradient id="paint56_linear_1047_14622" x1="556.471" y1="677.303" x2="879.885" y2="292.219" gradientUnits="userSpaceOnUse">
<stop stop-color="#FF1CF7"/>
<stop offset="1" stop-color="#00F0FF"/>
</linearGradient>
<linearGradient id="paint57_linear_1047_14622" x1="548.649" y1="676.562" x2="878.064" y2="297.953" gradientUnits="userSpaceOnUse">
<stop stop-color="#FF1CF7"/>
<stop offset="1" stop-color="#00F0FF"/>
</linearGradient>
<linearGradient id="paint58_linear_1047_14622" x1="540.888" y1="675.762" x2="876.176" y2="303.719" gradientUnits="userSpaceOnUse">
<stop stop-color="#FF1CF7"/>
<stop offset="1" stop-color="#00F0FF"/>
</linearGradient>
<linearGradient id="paint59_linear_1047_14622" x1="533.192" y1="674.924" x2="874.224" y2="309.536" gradientUnits="userSpaceOnUse">
<stop stop-color="#FF1CF7"/>
<stop offset="1" stop-color="#00F0FF"/>
</linearGradient>
<linearGradient id="paint60_linear_1047_14622" x1="525.558" y1="674.046" x2="872.205" y2="315.401" gradientUnits="userSpaceOnUse">
<stop stop-color="#FF1CF7"/>
<stop offset="1" stop-color="#00F0FF"/>
</linearGradient>
<linearGradient id="paint61_linear_1047_14622" x1="517.99" y1="673.126" x2="870.12" y2="321.308" gradientUnits="userSpaceOnUse">
<stop stop-color="#FF1CF7"/>
<stop offset="1" stop-color="#00F0FF"/>
</linearGradient>
<linearGradient id="paint62_linear_1047_14622" x1="510.486" y1="672.163" x2="867.967" y2="327.253" gradientUnits="userSpaceOnUse">
<stop stop-color="#FF1CF7"/>
<stop offset="1" stop-color="#00F0FF"/>
</linearGradient>
<linearGradient id="paint63_linear_1047_14622" x1="503.047" y1="671.161" x2="865.745" y2="333.239" gradientUnits="userSpaceOnUse">
<stop stop-color="#FF1CF7"/>
<stop offset="1" stop-color="#00F0FF"/>
</linearGradient>
<linearGradient id="paint64_linear_1047_14622" x1="495.674" y1="670.12" x2="863.455" y2="339.263" gradientUnits="userSpaceOnUse">
<stop stop-color="#FF1CF7"/>
<stop offset="1" stop-color="#00F0FF"/>
</linearGradient>
<linearGradient id="paint65_linear_1047_14622" x1="488.368" y1="669.045" x2="861.095" y2="345.327" gradientUnits="userSpaceOnUse">
<stop stop-color="#FF1CF7"/>
<stop offset="1" stop-color="#00F0FF"/>
</linearGradient>
<linearGradient id="paint66_linear_1047_14622" x1="481.128" y1="667.934" x2="858.665" y2="351.427" gradientUnits="userSpaceOnUse">
<stop stop-color="#FF1CF7"/>
<stop offset="1" stop-color="#00F0FF"/>
</linearGradient>
<linearGradient id="paint67_linear_1047_14622" x1="473.956" y1="666.786" x2="856.165" y2="357.559" gradientUnits="userSpaceOnUse">
<stop stop-color="#FF1CF7"/>
<stop offset="1" stop-color="#00F0FF"/>
</linearGradient>
<linearGradient id="paint68_linear_1047_14622" x1="466.853" y1="665.606" x2="853.594" y2="363.726" gradientUnits="userSpaceOnUse">
<stop stop-color="#FF1CF7"/>
<stop offset="1" stop-color="#00F0FF"/>
</linearGradient>
<linearGradient id="paint69_linear_1047_14622" x1="459.817" y1="664.402" x2="850.952" y2="369.932" gradientUnits="userSpaceOnUse">
<stop stop-color="#FF1CF7"/>
<stop offset="1" stop-color="#00F0FF"/>
</linearGradient>
<linearGradient id="paint70_linear_1047_14622" x1="452.851" y1="663.155" x2="848.238" y2="376.157" gradientUnits="userSpaceOnUse">
<stop stop-color="#FF1CF7"/>
<stop offset="1" stop-color="#00F0FF"/>
</linearGradient>
<linearGradient id="paint71_linear_1047_14622" x1="445.954" y1="661.888" x2="845.452" y2="382.42" gradientUnits="userSpaceOnUse">
<stop stop-color="#FF1CF7"/>
<stop offset="1" stop-color="#00F0FF"/>
</linearGradient>
<linearGradient id="paint72_linear_1047_14622" x1="439.127" y1="660.591" x2="842.593" y2="388.709" gradientUnits="userSpaceOnUse">
<stop stop-color="#FF1CF7"/>
<stop offset="1" stop-color="#00F0FF"/>
</linearGradient>
<linearGradient id="paint73_linear_1047_14622" x1="432.369" y1="659.271" x2="839.662" y2="395.028" gradientUnits="userSpaceOnUse">
<stop stop-color="#FF1CF7"/>
<stop offset="1" stop-color="#00F0FF"/>
</linearGradient>
<linearGradient id="paint74_linear_1047_14622" x1="425.682" y1="657.917" x2="836.658" y2="401.364" gradientUnits="userSpaceOnUse">
<stop stop-color="#FF1CF7"/>
<stop offset="1" stop-color="#00F0FF"/>
</linearGradient>
<linearGradient id="paint75_linear_1047_14622" x1="419.065" y1="656.545" x2="833.579" y2="407.729" gradientUnits="userSpaceOnUse">
<stop stop-color="#FF1CF7"/>
<stop offset="1" stop-color="#00F0FF"/>
</linearGradient>
<linearGradient id="paint76_linear_1047_14622" x1="412.519" y1="655.153" x2="830.427" y2="414.12" gradientUnits="userSpaceOnUse">
<stop stop-color="#FF1CF7"/>
<stop offset="1" stop-color="#00F0FF"/>
</linearGradient>
<linearGradient id="paint77_linear_1047_14622" x1="406.045" y1="653.739" x2="827.201" y2="420.532" gradientUnits="userSpaceOnUse">
<stop stop-color="#FF1CF7"/>
<stop offset="1" stop-color="#00F0FF"/>
</linearGradient>
<linearGradient id="paint78_linear_1047_14622" x1="399.641" y1="652.303" x2="823.901" y2="426.96" gradientUnits="userSpaceOnUse">
<stop stop-color="#FF1CF7"/>
<stop offset="1" stop-color="#00F0FF"/>
</linearGradient>
<linearGradient id="paint79_linear_1047_14622" x1="393.309" y1="650.85" x2="820.527" y2="433.41" gradientUnits="userSpaceOnUse">
<stop stop-color="#FF1CF7"/>
<stop offset="1" stop-color="#00F0FF"/>
</linearGradient>
<linearGradient id="paint80_linear_1047_14622" x1="387.049" y1="649.38" x2="817.077" y2="439.877" gradientUnits="userSpaceOnUse">
<stop stop-color="#FF1CF7"/>
<stop offset="1" stop-color="#00F0FF"/>
</linearGradient>
<linearGradient id="paint81_linear_1047_14622" x1="380.862" y1="647.891" x2="813.554" y2="446.357" gradientUnits="userSpaceOnUse">
<stop stop-color="#FF1CF7"/>
<stop offset="1" stop-color="#00F0FF"/>
</linearGradient>
<linearGradient id="paint82_linear_1047_14622" x1="374.745" y1="646.391" x2="809.955" y2="452.853" gradientUnits="userSpaceOnUse">
<stop stop-color="#FF1CF7"/>
<stop offset="1" stop-color="#00F0FF"/>
</linearGradient>
<linearGradient id="paint83_linear_1047_14622" x1="368.701" y1="644.877" x2="806.281" y2="459.364" gradientUnits="userSpaceOnUse">
<stop stop-color="#FF1CF7"/>
<stop offset="1" stop-color="#00F0FF"/>
</linearGradient>
<linearGradient id="paint84_linear_1047_14622" x1="362.728" y1="643.349" x2="802.532" y2="465.883" gradientUnits="userSpaceOnUse">
<stop stop-color="#FF1CF7"/>
<stop offset="1" stop-color="#00F0FF"/>
</linearGradient>
<linearGradient id="paint85_linear_1047_14622" x1="356.829" y1="641.814" x2="798.708" y2="472.416" gradientUnits="userSpaceOnUse">
<stop stop-color="#FF1CF7"/>
<stop offset="1" stop-color="#00F0FF"/>
</linearGradient>
<linearGradient id="paint86_linear_1047_14622" x1="351.002" y1="640.262" x2="794.81" y2="478.952" gradientUnits="userSpaceOnUse">
<stop stop-color="#FF1CF7"/>
<stop offset="1" stop-color="#00F0FF"/>
</linearGradient>
<linearGradient id="paint87_linear_1047_14622" x1="345.246" y1="638.709" x2="790.835" y2="485.501" gradientUnits="userSpaceOnUse">
<stop stop-color="#FF1CF7"/>
<stop offset="1" stop-color="#00F0FF"/>
</linearGradient>
<linearGradient id="paint88_linear_1047_14622" x1="339.563" y1="637.146" x2="786.785" y2="492.053" gradientUnits="userSpaceOnUse">
<stop stop-color="#FF1CF7"/>
<stop offset="1" stop-color="#00F0FF"/>
</linearGradient>
<linearGradient id="paint89_linear_1047_14622" x1="333.953" y1="635.579" x2="782.662" y2="498.612" gradientUnits="userSpaceOnUse">
<stop stop-color="#FF1CF7"/>
<stop offset="1" stop-color="#00F0FF"/>
</linearGradient>
<linearGradient id="paint90_linear_1047_14622" x1="328.414" y1="634.009" x2="778.463" y2="505.175" gradientUnits="userSpaceOnUse">
<stop stop-color="#FF1CF7"/>
<stop offset="1" stop-color="#00F0FF"/>
</linearGradient>
<linearGradient id="paint91_linear_1047_14622" x1="322.947" y1="632.441" x2="774.188" y2="511.745" gradientUnits="userSpaceOnUse">
<stop stop-color="#FF1CF7"/>
<stop offset="1" stop-color="#00F0FF"/>
</linearGradient>
<linearGradient id="paint92_linear_1047_14622" x1="317.553" y1="630.868" x2="769.84" y2="518.313" gradientUnits="userSpaceOnUse">
<stop stop-color="#FF1CF7"/>
<stop offset="1" stop-color="#00F0FF"/>
</linearGradient>
<linearGradient id="paint93_linear_1047_14622" x1="312.231" y1="629.296" x2="765.417" y2="524.881" gradientUnits="userSpaceOnUse">
<stop stop-color="#FF1CF7"/>
<stop offset="1" stop-color="#00F0FF"/>
</linearGradient>
<linearGradient id="paint94_linear_1047_14622" x1="306.979" y1="627.718" x2="760.919" y2="531.44" gradientUnits="userSpaceOnUse">
<stop stop-color="#FF1CF7"/>
<stop offset="1" stop-color="#00F0FF"/>
</linearGradient>
<linearGradient id="paint95_linear_1047_14622" x1="301.8" y1="626.147" x2="756.347" y2="538.001" gradientUnits="userSpaceOnUse">
<stop stop-color="#FF1CF7"/>
<stop offset="1" stop-color="#00F0FF"/>
</linearGradient>
<linearGradient id="paint96_linear_1047_14622" x1="296.691" y1="624.577" x2="751.7" y2="544.554" gradientUnits="userSpaceOnUse">
<stop stop-color="#FF1CF7"/>
<stop offset="1" stop-color="#00F0FF"/>
</linearGradient>
<linearGradient id="paint97_linear_1047_14622" x1="291.654" y1="623.021" x2="746.982" y2="551.111" gradientUnits="userSpaceOnUse">
<stop stop-color="#FF1CF7"/>
<stop offset="1" stop-color="#00F0FF"/>
</linearGradient>
<linearGradient id="paint98_linear_1047_14622" x1="286.687" y1="621.464" x2="742.188" y2="557.653" gradientUnits="userSpaceOnUse">
<stop stop-color="#FF1CF7"/>
<stop offset="1" stop-color="#00F0FF"/>
</linearGradient>
</defs>
</svg>
