<svg width="617" height="1507" viewBox="0 0 617 1507" fill="none" xmlns="http://www.w3.org/2000/svg">
<g style="mix-blend-mode:hard-light">
<path d="M586.553 634.948C665.15 524.193 754.966 437.17 836.639 386.006C877.475 360.423 916.271 343.808 950.608 337.671C984.944 331.534 1014.81 335.875 1037.81 352.193C1060.8 368.511 1074.76 395.271 1080.3 429.708C1085.85 464.146 1082.97 506.252 1072.3 553.245C1050.97 647.23 998.482 760.74 919.885 871.496C841.288 982.251 751.471 1069.27 669.799 1120.44C628.962 1146.02 590.166 1162.64 555.83 1168.77C521.494 1174.91 491.625 1170.57 468.631 1154.25C445.636 1137.93 431.678 1111.17 426.135 1076.74C420.592 1042.3 423.467 1000.19 434.133 953.199C455.465 859.214 507.956 745.704 586.553 634.948Z" stroke="url(#paint0_linear_1047_13466)" stroke-width="0.2"/>
<path d="M588.642 632.054C669.16 522.687 760.482 437.245 843.035 387.514C884.311 362.648 923.392 346.713 957.83 341.175C992.268 335.638 1022.06 340.5 1044.76 357.217C1067.47 373.934 1080.96 400.934 1085.9 435.462C1090.84 469.991 1087.23 512.041 1075.75 558.84C1052.78 652.438 998.313 765.015 917.795 874.382C837.277 983.749 745.956 1069.19 663.403 1118.92C622.126 1143.79 583.046 1159.72 548.607 1165.26C514.169 1170.8 484.381 1165.94 461.675 1149.22C438.969 1132.5 425.479 1105.5 420.538 1070.97C415.597 1036.44 419.207 994.395 430.691 947.596C453.66 853.998 508.124 741.421 588.642 632.054Z" stroke="url(#paint1_linear_1047_13466)" stroke-width="0.2"/>
<path d="M590.782 629.205C673.197 521.26 765.995 437.425 849.404 389.142C891.108 365 930.46 349.75 964.99 344.814C999.519 339.879 1029.22 345.26 1051.63 362.37C1074.04 379.481 1087.06 406.712 1091.39 441.322C1095.73 475.932 1091.39 517.912 1079.09 564.504C1054.49 657.687 998.07 769.296 915.655 877.241C833.241 985.186 740.442 1069.02 657.034 1117.3C615.329 1141.45 575.977 1156.7 541.447 1161.63C506.918 1166.57 477.219 1161.19 454.808 1144.08C432.397 1126.97 419.381 1099.73 415.043 1065.12C410.706 1030.51 415.049 988.535 427.348 941.943C451.947 848.76 508.367 737.15 590.782 629.205Z" stroke="url(#paint2_linear_1047_13466)" stroke-width="0.2"/>
<path d="M592.972 626.387C677.258 519.897 771.505 437.694 855.744 390.874C897.863 367.464 937.476 352.902 972.086 348.571C1006.7 344.239 1036.3 350.137 1058.41 367.636C1080.51 385.135 1093.05 412.59 1096.79 447.269C1100.52 481.95 1095.44 523.848 1082.33 570.218C1056.11 662.957 997.753 773.565 913.467 880.055C829.181 986.546 734.933 1068.75 650.695 1115.57C608.576 1138.98 568.963 1153.54 534.353 1157.87C499.742 1162.2 470.142 1156.31 448.033 1138.81C425.924 1121.31 413.385 1093.85 409.652 1059.17C405.919 1024.49 410.994 982.595 424.105 936.225C450.326 843.485 508.686 732.878 592.972 626.387Z" stroke="url(#paint3_linear_1047_13466)" stroke-width="0.2"/>
<path d="M595.21 623.608C681.342 518.605 777.01 438.059 862.052 392.717C904.574 370.045 944.435 356.177 979.116 352.45C1013.8 348.723 1043.29 355.137 1065.09 373.019C1086.89 390.901 1098.95 418.57 1102.07 453.31C1105.2 488.05 1099.4 529.853 1085.48 575.987C1057.64 668.255 997.361 777.828 911.229 882.831C825.098 987.834 729.43 1068.38 644.387 1113.72C601.866 1136.39 562.005 1150.26 527.324 1153.99C492.644 1157.72 463.151 1151.3 441.351 1133.42C419.55 1115.54 407.492 1087.87 404.365 1053.13C401.238 1018.39 407.044 976.585 420.962 930.451C448.798 838.183 509.079 728.611 595.21 623.608Z" stroke="url(#paint4_linear_1047_13466)" stroke-width="0.2"/>
<path d="M597.496 620.867C685.447 517.383 782.506 438.519 868.327 394.668C911.238 372.742 951.334 359.572 986.075 356.45C1020.82 353.329 1050.19 360.257 1071.68 378.517C1093.16 396.777 1104.73 424.652 1107.25 459.441C1109.78 494.231 1103.24 535.926 1088.52 581.81C1059.08 673.578 996.894 782.082 908.943 885.566C820.992 989.05 723.933 1067.91 638.112 1111.76C595.201 1133.69 555.105 1146.86 520.364 1149.98C485.623 1153.1 456.247 1146.18 434.762 1127.92C413.277 1109.66 401.704 1081.78 399.184 1046.99C396.664 1012.2 403.197 970.507 417.919 924.622C447.361 832.854 509.545 724.351 597.496 620.867Z" stroke="url(#paint5_linear_1047_13466)" stroke-width="0.2"/>
<path d="M599.829 618.172C689.573 516.239 787.993 439.082 874.567 396.735C917.853 375.561 958.174 363.092 992.964 360.578C1027.75 358.063 1057 365.503 1078.17 384.135C1099.33 402.767 1110.41 430.84 1112.33 465.668C1114.24 500.496 1106.98 542.071 1091.46 587.691C1060.42 678.931 996.353 786.333 906.609 888.266C816.865 990.2 718.445 1067.36 631.872 1109.7C588.585 1130.88 548.264 1143.35 513.474 1145.86C478.685 1148.38 449.434 1140.94 428.271 1122.3C407.108 1103.67 396.023 1075.6 394.111 1040.77C392.198 1005.94 399.458 964.368 414.978 918.748C446.017 827.507 510.086 720.106 599.829 618.172Z" stroke="url(#paint6_linear_1047_13466)" stroke-width="0.2"/>
<path d="M602.209 615.516C693.718 515.165 793.47 439.737 880.769 398.907C924.419 378.492 964.951 366.729 999.779 364.822C1034.61 362.915 1063.72 370.864 1084.56 389.862C1105.39 408.861 1115.99 437.123 1117.29 471.979C1118.6 506.835 1110.61 548.277 1094.3 593.62C1061.67 684.305 995.737 790.572 904.228 890.923C812.719 991.275 712.967 1066.7 625.668 1107.53C582.018 1127.95 541.486 1139.71 506.658 1141.62C471.83 1143.52 442.713 1135.58 421.878 1116.58C401.044 1097.58 390.451 1069.32 389.146 1034.46C387.841 999.604 395.826 958.162 412.14 912.82C444.767 822.135 510.7 715.868 602.209 615.516Z" stroke="url(#paint7_linear_1047_13466)" stroke-width="0.2"/>
<path d="M604.635 612.899C697.881 514.16 798.935 440.484 886.933 401.184C930.933 381.534 971.663 370.48 1006.52 369.181C1041.38 367.882 1070.35 376.338 1090.85 395.697C1111.35 415.057 1121.45 443.5 1122.14 478.373C1122.84 513.247 1114.13 554.543 1097.03 599.594C1062.83 689.695 995.048 794.796 901.802 893.535C808.555 992.274 707.502 1065.95 619.504 1105.25C575.504 1124.9 534.773 1135.95 499.917 1137.25C465.061 1138.55 436.087 1130.1 415.587 1110.74C395.088 1091.38 384.989 1062.93 384.293 1028.06C383.597 993.187 392.304 951.891 409.406 906.84C443.611 816.738 511.389 711.638 604.635 612.899Z" stroke="url(#paint8_linear_1047_13466)" stroke-width="0.2"/>
<path d="M607.106 610.327C702.062 513.23 804.386 441.329 893.057 403.571C937.392 384.692 978.31 374.351 1013.18 373.661C1048.06 372.97 1076.88 381.93 1097.04 401.644C1117.2 421.359 1126.8 449.973 1126.88 484.853C1126.97 519.734 1117.55 560.872 1099.66 605.618C1063.89 695.108 994.286 799.01 899.33 896.107C804.375 993.203 702.051 1065.1 613.38 1102.86C569.045 1121.74 528.127 1132.08 493.253 1132.77C458.38 1133.46 429.558 1124.5 409.399 1104.79C389.24 1085.08 379.64 1056.46 379.553 1021.58C379.465 986.7 388.892 945.562 406.778 900.816C442.549 811.325 512.151 707.424 607.106 610.327Z" stroke="url(#paint9_linear_1047_13466)" stroke-width="0.2"/>
<path d="M609.623 607.801C706.258 512.376 809.821 442.272 899.138 406.067C943.796 387.965 984.888 378.339 1019.77 378.258C1054.65 378.176 1083.31 387.638 1103.12 407.701C1122.93 427.764 1132.03 456.542 1131.51 491.418C1130.99 526.295 1120.85 567.262 1102.18 611.689C1064.85 700.541 993.45 803.212 896.815 898.637C800.179 994.062 696.616 1064.17 607.3 1100.37C562.641 1118.47 521.549 1128.1 486.669 1128.18C451.789 1128.26 423.128 1118.8 403.316 1098.74C383.505 1078.67 374.405 1049.9 374.926 1015.02C375.448 980.143 385.591 939.176 404.255 894.75C441.583 805.897 512.987 703.226 609.623 607.801Z" stroke="url(#paint10_linear_1047_13466)" stroke-width="0.2"/>
<path d="M612.182 605.321C710.468 511.597 815.239 443.311 905.173 408.67C950.141 391.35 991.394 382.443 1026.27 382.97C1061.15 383.497 1089.64 393.458 1109.1 413.864C1128.56 434.269 1137.15 463.202 1136.02 498.064C1134.89 532.926 1124.04 573.71 1104.6 617.804C1065.73 705.992 992.54 807.401 894.254 901.125C795.968 994.848 691.197 1063.13 601.262 1097.77C556.295 1115.1 515.041 1124 480.164 1123.48C445.288 1122.95 416.797 1112.99 397.338 1092.58C377.88 1072.18 369.284 1043.24 370.414 1008.38C371.544 973.519 382.4 932.735 401.837 888.641C440.71 800.454 513.895 699.044 612.182 605.321Z" stroke="url(#paint11_linear_1047_13466)" stroke-width="0.2"/>
<path d="M614.785 602.878C714.692 510.884 820.639 444.436 911.164 411.371C956.427 394.838 997.83 386.652 1032.69 387.788C1067.55 388.924 1095.87 399.38 1114.97 420.122C1134.07 440.864 1142.16 469.942 1140.42 504.779C1138.68 539.616 1127.11 580.205 1106.91 623.953C1066.5 711.449 991.559 811.565 891.652 903.559C791.745 995.553 685.799 1062 595.273 1095.07C550.01 1111.6 508.607 1119.78 473.745 1118.65C438.883 1117.51 410.57 1107.06 391.471 1086.31C372.372 1065.57 364.282 1036.49 366.02 1001.66C367.758 966.82 379.325 926.232 399.528 882.484C439.934 794.988 514.878 694.872 614.785 602.878Z" stroke="url(#paint12_linear_1047_13466)" stroke-width="0.2"/>
<path d="M617.43 600.487C718.927 510.25 826.017 445.662 917.106 414.182C962.65 398.441 1004.19 390.979 1039.03 392.723C1073.86 394.467 1101.99 405.416 1120.72 426.488C1139.46 447.561 1147.04 476.775 1144.69 511.577C1142.35 546.378 1130.07 586.759 1109.11 630.148C1067.18 716.925 990.504 815.718 889.007 905.955C787.509 996.191 680.419 1060.78 589.33 1092.26C543.786 1108 502.247 1115.46 467.409 1113.72C432.573 1111.97 404.446 1101.03 385.712 1079.95C366.978 1058.88 359.397 1029.67 361.742 994.865C364.088 960.063 376.362 919.683 397.325 876.294C439.252 789.517 515.932 690.723 617.43 600.487Z" stroke="url(#paint13_linear_1047_13466)" stroke-width="0.2"/>
<path d="M620.117 598.14C723.174 509.689 831.375 446.98 922.999 417.093C968.811 402.15 1010.47 395.414 1045.28 397.766C1080.08 400.118 1108.01 411.556 1126.37 432.952C1144.74 454.348 1151.81 483.691 1148.85 518.446C1145.9 553.201 1132.92 593.361 1111.21 636.377C1067.77 722.41 989.378 819.85 886.321 908.301C783.265 996.753 675.064 1059.46 583.439 1089.35C537.627 1104.29 495.964 1111.03 461.162 1108.68C426.362 1106.32 398.431 1094.89 380.067 1073.49C361.703 1052.09 354.633 1022.75 357.586 987.996C360.539 953.24 373.515 913.08 395.233 870.064C438.668 784.032 517.06 686.592 620.117 598.14Z" stroke="url(#paint14_linear_1047_13466)" stroke-width="0.2"/>
<path d="M622.844 595.837C727.428 509.198 836.707 448.387 928.839 420.104C974.906 405.963 1016.68 399.955 1051.43 402.914C1086.19 405.873 1113.92 417.796 1131.9 439.51C1149.89 461.223 1156.45 490.684 1152.89 525.383C1149.33 560.081 1135.66 600.009 1113.19 642.639C1068.26 727.901 988.179 823.958 883.595 910.597C779.01 997.236 669.731 1058.05 577.599 1086.33C531.533 1100.47 489.759 1106.48 455.004 1103.52C420.249 1100.56 392.522 1088.64 374.534 1066.92C356.547 1045.21 349.99 1015.75 353.549 981.052C357.108 946.353 370.783 906.426 393.248 863.795C438.178 778.534 518.259 682.477 622.844 595.837Z" stroke="url(#paint15_linear_1047_13466)" stroke-width="0.2"/>
<path d="M625.61 593.585C731.691 508.785 842.014 449.89 934.626 423.219C980.932 409.884 1022.8 404.606 1057.5 408.171C1092.2 411.736 1119.72 424.142 1137.32 446.166C1154.93 468.19 1160.97 497.761 1156.8 532.392C1152.64 567.023 1138.27 606.706 1115.07 648.938C1068.65 733.402 986.909 828.047 880.828 912.848C774.747 997.649 664.423 1056.54 571.812 1083.21C525.506 1096.55 483.633 1101.83 448.935 1098.26C414.237 1094.7 386.723 1082.29 369.117 1060.27C351.511 1038.24 345.469 1008.67 349.633 974.041C353.797 939.41 368.167 899.727 391.373 857.495C437.784 773.031 519.529 678.386 625.61 593.585Z" stroke="url(#paint16_linear_1047_13466)" stroke-width="0.2"/>
<path d="M628.415 591.383C735.96 508.447 847.294 451.486 940.357 426.436C986.889 413.911 1028.85 409.365 1063.48 413.535C1098.11 417.705 1125.4 430.589 1142.62 452.917C1159.84 475.245 1165.36 504.917 1160.6 539.47C1155.83 574.023 1140.77 613.449 1116.83 655.27C1068.95 738.911 985.567 832.115 878.022 915.051C770.478 997.988 659.143 1054.95 566.08 1080C519.548 1092.52 477.59 1097.07 442.959 1092.9C408.329 1088.73 381.035 1075.85 363.816 1053.52C346.597 1031.19 341.073 1001.52 345.84 966.965C350.608 932.412 365.668 892.986 389.608 851.165C437.486 767.524 520.871 674.32 628.415 591.383Z" stroke="url(#paint17_linear_1047_13466)" stroke-width="0.2"/>
<path d="M631.259 589.231C740.234 508.184 852.546 453.175 946.032 429.753C992.775 418.042 1034.81 414.229 1069.36 419.003C1103.91 423.776 1130.98 437.135 1147.8 459.76C1164.63 482.385 1169.64 512.149 1164.27 546.613C1158.9 581.078 1143.15 620.235 1118.48 661.632C1069.15 744.425 984.155 836.159 875.179 917.206C766.203 998.253 653.892 1053.26 560.406 1076.68C513.663 1088.39 471.631 1092.21 437.078 1087.43C402.526 1082.66 375.461 1069.3 358.635 1046.68C341.808 1024.05 336.802 994.288 342.172 959.824C347.543 925.359 363.288 886.202 387.954 844.805C437.285 762.012 522.283 670.278 631.259 589.231Z" stroke="url(#paint18_linear_1047_13466)" stroke-width="0.2"/>
<path d="M634.139 587.127C744.513 507.995 857.768 454.954 951.648 433.167C998.588 422.274 1040.68 419.195 1075.14 424.571C1109.61 429.947 1136.44 443.776 1152.86 466.691C1169.29 489.606 1173.78 519.453 1167.81 553.818C1161.84 588.184 1145.41 627.06 1120.03 668.02C1069.26 749.94 982.672 840.177 872.299 919.309C761.925 998.442 648.67 1051.48 554.79 1073.27C507.849 1084.16 465.758 1087.24 431.294 1081.87C396.83 1076.49 370.002 1062.66 353.573 1039.75C337.144 1016.83 332.658 986.984 338.629 952.618C344.6 918.253 361.027 879.376 386.411 838.416C437.179 756.497 523.766 666.26 634.139 587.127Z" stroke="url(#paint19_linear_1047_13466)" stroke-width="0.2"/>
<path d="M637.056 585.08C748.794 507.885 862.957 456.83 957.203 436.684C1004.33 426.612 1046.47 424.268 1080.83 430.244C1115.19 436.221 1141.78 450.516 1157.8 473.714C1173.83 496.913 1177.79 526.833 1171.23 561.089C1164.66 595.346 1147.55 633.929 1121.46 674.44C1069.27 755.461 981.119 844.173 869.381 921.367C757.644 998.562 643.48 1049.62 549.234 1069.76C502.111 1079.84 459.972 1082.18 425.607 1076.2C391.242 1070.23 364.66 1055.93 348.633 1032.73C332.606 1009.53 328.642 979.613 335.212 945.357C341.782 911.101 358.885 872.517 384.98 832.007C437.17 750.986 525.318 662.274 637.056 585.08Z" stroke="url(#paint20_linear_1047_13466)" stroke-width="0.2"/>
<path d="M640.008 583.071C753.076 507.838 868.113 458.783 962.696 440.285C1009.99 431.037 1052.16 429.429 1086.42 436.004C1120.67 442.579 1147 457.336 1162.62 480.811C1178.24 504.285 1181.68 534.271 1174.51 568.407C1167.35 602.543 1149.57 640.823 1122.78 680.872C1069.18 760.969 979.497 848.129 866.429 923.362C753.361 998.594 638.324 1047.65 543.74 1066.15C496.448 1075.4 454.275 1077 420.02 1070.43C385.765 1063.85 359.436 1049.1 343.816 1025.62C328.197 1002.15 324.756 972.162 331.922 938.026C339.089 903.889 356.862 865.61 383.66 825.561C437.257 745.463 526.94 658.303 640.008 583.071Z" stroke="url(#paint21_linear_1047_13466)" stroke-width="0.2"/>
<path d="M642.995 581.124C757.358 507.876 873.234 460.836 968.126 443.992C1015.57 435.57 1057.77 434.698 1091.9 441.87C1126.04 449.042 1152.1 464.256 1167.31 488C1182.52 511.744 1185.44 541.785 1177.68 575.79C1169.91 609.797 1151.48 647.76 1123.98 687.335C1069 766.485 977.806 852.067 863.442 925.315C749.079 998.562 633.203 1045.6 538.311 1062.45C490.865 1070.87 448.67 1071.74 414.534 1064.57C380.399 1057.4 354.332 1042.18 339.125 1018.44C323.917 994.695 321 964.654 328.761 930.648C336.522 896.642 354.961 858.678 382.454 819.103C437.44 739.953 528.631 654.371 642.995 581.124Z" stroke="url(#paint22_linear_1047_13466)" stroke-width="0.2"/>
<path d="M646.015 579.229C761.64 507.989 878.319 462.978 973.49 447.793C1021.08 440.2 1063.28 440.065 1097.29 447.832C1131.29 455.599 1157.09 471.265 1171.88 495.271C1186.67 519.276 1189.06 549.363 1180.71 583.228C1172.35 617.094 1153.26 654.73 1125.08 693.819C1068.72 771.998 976.047 855.975 860.423 927.215C744.798 998.456 628.119 1043.47 532.948 1058.65C485.362 1066.24 443.158 1066.38 409.153 1058.61C375.148 1050.85 349.35 1035.18 334.56 1011.17C319.769 987.169 317.376 957.081 325.73 923.216C334.083 889.351 353.182 851.715 381.361 812.626C437.72 734.447 530.391 650.47 646.015 579.229Z" stroke="url(#paint23_linear_1047_13466)" stroke-width="0.2"/>
<path d="M649.068 577.379C765.919 508.167 883.365 465.2 978.787 451.678C1026.5 444.917 1068.7 445.518 1102.56 453.877C1136.43 462.236 1161.95 478.351 1176.32 502.611C1190.69 526.871 1192.55 556.995 1183.61 590.709C1174.67 624.424 1154.91 661.721 1126.06 700.312C1068.34 777.495 974.22 859.842 857.37 929.054C740.519 998.266 623.073 1041.23 527.651 1054.76C479.94 1061.52 437.74 1060.92 403.875 1052.56C370.012 1044.2 344.491 1028.08 330.122 1003.82C315.752 979.563 313.885 949.438 322.828 915.724C331.772 882.009 351.524 844.713 380.382 806.121C438.096 728.938 532.218 646.591 649.068 577.379Z" stroke="url(#paint24_linear_1047_13466)" stroke-width="0.2"/>
<path d="M652.153 575.588C770.193 508.425 888.372 467.514 984.015 455.66C1031.84 449.732 1074.02 451.07 1107.73 460.019C1141.45 468.968 1166.68 485.525 1180.63 510.032C1194.57 534.539 1195.91 564.692 1186.38 598.245C1176.85 631.798 1156.45 668.744 1126.92 706.826C1067.87 782.99 972.325 863.682 854.285 930.844C736.244 998.006 618.066 1038.92 522.422 1050.77C474.601 1056.7 432.418 1055.36 398.704 1046.41C364.992 1037.46 339.756 1020.91 325.812 996.399C311.868 971.892 310.527 941.74 320.057 908.187C329.588 874.633 349.988 837.687 379.515 799.605C438.568 723.441 534.112 642.75 652.153 575.588Z" stroke="url(#paint25_linear_1047_13466)" stroke-width="0.2"/>
<path d="M655.268 573.853C774.463 508.761 893.338 469.919 989.173 459.735C1037.09 454.643 1079.24 456.717 1112.8 466.253C1146.35 475.789 1171.29 492.784 1184.8 517.531C1198.32 542.277 1199.13 572.449 1189.02 605.83C1178.9 639.212 1157.86 675.797 1127.68 713.358C1067.3 788.48 970.364 867.491 851.17 932.583C731.975 997.675 613.1 1036.52 517.265 1046.7C469.346 1051.79 427.193 1049.72 393.641 1040.18C360.09 1030.65 335.147 1013.65 321.633 988.905C308.119 964.159 307.304 933.988 317.419 900.606C327.533 867.224 348.575 830.64 378.762 793.078C439.135 717.957 536.074 638.945 655.268 573.853Z" stroke="url(#paint26_linear_1047_13466)" stroke-width="0.2"/>
<path d="M658.413 572.175C778.725 509.173 898.259 472.411 994.258 463.902C1042.26 459.647 1084.37 462.456 1117.75 472.576C1151.13 482.696 1175.77 500.124 1188.85 525.103C1201.93 550.081 1202.22 580.262 1191.52 613.462C1180.83 646.663 1159.15 682.874 1128.31 719.903C1066.64 793.959 968.336 871.268 848.023 934.269C727.711 997.271 608.176 1034.03 512.177 1042.54C464.178 1046.8 422.067 1043.99 388.687 1033.87C355.307 1023.75 330.665 1006.32 317.585 981.341C304.504 956.363 304.216 926.182 314.912 892.982C325.607 859.781 347.285 823.57 378.122 786.541C439.798 712.484 538.1 635.176 658.413 572.175Z" stroke="url(#paint27_linear_1047_13466)" stroke-width="0.2"/>
<path d="M661.587 570.544C782.981 509.651 903.139 474.981 999.271 468.148C1047.34 464.732 1089.39 468.276 1122.59 478.977C1155.79 489.678 1180.12 507.533 1192.77 532.736C1205.41 557.939 1205.17 588.121 1193.9 621.129C1182.62 654.138 1160.32 689.965 1128.84 726.45C1065.88 799.419 966.243 875 844.85 935.892C723.456 996.784 603.298 1031.45 507.165 1038.29C459.099 1041.7 417.044 1038.16 383.845 1027.46C350.647 1016.76 326.312 998.903 313.67 973.699C301.028 948.496 301.267 918.315 312.54 885.307C323.813 852.298 346.119 816.47 377.599 779.985C440.557 707.016 540.194 631.436 661.587 570.544Z" stroke="url(#paint28_linear_1047_13466)" stroke-width="0.2"/>
<path d="M664.789 568.973C787.227 510.209 907.972 477.641 1004.21 472.487C1052.33 469.91 1094.31 474.187 1127.32 485.466C1160.33 496.745 1184.35 515.022 1196.55 540.442C1208.75 565.862 1207.98 596.035 1196.13 628.841C1184.29 661.648 1161.36 697.081 1129.25 733.011C1065.03 804.87 964.085 878.7 841.648 937.465C719.21 996.229 598.465 1028.8 502.228 1033.95C454.109 1036.53 412.122 1032.25 379.115 1020.97C346.109 1009.69 322.09 991.416 309.889 965.996C297.689 940.576 298.454 910.403 310.302 877.597C322.15 844.79 345.078 809.357 377.189 773.427C441.411 701.568 542.351 627.738 664.789 568.973Z" stroke="url(#paint29_linear_1047_13466)" stroke-width="0.2"/>
<path d="M668.019 567.456C791.464 510.837 912.758 480.381 1009.07 476.908C1057.23 475.171 1099.13 480.18 1131.94 492.033C1164.74 503.886 1188.44 522.58 1200.19 548.209C1211.95 573.838 1210.66 603.993 1198.24 636.587C1185.82 669.183 1162.28 704.21 1129.54 739.574C1064.08 810.301 961.864 882.359 838.419 938.977C714.974 995.596 593.679 1026.05 497.367 1029.53C449.21 1031.26 407.304 1026.25 374.499 1014.4C341.695 1002.55 317.999 983.853 306.244 958.224C294.489 932.595 295.781 902.44 308.199 869.845C320.617 837.25 344.16 802.223 376.894 766.859C442.36 696.132 544.574 624.074 668.019 567.456Z" stroke="url(#paint30_linear_1047_13466)" stroke-width="0.2"/>
<path d="M671.273 565.996C795.687 511.541 917.495 483.206 1013.85 481.414C1062.03 480.518 1103.85 486.258 1136.44 498.682C1169.03 511.106 1192.4 530.21 1203.7 556.04C1215.01 581.871 1213.19 611.998 1200.21 644.371C1187.22 676.745 1163.07 711.356 1129.72 746.143C1063.03 815.717 959.578 885.98 835.163 940.435C710.749 994.891 588.942 1023.22 492.583 1025.02C444.403 1025.91 402.591 1020.17 369.998 1007.75C337.406 995.326 314.039 976.221 302.733 950.391C291.427 924.561 293.245 894.433 306.231 862.06C319.216 829.687 343.367 795.075 376.712 760.288C443.403 690.714 546.859 620.452 671.273 565.996Z" stroke="url(#paint31_linear_1047_13466)" stroke-width="0.2"/>
<path d="M674.553 564.602C799.899 512.326 922.183 486.121 1018.56 486.011C1066.75 485.956 1108.45 492.425 1140.82 505.416C1173.19 518.406 1196.22 537.916 1207.08 563.939C1217.93 589.963 1215.59 620.054 1202.04 652.196C1188.49 684.338 1163.74 718.522 1129.79 752.722C1061.9 821.122 957.23 889.568 831.884 941.844C706.538 994.12 584.255 1020.32 487.88 1020.43C439.692 1020.49 397.986 1014.02 365.615 1001.03C333.244 988.039 310.214 968.53 299.361 942.506C288.508 916.482 290.851 886.391 304.4 854.25C317.948 822.108 342.699 787.923 376.647 753.723C444.542 685.324 549.208 616.877 674.553 564.602Z" stroke="url(#paint32_linear_1047_13466)" stroke-width="0.2"/>
<path d="M677.857 563.255C804.096 513.174 926.818 489.108 1023.18 490.68C1071.36 491.466 1112.95 498.662 1145.09 512.215C1177.23 525.769 1199.91 545.677 1210.31 571.886C1220.71 598.095 1217.84 628.141 1203.73 660.041C1189.62 691.942 1164.28 725.689 1129.74 759.291C1060.66 826.496 954.818 893.105 828.58 943.185C702.341 993.266 579.618 1017.33 483.256 1015.76C435.074 1014.97 393.488 1007.78 361.348 994.224C329.209 980.671 306.524 960.762 296.126 934.553C285.729 908.344 288.597 878.299 302.704 846.398C316.812 814.498 342.156 780.75 376.695 747.148C445.773 679.944 551.618 613.335 677.857 563.255Z" stroke="url(#paint33_linear_1047_13466)" stroke-width="0.2"/>
<path d="M681.184 561.969C808.278 514.1 931.401 492.179 1027.72 495.432C1075.88 497.059 1117.34 504.979 1149.23 519.092C1181.13 533.204 1203.47 553.506 1213.41 579.892C1223.34 606.279 1219.95 636.27 1205.29 667.919C1190.63 699.568 1164.7 732.868 1129.58 765.863C1059.34 831.851 952.347 896.603 825.253 944.472C698.159 992.342 575.036 1014.26 478.715 1011.01C430.555 1009.38 389.101 1001.46 357.202 987.349C325.305 973.237 302.97 952.936 293.032 926.549C283.093 900.163 286.485 870.172 301.147 838.523C315.809 806.873 341.738 773.573 376.858 740.579C447.099 674.591 554.09 609.839 681.184 561.969Z" stroke="url(#paint34_linear_1047_13466)" stroke-width="0.2"/>
<path d="M684.533 560.736C812.443 515.092 935.93 495.323 1032.18 500.257C1080.3 502.724 1121.61 511.367 1153.26 526.034C1184.91 540.701 1206.88 561.389 1216.36 587.945C1225.84 614.501 1221.92 644.428 1206.71 675.816C1191.5 707.205 1164.99 740.048 1129.3 772.424C1057.92 837.176 949.814 900.051 821.905 945.695C693.995 991.339 570.507 1011.11 474.259 1006.17C426.134 1003.71 384.824 995.064 353.177 980.397C321.53 965.73 299.553 945.042 290.077 918.486C280.601 891.93 284.516 862.003 299.727 830.615C314.94 799.226 341.446 766.384 377.137 734.007C448.518 669.255 556.623 606.38 684.533 560.736Z" stroke="url(#paint35_linear_1047_13466)" stroke-width="0.2"/>
<path d="M687.903 559.569C816.59 516.164 940.403 498.554 1036.55 505.167C1084.63 508.473 1125.78 517.835 1157.16 533.053C1188.55 548.27 1210.16 569.338 1219.17 596.055C1228.19 622.773 1223.75 652.627 1207.99 683.745C1192.23 714.864 1165.16 747.238 1128.91 778.987C1056.41 842.484 947.222 903.462 818.535 946.867C689.848 990.272 566.035 1007.88 469.886 1001.27C421.812 997.962 380.659 988.6 349.273 973.383C317.887 958.166 296.275 937.098 287.263 910.38C278.252 883.663 282.688 853.809 298.446 822.691C314.204 791.572 341.279 759.197 377.529 727.449C450.03 663.952 559.216 602.974 687.903 559.569Z" stroke="url(#paint36_linear_1047_13466)" stroke-width="0.2"/>
<path d="M691.292 558.458C820.717 517.306 944.819 501.859 1040.84 510.149C1088.85 514.294 1129.83 524.373 1160.94 540.136C1192.06 555.898 1213.3 577.34 1221.85 604.211C1230.39 631.081 1225.43 660.854 1209.13 691.692C1192.84 722.531 1165.2 754.428 1128.4 785.539C1054.8 847.761 944.57 906.825 815.145 947.977C685.72 989.13 561.618 1004.58 465.6 996.286C417.591 992.141 376.607 982.062 345.491 966.3C314.376 950.537 293.135 929.095 284.591 902.224C276.047 875.354 281.004 845.581 297.302 814.743C313.6 783.904 341.236 752.007 378.036 720.896C451.633 658.674 561.867 599.611 691.292 558.458Z" stroke="url(#paint37_linear_1047_13466)" stroke-width="0.2"/>
<path d="M694.7 557.41C824.824 518.523 949.176 505.244 1045.04 515.209C1092.96 520.191 1133.77 530.983 1164.6 547.287C1195.44 563.59 1216.3 585.4 1224.38 612.415C1232.45 639.431 1226.97 669.112 1210.14 699.661C1193.31 730.211 1165.12 761.621 1127.78 792.085C1053.11 853.013 941.86 910.144 811.737 949.031C681.613 987.919 557.261 1001.2 461.402 991.233C413.472 986.25 372.671 975.458 341.835 959.154C310.999 942.851 290.135 921.041 282.062 894.026C273.988 867.01 279.464 837.329 296.298 806.78C313.132 776.23 341.321 744.82 378.657 714.356C453.33 653.428 564.577 596.297 694.7 557.41Z" stroke="url(#paint38_linear_1047_13466)" stroke-width="0.2"/>
<path d="M698.126 556.415C828.909 519.804 953.474 508.698 1049.14 520.334C1096.98 526.152 1137.59 537.655 1168.13 554.494C1198.68 571.333 1219.16 593.503 1226.76 620.656C1234.36 647.808 1228.37 677.389 1211 707.64C1193.64 737.891 1164.91 768.805 1127.04 798.613C1051.32 858.228 939.092 913.408 808.31 950.019C677.528 986.629 552.962 997.735 457.292 986.1C409.457 980.282 368.85 968.779 338.303 951.94C307.757 935.101 287.277 912.93 279.676 885.778C272.075 858.625 278.068 829.044 295.432 798.793C312.797 768.542 341.53 737.629 379.392 707.821C455.117 648.206 567.344 593.025 698.126 556.415Z" stroke="url(#paint39_linear_1047_13466)" stroke-width="0.2"/>
<path d="M701.57 555.486C832.972 521.164 957.712 512.233 1053.16 525.537C1100.89 532.189 1141.29 544.399 1171.54 561.768C1201.79 579.138 1221.88 601.662 1229 628.943C1236.13 656.224 1229.62 685.696 1211.73 715.639C1193.84 745.583 1164.57 775.99 1126.2 805.133C1049.44 863.417 936.269 916.631 804.868 950.953C673.467 985.276 548.726 994.206 453.274 980.902C405.547 974.25 365.148 962.04 334.899 944.671C304.652 927.301 284.561 904.777 277.435 877.496C270.31 850.215 276.818 820.743 294.708 790.8C312.598 760.856 341.865 730.449 380.242 701.307C456.996 643.022 570.169 589.808 701.57 555.486Z" stroke="url(#paint40_linear_1047_13466)" stroke-width="0.2"/>
<path d="M705.028 554.614C837.008 522.59 961.885 515.838 1057.09 530.806C1104.69 538.29 1144.87 551.203 1174.82 569.098C1204.76 586.992 1224.45 609.864 1231.1 637.265C1237.75 664.666 1230.72 694.02 1212.32 723.647C1193.91 753.273 1164.11 783.165 1125.23 811.633C1047.47 868.57 933.388 919.8 801.408 951.824C669.428 983.848 544.55 990.6 449.345 975.632C401.741 968.148 361.561 955.235 331.621 937.34C301.68 919.446 281.986 896.574 275.338 869.173C268.689 841.772 275.711 812.418 294.121 782.791C312.53 753.165 342.324 723.273 381.204 694.805C458.963 637.868 573.048 586.638 705.028 554.614Z" stroke="url(#paint41_linear_1047_13466)" stroke-width="0.2"/>
<path d="M708.502 553.805C841.021 524.089 965.997 519.517 1060.93 536.144C1108.39 544.458 1148.34 558.07 1177.97 576.485C1207.59 594.899 1226.88 618.111 1233.05 645.624C1239.22 673.137 1231.69 702.364 1212.76 731.665C1193.84 760.966 1163.53 790.333 1124.16 818.118C1045.42 873.689 930.454 922.92 797.935 952.636C665.416 982.352 540.44 986.923 445.51 970.296C398.045 961.983 358.096 948.371 328.472 929.956C298.849 911.541 279.557 888.329 273.388 860.816C267.218 833.304 274.751 804.076 293.675 774.776C312.599 745.475 342.91 716.108 382.281 688.322C461.022 632.752 575.983 583.521 708.502 553.805Z" stroke="url(#paint42_linear_1047_13466)" stroke-width="0.2"/>
<path d="M711.989 553.056C845.007 525.658 970.043 523.268 1064.67 541.549C1111.98 550.69 1151.69 564.997 1180.98 583.926C1210.28 602.855 1229.17 626.4 1234.85 654.016C1240.54 681.633 1232.5 710.724 1213.07 739.69C1193.64 768.656 1162.82 797.49 1122.97 824.584C1043.27 878.771 927.465 925.989 794.448 953.387C661.431 980.786 536.394 983.176 441.768 964.894C394.455 955.754 354.75 941.446 325.452 922.517C296.155 903.589 277.271 880.044 271.583 852.427C265.894 824.811 273.936 795.72 293.369 766.754C312.801 737.788 343.62 708.954 383.47 681.86C463.168 627.672 578.972 580.454 711.989 553.056Z" stroke="url(#paint43_linear_1047_13466)" stroke-width="0.2"/>
<path d="M715.488 552.366C848.964 527.293 974.023 527.086 1068.32 547.016C1115.46 556.981 1154.91 571.979 1183.87 591.416C1212.84 610.853 1231.31 634.724 1236.51 662.436C1241.72 690.147 1233.17 719.094 1213.23 747.716C1193.3 776.339 1161.98 804.63 1121.67 831.024C1041.03 883.813 924.423 929.002 790.948 954.075C657.473 979.148 532.413 979.355 438.121 959.425C390.975 949.46 351.525 934.462 322.562 915.025C293.6 895.588 275.13 871.717 269.924 844.005C264.719 816.294 273.267 787.347 293.202 758.725C313.137 730.102 344.455 701.811 384.771 675.416C465.403 622.628 582.013 577.438 715.488 552.366Z" stroke="url(#paint44_linear_1047_13466)" stroke-width="0.2"/>
<path d="M719 551.74C852.893 529 977.937 530.975 1071.87 552.548C1118.83 563.334 1158.01 579.019 1186.63 598.958C1215.25 618.898 1233.3 643.088 1238.02 670.886C1242.74 698.684 1233.69 727.477 1213.26 755.747C1192.83 784.017 1161.02 811.758 1120.25 837.445C1038.71 888.818 921.33 931.965 787.437 954.705C653.545 977.444 528.501 975.469 434.571 953.896C387.606 943.11 348.424 927.426 319.805 907.486C291.186 887.546 273.135 863.356 268.414 835.558C263.693 807.76 272.745 778.967 293.177 750.697C313.608 722.427 345.415 694.686 386.186 669C467.727 617.626 585.108 574.479 719 551.74Z" stroke="url(#paint45_linear_1047_13466)" stroke-width="0.2"/>
<path d="M722.522 551.167C856.791 530.768 981.781 534.925 1075.32 558.134C1122.09 569.738 1160.99 586.104 1189.26 606.54C1217.53 626.976 1235.15 651.478 1239.39 679.354C1243.62 707.23 1234.07 735.861 1213.15 763.77C1192.22 791.679 1159.94 818.86 1118.73 843.832C1036.3 893.774 918.185 934.866 783.916 955.266C649.647 975.665 524.656 971.508 431.117 948.299C384.347 936.695 345.445 920.329 317.178 899.893C288.912 879.457 271.286 854.955 267.051 827.079C262.816 799.203 272.369 770.572 293.291 742.663C314.213 714.754 346.499 687.573 387.711 662.601C470.137 612.659 588.253 571.567 722.522 551.167Z" stroke="url(#paint46_linear_1047_13466)" stroke-width="0.2"/>
<path d="M726.053 550.663C860.658 532.61 985.557 538.948 1078.68 563.786C1125.24 576.204 1163.85 593.247 1191.75 614.173C1219.66 635.099 1236.85 659.904 1240.6 687.85C1244.35 715.796 1234.3 744.256 1212.89 771.795C1191.49 799.335 1158.73 825.949 1117.09 850.197C1033.81 898.694 914.99 937.718 780.386 955.771C645.781 973.824 520.882 967.486 427.762 942.648C381.202 930.23 342.592 913.187 314.686 892.261C286.78 871.334 269.585 846.529 265.837 818.584C262.089 790.638 272.14 762.178 293.546 734.639C314.952 707.098 347.707 680.485 389.349 656.236C472.634 607.74 591.449 568.716 726.053 550.663Z" stroke="url(#paint47_linear_1047_13466)" stroke-width="0.2"/>
<path d="M729.592 550.223C864.491 534.523 989.26 543.039 1081.93 569.498C1128.27 582.728 1166.58 600.441 1194.11 621.852C1221.65 643.262 1238.41 668.363 1241.67 696.37C1244.93 724.377 1234.38 752.657 1212.5 779.819C1190.62 806.981 1157.4 833.019 1115.34 856.537C1031.22 903.572 911.745 940.517 776.846 956.218C641.947 971.919 517.177 963.402 424.505 936.943C378.169 923.714 339.862 906 312.325 884.59C284.789 863.18 268.029 838.079 264.769 810.071C261.51 782.064 272.057 753.785 293.939 726.623C315.823 699.461 349.037 673.423 391.097 649.905C475.215 602.869 594.693 565.924 729.592 550.223Z" stroke="url(#paint48_linear_1047_13466)" stroke-width="0.2"/>
<path d="M733.139 549.839C868.291 536.495 992.893 547.188 1085.09 575.26C1131.19 589.296 1169.18 607.676 1196.34 629.564C1223.5 651.451 1239.82 676.841 1242.59 704.901C1245.36 732.96 1234.32 761.052 1211.96 787.827C1189.61 814.604 1155.95 840.058 1113.48 862.838C1028.56 908.398 908.452 943.253 773.3 956.597C638.147 969.941 513.545 959.248 421.349 931.176C375.251 917.14 337.259 898.76 310.1 876.872C282.942 854.985 266.622 829.595 263.852 801.535C261.082 773.476 272.12 745.384 294.474 718.609C316.828 691.832 350.492 666.378 392.955 643.598C477.881 598.037 597.986 563.183 733.139 549.839Z" stroke="url(#paint49_linear_1047_13466)" stroke-width="0.2"/>
<path d="M736.691 549.523C872.056 538.54 996.452 551.406 1088.14 581.083C1133.99 595.921 1171.66 614.961 1198.43 637.319C1225.2 659.677 1241.07 685.348 1243.35 713.452C1245.64 741.556 1234.11 769.45 1211.29 795.832C1188.47 822.214 1154.37 847.077 1111.51 869.113C1025.81 913.184 905.112 945.936 769.747 956.92C634.382 967.903 509.986 955.037 418.294 925.36C372.447 910.522 334.782 891.482 308.009 869.124C281.237 846.766 265.363 821.095 263.083 792.991C260.803 764.887 272.33 736.993 295.148 710.611C317.965 684.229 352.069 659.366 394.923 637.33C480.632 593.259 601.326 560.507 736.691 549.523Z" stroke="url(#paint50_linear_1047_13466)" stroke-width="0.2"/>
<path d="M740.249 549.265C875.785 540.646 999.937 555.681 1091.1 586.954C1136.68 602.59 1174.01 622.284 1200.38 645.107C1226.76 667.928 1242.18 693.873 1243.97 722.012C1245.76 750.151 1233.75 777.84 1210.48 803.819C1187.2 829.799 1152.67 854.063 1109.44 875.348C1022.97 917.916 901.726 948.557 766.19 957.177C630.654 965.796 506.501 950.761 415.341 919.488C369.76 903.852 332.433 884.158 306.054 861.336C279.677 838.514 264.253 812.57 262.464 784.43C260.674 756.291 272.687 728.602 295.961 702.623C319.236 676.643 353.768 652.379 397 631.095C483.465 588.526 604.713 557.885 740.249 549.265Z" stroke="url(#paint51_linear_1047_13466)" stroke-width="0.2"/>
<path d="M743.81 549.071C879.476 542.819 1003.35 560.018 1093.95 592.877C1139.25 609.307 1176.23 629.649 1202.2 652.928C1228.18 676.207 1243.15 702.416 1244.44 730.582C1245.74 758.749 1233.25 786.224 1209.52 811.793C1185.8 837.363 1150.85 861.02 1107.25 881.547C1020.06 922.6 898.294 951.12 762.628 957.373C626.962 963.626 503.091 946.426 412.49 913.567C367.19 897.138 330.212 876.795 304.236 853.516C278.26 830.237 263.292 804.028 261.994 775.862C260.696 747.695 273.19 720.22 296.914 694.651C320.639 669.082 355.589 645.424 399.186 624.897C486.38 583.844 608.144 555.324 743.81 549.071Z" stroke="url(#paint52_linear_1047_13466)" stroke-width="0.2"/>
<path d="M747.374 548.938C883.129 545.054 1006.68 564.413 1096.69 598.848C1141.7 616.065 1178.32 637.05 1203.88 660.779C1229.45 684.508 1243.96 710.974 1244.76 739.159C1245.57 767.343 1232.6 794.596 1208.43 819.747C1184.27 844.899 1148.91 867.943 1104.96 887.706C1017.06 927.231 894.818 953.622 759.064 957.506C623.309 961.39 499.757 942.031 409.744 907.596C364.737 890.378 328.119 869.393 302.554 845.665C276.988 821.936 262.48 795.47 261.673 767.285C260.867 739.1 273.838 711.848 298.005 686.696C322.173 661.545 357.53 638.5 401.479 618.738C489.377 579.213 611.62 552.822 747.374 548.938Z" stroke="url(#paint53_linear_1047_13466)" stroke-width="0.2"/>
<path d="M750.941 548.863C886.742 547.349 1009.94 568.861 1099.34 604.862C1144.04 622.862 1180.28 644.483 1205.43 668.654C1230.58 692.825 1244.62 719.541 1244.94 747.735C1245.25 775.93 1231.8 802.952 1207.2 827.678C1182.6 852.404 1146.85 874.827 1102.56 893.82C1013.98 931.805 891.299 956.059 755.498 957.573C619.696 959.087 496.501 937.575 407.102 901.574C362.402 883.573 326.157 861.953 301.009 837.781C275.862 813.61 261.817 786.895 261.503 758.7C261.189 730.506 274.634 703.484 299.236 678.758C323.839 654.032 359.593 631.608 403.88 612.616C492.454 574.631 615.139 550.377 750.941 548.863Z" stroke="url(#paint54_linear_1047_13466)" stroke-width="0.2"/>
<path d="M754.507 548.859C890.314 549.716 1013.12 573.375 1101.87 610.93C1146.25 629.708 1182.11 651.958 1206.84 676.565C1231.56 701.171 1245.13 728.128 1244.96 756.323C1244.78 784.519 1230.86 811.302 1205.83 835.595C1180.8 859.888 1144.66 881.684 1100.05 899.901C1010.83 936.334 887.737 958.443 751.93 957.587C616.123 956.73 493.322 933.071 404.565 895.516C360.186 876.738 324.324 854.488 299.602 829.882C274.88 805.275 261.304 778.319 261.482 750.123C261.66 721.927 275.574 695.144 300.604 670.851C325.634 646.558 361.775 624.762 406.387 606.545C495.61 570.112 618.7 548.003 754.507 548.859Z" stroke="url(#paint55_linear_1047_13466)" stroke-width="0.2"/>
<path d="M758.073 548.909C893.845 552.136 1016.21 577.934 1104.3 617.033C1148.35 636.582 1183.82 659.455 1208.1 684.489C1232.39 709.523 1245.5 736.713 1244.83 764.901C1244.16 793.089 1229.78 819.626 1204.33 843.478C1178.88 867.33 1142.36 888.492 1097.44 905.928C1007.59 940.798 884.135 960.756 748.364 957.529C612.592 954.303 490.222 928.505 402.134 889.406C358.09 869.856 322.621 846.984 298.332 821.949C274.044 796.916 260.941 769.726 261.611 741.538C262.28 713.349 276.66 686.813 302.11 662.961C327.561 639.108 364.076 617.947 408.999 600.511C498.845 565.64 622.302 545.683 758.073 548.909Z" stroke="url(#paint56_linear_1047_13466)" stroke-width="0.2"/>
<path d="M761.638 549.025C897.333 554.621 1019.23 582.551 1106.63 623.181C1150.32 643.496 1185.39 666.984 1209.23 692.439C1233.08 717.893 1245.71 745.307 1244.55 773.479C1243.39 801.651 1228.54 827.933 1202.68 851.337C1176.82 874.742 1139.94 895.263 1094.72 911.912C1004.28 945.209 880.493 963.009 744.798 957.414C609.104 951.819 487.203 923.888 399.811 883.258C356.115 862.943 321.05 839.455 297.202 814C273.354 788.546 260.727 761.132 261.889 732.96C263.051 704.788 277.892 678.506 303.754 655.102C329.617 631.697 366.496 611.176 411.717 594.527C502.157 561.23 625.943 543.43 761.638 549.025Z" stroke="url(#paint57_linear_1047_13466)" stroke-width="0.2"/>
<path d="M765.201 549.205C900.777 557.168 1022.17 587.221 1108.84 629.37C1152.18 650.445 1186.83 674.542 1210.23 700.408C1233.63 726.275 1245.77 753.905 1244.12 782.053C1242.47 810.2 1227.17 836.219 1200.9 859.168C1174.63 882.118 1137.4 901.993 1091.9 917.85C1000.89 949.564 876.813 965.2 741.237 957.237C605.661 949.275 484.266 919.221 397.596 877.072C354.261 855.997 319.612 831.901 296.212 806.034C272.812 780.168 260.665 752.538 262.318 724.39C263.972 696.242 279.269 670.224 305.536 647.274C331.803 624.325 369.035 604.45 414.539 588.593C505.547 556.879 629.625 541.243 765.201 549.205Z" stroke="url(#paint58_linear_1047_13466)" stroke-width="0.2"/>
<path d="M768.759 549.446C904.176 559.773 1025.03 591.941 1110.95 635.596C1153.91 657.424 1188.13 682.121 1211.08 708.393C1234.02 734.663 1245.69 762.502 1243.54 790.616C1241.4 818.731 1225.65 844.478 1198.98 866.966C1172.32 889.453 1134.75 908.675 1088.97 923.736C997.426 953.856 873.094 967.325 737.677 956.998C602.261 946.67 481.409 914.503 395.488 870.847C352.527 849.019 318.304 824.322 295.359 798.051C272.414 771.78 260.751 743.942 262.895 715.827C265.039 687.713 280.789 661.965 307.452 639.478C334.116 616.99 371.689 597.768 417.463 582.708C509.01 552.587 633.342 539.118 768.759 549.446Z" stroke="url(#paint59_linear_1047_13466)" stroke-width="0.2"/>
<path d="M772.314 549.744C907.53 562.434 1027.8 596.705 1112.95 641.854C1155.52 664.428 1189.31 689.719 1211.79 716.387C1234.27 743.054 1245.45 771.091 1242.81 799.164C1240.18 827.237 1223.98 852.706 1196.93 874.724C1169.88 896.743 1131.98 915.307 1085.95 929.566C993.888 958.084 869.34 969.381 734.124 956.692C598.909 944.002 478.637 909.731 393.491 864.582C350.917 842.008 317.13 816.717 294.647 790.05C272.164 763.382 260.989 735.345 263.624 707.272C266.258 679.199 282.454 653.73 309.506 631.712C336.559 609.693 374.461 591.13 420.491 576.87C512.55 548.352 637.099 537.055 772.314 549.744Z" stroke="url(#paint60_linear_1047_13466)" stroke-width="0.2"/>
<path d="M775.862 550.114C910.836 565.161 1030.49 601.527 1114.84 648.154C1157.01 671.468 1190.35 697.345 1212.36 724.401C1234.38 751.456 1245.06 779.684 1241.94 807.707C1238.81 835.73 1222.18 860.912 1194.74 882.455C1167.31 903.999 1129.09 921.897 1082.82 935.351C990.276 962.259 865.549 971.38 730.576 956.333C595.602 941.286 475.946 904.92 391.601 858.293C349.429 834.979 316.088 809.102 294.074 782.046C272.059 754.99 261.376 726.762 264.5 698.74C267.624 670.717 284.262 645.535 311.694 623.992C339.126 602.448 377.347 584.549 423.619 571.096C516.162 544.188 640.888 535.067 775.862 550.114Z" stroke="url(#paint61_linear_1047_13466)" stroke-width="0.2"/>
<path d="M779.403 550.536C914.094 567.937 1033.1 606.385 1116.61 654.477C1158.37 678.523 1191.26 704.978 1212.8 732.414C1234.34 759.85 1244.53 788.26 1240.91 816.224C1237.3 844.188 1220.22 869.076 1192.42 890.137C1164.62 911.198 1126.09 928.428 1079.59 941.072C986.592 966.36 861.725 973.303 727.034 955.903C592.344 938.502 473.341 900.054 389.823 851.961C348.063 827.915 315.179 801.461 293.64 774.024C272.102 746.589 261.912 718.178 265.525 690.215C269.138 662.251 286.213 637.363 314.016 616.302C341.821 595.24 380.348 578.011 426.848 565.367C519.846 540.079 644.713 533.135 779.403 550.536Z" stroke="url(#paint62_linear_1047_13466)" stroke-width="0.2"/>
<path d="M782.936 551.023C917.302 570.772 1035.62 611.291 1118.28 660.834C1159.62 685.605 1192.03 712.63 1213.09 740.438C1234.15 768.245 1243.84 796.829 1239.74 824.725C1235.64 852.622 1218.13 877.208 1189.96 897.781C1161.8 918.354 1122.97 934.908 1076.26 946.739C982.836 970.4 857.867 975.163 723.501 955.414C589.134 935.666 470.821 895.146 388.154 845.604C346.821 820.832 314.404 793.808 293.347 766C272.29 738.193 262.598 709.609 266.698 681.712C270.799 653.816 288.305 629.23 316.473 608.657C344.64 588.084 383.462 571.53 430.175 559.699C523.601 536.038 648.57 531.275 782.936 551.023Z" stroke="url(#paint63_linear_1047_13466)" stroke-width="0.2"/>
<path d="M786.461 551.573C920.462 573.664 1038.05 616.242 1119.84 667.219C1160.73 692.708 1192.67 720.295 1213.24 748.466C1233.81 776.636 1243 805.385 1238.42 833.206C1233.83 861.026 1215.9 885.303 1187.38 905.381C1158.85 925.459 1119.75 941.334 1072.84 952.347C979.011 974.375 853.978 976.956 719.977 954.865C585.976 932.775 468.387 890.196 386.598 839.219C345.703 813.73 313.763 786.143 293.195 757.972C272.626 729.802 263.435 701.053 268.021 673.233C272.607 645.412 290.541 621.135 319.063 601.057C347.585 580.979 386.69 565.105 433.602 554.091C527.427 532.064 652.46 529.483 786.461 551.573Z" stroke="url(#paint64_linear_1047_13466)" stroke-width="0.2"/>
<path d="M789.975 552.182C923.57 576.608 1040.4 621.232 1121.28 673.629C1161.73 699.828 1193.18 727.967 1213.26 756.493C1233.33 785.019 1242.02 813.923 1236.95 841.66C1231.88 869.396 1213.52 893.356 1184.65 912.933C1155.78 932.511 1116.41 947.7 1069.31 957.893C975.117 978.28 850.058 978.678 716.462 954.252C582.867 929.827 466.04 885.203 385.153 832.805C344.709 806.607 313.255 778.467 293.181 749.941C273.108 721.416 264.42 692.511 269.491 664.775C274.562 637.039 292.916 613.078 321.784 593.501C350.653 573.924 390.029 558.735 437.126 548.541C531.321 528.155 656.38 527.756 789.975 552.182Z" stroke="url(#paint65_linear_1047_13466)" stroke-width="0.2"/>
<path d="M793.477 552.856C926.626 579.609 1042.66 626.265 1122.62 680.066C1162.6 706.967 1193.56 735.651 1213.13 764.523C1232.7 793.394 1240.88 822.446 1235.33 850.09C1229.77 877.733 1211 901.37 1181.8 920.44C1152.59 939.511 1112.96 954.01 1065.69 963.38C971.154 982.119 846.108 980.335 712.959 953.582C579.81 926.828 463.78 880.172 383.819 826.371C343.839 799.47 312.881 770.786 293.308 741.915C273.736 713.043 265.553 683.991 271.107 656.348C276.662 628.704 295.431 605.068 324.637 585.997C353.842 566.927 393.478 552.427 440.746 543.057C535.282 524.318 660.329 526.102 793.477 552.856Z" stroke="url(#paint66_linear_1047_13466)" stroke-width="0.2"/>
<path d="M796.968 553.59C929.63 582.664 1044.83 631.338 1123.84 686.526C1163.34 714.12 1193.8 743.34 1212.86 772.549C1231.93 801.758 1239.6 830.948 1233.57 858.49C1227.53 886.033 1208.35 909.338 1178.82 927.896C1149.28 946.454 1109.4 960.26 1061.98 968.803C967.127 985.89 842.13 981.924 709.469 952.85C576.807 923.777 461.608 875.103 382.599 819.915C343.095 792.32 312.642 763.1 293.576 733.891C274.51 704.683 266.836 675.493 272.872 647.95C278.908 620.408 298.087 597.102 327.621 578.545C357.155 559.987 397.037 546.181 444.462 537.638C539.31 520.551 664.307 524.517 796.968 553.59Z" stroke="url(#paint67_linear_1047_13466)" stroke-width="0.2"/>
<path d="M800.446 554.383C932.579 585.768 1046.91 636.445 1124.95 693.003C1163.96 721.283 1193.9 751.03 1212.45 780.567C1231.01 810.104 1238.17 839.424 1231.65 866.857C1225.14 894.29 1205.56 917.257 1175.7 935.296C1145.85 953.336 1105.73 966.443 1058.17 974.158C963.034 989.587 838.125 983.44 705.991 952.055C573.857 920.671 459.526 869.994 381.492 813.435C342.475 785.156 312.536 755.409 293.983 725.872C275.43 696.335 268.266 667.015 274.782 639.582C281.298 612.149 300.881 589.182 330.734 571.143C360.588 553.103 400.705 539.995 448.271 532.281C543.403 516.852 668.312 522.999 800.446 554.383Z" stroke="url(#paint68_linear_1047_13466)" stroke-width="0.2"/>
<path d="M803.91 555.24C935.475 588.925 1048.91 641.59 1125.94 699.502C1164.46 728.458 1193.87 758.723 1211.91 788.58C1229.94 818.436 1236.59 847.876 1229.6 875.191C1222.61 902.506 1202.63 925.128 1172.46 942.643C1142.3 960.159 1101.96 972.565 1054.26 979.448C958.877 993.214 834.095 984.888 702.529 951.203C570.963 917.517 457.533 864.853 380.498 806.94C341.981 777.984 312.566 747.719 294.531 717.863C276.497 688.007 269.846 658.566 276.839 631.251C283.833 603.936 303.814 581.314 333.977 563.799C364.141 546.283 404.481 533.877 452.174 526.994C547.561 513.228 672.344 521.554 803.91 555.24Z" stroke="url(#paint69_linear_1047_13466)" stroke-width="0.2"/>
<path d="M807.356 556.156C938.314 592.132 1050.81 646.769 1126.82 706.016C1164.83 735.64 1193.71 766.414 1211.22 796.581C1228.73 826.747 1234.87 856.299 1227.4 883.488C1219.93 910.677 1199.56 932.946 1169.09 949.933C1138.63 966.92 1098.08 978.619 1050.27 984.669C954.656 996.768 830.038 986.266 699.08 950.289C568.122 914.313 455.629 859.677 379.616 800.429C341.61 770.805 312.728 740.031 295.217 709.864C277.706 679.698 271.57 650.146 279.039 622.957C286.508 595.768 306.881 573.499 337.345 556.512C367.81 539.525 408.36 527.826 456.167 521.776C551.78 509.677 676.398 520.179 807.356 556.156Z" stroke="url(#paint70_linear_1047_13466)" stroke-width="0.2"/>
<path d="M810.787 557.129C941.097 595.386 1052.62 651.977 1127.59 712.542C1165.07 742.825 1193.41 774.098 1210.39 804.566C1227.37 835.033 1232.99 864.688 1225.05 891.742C1217.11 918.796 1196.35 940.707 1165.59 957.159C1134.84 973.612 1094.09 984.602 1046.18 989.816C950.376 1000.25 825.96 987.569 695.65 949.313C565.34 911.056 453.817 854.465 378.85 793.9C341.366 763.617 313.026 732.344 296.044 701.876C279.062 671.409 273.443 641.754 281.385 614.7C289.328 587.645 310.086 565.735 340.842 549.283C371.599 532.83 412.347 521.84 460.252 516.625C556.062 506.197 680.477 518.873 810.787 557.129Z" stroke="url(#paint71_linear_1047_13466)" stroke-width="0.2"/>
<path d="M814.201 558.164C943.824 598.689 1054.34 657.218 1128.24 719.082C1165.19 750.015 1192.98 781.778 1209.43 812.537C1225.88 843.296 1230.98 873.044 1222.56 899.956C1214.15 926.867 1193.01 948.412 1161.97 964.325C1130.93 980.239 1090 990.516 1042.01 994.893C946.035 1003.65 821.859 988.803 692.237 948.278C562.614 907.753 452.096 849.225 378.197 787.36C341.248 756.428 313.458 724.665 297.01 693.905C280.563 663.146 275.462 633.398 283.875 606.487C292.289 579.575 313.426 558.03 344.465 542.117C375.504 526.204 416.438 515.926 464.426 511.549C560.403 502.794 684.579 517.639 814.201 558.164Z" stroke="url(#paint72_linear_1047_13466)" stroke-width="0.2"/>
<path d="M817.595 559.257C946.491 602.038 1055.97 662.487 1128.78 725.632C1165.18 757.204 1192.41 789.448 1208.32 820.489C1224.23 851.531 1228.81 881.363 1219.93 908.124C1211.05 934.885 1189.54 956.057 1158.23 971.426C1126.91 986.796 1085.81 996.357 1037.75 999.896C941.634 1006.97 817.737 989.965 688.841 947.184C559.945 904.403 450.465 843.954 377.658 780.809C341.254 749.237 314.022 716.994 298.114 685.952C282.206 654.91 277.625 625.078 286.507 598.317C295.388 571.556 316.899 550.384 348.21 535.015C379.523 519.646 420.629 510.084 468.687 506.545C564.802 499.466 688.7 516.476 817.595 559.257Z" stroke="url(#paint73_linear_1047_13466)" stroke-width="0.2"/>
<path d="M820.971 560.406C949.1 605.43 1057.51 667.78 1129.2 732.186C1165.05 764.389 1191.72 797.103 1207.08 828.417C1222.44 859.732 1226.5 889.64 1217.16 916.241C1207.81 942.843 1185.93 963.637 1154.36 978.457C1122.78 993.278 1081.51 1002.12 1033.4 1004.82C937.177 1010.22 813.595 991.05 685.466 946.026C557.337 901.002 448.928 838.652 377.234 774.246C341.386 742.043 314.721 709.33 299.357 678.015C283.994 646.701 279.934 616.793 289.281 590.191C298.629 563.59 320.505 542.795 352.081 527.975C383.656 513.155 424.924 504.313 473.036 501.612C569.26 496.212 692.841 515.382 820.971 560.406Z" stroke="url(#paint74_linear_1047_13466)" stroke-width="0.2"/>
<path d="M824.326 561.623C951.65 608.876 1058.95 673.109 1129.51 738.756C1164.79 771.58 1190.88 804.754 1205.7 836.332C1220.51 867.909 1224.05 897.884 1214.24 924.318C1204.43 950.753 1182.19 971.162 1150.36 985.428C1118.54 999.695 1077.12 1007.82 1028.97 1009.68C932.664 1013.4 809.436 992.073 682.112 944.819C554.788 897.566 447.484 833.333 376.924 767.686C341.645 734.862 315.555 701.688 300.739 670.11C285.924 638.533 282.387 608.558 292.198 582.124C302.008 555.69 324.244 535.28 356.073 521.014C387.903 506.747 429.318 498.626 477.47 496.766C573.774 493.046 697.002 514.369 824.326 561.623Z" stroke="url(#paint75_linear_1047_13466)" stroke-width="0.2"/>
<path d="M827.658 562.888C954.139 612.357 1060.3 678.452 1129.71 745.321C1164.41 778.755 1189.92 812.38 1204.18 844.211C1218.44 876.043 1221.45 906.074 1211.18 932.333C1200.91 958.593 1178.32 978.61 1146.25 992.32C1114.18 1006.03 1072.63 1013.43 1024.45 1014.45C928.095 1016.48 805.258 993.013 678.778 943.545C552.298 894.076 446.132 827.981 376.729 761.112C342.027 727.678 316.52 694.053 302.258 662.222C287.997 630.39 284.983 600.359 295.253 574.1C305.524 547.84 328.112 527.822 360.186 514.113C392.259 500.404 433.81 493.007 481.987 491.988C578.341 489.949 701.178 513.42 827.658 562.888Z" stroke="url(#paint76_linear_1047_13466)" stroke-width="0.2"/>
<path d="M830.97 564.223C956.568 615.891 1061.56 683.83 1129.79 751.899C1163.9 785.934 1188.82 819.999 1202.52 852.075C1216.23 884.15 1218.72 914.229 1207.99 940.305C1197.26 966.381 1174.33 986.002 1142.02 999.149C1109.71 1012.3 1068.04 1018.97 1019.85 1019.15C923.475 1019.5 801.066 993.891 675.469 942.223C549.872 890.555 444.875 822.617 376.65 754.547C342.537 720.512 317.62 686.448 303.916 654.372C290.212 622.296 287.723 592.217 298.45 566.141C309.177 540.065 332.112 520.444 364.42 507.297C396.728 494.149 438.401 487.479 486.589 487.301C582.964 486.944 705.373 512.555 830.97 564.223Z" stroke="url(#paint77_linear_1047_13466)" stroke-width="0.2"/>
<path d="M834.256 565.608C958.933 619.46 1062.73 689.221 1129.75 758.471C1163.27 793.096 1187.59 827.59 1200.73 859.9C1213.87 892.21 1215.83 922.328 1204.65 948.213C1193.47 974.098 1170.2 993.315 1137.67 1005.9C1105.13 1018.48 1063.35 1024.42 1015.17 1023.76C918.802 1022.43 796.858 994.689 672.182 940.837C547.505 886.985 443.71 817.224 376.683 747.974C343.169 713.349 318.851 678.855 305.709 646.545C292.567 614.235 290.603 584.117 301.784 558.232C312.964 532.347 336.238 513.13 368.77 500.548C401.303 487.967 443.086 482.025 491.27 482.687C587.636 484.012 709.579 511.756 834.256 565.608Z" stroke="url(#paint78_linear_1047_13466)" stroke-width="0.2"/>
<path d="M837.518 567.048C961.236 623.068 1063.8 694.63 1129.61 765.039C1162.51 800.244 1186.22 835.157 1198.8 867.691C1211.37 900.226 1212.81 930.374 1201.18 956.059C1189.55 981.745 1165.95 1000.55 1133.2 1012.57C1100.45 1024.58 1058.57 1029.79 1010.41 1028.29C914.078 1025.28 792.637 995.411 668.92 939.391C545.202 883.371 442.64 811.81 376.832 741.401C343.928 706.196 320.215 671.283 307.639 638.748C295.063 606.214 293.625 576.066 305.256 550.38C316.886 524.695 340.492 505.886 373.239 493.875C405.986 481.863 447.867 476.65 496.031 478.154C592.36 481.161 713.8 511.028 837.518 567.048Z" stroke="url(#paint79_linear_1047_13466)" stroke-width="0.2"/>
<path d="M840.754 568.548C963.475 626.718 1064.77 700.059 1129.34 771.606C1161.63 807.38 1184.73 842.701 1196.73 875.45C1208.74 908.199 1209.65 938.368 1197.57 963.846C1185.5 989.325 1161.57 1007.72 1128.61 1019.16C1095.66 1030.6 1053.7 1035.08 1005.57 1032.73C909.305 1028.04 788.405 996.062 665.683 937.892C542.962 879.721 441.665 806.381 377.096 734.834C344.811 699.06 321.711 663.738 309.705 630.989C297.698 598.24 296.787 568.072 308.864 542.593C320.941 517.114 344.871 498.721 377.823 487.282C410.774 475.844 452.74 471.363 500.871 473.707C597.132 478.395 718.033 510.377 840.754 568.548Z" stroke="url(#paint80_linear_1047_13466)" stroke-width="0.2"/>
<path d="M843.964 570.104C965.651 630.407 1065.65 705.504 1128.96 778.167C1160.62 814.499 1183.1 850.218 1194.53 883.172C1205.97 916.125 1206.35 946.305 1193.83 971.569C1181.31 996.833 1157.06 1014.81 1123.92 1025.67C1090.77 1036.53 1048.73 1040.28 1000.65 1037.09C904.485 1030.73 784.161 996.639 662.474 936.336C540.786 876.032 440.785 800.935 377.474 728.272C345.818 691.94 323.339 656.221 311.906 623.267C300.473 590.314 300.088 560.134 312.608 534.87C325.128 509.606 349.375 491.633 382.521 480.771C415.667 469.909 457.705 466.162 505.788 469.346C601.952 475.712 722.277 509.8 843.964 570.104Z" stroke="url(#paint81_linear_1047_13466)" stroke-width="0.2"/>
<path d="M847.146 571.712C967.763 634.13 1066.44 710.961 1128.47 784.718C1159.49 821.597 1181.34 857.703 1192.2 890.851C1203.05 923.999 1202.91 954.181 1189.95 979.223C1176.99 1004.26 1152.44 1021.81 1119.11 1032.09C1085.77 1042.37 1043.68 1045.39 995.658 1041.37C899.619 1033.32 779.908 997.139 659.292 934.721C538.676 872.303 440 795.472 377.967 721.715C346.95 684.836 325.097 648.73 314.241 615.582C303.385 582.434 303.527 552.252 316.486 527.211C329.445 502.169 354.002 484.622 387.333 474.34C420.664 464.059 462.76 461.045 510.78 465.068C606.819 473.112 726.53 509.294 847.146 571.712Z" stroke="url(#paint82_linear_1047_13466)" stroke-width="0.2"/>
<path d="M850.299 573.378C969.808 637.892 1067.13 716.433 1127.86 791.261C1158.23 828.676 1179.45 865.158 1189.73 898.491C1200 931.823 1199.34 961.998 1185.94 986.809C1172.55 1011.62 1147.69 1028.74 1114.18 1038.44C1080.68 1048.13 1038.53 1050.41 990.592 1045.55C894.708 1035.83 775.647 997.567 656.138 933.053C536.63 868.54 439.31 789.998 378.573 715.17C348.205 677.756 326.986 641.274 316.71 607.941C306.434 574.609 307.102 544.434 320.496 519.622C333.89 494.81 358.75 477.694 392.255 467.996C425.76 458.298 467.903 456.02 515.845 460.879C611.729 470.598 730.791 508.865 850.299 573.378Z" stroke="url(#paint83_linear_1047_13466)" stroke-width="0.2"/>
<path d="M853.423 575.106C971.788 641.695 1067.72 721.923 1127.14 797.8C1156.85 835.739 1177.43 872.586 1187.13 906.093C1196.82 939.599 1195.62 969.758 1181.8 994.332C1167.97 1018.91 1142.82 1035.59 1109.15 1044.7C1075.48 1053.81 1033.3 1055.35 985.454 1049.66C889.755 1038.27 771.379 997.927 653.015 931.338C534.65 864.748 438.716 784.52 379.295 708.643C349.584 670.705 329.005 633.858 319.312 600.351C309.619 566.845 310.814 536.686 324.639 512.112C338.464 487.537 363.619 470.858 397.288 461.746C430.958 452.634 473.134 451.092 520.984 456.787C616.684 468.178 735.059 508.517 853.423 575.106Z" stroke="url(#paint84_linear_1047_13466)" stroke-width="0.2"/>
<path d="M856.516 576.877C973.7 645.522 1068.22 727.412 1126.31 804.314C1155.35 842.766 1175.29 879.966 1184.39 913.637C1193.5 947.307 1191.78 977.441 1177.53 1001.77C1163.27 1026.1 1137.83 1042.34 1104.01 1050.86C1070.18 1059.38 1027.99 1060.19 980.245 1053.66C884.759 1040.6 767.105 998.202 649.921 929.557C532.737 860.911 438.217 779.022 380.129 702.119C351.085 663.668 331.152 626.467 322.045 592.796C312.939 559.126 314.66 528.993 328.912 504.663C343.164 480.334 368.606 464.096 402.429 455.573C436.252 447.05 478.449 446.244 526.192 452.774C621.678 465.834 739.332 508.232 856.516 576.877Z" stroke="url(#paint85_linear_1047_13466)" stroke-width="0.2"/>
<path d="M859.579 578.71C975.547 649.39 1068.62 732.917 1125.36 810.822C1153.73 849.774 1173.01 887.317 1181.53 921.142C1190.04 954.966 1187.8 985.064 1173.12 1009.14C1158.45 1033.22 1132.73 1049.01 1098.76 1056.94C1064.79 1064.87 1022.59 1064.94 974.968 1057.58C879.724 1042.86 762.828 998.411 646.86 927.731C530.891 857.051 437.815 773.524 381.078 695.62C352.71 656.667 333.429 619.125 324.912 585.3C316.394 551.475 318.641 521.377 333.315 497.3C347.989 473.223 373.711 457.432 407.678 449.501C441.645 441.569 483.849 441.5 531.471 448.862C626.715 463.586 743.61 508.031 859.579 578.71Z" stroke="url(#paint86_linear_1047_13466)" stroke-width="0.2"/>
<path d="M862.607 580.588C977.324 653.281 1068.93 738.42 1124.3 817.303C1151.98 856.744 1170.6 894.618 1178.53 928.586C1186.46 962.554 1183.68 992.608 1168.59 1016.43C1153.5 1040.24 1127.51 1055.58 1093.41 1062.92C1059.31 1070.26 1017.11 1069.59 969.621 1061.4C874.648 1045.01 758.546 998.536 643.829 925.843C529.112 853.15 437.508 768.011 382.139 689.129C354.455 649.687 335.832 611.814 327.906 577.845C319.98 543.877 322.752 513.823 337.844 490.006C352.936 466.189 378.93 450.849 413.029 443.511C447.13 436.174 489.329 436.841 536.815 445.033C631.787 461.417 747.889 507.895 862.607 580.588Z" stroke="url(#paint87_linear_1047_13466)" stroke-width="0.2"/>
<path d="M865.604 582.53C979.035 657.214 1069.14 743.938 1123.12 823.775C1150.11 863.694 1168.07 901.887 1175.41 935.988C1182.74 970.089 1179.44 1000.09 1163.94 1023.64C1148.43 1047.19 1122.17 1062.08 1087.95 1068.82C1053.73 1075.56 1011.55 1074.15 964.21 1065.13C869.538 1047.1 754.265 998.598 640.834 923.914C527.403 849.23 437.298 762.506 383.315 682.668C356.323 642.75 338.364 604.557 331.032 570.456C323.7 536.355 326.996 506.353 342.502 482.803C358.007 459.253 384.265 444.369 418.487 437.628C452.71 430.886 494.891 432.29 542.227 441.31C636.899 459.348 752.173 507.846 865.604 582.53Z" stroke="url(#paint88_linear_1047_13466)" stroke-width="0.2"/>
<path d="M868.565 584.517C980.676 661.169 1069.25 749.453 1121.83 830.22C1148.13 870.604 1165.42 909.104 1172.15 943.328C1178.89 977.552 1175.07 1007.49 1159.15 1030.77C1143.24 1054.04 1116.73 1068.47 1082.39 1074.61C1048.06 1080.75 1005.91 1078.61 958.734 1068.77C864.391 1049.08 749.982 998.578 637.872 921.926C525.761 845.274 437.184 756.99 384.602 676.223C358.311 635.839 341.022 597.339 334.286 563.115C327.55 528.891 331.37 498.951 347.284 475.675C363.198 452.4 389.711 437.976 424.046 431.833C458.381 425.69 500.531 427.83 547.703 437.674C642.046 457.363 756.455 507.865 868.565 584.517Z" stroke="url(#paint89_linear_1047_13466)" stroke-width="0.2"/>
<path d="M871.492 586.553C982.248 665.15 1069.27 754.966 1120.43 836.639C1146.02 877.475 1162.63 916.271 1168.77 950.608C1174.91 984.944 1170.57 1014.81 1154.25 1037.81C1137.93 1060.8 1111.17 1074.76 1076.73 1080.3C1042.29 1085.85 1000.19 1082.97 953.196 1072.3C859.211 1050.97 745.701 998.482 634.945 919.885C524.189 841.288 437.167 751.471 386.002 669.799C360.42 628.962 343.805 590.166 337.668 555.83C331.53 521.494 335.871 491.625 352.189 468.631C368.507 445.636 395.268 431.678 429.705 426.135C464.142 420.592 506.249 423.467 553.241 434.133C647.226 455.465 760.736 507.956 871.492 586.553Z" stroke="url(#paint90_linear_1047_13466)" stroke-width="0.2"/>
<path d="M874.384 588.643C983.751 669.161 1069.19 760.483 1118.92 843.036C1143.79 884.312 1159.72 923.393 1165.26 957.831C1170.8 992.269 1165.94 1022.06 1149.22 1044.76C1132.5 1067.47 1105.5 1080.96 1070.98 1085.9C1036.45 1090.84 994.397 1087.23 947.597 1075.75C853.999 1052.78 741.422 998.314 632.055 917.796C522.688 837.278 437.246 745.957 387.515 663.404C362.649 622.127 346.714 583.047 341.177 548.608C335.64 514.17 340.501 484.382 357.218 461.676C373.935 438.97 400.935 425.48 435.464 420.539C469.993 415.598 512.042 419.208 558.841 430.692C652.44 453.661 765.017 508.125 874.384 588.643Z" stroke="url(#paint91_linear_1047_13466)" stroke-width="0.2"/>
<path d="M877.237 590.784C985.182 673.199 1069.02 765.997 1117.3 849.405C1141.44 891.11 1156.69 930.462 1161.63 964.992C1166.56 999.521 1161.18 1029.22 1144.07 1051.63C1126.96 1074.04 1099.73 1087.06 1065.12 1091.4C1030.51 1095.73 988.53 1091.39 941.939 1079.09C848.755 1054.49 737.146 998.072 629.201 915.657C521.256 833.243 437.421 740.444 389.138 657.036C364.996 615.331 349.745 575.979 344.81 541.449C339.875 506.92 345.256 477.221 362.366 454.81C379.477 432.399 406.708 419.383 441.318 415.045C475.928 410.708 517.908 415.051 564.5 427.35C657.683 451.949 769.292 508.369 877.237 590.784Z" stroke="url(#paint92_linear_1047_13466)" stroke-width="0.2"/>
<path d="M880.053 592.972C986.543 677.258 1068.75 771.505 1115.57 855.744C1138.98 897.863 1153.54 937.476 1157.87 972.086C1162.2 1006.7 1156.3 1036.3 1138.8 1058.41C1121.31 1080.51 1093.85 1093.05 1059.17 1096.79C1024.49 1100.52 982.593 1095.44 936.223 1082.33C843.483 1056.11 732.875 997.753 626.385 913.467C519.895 829.181 437.692 734.933 390.872 650.695C367.462 608.576 352.9 568.963 348.568 534.353C344.236 499.742 350.135 470.142 367.634 448.033C385.133 425.924 412.587 413.385 447.267 409.652C481.948 405.919 523.845 410.994 570.216 424.105C662.955 450.326 773.563 508.686 880.053 592.972Z" stroke="url(#paint93_linear_1047_13466)" stroke-width="0.2"/>
<path d="M882.831 595.211C987.834 681.343 1068.38 777.011 1113.72 862.053C1136.39 904.575 1150.26 944.436 1153.99 979.116C1157.72 1013.8 1151.3 1043.29 1133.42 1065.09C1115.54 1086.89 1087.87 1098.95 1053.13 1102.08C1018.39 1105.2 976.585 1099.4 930.451 1085.48C838.183 1057.64 728.611 997.362 623.608 911.23C518.605 825.099 438.059 729.431 392.716 644.388C370.045 601.867 356.177 562.006 352.45 527.325C348.723 492.645 355.137 463.152 373.019 441.352C390.901 419.551 418.57 407.493 453.31 404.366C488.05 401.239 529.853 407.044 575.987 420.963C668.255 448.799 777.828 509.08 882.831 595.211Z" stroke="url(#paint94_linear_1047_13466)" stroke-width="0.2"/>
<path d="M885.569 597.499C989.053 685.45 1067.92 782.509 1111.77 868.33C1133.69 911.241 1146.86 951.337 1149.99 986.078C1153.11 1020.82 1146.18 1050.19 1127.92 1071.68C1109.66 1093.16 1081.78 1104.74 1046.99 1107.26C1012.2 1109.78 970.51 1103.24 924.625 1088.52C832.857 1059.08 724.354 996.897 620.87 908.946C517.386 820.995 438.522 723.936 394.671 638.115C372.745 595.204 359.575 555.107 356.453 520.367C353.332 485.626 360.26 456.25 378.52 434.765C396.78 413.28 424.655 401.707 459.444 399.187C494.234 396.667 535.929 403.2 581.813 417.921C673.581 447.364 782.085 509.548 885.569 597.499Z" stroke="url(#paint95_linear_1047_13466)" stroke-width="0.2"/>
<path d="M888.266 599.831C990.199 689.575 1067.36 787.995 1109.7 874.569C1130.88 917.855 1143.35 958.176 1145.86 992.966C1148.38 1027.76 1140.94 1057.01 1122.3 1078.17C1103.67 1099.33 1075.6 1110.42 1040.77 1112.33C1005.94 1114.24 964.368 1106.98 918.747 1091.46C827.507 1060.42 720.105 996.355 618.172 906.611C516.239 816.867 439.081 718.447 396.734 631.874C375.561 588.587 363.092 548.266 360.577 513.476C358.063 478.687 365.502 449.436 384.134 428.273C402.767 407.11 430.84 396.025 465.667 394.112C500.496 392.2 542.071 399.46 587.691 414.98C678.931 446.019 786.333 510.087 888.266 599.831Z" stroke="url(#paint96_linear_1047_13466)" stroke-width="0.2"/>
<path d="M890.922 602.213C991.274 693.722 1066.7 793.474 1107.53 880.773C1127.95 924.423 1139.71 964.954 1141.62 999.783C1143.52 1034.61 1135.57 1063.73 1116.58 1084.56C1097.58 1105.4 1069.32 1115.99 1034.46 1117.29C999.603 1118.6 958.161 1110.61 912.819 1094.3C822.134 1061.67 715.867 995.741 615.515 904.232C515.164 812.723 439.736 712.971 398.906 625.672C378.491 582.022 366.728 541.49 364.821 506.662C362.914 471.834 370.863 442.717 389.861 421.882C408.86 401.048 437.122 390.455 471.978 389.15C506.834 387.845 548.276 395.83 593.619 412.144C684.303 444.77 790.571 510.704 890.922 602.213Z" stroke="url(#paint97_linear_1047_13466)" stroke-width="0.2"/>
<path d="M893.537 604.632C992.276 697.878 1065.95 798.932 1105.25 886.93C1124.9 930.93 1135.96 971.661 1137.25 1006.52C1138.55 1041.37 1130.1 1070.35 1110.74 1090.85C1091.38 1111.35 1062.94 1121.44 1028.06 1122.14C993.189 1122.84 951.893 1114.13 906.842 1097.03C816.74 1062.82 711.64 995.045 612.901 901.799C514.162 808.552 440.486 707.499 401.186 619.501C381.536 575.501 370.482 534.77 369.183 499.914C367.884 465.058 376.34 436.084 395.7 415.584C415.059 395.085 443.502 384.986 478.375 384.29C513.249 383.594 554.545 392.301 599.596 409.403C689.697 443.608 794.798 511.386 893.537 604.632Z" stroke="url(#paint98_linear_1047_13466)" stroke-width="0.2"/>
<path d="M896.108 607.109C993.205 702.065 1065.11 804.389 1102.86 893.06C1121.74 937.395 1132.08 978.313 1132.78 1013.19C1133.47 1048.06 1124.51 1076.88 1104.79 1097.04C1085.08 1117.2 1056.46 1126.8 1021.58 1126.89C986.701 1126.97 945.563 1117.55 900.818 1099.66C811.327 1063.89 707.426 994.289 610.329 899.333C513.232 804.378 441.331 702.054 403.573 613.383C384.694 569.047 374.353 528.13 373.662 493.256C372.972 458.383 381.932 429.561 401.646 409.402C421.361 389.243 449.975 379.643 484.855 379.556C519.736 379.468 560.874 388.895 605.62 406.781C695.11 442.552 799.012 512.154 896.108 607.109Z" stroke="url(#paint99_linear_1047_13466)" stroke-width="0.2"/>
</g>
<defs>
<linearGradient id="paint0_linear_1047_13466" x1="851.104" y1="821.437" x2="652.759" y2="680.682" gradientUnits="userSpaceOnUse">
<stop stop-color="#FF1CF7"/>
<stop offset="1" stop-color="#00F0FF"/>
</linearGradient>
<linearGradient id="paint1_linear_1047_13466" x1="849.898" y1="823.131" x2="654.04" y2="678.936" gradientUnits="userSpaceOnUse">
<stop stop-color="#FF1CF7"/>
<stop offset="1" stop-color="#00F0FF"/>
</linearGradient>
<linearGradient id="paint2_linear_1047_13466" x1="848.663" y1="824.813" x2="655.351" y2="677.222" gradientUnits="userSpaceOnUse">
<stop stop-color="#FF1CF7"/>
<stop offset="1" stop-color="#00F0FF"/>
</linearGradient>
<linearGradient id="paint3_linear_1047_13466" x1="847.4" y1="826.466" x2="656.693" y2="675.523" gradientUnits="userSpaceOnUse">
<stop stop-color="#FF1CF7"/>
<stop offset="1" stop-color="#00F0FF"/>
</linearGradient>
<linearGradient id="paint4_linear_1047_13466" x1="846.108" y1="828.096" x2="658.064" y2="673.849" gradientUnits="userSpaceOnUse">
<stop stop-color="#FF1CF7"/>
<stop offset="1" stop-color="#00F0FF"/>
</linearGradient>
<linearGradient id="paint5_linear_1047_13466" x1="844.786" y1="829.703" x2="659.464" y2="672.197" gradientUnits="userSpaceOnUse">
<stop stop-color="#FF1CF7"/>
<stop offset="1" stop-color="#00F0FF"/>
</linearGradient>
<linearGradient id="paint6_linear_1047_13466" x1="843.437" y1="831.292" x2="660.892" y2="670.576" gradientUnits="userSpaceOnUse">
<stop stop-color="#FF1CF7"/>
<stop offset="1" stop-color="#00F0FF"/>
</linearGradient>
<linearGradient id="paint7_linear_1047_13466" x1="842.06" y1="832.855" x2="662.347" y2="668.978" gradientUnits="userSpaceOnUse">
<stop stop-color="#FF1CF7"/>
<stop offset="1" stop-color="#00F0FF"/>
</linearGradient>
<linearGradient id="paint8_linear_1047_13466" x1="840.657" y1="834.39" x2="663.831" y2="667.402" gradientUnits="userSpaceOnUse">
<stop stop-color="#FF1CF7"/>
<stop offset="1" stop-color="#00F0FF"/>
</linearGradient>
<linearGradient id="paint9_linear_1047_13466" x1="839.227" y1="835.904" x2="665.343" y2="665.855" gradientUnits="userSpaceOnUse">
<stop stop-color="#FF1CF7"/>
<stop offset="1" stop-color="#00F0FF"/>
</linearGradient>
<linearGradient id="paint10_linear_1047_13466" x1="837.771" y1="837.395" x2="666.881" y2="664.337" gradientUnits="userSpaceOnUse">
<stop stop-color="#FF1CF7"/>
<stop offset="1" stop-color="#00F0FF"/>
</linearGradient>
<linearGradient id="paint11_linear_1047_13466" x1="836.288" y1="838.861" x2="668.444" y2="662.847" gradientUnits="userSpaceOnUse">
<stop stop-color="#FF1CF7"/>
<stop offset="1" stop-color="#00F0FF"/>
</linearGradient>
<linearGradient id="paint12_linear_1047_13466" x1="834.782" y1="840.294" x2="670.036" y2="661.377" gradientUnits="userSpaceOnUse">
<stop stop-color="#FF1CF7"/>
<stop offset="1" stop-color="#00F0FF"/>
</linearGradient>
<linearGradient id="paint13_linear_1047_13466" x1="833.249" y1="841.706" x2="671.651" y2="659.942" gradientUnits="userSpaceOnUse">
<stop stop-color="#FF1CF7"/>
<stop offset="1" stop-color="#00F0FF"/>
</linearGradient>
<linearGradient id="paint14_linear_1047_13466" x1="831.694" y1="843.09" x2="673.292" y2="658.532" gradientUnits="userSpaceOnUse">
<stop stop-color="#FF1CF7"/>
<stop offset="1" stop-color="#00F0FF"/>
</linearGradient>
<linearGradient id="paint15_linear_1047_13466" x1="830.113" y1="844.442" x2="674.957" y2="657.148" gradientUnits="userSpaceOnUse">
<stop stop-color="#FF1CF7"/>
<stop offset="1" stop-color="#00F0FF"/>
</linearGradient>
<linearGradient id="paint16_linear_1047_13466" x1="828.509" y1="845.769" x2="676.645" y2="655.796" gradientUnits="userSpaceOnUse">
<stop stop-color="#FF1CF7"/>
<stop offset="1" stop-color="#00F0FF"/>
</linearGradient>
<linearGradient id="paint17_linear_1047_13466" x1="826.882" y1="847.07" x2="678.357" y2="654.476" gradientUnits="userSpaceOnUse">
<stop stop-color="#FF1CF7"/>
<stop offset="1" stop-color="#00F0FF"/>
</linearGradient>
<linearGradient id="paint18_linear_1047_13466" x1="825.233" y1="848.343" x2="680.091" y2="653.185" gradientUnits="userSpaceOnUse">
<stop stop-color="#FF1CF7"/>
<stop offset="1" stop-color="#00F0FF"/>
</linearGradient>
<linearGradient id="paint19_linear_1047_13466" x1="823.562" y1="849.585" x2="681.849" y2="651.924" gradientUnits="userSpaceOnUse">
<stop stop-color="#FF1CF7"/>
<stop offset="1" stop-color="#00F0FF"/>
</linearGradient>
<linearGradient id="paint20_linear_1047_13466" x1="821.869" y1="850.803" x2="683.627" y2="650.699" gradientUnits="userSpaceOnUse">
<stop stop-color="#FF1CF7"/>
<stop offset="1" stop-color="#00F0FF"/>
</linearGradient>
<linearGradient id="paint21_linear_1047_13466" x1="820.156" y1="851.979" x2="685.426" y2="649.493" gradientUnits="userSpaceOnUse">
<stop stop-color="#FF1CF7"/>
<stop offset="1" stop-color="#00F0FF"/>
</linearGradient>
<linearGradient id="paint22_linear_1047_13466" x1="818.422" y1="853.135" x2="687.247" y2="648.328" gradientUnits="userSpaceOnUse">
<stop stop-color="#FF1CF7"/>
<stop offset="1" stop-color="#00F0FF"/>
</linearGradient>
<linearGradient id="paint23_linear_1047_13466" x1="816.669" y1="854.261" x2="689.088" y2="647.196" gradientUnits="userSpaceOnUse">
<stop stop-color="#FF1CF7"/>
<stop offset="1" stop-color="#00F0FF"/>
</linearGradient>
<linearGradient id="paint24_linear_1047_13466" x1="814.896" y1="855.347" x2="690.949" y2="646.087" gradientUnits="userSpaceOnUse">
<stop stop-color="#FF1CF7"/>
<stop offset="1" stop-color="#00F0FF"/>
</linearGradient>
<linearGradient id="paint25_linear_1047_13466" x1="813.104" y1="856.407" x2="692.828" y2="645.016" gradientUnits="userSpaceOnUse">
<stop stop-color="#FF1CF7"/>
<stop offset="1" stop-color="#00F0FF"/>
</linearGradient>
<linearGradient id="paint26_linear_1047_13466" x1="811.294" y1="857.439" x2="694.725" y2="643.981" gradientUnits="userSpaceOnUse">
<stop stop-color="#FF1CF7"/>
<stop offset="1" stop-color="#00F0FF"/>
</linearGradient>
<linearGradient id="paint27_linear_1047_13466" x1="809.465" y1="858.44" x2="696.639" y2="642.981" gradientUnits="userSpaceOnUse">
<stop stop-color="#FF1CF7"/>
<stop offset="1" stop-color="#00F0FF"/>
</linearGradient>
<linearGradient id="paint28_linear_1047_13466" x1="807.621" y1="859.402" x2="698.573" y2="642.006" gradientUnits="userSpaceOnUse">
<stop stop-color="#FF1CF7"/>
<stop offset="1" stop-color="#00F0FF"/>
</linearGradient>
<linearGradient id="paint29_linear_1047_13466" x1="805.759" y1="860.336" x2="700.522" y2="641.07" gradientUnits="userSpaceOnUse">
<stop stop-color="#FF1CF7"/>
<stop offset="1" stop-color="#00F0FF"/>
</linearGradient>
<linearGradient id="paint30_linear_1047_13466" x1="803.882" y1="861.234" x2="702.487" y2="640.165" gradientUnits="userSpaceOnUse">
<stop stop-color="#FF1CF7"/>
<stop offset="1" stop-color="#00F0FF"/>
</linearGradient>
<linearGradient id="paint31_linear_1047_13466" x1="801.989" y1="862.101" x2="704.468" y2="639.296" gradientUnits="userSpaceOnUse">
<stop stop-color="#FF1CF7"/>
<stop offset="1" stop-color="#00F0FF"/>
</linearGradient>
<linearGradient id="paint32_linear_1047_13466" x1="800.081" y1="862.943" x2="706.464" y2="638.47" gradientUnits="userSpaceOnUse">
<stop stop-color="#FF1CF7"/>
<stop offset="1" stop-color="#00F0FF"/>
</linearGradient>
<linearGradient id="paint33_linear_1047_13466" x1="798.159" y1="863.741" x2="708.473" y2="637.668" gradientUnits="userSpaceOnUse">
<stop stop-color="#FF1CF7"/>
<stop offset="1" stop-color="#00F0FF"/>
</linearGradient>
<linearGradient id="paint34_linear_1047_13466" x1="796.223" y1="864.51" x2="710.497" y2="636.906" gradientUnits="userSpaceOnUse">
<stop stop-color="#FF1CF7"/>
<stop offset="1" stop-color="#00F0FF"/>
</linearGradient>
<linearGradient id="paint35_linear_1047_13466" x1="794.275" y1="865.238" x2="712.534" y2="636.173" gradientUnits="userSpaceOnUse">
<stop stop-color="#FF1CF7"/>
<stop offset="1" stop-color="#00F0FF"/>
</linearGradient>
<linearGradient id="paint36_linear_1047_13466" x1="792.314" y1="865.94" x2="714.583" y2="635.483" gradientUnits="userSpaceOnUse">
<stop stop-color="#FF1CF7"/>
<stop offset="1" stop-color="#00F0FF"/>
</linearGradient>
<linearGradient id="paint37_linear_1047_13466" x1="790.34" y1="866.605" x2="716.643" y2="634.826" gradientUnits="userSpaceOnUse">
<stop stop-color="#FF1CF7"/>
<stop offset="1" stop-color="#00F0FF"/>
</linearGradient>
<linearGradient id="paint38_linear_1047_13466" x1="788.356" y1="867.238" x2="718.715" y2="634.209" gradientUnits="userSpaceOnUse">
<stop stop-color="#FF1CF7"/>
<stop offset="1" stop-color="#00F0FF"/>
</linearGradient>
<linearGradient id="paint39_linear_1047_13466" x1="786.36" y1="867.83" x2="720.797" y2="633.621" gradientUnits="userSpaceOnUse">
<stop stop-color="#FF1CF7"/>
<stop offset="1" stop-color="#00F0FF"/>
</linearGradient>
<linearGradient id="paint40_linear_1047_13466" x1="784.356" y1="868.394" x2="722.89" y2="633.076" gradientUnits="userSpaceOnUse">
<stop stop-color="#FF1CF7"/>
<stop offset="1" stop-color="#00F0FF"/>
</linearGradient>
<linearGradient id="paint41_linear_1047_13466" x1="782.34" y1="868.919" x2="724.99" y2="632.565" gradientUnits="userSpaceOnUse">
<stop stop-color="#FF1CF7"/>
<stop offset="1" stop-color="#00F0FF"/>
</linearGradient>
<linearGradient id="paint42_linear_1047_13466" x1="780.317" y1="869.412" x2="727.101" y2="632.092" gradientUnits="userSpaceOnUse">
<stop stop-color="#FF1CF7"/>
<stop offset="1" stop-color="#00F0FF"/>
</linearGradient>
<linearGradient id="paint43_linear_1047_13466" x1="778.285" y1="869.868" x2="729.219" y2="631.656" gradientUnits="userSpaceOnUse">
<stop stop-color="#FF1CF7"/>
<stop offset="1" stop-color="#00F0FF"/>
</linearGradient>
<linearGradient id="paint44_linear_1047_13466" x1="776.245" y1="870.286" x2="731.343" y2="631.254" gradientUnits="userSpaceOnUse">
<stop stop-color="#FF1CF7"/>
<stop offset="1" stop-color="#00F0FF"/>
</linearGradient>
<linearGradient id="paint45_linear_1047_13466" x1="774.199" y1="870.672" x2="733.476" y2="630.893" gradientUnits="userSpaceOnUse">
<stop stop-color="#FF1CF7"/>
<stop offset="1" stop-color="#00F0FF"/>
</linearGradient>
<linearGradient id="paint46_linear_1047_13466" x1="772.146" y1="871.015" x2="735.614" y2="630.561" gradientUnits="userSpaceOnUse">
<stop stop-color="#FF1CF7"/>
<stop offset="1" stop-color="#00F0FF"/>
</linearGradient>
<linearGradient id="paint47_linear_1047_13466" x1="770.088" y1="871.328" x2="737.758" y2="630.273" gradientUnits="userSpaceOnUse">
<stop stop-color="#FF1CF7"/>
<stop offset="1" stop-color="#00F0FF"/>
</linearGradient>
<linearGradient id="paint48_linear_1047_13466" x1="768.023" y1="871.608" x2="739.905" y2="630.026" gradientUnits="userSpaceOnUse">
<stop stop-color="#FF1CF7"/>
<stop offset="1" stop-color="#00F0FF"/>
</linearGradient>
<linearGradient id="paint49_linear_1047_13466" x1="765.955" y1="871.845" x2="742.058" y2="629.809" gradientUnits="userSpaceOnUse">
<stop stop-color="#FF1CF7"/>
<stop offset="1" stop-color="#00F0FF"/>
</linearGradient>
<linearGradient id="paint50_linear_1047_13466" x1="763.883" y1="872.053" x2="744.213" y2="629.637" gradientUnits="userSpaceOnUse">
<stop stop-color="#FF1CF7"/>
<stop offset="1" stop-color="#00F0FF"/>
</linearGradient>
<linearGradient id="paint51_linear_1047_13466" x1="761.807" y1="872.221" x2="746.371" y2="629.498" gradientUnits="userSpaceOnUse">
<stop stop-color="#FF1CF7"/>
<stop offset="1" stop-color="#00F0FF"/>
</linearGradient>
<linearGradient id="paint52_linear_1047_13466" x1="759.729" y1="872.353" x2="748.532" y2="629.398" gradientUnits="userSpaceOnUse">
<stop stop-color="#FF1CF7"/>
<stop offset="1" stop-color="#00F0FF"/>
</linearGradient>
<linearGradient id="paint53_linear_1047_13466" x1="757.649" y1="872.449" x2="750.693" y2="629.335" gradientUnits="userSpaceOnUse">
<stop stop-color="#FF1CF7"/>
<stop offset="1" stop-color="#00F0FF"/>
</linearGradient>
<linearGradient id="paint54_linear_1047_13466" x1="755.567" y1="872.504" x2="752.856" y2="629.306" gradientUnits="userSpaceOnUse">
<stop stop-color="#FF1CF7"/>
<stop offset="1" stop-color="#00F0FF"/>
</linearGradient>
<linearGradient id="paint55_linear_1047_13466" x1="753.485" y1="872.532" x2="755.018" y2="629.324" gradientUnits="userSpaceOnUse">
<stop stop-color="#FF1CF7"/>
<stop offset="1" stop-color="#00F0FF"/>
</linearGradient>
<linearGradient id="paint56_linear_1047_13466" x1="751.402" y1="872.515" x2="757.18" y2="629.37" gradientUnits="userSpaceOnUse">
<stop stop-color="#FF1CF7"/>
<stop offset="1" stop-color="#00F0FF"/>
</linearGradient>
<linearGradient id="paint57_linear_1047_13466" x1="749.32" y1="872.465" x2="759.341" y2="629.459" gradientUnits="userSpaceOnUse">
<stop stop-color="#FF1CF7"/>
<stop offset="1" stop-color="#00F0FF"/>
</linearGradient>
<linearGradient id="paint58_linear_1047_13466" x1="747.241" y1="872.381" x2="761.5" y2="629.586" gradientUnits="userSpaceOnUse">
<stop stop-color="#FF1CF7"/>
<stop offset="1" stop-color="#00F0FF"/>
</linearGradient>
<linearGradient id="paint59_linear_1047_13466" x1="745.161" y1="872.258" x2="763.656" y2="629.75" gradientUnits="userSpaceOnUse">
<stop stop-color="#FF1CF7"/>
<stop offset="1" stop-color="#00F0FF"/>
</linearGradient>
<linearGradient id="paint60_linear_1047_13466" x1="743.086" y1="872.096" x2="765.81" y2="629.947" gradientUnits="userSpaceOnUse">
<stop stop-color="#FF1CF7"/>
<stop offset="1" stop-color="#00F0FF"/>
</linearGradient>
<linearGradient id="paint61_linear_1047_13466" x1="741.012" y1="871.906" x2="767.959" y2="630.191" gradientUnits="userSpaceOnUse">
<stop stop-color="#FF1CF7"/>
<stop offset="1" stop-color="#00F0FF"/>
</linearGradient>
<linearGradient id="paint62_linear_1047_13466" x1="738.943" y1="871.671" x2="770.104" y2="630.463" gradientUnits="userSpaceOnUse">
<stop stop-color="#FF1CF7"/>
<stop offset="1" stop-color="#00F0FF"/>
</linearGradient>
<linearGradient id="paint63_linear_1047_13466" x1="736.877" y1="871.404" x2="772.244" y2="630.776" gradientUnits="userSpaceOnUse">
<stop stop-color="#FF1CF7"/>
<stop offset="1" stop-color="#00F0FF"/>
</linearGradient>
<linearGradient id="paint64_linear_1047_13466" x1="734.818" y1="871.101" x2="774.378" y2="631.127" gradientUnits="userSpaceOnUse">
<stop stop-color="#FF1CF7"/>
<stop offset="1" stop-color="#00F0FF"/>
</linearGradient>
<linearGradient id="paint65_linear_1047_13466" x1="732.763" y1="870.76" x2="776.506" y2="631.513" gradientUnits="userSpaceOnUse">
<stop stop-color="#FF1CF7"/>
<stop offset="1" stop-color="#00F0FF"/>
</linearGradient>
<linearGradient id="paint66_linear_1047_13466" x1="730.714" y1="870.386" x2="778.626" y2="631.939" gradientUnits="userSpaceOnUse">
<stop stop-color="#FF1CF7"/>
<stop offset="1" stop-color="#00F0FF"/>
</linearGradient>
<linearGradient id="paint67_linear_1047_13466" x1="728.673" y1="869.977" x2="780.739" y2="632.403" gradientUnits="userSpaceOnUse">
<stop stop-color="#FF1CF7"/>
<stop offset="1" stop-color="#00F0FF"/>
</linearGradient>
<linearGradient id="paint68_linear_1047_13466" x1="726.639" y1="869.53" x2="782.843" y2="632.9" gradientUnits="userSpaceOnUse">
<stop stop-color="#FF1CF7"/>
<stop offset="1" stop-color="#00F0FF"/>
</linearGradient>
<linearGradient id="paint69_linear_1047_13466" x1="724.614" y1="869.05" x2="784.939" y2="633.437" gradientUnits="userSpaceOnUse">
<stop stop-color="#FF1CF7"/>
<stop offset="1" stop-color="#00F0FF"/>
</linearGradient>
<linearGradient id="paint70_linear_1047_13466" x1="722.596" y1="868.535" x2="787.024" y2="634.011" gradientUnits="userSpaceOnUse">
<stop stop-color="#FF1CF7"/>
<stop offset="1" stop-color="#00F0FF"/>
</linearGradient>
<linearGradient id="paint71_linear_1047_13466" x1="720.588" y1="867.981" x2="789.1" y2="634.617" gradientUnits="userSpaceOnUse">
<stop stop-color="#FF1CF7"/>
<stop offset="1" stop-color="#00F0FF"/>
</linearGradient>
<linearGradient id="paint72_linear_1047_13466" x1="718.591" y1="867.395" x2="791.164" y2="635.262" gradientUnits="userSpaceOnUse">
<stop stop-color="#FF1CF7"/>
<stop offset="1" stop-color="#00F0FF"/>
</linearGradient>
<linearGradient id="paint73_linear_1047_13466" x1="716.603" y1="866.772" x2="793.216" y2="635.941" gradientUnits="userSpaceOnUse">
<stop stop-color="#FF1CF7"/>
<stop offset="1" stop-color="#00F0FF"/>
</linearGradient>
<linearGradient id="paint74_linear_1047_13466" x1="714.627" y1="866.112" x2="795.257" y2="636.653" gradientUnits="userSpaceOnUse">
<stop stop-color="#FF1CF7"/>
<stop offset="1" stop-color="#00F0FF"/>
</linearGradient>
<linearGradient id="paint75_linear_1047_13466" x1="712.663" y1="865.426" x2="797.286" y2="637.409" gradientUnits="userSpaceOnUse">
<stop stop-color="#FF1CF7"/>
<stop offset="1" stop-color="#00F0FF"/>
</linearGradient>
<linearGradient id="paint76_linear_1047_13466" x1="710.71" y1="864.696" x2="799.3" y2="638.191" gradientUnits="userSpaceOnUse">
<stop stop-color="#FF1CF7"/>
<stop offset="1" stop-color="#00F0FF"/>
</linearGradient>
<linearGradient id="paint77_linear_1047_13466" x1="708.772" y1="863.944" x2="801.301" y2="639.02" gradientUnits="userSpaceOnUse">
<stop stop-color="#FF1CF7"/>
<stop offset="1" stop-color="#00F0FF"/>
</linearGradient>
<linearGradient id="paint78_linear_1047_13466" x1="706.846" y1="863.151" x2="803.286" y2="639.876" gradientUnits="userSpaceOnUse">
<stop stop-color="#FF1CF7"/>
<stop offset="1" stop-color="#00F0FF"/>
</linearGradient>
<linearGradient id="paint79_linear_1047_13466" x1="704.935" y1="862.322" x2="805.257" y2="640.764" gradientUnits="userSpaceOnUse">
<stop stop-color="#FF1CF7"/>
<stop offset="1" stop-color="#00F0FF"/>
</linearGradient>
<linearGradient id="paint80_linear_1047_13466" x1="703.038" y1="861.463" x2="807.212" y2="641.689" gradientUnits="userSpaceOnUse">
<stop stop-color="#FF1CF7"/>
<stop offset="1" stop-color="#00F0FF"/>
</linearGradient>
<linearGradient id="paint81_linear_1047_13466" x1="701.156" y1="860.57" x2="809.15" y2="642.649" gradientUnits="userSpaceOnUse">
<stop stop-color="#FF1CF7"/>
<stop offset="1" stop-color="#00F0FF"/>
</linearGradient>
<linearGradient id="paint82_linear_1047_13466" x1="699.291" y1="859.642" x2="811.071" y2="643.638" gradientUnits="userSpaceOnUse">
<stop stop-color="#FF1CF7"/>
<stop offset="1" stop-color="#00F0FF"/>
</linearGradient>
<linearGradient id="paint83_linear_1047_13466" x1="697.442" y1="858.684" x2="812.975" y2="644.664" gradientUnits="userSpaceOnUse">
<stop stop-color="#FF1CF7"/>
<stop offset="1" stop-color="#00F0FF"/>
</linearGradient>
<linearGradient id="paint84_linear_1047_13466" x1="695.61" y1="857.701" x2="814.861" y2="645.729" gradientUnits="userSpaceOnUse">
<stop stop-color="#FF1CF7"/>
<stop offset="1" stop-color="#00F0FF"/>
</linearGradient>
<linearGradient id="paint85_linear_1047_13466" x1="693.795" y1="856.674" x2="816.727" y2="646.816" gradientUnits="userSpaceOnUse">
<stop stop-color="#FF1CF7"/>
<stop offset="1" stop-color="#00F0FF"/>
</linearGradient>
<linearGradient id="paint86_linear_1047_13466" x1="691.999" y1="855.625" x2="818.575" y2="647.945" gradientUnits="userSpaceOnUse">
<stop stop-color="#FF1CF7"/>
<stop offset="1" stop-color="#00F0FF"/>
</linearGradient>
<linearGradient id="paint87_linear_1047_13466" x1="690.22" y1="854.536" x2="820.401" y2="649.097" gradientUnits="userSpaceOnUse">
<stop stop-color="#FF1CF7"/>
<stop offset="1" stop-color="#00F0FF"/>
</linearGradient>
<linearGradient id="paint88_linear_1047_13466" x1="688.462" y1="853.428" x2="822.208" y2="650.291" gradientUnits="userSpaceOnUse">
<stop stop-color="#FF1CF7"/>
<stop offset="1" stop-color="#00F0FF"/>
</linearGradient>
<linearGradient id="paint89_linear_1047_13466" x1="686.722" y1="852.282" x2="823.994" y2="651.51" gradientUnits="userSpaceOnUse">
<stop stop-color="#FF1CF7"/>
<stop offset="1" stop-color="#00F0FF"/>
</linearGradient>
<linearGradient id="paint90_linear_1047_13466" x1="685.004" y1="851.104" x2="825.758" y2="652.759" gradientUnits="userSpaceOnUse">
<stop stop-color="#FF1CF7"/>
<stop offset="1" stop-color="#00F0FF"/>
</linearGradient>
<linearGradient id="paint91_linear_1047_13466" x1="683.307" y1="849.899" x2="827.501" y2="654.041" gradientUnits="userSpaceOnUse">
<stop stop-color="#FF1CF7"/>
<stop offset="1" stop-color="#00F0FF"/>
</linearGradient>
<linearGradient id="paint92_linear_1047_13466" x1="681.63" y1="848.665" x2="829.221" y2="655.353" gradientUnits="userSpaceOnUse">
<stop stop-color="#FF1CF7"/>
<stop offset="1" stop-color="#00F0FF"/>
</linearGradient>
<linearGradient id="paint93_linear_1047_13466" x1="679.975" y1="847.4" x2="830.917" y2="656.693" gradientUnits="userSpaceOnUse">
<stop stop-color="#FF1CF7"/>
<stop offset="1" stop-color="#00F0FF"/>
</linearGradient>
<linearGradient id="paint94_linear_1047_13466" x1="678.343" y1="846.109" x2="832.59" y2="658.065" gradientUnits="userSpaceOnUse">
<stop stop-color="#FF1CF7"/>
<stop offset="1" stop-color="#00F0FF"/>
</linearGradient>
<linearGradient id="paint95_linear_1047_13466" x1="676.733" y1="844.789" x2="834.239" y2="659.467" gradientUnits="userSpaceOnUse">
<stop stop-color="#FF1CF7"/>
<stop offset="1" stop-color="#00F0FF"/>
</linearGradient>
<linearGradient id="paint96_linear_1047_13466" x1="675.146" y1="843.439" x2="835.862" y2="660.894" gradientUnits="userSpaceOnUse">
<stop stop-color="#FF1CF7"/>
<stop offset="1" stop-color="#00F0FF"/>
</linearGradient>
<linearGradient id="paint97_linear_1047_13466" x1="673.583" y1="842.064" x2="837.461" y2="662.351" gradientUnits="userSpaceOnUse">
<stop stop-color="#FF1CF7"/>
<stop offset="1" stop-color="#00F0FF"/>
</linearGradient>
<linearGradient id="paint98_linear_1047_13466" x1="672.045" y1="840.654" x2="839.034" y2="663.828" gradientUnits="userSpaceOnUse">
<stop stop-color="#FF1CF7"/>
<stop offset="1" stop-color="#00F0FF"/>
</linearGradient>
<linearGradient id="paint99_linear_1047_13466" x1="670.531" y1="839.23" x2="840.581" y2="665.346" gradientUnits="userSpaceOnUse">
<stop stop-color="#FF1CF7"/>
<stop offset="1" stop-color="#00F0FF"/>
</linearGradient>
</defs>
</svg>
