<svg width="16" height="16" viewBox="0 0 16 16" fill="none" xmlns="http://www.w3.org/2000/svg">
<path d="M7.9999 7.87589e-06C9.85145 -0.000521381 11.6459 0.641004 13.0775 1.81526C14.509 2.98952 15.4891 4.62385 15.8507 6.43975C16.2123 8.25565 15.933 10.1408 15.0605 11.7738C14.1879 13.4069 12.7761 14.6869 11.0656 15.3957C9.35509 16.1044 7.45172 16.1982 5.67984 15.6608C3.90797 15.1235 2.37724 13.9884 1.34849 12.449C0.319747 10.9095 -0.143352 9.06095 0.0381112 7.21831C0.219574 5.37567 1.03437 3.65297 2.34365 2.34376C3.08541 1.59952 3.96702 1.00931 4.93774 0.607078C5.90846 0.204844 6.94914 -0.00146925 7.9999 7.87589e-06ZM7.94912 9.65886L6.78376 12.8789C6.75511 12.9596 6.71063 13.0338 6.65295 13.097C6.59526 13.1603 6.52552 13.2114 6.44782 13.2474C6.3311 13.3021 6.20076 13.321 6.07332 13.3015C5.94588 13.2821 5.82708 13.2253 5.73197 13.1383C5.63686 13.0512 5.56972 12.9379 5.53907 12.8127C5.50842 12.6875 5.51564 12.556 5.5598 12.4349L6.3723 10.1849C6.43678 10.0156 6.48772 9.84144 6.52464 9.66407C6.55748 9.48399 6.58095 9.30232 6.59495 9.1198C6.6262 8.79037 6.64834 8.4336 6.66527 8.09115C6.68219 7.74871 6.69391 7.41668 6.70303 7.14194C6.71475 6.79949 6.6223 6.77735 6.34756 6.71225L6.29027 6.69923L3.94652 6.25782C3.86222 6.24295 3.78169 6.21161 3.70952 6.16558C3.63735 6.11956 3.57497 6.05975 3.52594 5.98959C3.45311 5.8833 3.41345 5.75779 3.41199 5.62895C3.41053 5.50011 3.44733 5.37373 3.51774 5.26582C3.58815 5.15791 3.68899 5.07331 3.80751 5.02275C3.92602 4.97219 4.05687 4.95793 4.1835 4.98178L6.70173 5.45444C6.80199 5.46355 6.89964 5.47527 7.00251 5.48699C7.3124 5.52945 7.62464 5.5525 7.9374 5.556C8.32673 5.5484 8.71535 5.51927 9.10146 5.46876C9.21865 5.45574 9.32933 5.44141 9.44001 5.431L11.8163 4.98569C11.9849 4.95073 12.1605 4.98397 12.3046 5.07813C12.376 5.12647 12.4371 5.18852 12.4844 5.26068C12.5316 5.33283 12.5641 5.41366 12.5798 5.49846C12.5956 5.58326 12.5943 5.67035 12.5761 5.75466C12.5579 5.83897 12.5232 5.91883 12.4739 5.98959C12.4255 6.0602 12.3637 6.12058 12.292 6.16727C12.2202 6.21397 12.14 6.24606 12.0559 6.26173L9.78506 6.68881C9.70954 6.70574 9.64183 6.71746 9.58193 6.72657C9.34495 6.76694 9.22777 6.78777 9.24209 7.12501C9.25251 7.3711 9.28245 7.66537 9.32152 7.97266C9.36709 8.33334 9.42698 8.71615 9.48948 9.06641C9.52985 9.29688 9.56761 9.48178 9.61969 9.65886C9.67178 9.83595 9.72256 10.0169 9.80068 10.2344L10.5963 12.4349C10.6404 12.556 10.6476 12.6875 10.617 12.8127C10.5863 12.9379 10.5192 13.0512 10.4241 13.1383C10.329 13.2253 10.2102 13.2821 10.0827 13.3015C9.95529 13.321 9.82495 13.3021 9.70823 13.2474C9.63053 13.2114 9.56079 13.1603 9.50311 13.097C9.44542 13.0338 9.40095 12.9596 9.3723 12.8789L8.20303 9.66537L8.07282 9.42709L7.94261 9.65886H7.94912ZM7.9999 2.69011C8.26591 2.68989 8.52377 2.78191 8.72954 2.95049C8.9353 3.11908 9.07625 3.3538 9.12835 3.61466C9.18045 3.87552 9.14049 4.14637 9.01527 4.38107C8.89005 4.61576 8.68732 4.79978 8.44164 4.90175C8.19595 5.00373 7.9225 5.01736 7.66789 4.94032C7.41328 4.86327 7.19326 4.70033 7.04533 4.47925C6.8974 4.25817 6.8307 3.99263 6.85661 3.72788C6.88251 3.46314 6.99942 3.21556 7.1874 3.02735C7.2939 2.92033 7.42051 2.83543 7.55996 2.77755C7.6994 2.71967 7.84892 2.68996 7.9999 2.69011ZM12.733 3.26694C11.6394 2.16967 10.1991 1.4856 8.65759 1.33131C7.1161 1.17703 5.56881 1.56207 4.27942 2.42082C2.99003 3.27957 2.03834 4.55889 1.58653 6.04073C1.13473 7.52257 1.21078 9.11524 1.80172 10.5473C2.39267 11.9793 3.46193 13.1622 4.82728 13.8941C6.19263 14.6261 7.76957 14.862 9.28934 14.5615C10.8091 14.2611 12.1777 13.4429 13.1617 12.2464C14.1458 11.0499 14.6846 9.5492 14.6861 8.00001C14.688 7.12137 14.5165 6.25099 14.1813 5.43878C13.8462 4.62657 13.354 3.88851 12.733 3.26694Z" fill="#1D4ED8"/>
</svg>
