<svg width="79" height="27" viewBox="0 0 79 27" fill="none" xmlns="http://www.w3.org/2000/svg">
<path d="M15.1278 15.9399C16.5835 15.9399 17.7635 14.7729 17.7635 13.3332C17.7635 11.8936 16.5835 10.7266 15.1278 10.7266C13.6722 10.7266 12.4922 11.8936 12.4922 13.3332C12.4922 14.7729 13.6722 15.9399 15.1278 15.9399Z" fill="#6B7280"/>
<path fill-rule="evenodd" clip-rule="evenodd" d="M15.1278 8.03906C18.6665 8.03906 21.9539 8.54126 24.4325 9.38519C27.419 10.402 29.2552 11.9433 29.2552 13.339C29.2552 14.7933 27.3092 16.4308 24.1021 17.4816C21.6775 18.2761 18.4869 18.6909 15.1278 18.6909C11.6838 18.6909 8.42247 18.3016 5.97056 17.4729C2.86844 16.4243 1 14.7656 1 13.339C1 11.9547 2.75317 10.4253 5.69763 9.40997C8.18553 8.55211 11.5541 8.03906 15.1273 8.03906H15.1278Z" stroke="#6B7280" stroke-width="1.66272"/>
<path fill-rule="evenodd" clip-rule="evenodd" d="M10.4628 10.7022C12.2306 7.67041 14.3127 5.10484 16.2902 3.40283C18.6728 1.35218 20.9401 0.549087 22.1625 1.24623C23.4364 1.97279 23.8984 4.45809 23.2168 7.73063C22.7019 10.2049 21.4707 13.1455 19.7926 16.0235C18.072 18.9742 16.1018 21.5738 14.1513 23.26C11.6831 25.3939 9.29684 26.1661 8.04724 25.4534C6.83468 24.7623 6.37099 22.4958 6.95268 19.4659C7.44417 16.9058 8.67758 13.7636 10.4622 10.7021L10.4628 10.7022Z" stroke="#6B7280" stroke-width="1.66272"/>
<path fill-rule="evenodd" clip-rule="evenodd" d="M10.4676 16.0342C8.69472 13.0058 7.48768 9.93992 6.98384 7.39554C6.37735 4.3299 6.80616 1.98599 8.02745 1.28681C9.30011 0.558125 11.7079 1.40341 14.2342 3.62189C16.1443 5.29916 18.1056 7.82219 19.7886 10.6974C21.5141 13.6453 22.8074 16.6318 23.3105 19.1452C23.9471 22.3258 23.4319 24.7561 22.1834 25.4708C20.9721 26.1644 18.7554 25.4301 16.3917 23.4184C14.3946 21.7188 12.258 19.0926 10.4676 16.0341V16.0342Z" stroke="#6B7280" stroke-width="1.66272"/>
<path fill-rule="evenodd" clip-rule="evenodd" d="M44.3846 19.9924L41.1541 15.1654C42.7868 15.0229 44.258 13.8529 44.258 11.7154C44.258 9.54044 42.6973 8.14844 40.508 8.14844H35.7002V19.9834H37.1896V15.2809H39.576L42.6261 19.9834L44.3846 19.9924ZM40.3298 13.9947H37.1903V9.46994H40.3298C41.7479 9.46994 42.7163 10.3924 42.7163 11.7237C42.7163 13.0549 41.7471 13.9962 40.3298 13.9962V13.9947ZM49.9288 20.2047C51.3469 20.2047 52.5124 19.7434 53.3739 18.8922L52.7278 18.0222C52.0453 18.7144 51.0413 19.1044 50.0547 19.1044C48.1892 19.1044 47.0403 17.7559 46.9326 16.1419H53.9472V15.8044C53.9472 13.2319 52.404 11.2084 49.784 11.2084C47.308 11.2084 45.5145 13.2139 45.5145 15.6979C45.5145 18.3777 47.3626 20.1979 49.928 20.1979L49.9288 20.2047ZM52.6209 15.1647H46.9334C47.0054 13.8522 47.9192 12.3072 49.768 12.3072C51.742 12.3072 52.6027 13.8867 52.6209 15.1647ZM62.8842 19.9917V14.1004C62.8842 12.0244 61.3599 11.2077 59.5293 11.2077C58.1112 11.2077 56.9995 11.6689 56.0668 12.6274L56.6947 13.5499C57.4659 12.7339 58.3099 12.3612 59.3503 12.3612C60.6061 12.3612 61.5396 13.0174 61.5396 14.1709V15.7144C60.8397 14.9157 59.8531 14.5429 58.6686 14.5429C57.1974 14.5429 55.6353 15.4482 55.6353 17.3644C55.6353 19.2274 57.1959 20.2039 58.6686 20.2039C59.8349 20.2039 60.8223 19.7959 61.5396 19.0152V19.9902L62.8842 19.9917ZM59.1532 19.2462C57.8974 19.2462 57.0177 18.4662 57.0177 17.3832C57.0177 16.2829 57.8974 15.5022 59.1532 15.5022C60.1041 15.5022 61.0187 15.8569 61.5396 16.5672V18.1819C61.0194 18.8914 60.1041 19.2462 59.1532 19.2462ZM69.3907 20.2047C70.9695 20.2047 71.9023 19.5657 72.5666 18.7144L71.6695 17.8984C71.0954 18.6612 70.3598 19.0159 69.4703 19.0159C67.6222 19.0159 66.4749 17.5962 66.4749 15.6979C66.4749 13.7997 67.623 12.3979 69.4703 12.3979C70.3674 12.3979 71.103 12.7354 71.6695 13.5154L72.5666 12.6994C71.903 11.8474 70.9695 11.2092 69.3907 11.2092C66.807 11.2092 65.0667 13.1614 65.0667 15.6987C65.0667 18.2539 66.807 20.1987 69.3907 20.1987V20.2047ZM76.6403 20.2047C77.429 20.2047 77.9143 19.9737 78.2556 19.6549L77.8613 18.6612C77.6815 18.8562 77.3304 19.0159 76.9459 19.0159C76.3544 19.0159 76.0663 18.5547 76.0663 17.9157V12.5922H77.8256V11.4214H76.0663V9.07919H74.7202V11.4214H73.2847V12.5929H74.7202V18.2007C74.7202 19.4787 75.3663 20.2062 76.6403 20.2062V20.2047Z" fill="#6B7280"/>
</svg>
