<svg width="504" height="414" viewBox="0 0 504 414" fill="none" xmlns="http://www.w3.org/2000/svg">
<path opacity="0.0526316" d="M-6.70277 97.0287C-29.7383 102.969 -76.6041 133.021 -79.7838 205.711C-83.7584 296.572 -20.3249 358.587 -10.0423 445.403C-2.45286 509.479 -16.5862 667.375 -98.1283 727.802" stroke="#2563EB"/>
<path opacity="0.105263" d="M35.5254 99.2372C11.9952 102.737 -37.7552 127.726 -48.5156 199.685C-61.9661 289.633 -5.36236 357.938 -4.21073 445.353C-3.36075 509.872 -33.9213 665.426 -121.333 716.999" stroke="#2563EB"/>
<path opacity="0.157895" d="M76.9312 104.838C53.1641 105.859 1.07406 125.51 -17.1491 195.95C-39.9281 284 9.22572 357.848 1.23366 444.904C-4.66507 509.159 -51.318 660.666 -143.642 702.819" stroke="#2563EB"/>
<path opacity="0.210526" d="M117.168 113.726C93.4242 112.257 39.5653 126.356 14.079 194.505C-17.7789 279.692 23.3865 358.273 6.3383 444.017C-6.24452 507.303 -68.4787 653.103 -164.703 685.375" stroke="#2563EB"/>
<path opacity="0.263158" d="M155.896 125.759C132.436 121.816 77.3983 130.208 44.928 195.32C4.34022 276.71 37.0662 359.164 11.1487 442.656C-7.9804 504.28 -85.1139 642.776 -184.184 664.813" stroke="#2563EB"/>
<path opacity="0.315789" d="M192.795 140.765C169.876 134.391 114.263 136.984 75.1641 198.346C26.2911 275.047 50.219 360.47 15.7161 440.796C-9.74957 500.082 -100.937 629.758 -201.768 641.318" stroke="#2563EB"/>
<path opacity="0.368421" d="M227.566 158.534C205.439 149.8 149.859 146.566 104.561 203.504C47.9379 274.676 62.8056 362.132 20.0954 438.412C-11.428 494.712 -115.671 614.145 -217.158 615.102" stroke="#2563EB"/>
<path opacity="0.421053" d="M259.93 178.83C238.837 167.831 183.9 158.805 132.898 210.696C69.1461 275.56 74.7908 364.091 24.3412 435.488C-12.8944 488.185 -129.051 596.067 -230.082 586.411" stroke="#2563EB"/>
<path opacity="0.473684" d="M289.637 201.389C269.809 188.245 216.116 173.526 159.97 219.801C89.7868 277.646 86.1465 366.282 28.5102 432.015C-14.0297 480.53 -140.826 575.68 -240.295 555.516" stroke="#2563EB"/>
<path opacity="0.526316" d="M316.465 225.917C298.12 210.772 246.26 190.521 185.584 230.674C109.739 280.866 96.8536 368.636 32.6621 427.984C-14.7161 471.787 -150.764 553.162 -247.58 522.711" stroke="#2563EB"/>
<path opacity="0.578947" d="M340.224 252.105C323.562 235.126 274.103 209.565 209.563 243.156C128.887 285.145 106.897 371.087 36.854 423.4C-14.8432 462.011 -158.652 528.719 -251.754 488.315" stroke="#2563EB"/>
<path opacity="0.631579" d="M360.756 279.623C345.96 260.995 299.444 230.405 231.746 257.065C147.123 290.391 116.271 373.564 41.1427 418.269C-14.3073 451.265 -164.301 502.575 -252.67 452.661" stroke="#2563EB"/>
<path opacity="0.684211" d="M377.941 308.125C365.174 288.053 322.11 252.767 251.996 272.206C164.353 296.503 124.976 375.996 45.5862 412.603C-13.009 439.621 -167.544 474.972 -250.212 416.094" stroke="#2563EB"/>
<path opacity="0.736842" d="M391.695 337.257C381.095 315.96 341.956 276.367 270.194 288.369C180.491 303.373 133.021 378.314 50.2397 406.422C-10.8587 427.168 -168.243 446.171 -244.303 378.975" stroke="#2563EB"/>
<path opacity="0.789474" d="M401.969 366.657C393.654 344.369 358.867 300.901 286.243 305.337C195.464 310.881 140.42 380.45 55.1544 399.751C-7.77784 413.996 -166.286 416.445 -234.906 341.666" stroke="#2563EB"/>
<path opacity="0.842105" d="M408.756 395.959C402.816 372.923 372.764 326.057 300.074 322.878C209.212 318.903 147.198 382.337 60.3822 392.619C-3.69438 400.209 -161.59 386.075 -222.017 304.533" stroke="#2563EB"/>
<path opacity="0.894737" d="M412.084 424.799C408.584 401.269 383.595 351.519 311.636 340.758C221.688 327.308 153.383 383.912 65.9675 385.063C1.44861 385.913 -154.105 355.353 -205.678 267.941" stroke="#2563EB"/>
<path opacity="0.947368" d="M412.021 452.818C411 429.051 391.348 376.961 320.908 358.738C232.859 335.959 159.011 385.113 71.9543 377.121C7.69996 371.222 -143.807 324.569 -185.96 232.246" stroke="#2563EB"/>
<path d="M408.67 479.668C410.139 455.924 396.04 402.066 327.891 376.579C242.704 344.721 164.123 385.887 78.379 368.839C15.0933 356.256 -130.707 294.022 -162.979 197.797" stroke="#2563EB"/>
</svg>
