<svg width="456" height="534" viewBox="0 0 456 534" fill="none" xmlns="http://www.w3.org/2000/svg">
<path opacity="0.0344828" d="M460.886 -7.28989C464.443 -4.76317 466.843 -0.718472 468.117 4.73899C469.392 10.2006 469.531 17.0462 468.584 25.1132C466.691 41.2467 460.471 62.1598 450.492 86.4264C430.538 134.952 395.6 196.783 350.401 260.408C305.203 324.033 258.322 377.38 219.071 412.198C199.442 429.609 181.743 442.368 167.132 449.467C159.826 453.016 153.316 455.139 147.739 455.733C142.167 456.327 137.557 455.392 134 452.865C130.444 450.339 128.043 446.294 126.769 440.836C125.494 435.375 125.355 428.529 126.302 420.462C128.195 404.329 134.415 383.416 144.394 359.149C164.348 310.623 199.287 248.792 244.485 185.167C289.683 121.542 336.565 68.195 375.816 33.3776C395.445 15.9662 413.144 3.20754 427.755 -3.89144C435.06 -7.44101 441.57 -9.56382 447.147 -10.1579C452.72 -10.7515 457.329 -9.81661 460.886 -7.28989Z" stroke="#2563EB"/>
<path opacity="0.0689655" d="M482.565 7.64977C485.888 10.4769 487.927 14.7154 488.72 20.2631C489.515 25.815 489.056 32.6468 487.41 40.6005C484.118 56.5076 476.099 76.799 464.043 100.104C439.935 146.705 399.741 205.256 349.169 264.7C298.598 324.144 247.245 373.202 205.109 404.466C184.037 420.1 165.293 431.267 150.119 437.066C142.532 439.965 135.862 441.513 130.255 441.618C124.652 441.724 120.141 440.391 116.818 437.564C113.495 434.737 111.456 430.498 110.663 424.951C109.869 419.399 110.327 412.567 111.973 404.613C115.265 388.706 123.284 368.415 135.34 345.11C159.448 298.508 199.642 239.958 250.214 180.514C300.785 121.07 352.138 72.0121 394.274 40.7482C415.346 25.1138 434.09 13.9463 449.264 8.14771C456.851 5.24837 463.521 3.701 469.128 3.59523C474.731 3.48956 479.242 4.82266 482.565 7.64977Z" stroke="#2563EB"/>
<path opacity="0.103448" d="M502.855 24.2246C505.919 27.3305 507.58 31.7306 507.887 37.3264C508.195 42.9264 507.142 49.6922 504.809 57.4722C500.144 73.0318 490.386 92.5471 476.345 114.712C448.268 159.036 403.123 213.86 347.563 268.67C292.003 323.48 236.57 367.876 191.87 395.348C169.516 409.087 149.87 418.578 134.248 423.032C126.437 425.259 119.658 426.219 114.062 425.836C108.471 425.453 104.094 423.732 101.03 420.626C97.9661 417.52 96.3046 413.12 95.9975 407.524C95.6902 401.924 96.7423 395.158 99.0753 387.378C103.741 371.819 113.499 352.303 127.539 330.138C155.617 285.815 200.762 230.99 256.321 176.18C311.881 121.37 367.314 76.9745 412.015 49.502C434.369 35.7636 454.015 26.2722 469.637 21.8182C477.448 19.5912 484.227 18.631 489.822 19.0144C495.413 19.3975 499.791 21.1186 502.855 24.2246Z" stroke="#2563EB"/>
<path opacity="0.137931" d="M521.614 42.3075C524.396 45.6687 525.667 50.1968 525.486 55.798C525.304 61.4035 523.666 68.0518 520.664 75.5989C514.659 90.6927 503.238 109.283 487.319 130.14C455.485 171.848 405.734 222.529 345.609 272.288C285.483 322.048 226.392 361.443 179.467 384.915C156.001 396.653 135.602 404.396 119.652 407.471C111.676 409.009 104.839 409.375 99.2985 408.505C93.762 407.636 89.5516 405.54 86.7699 402.179C83.9882 398.818 82.7165 394.29 82.8983 388.688C83.0803 383.083 84.7181 376.435 87.7203 368.888C93.7245 353.794 105.146 335.203 121.065 314.346C152.898 272.639 202.65 221.957 262.775 172.198C322.901 122.439 381.992 83.0436 428.917 59.5715C452.383 47.8336 472.782 40.0906 488.732 37.0151C496.708 35.4773 503.545 35.1117 509.085 35.9812C514.622 36.8502 518.832 38.9462 521.614 42.3075Z" stroke="#2563EB"/>
<path opacity="0.172414" d="M538.72 61.761C541.198 65.3519 542.07 69.9736 541.401 75.5377C540.731 81.106 538.52 87.5863 534.871 94.843C527.574 109.356 514.576 126.88 496.9 146.271C461.552 185.045 407.573 231.198 343.34 275.527C279.106 319.857 216.806 353.952 168.014 373.245C143.614 382.893 122.618 388.828 106.461 390.502C98.3817 391.339 91.5385 391.107 86.0948 389.758C80.6551 388.41 76.6434 385.955 74.1653 382.364C71.6871 378.773 70.8149 374.151 71.4842 368.587C72.154 363.019 74.365 356.539 78.0136 349.282C85.3104 334.769 98.3084 317.245 115.985 297.854C151.332 259.08 205.311 212.927 269.545 168.598C333.778 124.269 396.079 90.1732 444.871 70.8803C469.271 61.2323 490.266 55.2966 506.424 53.623C514.503 52.7861 521.346 53.0178 526.79 54.367C532.23 55.7151 536.241 58.1702 538.72 61.761Z" stroke="#2563EB"/>
<path opacity="0.206897" d="M554.057 82.4337C556.213 86.2269 556.679 90.907 555.527 96.3916C554.375 101.88 551.607 108.143 547.34 115.054C538.806 128.876 524.33 145.201 505.031 162.977C466.439 198.523 408.643 239.795 340.79 278.358C272.937 316.92 207.903 345.456 157.615 360.423C132.467 367.908 111.033 371.991 94.7914 372.25C86.6701 372.379 79.8732 371.552 74.5678 369.734C69.2663 367.917 65.4839 365.121 63.3281 361.328C61.1723 357.535 60.7063 352.855 61.858 347.37C63.0105 341.881 65.7779 335.619 70.0451 328.707C78.579 314.886 93.0549 298.561 112.354 280.785C150.946 245.239 208.743 203.966 276.595 165.404C344.448 126.842 409.482 98.3058 459.77 83.3388C484.918 75.8541 506.352 71.7709 522.594 71.5119C530.715 71.3824 537.512 72.2096 542.817 74.028C548.119 75.8451 551.901 78.6405 554.057 82.4337Z" stroke="#2563EB"/>
<path opacity="0.241379" d="M567.527 104.167C569.344 108.134 569.4 112.837 567.775 118.2C566.148 123.568 562.845 129.565 557.992 136.078C548.286 149.104 532.443 164.105 511.667 180.131C470.124 212.178 408.951 248.256 337.995 280.758C267.04 313.26 199.766 336.019 148.365 346.547C122.66 351.811 100.952 354.011 84.7496 352.853C76.648 352.274 69.949 350.858 64.8223 348.584C59.6993 346.312 56.1749 343.197 54.3579 339.231C52.541 335.264 52.4846 330.561 54.1099 325.198C55.7365 319.83 59.0392 313.832 63.8924 307.319C73.5986 294.294 89.4422 279.293 110.217 263.267C151.761 231.219 212.934 195.141 283.889 162.64C354.845 130.138 422.119 107.379 473.52 96.8513C499.225 91.5869 520.932 89.3873 537.135 90.5448C545.237 91.1236 551.936 92.5401 557.062 94.814C562.185 97.0863 565.71 100.201 567.527 104.167Z" stroke="#2563EB"/>
<path opacity="0.275862" d="M579.042 126.797C580.506 130.907 580.153 135.597 578.066 140.798C575.978 146.003 572.165 151.69 566.763 157.755C555.958 169.885 538.867 183.448 516.775 197.603C472.596 225.908 408.511 256.517 334.993 282.711C261.475 308.905 192.473 325.714 140.35 331.721C114.284 334.725 92.4679 335.025 76.4276 332.459C68.4072 331.177 61.8572 329.182 56.9482 326.47C52.0428 323.759 48.8032 320.35 47.3389 316.24C45.8745 312.13 46.2282 307.44 48.3148 302.239C50.403 297.033 54.2159 291.346 59.6183 285.281C70.4228 273.151 87.5135 259.588 109.606 245.434C153.785 217.129 217.87 186.52 291.388 160.326C364.906 134.132 433.908 117.323 486.031 111.315C512.096 108.311 533.913 108.012 549.953 110.577C557.974 111.86 564.524 113.855 569.433 116.567C574.338 119.277 577.578 122.687 579.042 126.797Z" stroke="#2563EB"/>
<path opacity="0.310345" d="M588.536 150.146C589.637 154.368 588.876 159.01 586.344 164.009C583.81 169.013 579.516 174.346 573.605 179.917C561.785 191.059 543.577 203.081 520.335 215.256C473.857 239.603 407.349 264.51 331.827 284.197C256.306 303.884 186.102 314.615 133.654 316.057C107.425 316.777 85.6656 315.174 69.91 311.221C62.0319 309.244 55.6807 306.686 51.0267 303.556C46.3761 300.429 43.446 296.75 42.3455 292.528C41.2449 288.306 42.006 283.664 44.538 278.665C47.0719 273.661 51.366 268.328 57.2764 262.757C69.097 251.615 87.3048 239.593 110.547 227.418C157.025 203.071 223.533 178.164 299.055 158.477C374.576 138.79 444.78 128.059 497.228 126.617C523.457 125.897 545.216 127.5 560.972 131.453C568.85 133.43 575.201 135.988 579.855 139.118C584.506 142.245 587.436 145.924 588.536 150.146Z" stroke="#2563EB"/>
<path opacity="0.344828" d="M595.951 174.037C596.679 178.339 595.517 182.896 592.559 187.656C589.598 192.419 584.856 197.358 578.482 202.393C565.736 212.463 546.549 222.852 522.334 232.955C473.912 253.158 405.485 272.174 328.536 285.204C251.586 298.234 180.713 302.805 128.339 299.67C102.148 298.102 80.6108 294.609 65.2596 289.297C57.5838 286.641 51.4797 283.539 47.1162 280.016C42.7559 276.495 40.1576 272.575 39.4292 268.273C38.7008 263.971 39.8635 259.414 42.8216 254.654C45.782 249.89 50.5245 244.952 56.898 239.917C69.6447 229.847 88.831 219.458 113.046 209.355C161.468 189.152 229.895 170.136 306.845 157.106C383.795 144.076 454.667 139.504 507.041 142.64C533.232 144.207 554.769 147.701 570.121 153.013C577.796 155.669 583.901 158.771 588.264 162.294C592.624 165.815 595.223 169.735 595.951 174.037Z" stroke="#2563EB"/>
<path opacity="0.37931" d="M601.25 198.287C601.601 202.636 600.045 207.075 596.683 211.559C593.319 216.046 588.164 220.552 581.376 225.013C567.8 233.933 547.782 242.611 522.778 250.565C472.779 266.471 402.956 279.45 325.163 285.724C247.371 291.998 176.37 290.375 124.468 282.687C98.5128 278.843 77.3621 273.485 62.5323 266.856C55.1172 263.541 49.3067 259.919 45.2669 256.028C41.2301 252.141 38.9833 248.009 38.6326 243.66C38.2819 239.311 39.8374 234.873 43.1991 230.389C46.5633 225.901 51.7183 221.395 58.5064 216.935C72.0821 208.014 92.1009 199.337 117.104 191.383C167.103 175.477 236.927 162.497 314.719 156.223C392.512 149.95 463.513 151.572 515.415 159.26C541.37 163.105 562.52 168.462 577.35 175.092C584.765 178.406 590.576 182.029 594.616 185.919C598.652 189.806 600.899 193.938 601.25 198.287Z" stroke="#2563EB"/>
<path opacity="0.413793" d="M604.407 222.709C604.378 227.072 602.441 231.358 598.702 235.532C594.959 239.709 589.431 243.75 582.28 247.601C567.979 255.304 547.28 262.204 521.678 267.949C470.483 279.437 399.794 286.281 321.751 285.751C243.707 285.221 173.118 277.416 122.084 265.234C96.5625 259.142 75.9593 251.961 61.7637 244.065C54.6657 240.116 49.193 236.001 45.5076 231.774C41.825 227.55 39.9469 223.237 39.9766 218.875C40.0062 214.512 41.9427 210.226 45.6824 206.052C49.4249 201.874 54.953 197.834 62.104 193.983C76.4055 186.28 97.1044 179.38 122.706 173.635C173.901 162.147 244.59 155.303 322.633 155.833C400.677 156.363 471.266 164.168 522.3 176.35C547.822 182.442 568.425 189.622 582.62 197.519C589.718 201.468 595.191 205.582 598.876 209.81C602.559 214.034 604.437 218.347 604.407 222.709Z" stroke="#2563EB"/>
<path opacity="0.448276" d="M605.417 247.118C605.007 251.461 602.704 255.562 598.615 259.394C594.523 263.229 588.663 266.772 581.204 269.986C566.285 276.413 545.064 281.483 519.059 284.975C467.058 291.957 396.041 292.614 318.341 285.284C240.641 277.954 171 264.027 121.222 247.443C96.3289 239.15 76.4298 230.201 62.9765 221.097C56.2496 216.545 51.1564 211.969 47.8535 207.436C44.553 202.907 43.058 198.448 43.4678 194.104C43.8775 189.76 46.1802 185.659 50.2695 181.827C54.3618 177.992 60.2209 174.449 67.6804 171.235C82.5989 164.808 103.82 159.738 129.825 156.247C181.827 149.265 252.843 148.607 330.543 155.937C408.244 163.267 477.884 177.195 527.663 193.778C552.556 202.072 572.455 211.02 585.908 220.124C592.635 224.676 597.728 229.253 601.031 233.785C604.331 238.315 605.826 242.774 605.417 247.118Z" stroke="#2563EB"/>
<path opacity="0.482759" d="M604.287 271.324C603.5 275.615 600.849 279.5 596.441 282.961C592.03 286.425 585.884 289.444 578.173 291.995C562.751 297.098 541.169 300.298 514.958 301.51C462.546 303.933 391.743 298.399 314.977 284.325C238.211 270.25 170.05 250.307 121.906 229.448C97.8306 219.016 78.7872 208.367 66.1786 198.126C59.874 193.004 55.199 188.002 52.3037 183.199C49.4106 178.399 48.3098 173.826 49.0966 169.535C49.8834 165.243 52.5348 161.358 56.9425 157.897C61.3535 154.434 67.4991 151.415 75.2103 148.863C90.6322 143.761 112.215 140.56 138.425 139.348C190.837 136.925 261.641 142.459 338.406 156.534C415.172 170.608 483.334 190.552 531.477 211.411C555.553 221.842 574.596 232.491 587.205 242.733C593.509 247.854 598.184 252.856 601.08 257.66C603.973 262.459 605.073 267.032 604.287 271.324Z" stroke="#2563EB"/>
<path opacity="0.517241" d="M601.044 295.143C599.886 299.35 596.907 302.989 592.214 306.053C587.518 309.119 581.133 311.59 573.228 313.46C557.42 317.199 535.641 318.506 509.425 317.429C457.001 315.275 386.949 303.591 311.702 282.88C236.456 262.169 170.291 236.36 124.149 211.384C101.074 198.894 83.0315 186.626 71.3634 175.324C65.5292 169.673 61.308 164.282 58.8424 159.245C56.3786 154.211 55.6806 149.56 56.8384 145.354C57.9962 141.147 60.976 137.508 65.6686 134.444C70.3647 131.378 76.7501 128.907 84.6543 127.037C100.462 123.298 122.242 121.99 148.458 123.068C200.882 125.222 270.933 136.906 346.18 157.617C421.427 178.328 487.591 204.137 533.734 229.113C556.808 241.602 574.851 253.871 586.519 265.172C592.353 270.823 596.575 276.215 599.04 281.252C601.504 286.285 602.202 290.937 601.044 295.143Z" stroke="#2563EB"/>
<path opacity="0.551724" d="M595.732 318.391C594.212 322.481 590.926 325.846 585.984 328.489C581.039 331.135 574.462 333.04 566.425 334.214C550.352 336.561 528.541 335.965 502.519 332.607C450.482 325.893 381.715 308.147 308.56 280.957C235.404 253.766 171.741 222.289 127.951 193.387C106.053 178.933 89.148 165.139 78.5094 152.864C73.1899 146.726 69.4546 140.987 67.4373 135.754C65.4216 130.525 65.1317 125.831 66.6517 121.741C68.1717 117.651 71.4574 114.286 76.3991 111.643C81.3446 108.998 87.9211 107.092 95.9582 105.918C112.032 103.571 133.842 104.167 159.865 107.525C211.901 114.24 280.668 131.985 353.824 159.176C426.979 186.366 490.642 217.843 534.432 246.745C556.331 261.199 573.235 274.993 583.874 287.269C589.194 293.407 592.929 299.145 594.946 304.378C596.962 309.607 597.252 314.302 595.732 318.391Z" stroke="#2563EB"/>
<path opacity="0.586207" d="M588.405 340.893C586.534 344.834 582.968 347.9 577.814 350.103C572.657 352.307 565.939 353.632 557.831 354.101C541.614 355.038 519.938 352.544 494.307 346.931C443.054 335.706 376.095 312.035 305.588 278.572C235.081 245.109 174.404 208.203 133.299 175.594C112.744 159.287 97.1056 144.072 87.5773 130.916C82.813 124.338 79.5921 118.296 78.0386 112.907C76.4863 107.522 76.6066 102.82 78.4773 98.8784C80.348 94.9368 83.9144 91.8706 89.0678 89.6681C94.2249 87.4641 100.943 86.1388 109.051 85.6701C125.268 84.7329 146.944 87.2272 172.575 92.8404C223.828 104.065 290.787 127.736 361.294 161.199C431.801 194.662 492.478 231.568 533.583 264.177C554.138 280.484 569.776 295.699 579.305 308.855C584.069 315.433 587.29 321.475 588.843 326.864C590.396 332.249 590.275 336.951 588.405 340.893Z" stroke="#2563EB"/>
<path opacity="0.62069" d="M579.138 362.472C576.93 366.236 573.11 368.979 567.785 370.724C562.455 372.47 555.647 373.205 547.529 372.965C531.292 372.486 509.916 368.112 484.872 360.286C434.792 344.637 370.151 315.22 302.829 275.739C235.506 236.259 178.276 194.205 140.171 158.138C121.115 140.101 106.862 123.581 98.5165 109.645C94.3437 102.676 91.6617 96.3762 90.5838 90.8723C89.5067 85.3725 90.0363 80.6991 92.2434 76.9356C94.4505 73.1721 98.2706 70.4284 103.596 68.6835C108.926 66.9372 115.733 66.2024 123.852 66.4423C140.089 66.922 161.465 71.2961 186.509 79.1217C236.589 94.7707 301.23 124.187 368.552 163.668C435.875 203.149 493.105 245.203 531.21 281.27C550.266 299.307 564.519 315.827 572.864 329.763C577.037 336.732 579.719 343.032 580.797 348.535C581.874 354.035 581.345 358.709 579.138 362.472Z" stroke="#2563EB"/>
<path opacity="0.655172" d="M568.019 382.964C565.492 386.521 561.447 388.921 555.99 390.196C550.528 391.471 543.683 391.609 535.616 390.663C519.482 388.77 498.569 382.549 474.303 372.571C425.777 352.617 363.946 317.678 300.321 272.48C236.695 227.282 183.349 180.4 148.531 141.149C131.12 121.52 118.361 103.821 111.262 89.21C107.712 81.9043 105.59 75.3946 104.996 69.8177C104.402 64.245 105.337 59.6356 107.864 56.0787C110.39 52.5219 114.435 50.1216 119.893 48.8475C125.354 47.5724 132.2 47.4337 140.267 48.3803C156.4 50.2733 177.313 56.4937 201.58 66.4724C250.105 86.4265 311.936 121.365 375.562 166.563C439.187 211.761 492.534 258.643 527.351 297.894C544.763 317.523 557.521 335.222 564.62 349.833C568.17 357.139 570.293 363.648 570.887 369.225C571.48 374.798 570.546 379.407 568.019 382.964Z" stroke="#2563EB"/>
<path opacity="0.689655" d="M555.148 402.214C552.321 405.537 548.083 407.575 542.535 408.369C536.983 409.163 530.151 408.705 522.198 407.059C506.291 403.767 485.999 395.747 462.695 383.692C416.093 359.584 357.542 319.39 298.098 268.818C238.655 218.247 189.597 166.894 158.333 124.758C142.698 103.686 131.531 84.9421 125.732 69.7682C122.833 62.181 121.285 55.5111 121.18 49.9036C121.074 44.3004 122.407 39.79 125.234 36.4669C128.061 33.1438 132.3 31.1051 137.848 30.3115C143.4 29.5173 150.231 29.9758 158.185 31.6218C174.092 34.9138 194.383 42.9332 217.688 54.9888C264.29 79.0963 322.84 119.291 382.284 169.862C441.728 220.434 490.786 271.787 522.05 313.923C537.684 334.994 548.852 353.738 554.65 368.912C557.55 376.5 559.097 383.17 559.203 388.777C559.309 394.38 557.976 398.891 555.148 402.214Z" stroke="#2563EB"/>
<path opacity="0.724138" d="M540.641 420.071C537.535 423.135 533.135 424.797 527.539 425.104C521.939 425.411 515.174 424.359 507.394 422.026C491.834 417.36 472.319 407.603 450.154 393.562C405.83 365.484 351.006 320.34 296.196 264.78C241.385 209.22 196.99 153.787 169.517 109.086C155.779 86.7321 146.288 67.0861 141.834 51.4645C139.607 43.6535 138.646 36.8741 139.03 31.2787C139.413 25.6876 141.134 21.3105 144.24 18.2465C147.346 15.1824 151.746 13.5209 157.342 13.2139C162.942 12.9066 169.708 13.9587 177.488 16.2917C193.047 20.9575 212.562 30.715 234.728 44.7558C279.051 72.8332 333.876 117.978 388.686 173.538C443.496 229.098 487.891 284.531 515.364 329.231C529.102 351.585 538.594 371.231 543.048 386.853C545.275 394.664 546.235 401.443 545.851 407.039C545.468 412.63 543.747 417.007 540.641 420.071Z" stroke="#2563EB"/>
<path opacity="0.758621" d="M524.627 436.4C521.266 439.182 516.738 440.453 511.137 440.272C505.531 440.09 498.883 438.452 491.336 435.45C476.242 429.445 457.652 418.024 436.795 402.105C395.087 370.271 344.406 320.52 294.646 260.395C244.887 200.269 205.492 141.178 182.02 94.2527C170.282 70.7865 162.539 50.3881 159.464 34.4377C157.926 26.4623 157.56 19.625 158.43 14.0844C159.299 8.54795 161.395 4.33754 164.756 1.55584C168.117 -1.22585 172.645 -2.49754 178.247 -2.31573C183.852 -2.13378 190.5 -0.495956 198.047 2.50624C213.141 8.51043 231.732 19.9316 252.589 35.8509C294.296 67.6844 344.978 117.436 394.737 177.561C444.496 237.687 483.891 296.778 507.363 343.703C519.101 367.169 526.844 387.568 529.92 403.518C531.458 411.493 531.823 418.331 530.954 423.871C530.085 429.408 527.989 433.618 524.627 436.4Z" stroke="#2563EB"/>
<path opacity="0.793103" d="M507.242 451.074C503.651 453.552 499.029 454.424 493.465 453.755C487.897 453.085 481.417 450.874 474.16 447.225C459.647 439.928 442.122 426.93 422.732 409.254C383.958 373.906 337.805 319.927 293.476 255.694C249.146 191.46 215.051 129.16 195.758 80.3681C186.11 55.9682 180.175 34.9725 178.501 18.8148C177.664 10.7357 177.896 3.89253 179.245 -1.55121C180.593 -6.99087 183.048 -11.0026 186.639 -13.4807C190.23 -15.9589 194.852 -16.8311 200.416 -16.1618C205.984 -15.492 212.464 -13.281 219.721 -9.63242C234.234 -2.33557 251.758 10.6624 271.149 28.3389C309.923 63.6864 356.075 117.665 400.405 181.899C444.734 246.132 478.83 308.433 498.123 357.225C507.771 381.625 513.706 402.62 515.38 418.778C516.217 426.857 515.985 433.7 514.636 439.144C513.288 444.584 510.833 448.595 507.242 451.074Z" stroke="#2563EB"/>
<path opacity="0.827586" d="M488.639 463.979C484.846 466.135 480.166 466.601 474.681 465.449C469.192 464.297 462.93 461.529 456.018 457.262C442.197 448.728 425.872 434.252 408.096 414.953C372.55 376.361 331.277 318.565 292.715 250.712C254.153 182.859 225.617 117.825 210.65 67.5368C203.165 42.3888 199.082 20.9557 198.823 4.7136C198.693 -3.40769 199.521 -10.2046 201.339 -15.51C203.156 -20.8115 205.952 -24.594 209.745 -26.7497C213.538 -28.9055 218.218 -29.3716 223.703 -28.2199C229.191 -27.0673 235.454 -24.2999 242.365 -20.0328C256.187 -11.4988 272.512 2.97707 290.288 22.2763C325.834 60.8687 367.106 118.665 405.669 186.517C444.231 254.37 472.767 319.405 487.734 369.693C495.219 394.841 499.302 416.274 499.561 432.516C499.69 440.637 498.863 447.434 497.045 452.739C495.228 458.041 492.432 461.823 488.639 463.979Z" stroke="#2563EB"/>
<path opacity="0.862069" d="M468.972 475.017C465.006 476.834 460.303 476.891 454.939 475.265C449.572 473.639 443.574 470.336 437.061 465.483C424.036 455.777 409.035 439.933 393.009 419.158C360.961 377.614 324.883 316.441 292.381 245.486C259.879 174.53 237.12 107.256 226.593 55.8551C221.329 30.1505 219.129 8.44307 220.287 -7.75977C220.865 -15.8615 222.282 -22.5604 224.556 -27.6871C226.828 -32.8101 229.942 -36.3345 233.909 -38.1515C237.876 -39.9684 242.579 -40.0248 247.942 -38.3995C253.309 -36.7729 259.307 -33.4702 265.82 -28.617C278.846 -18.9108 293.847 -3.06726 309.873 17.7078C341.92 59.2514 377.998 120.425 410.5 191.38C443.002 262.335 465.761 329.61 476.288 381.011C481.553 406.715 483.752 428.423 482.595 444.626C482.016 452.727 480.6 459.426 478.326 464.553C476.053 469.676 472.939 473.2 468.972 475.017Z" stroke="#2563EB"/>
<path opacity="0.896552" d="M448.412 484.104C444.302 485.568 439.612 485.215 434.411 483.128C429.206 481.04 423.519 477.227 417.454 471.825C405.324 461.02 391.76 443.929 377.606 421.837C349.301 377.658 318.692 313.573 292.498 240.055C266.304 166.537 249.495 97.5352 243.488 45.4121C240.484 19.3465 240.184 -2.47004 242.75 -18.5103C244.032 -26.5308 246.027 -33.0807 248.739 -37.9898C251.45 -42.8952 254.859 -46.1348 258.969 -47.5991C263.079 -49.0635 267.769 -48.7097 272.97 -46.6231C278.175 -44.535 283.863 -40.7221 289.928 -35.3197C302.058 -24.5152 315.621 -7.4245 329.775 14.6683C358.08 58.8469 388.689 122.932 414.883 196.45C441.077 269.968 457.886 338.97 463.894 391.093C466.898 417.158 467.197 438.975 464.632 455.015C463.349 463.036 461.354 469.586 458.642 474.495C455.932 479.4 452.522 482.64 448.412 484.104Z" stroke="#2563EB"/>
<path opacity="0.931035" d="M427.131 491.165C422.909 492.266 418.268 491.505 413.268 488.973C408.265 486.439 402.931 482.145 397.36 476.234C386.218 464.414 374.196 446.206 362.021 422.964C337.675 376.486 312.767 309.977 293.08 234.456C273.393 158.935 262.662 88.7306 261.221 36.2824C260.5 10.0541 262.103 -11.7055 266.057 -27.4612C268.033 -35.3393 270.592 -41.6905 273.721 -46.3445C276.849 -50.995 280.528 -53.9251 284.75 -55.0257C288.971 -56.1262 293.613 -55.3651 298.612 -52.8331C303.616 -50.2992 308.949 -46.0052 314.52 -40.0947C325.662 -28.2742 337.684 -10.0664 349.86 13.1759C374.206 59.6533 399.113 126.162 418.8 201.683C438.487 277.205 449.218 347.409 450.66 399.857C451.381 426.085 449.777 447.845 445.824 463.601C443.847 471.479 441.289 477.83 438.159 482.484C435.032 487.135 431.353 490.065 427.131 491.165Z" stroke="#2563EB"/>
<path opacity="0.965517" d="M405.308 496.15C401.006 496.879 396.449 495.716 391.689 492.758C386.926 489.797 381.987 485.055 376.952 478.681C366.882 465.935 356.493 446.748 346.39 422.533C326.187 374.111 307.171 305.684 294.141 228.735C281.111 151.785 276.54 80.9126 279.675 28.5383C281.243 2.34703 284.736 -19.1901 290.048 -34.5412C292.704 -42.217 295.806 -48.3211 299.329 -52.6846C302.85 -57.0449 306.77 -59.6432 311.072 -60.3716C315.374 -61.1 319.931 -59.9373 324.691 -56.9792C329.455 -54.0189 334.393 -49.2763 339.428 -42.9028C349.498 -30.1561 359.887 -10.9698 369.99 13.2452C390.193 61.6677 409.209 130.094 422.239 207.044C435.269 283.994 439.841 354.866 436.705 407.24C435.138 433.432 431.644 454.969 426.332 470.32C423.676 477.996 420.574 484.1 417.051 488.463C413.53 492.824 409.61 495.422 405.308 496.15Z" stroke="#2563EB"/>
<path d="M383.126 499.016C378.777 499.367 374.339 497.811 369.855 494.449C365.367 491.085 360.861 485.93 356.4 479.142C347.48 465.566 338.803 445.548 330.848 420.544C314.942 370.545 301.963 300.722 295.689 222.929C289.415 145.137 291.038 74.1355 298.726 22.2338C302.571 -3.72119 307.928 -24.8718 314.557 -39.7016C317.872 -47.1168 321.494 -52.9272 325.385 -56.9671C329.272 -61.0039 333.404 -63.2506 337.753 -63.6013C342.102 -63.9521 346.54 -62.3965 351.024 -59.0348C355.512 -55.6706 360.018 -50.5157 364.479 -43.7276C373.399 -30.1518 382.076 -10.1331 390.031 14.8704C405.936 64.8694 418.916 134.693 425.19 212.485C431.463 290.278 429.841 361.279 422.153 413.181C418.308 439.136 412.951 460.286 406.321 475.116C403.007 482.531 399.384 488.342 395.494 492.382C391.607 496.418 387.475 498.665 383.126 499.016Z" stroke="#2563EB"/>
</svg>
